<?xml version="1.0" standalone="no"?>
<!DOCTYPE svg PUBLIC "-//W3C//DTD SVG 1.1//EN" "http://www.w3.org/Graphics/SVG/1.1/DTD/svg11.dtd" >
<svg>
<metadata>
Created by FontForge 20120731 at Sun Jun 30 12:58:59 2019
 By www
Copyright (c) 2008 Typodermic Fonts. This font is not freely distributable. Visit typodermic.com for more info.
</metadata>
<defs>
<font id="SynthemescW00-Regular" horiz-adv-x="600" >
  <font-face 
    font-family="SynthemescW00-Regular"
    font-weight="400"
    font-stretch="normal"
    units-per-em="1000"
    panose-1="2 0 5 4 5 0 0 2 0 4"
    ascent="800"
    descent="-200"
    x-height="662"
    cap-height="665"
    bbox="-91 -217 980 890"
    underline-thickness="50"
    underline-position="-125"
    unicode-range="U+000D-2212"
  />
<missing-glyph horiz-adv-x="453" 
d="M14 646h425v-646h-425v646zM365 68v512h-273v-512h273z" />
    <glyph glyph-name=".notdef" horiz-adv-x="453" 
d="M14 646h425v-646h-425v646zM365 68v512h-273v-512h273z" />
    <glyph glyph-name="glyph1" horiz-adv-x="0" 
 />
    <glyph glyph-name="glyph1" horiz-adv-x="0" 
 />
    <glyph glyph-name="uni000D" unicode="&#xd;" horiz-adv-x="211" 
 />
    <glyph glyph-name="space" unicode=" " horiz-adv-x="211" 
 />
    <glyph glyph-name="exclam" unicode="!" horiz-adv-x="286" 
d="M140 691q44 0 70.5 -7.5t41 -20t19 -28.5t4.5 -33q0 -18 -10.5 -35t-22.5 -37.5t-22.5 -47.5t-10.5 -66q0 -23 6.5 -52.5t6.5 -57.5q0 -33 -18 -56t-57 -23q-38 0 -53 23t-15 50q0 20 3 44t3 56q0 25 -11.5 48.5t-26 47.5t-26 50t-11.5 56q0 51 33.5 70t96.5 19zM155 184
q7 0 25.5 -4t37 -14.5t33 -29t14.5 -48.5q0 -19 -8.5 -36.5t-24 -30.5t-39 -21t-53.5 -8q-21 0 -39.5 6.5t-32.5 18t-22.5 28t-8.5 36.5q0 19 6.5 38t20.5 33t36.5 23t54.5 9z" />
    <glyph glyph-name="quotedbl" unicode="&#x22;" horiz-adv-x="324" 
d="M82 658q36 -2 49 -26t13 -69q0 -39 -6.5 -73.5t-16 -60.5t-21.5 -41.5t-23 -15.5q-15 0 -27.5 18t-20.5 48.5t-12.5 70t-4.5 83.5q0 37 20.5 51.5t49.5 14.5zM250 658q29 0 45.5 -17t16.5 -43q0 -42 -4 -82t-12 -71.5t-20 -51t-28 -19.5q-17 0 -29.5 17.5t-20.5 47.5
t-12.5 69t-4.5 83q0 39 19 53t50 14z" />
    <glyph glyph-name="numbersign" unicode="#" horiz-adv-x="623" 
d="M493 646q31 -2 45.5 -19t14.5 -32q0 -12 -5.5 -23.5t-12 -23t-12 -22t-5.5 -20.5t8 -19t24 -9q8 0 17.5 1.5t17.5 1.5q13 0 22 -9.5t9 -36.5q0 -21 -12 -35.5t-29 -14.5t-34.5 9t-35.5 9q-21 0 -35.5 -18.5t-14.5 -40.5q0 -23 4 -35t10 -18t12 -7t10 -1q14 0 28.5 5
t28.5 5q16 0 26.5 -11.5t10.5 -30.5q0 -35 -14 -49.5t-28 -14.5q-17 0 -36 7.5t-39 7.5q-26 0 -37.5 -12.5t-15.5 -31t-4.5 -40.5t-4 -40.5t-14 -31t-34.5 -12.5q-35 0 -46.5 17t-11.5 40q0 18 3 37t3 35q0 37 -36 37q-28 0 -41 -12.5t-18.5 -31.5t-6.5 -41.5t-5.5 -41.5
t-15.5 -31.5t-35 -12.5q-19 0 -31.5 5t-20 12t-11 15t-3.5 15q0 12 5.5 24t12.5 24t12.5 23t5.5 22q0 9 -6 17.5t-23 8.5q-8 0 -18 -1t-20 -1q-44 0 -44 48q0 34 11 47.5t31 13.5q17 0 38.5 -4.5t41.5 -4.5q10 0 20.5 2.5t18.5 9.5t13 19.5t5 32.5q0 23 -10 32.5t-30 9.5
q-13 0 -27 -2.5t-28 -2.5q-17 0 -29 10t-12 43q0 23 14 34t35 11q15 0 31.5 -3t32.5 -3q25 0 35 12.5t13 31.5t3 40.5t4.5 40.5t17 31.5t41.5 12.5q10 0 21.5 -2.5t21.5 -9t17 -16.5t7 -25q0 -18 -3.5 -33t-8 -27t-8 -22t-3.5 -18q0 -11 9 -19t34 -8q26 0 37.5 12.5
t15.5 31.5t4.5 41.5t6 41.5t20 31.5t45.5 12.5zM333 404q-21 0 -35.5 -6.5t-24.5 -16t-14.5 -21.5t-4.5 -23q0 -28 14.5 -38t32.5 -10q23 0 38.5 6t25 15.5t13.5 20.5t4 22q0 22 -11.5 36.5t-37.5 14.5z" />
    <glyph glyph-name="dollar" unicode="$" horiz-adv-x="356" 
d="M192 659q17 -2 30.5 -7t13.5 -22q0 -12 -6.5 -25t-6.5 -24q0 -15 17 -18t37.5 -5.5t37.5 -11t17 -36.5t-14 -47.5t-28 -19.5q-17 0 -23.5 7.5t-12.5 16t-18.5 16t-41.5 7.5q-17 0 -33 -11.5t-16 -34.5q0 -26 15 -40t38 -23t49.5 -17.5t49.5 -24t38 -41.5t15 -71
q0 -35 -13.5 -56.5t-31.5 -35t-36.5 -22t-28.5 -18.5q-12 -12 -12.5 -31t-2 -38t-9 -32.5t-32.5 -13.5q-22 0 -34 4.5t-18 10t-7 11t-1 8.5q0 13 5.5 27t5.5 26q0 15 -9.5 19.5t-24 5.5t-31.5 0.5t-31.5 3.5t-24 15t-9.5 35q0 22 11 39.5t32 17.5q12 0 25.5 -5.5t27 -12
t27.5 -12t27 -5.5q36 0 56 9t20 34q0 29 -15 46.5t-38 29.5t-49 22.5t-49 26.5t-38 41t-15 66q0 30 8.5 48.5t21 29.5t27.5 17t27.5 10.5t21 9t8.5 13.5q0 10 -6 23t-6 26q0 14 14 26.5t49 12.5z" />
    <glyph glyph-name="percent" unicode="%" horiz-adv-x="710" 
d="M173 672q40 0 70 -16.5t49.5 -42t29 -57t9.5 -61.5q0 -39 -12 -74.5t-34.5 -62.5t-54 -43t-70.5 -16q-36 0 -63.5 14.5t-46.5 40t-29 60t-10 75.5q0 88 42 135.5t120 47.5zM191 593q-32 0 -47 -17t-15 -36q0 -23 14.5 -40.5t40.5 -17.5q27 0 42.5 21t15.5 44
q0 20 -12.5 33t-38.5 13zM560 364q74 0 106.5 -45.5t32.5 -124.5q0 -33 -8.5 -69t-26.5 -65t-46 -48t-67 -19q-33 0 -61 16.5t-48 43.5t-31.5 62t-11.5 72q0 36 10.5 68t31 56.5t50.5 38.5t69 14zM550 191q-37 0 -53 -13t-16 -45q0 -22 13.5 -40t44.5 -18q26 0 45 14.5
t19 49.5q0 16 -12.5 34t-40.5 18zM589 672q22 0 38 -9t16 -30q0 -18 -13.5 -42.5t-34.5 -51t-47 -54.5t-51.5 -53.5t-46.5 -47.5t-33 -37q-16 -20 -35 -55t-41 -76.5t-46.5 -83.5t-51 -76.5t-54 -56.5t-55.5 -22q-30 0 -42 15t-12 32q0 16 7.5 34t18 36t22.5 34.5t21 28.5
q22 30 46.5 57.5t49.5 54.5t49.5 54t46.5 57q17 23 33.5 54t33.5 63t35.5 63.5t40.5 56.5t47.5 40t57.5 15z" />
    <glyph glyph-name="ampersand" unicode="&#x26;" horiz-adv-x="669" 
d="M104 510q0 32 15.5 59t40.5 46t56 29.5t62 10.5q28 0 55 -10t48 -29.5t34 -47t13 -61.5q0 -35 -13 -58t-29 -39.5t-29 -30.5t-13 -32q0 -15 17 -37.5t40.5 -44t48 -37t40.5 -15.5q9 0 12 5.5t3 16.5q0 19 -6 47t-6 56q0 17 4 32t14 26t27.5 17.5t43.5 6.5q35 0 57.5 -19
t22.5 -57q0 -19 -6.5 -32t-16 -23.5t-22 -20t-24.5 -22.5q-17 -18 -27 -36.5t-10 -35.5q0 -14 7.5 -21t18.5 -11t24 -8t24 -11t18.5 -20t7.5 -35q0 -25 -7.5 -43t-19.5 -30t-27 -17.5t-30 -5.5q-28 0 -44.5 9t-25.5 22.5t-11.5 30.5t-2.5 34q0 15 1 28.5t1 24.5q0 25 -14 25
q-17 0 -31 -12.5t-27.5 -31.5t-28 -41t-33.5 -41q-24 -24 -55 -35t-66 -11q-41 0 -81 14.5t-72.5 40t-52.5 60t-20 75.5q0 36 15 71t45 64q25 24 47 45.5t22 42.5q0 7 -5.5 19.5t-11.5 28.5t-11.5 35t-5.5 40zM310 434q0 19 -20 27.5t-38 8.5t-34 -7.5t-16 -23.5
q0 -19 18.5 -31t38.5 -12q18 0 34.5 10.5t16.5 27.5zM334 205q0 15 -8.5 34.5t-22 37t-31 29.5t-34.5 12q-11 0 -19 -6.5t-13 -15.5t-7.5 -20t-2.5 -20q0 -27 9 -45t22 -29t27.5 -15.5t25.5 -4.5q32 0 43 13.5t11 29.5z" />
    <glyph glyph-name="quotesingle" unicode="'" horiz-adv-x="153" 
d="M80 658q35 0 49 -25t14 -70q0 -38 -6 -72.5t-16 -60.5t-21.5 -42t-22.5 -16q-16 0 -28.5 18t-21 48.5t-13 70.5t-4.5 84q0 20 6 32.5t16 20t22.5 10t25.5 2.5z" />
    <glyph glyph-name="parenleft" unicode="(" horiz-adv-x="276" 
d="M199 693q27 -2 39 -17.5t12 -32.5q0 -27 -10.5 -40.5t-26.5 -25t-35 -27t-35 -45.5t-26.5 -80.5t-10.5 -131.5t12 -131.5t29.5 -80.5t38.5 -45.5t38.5 -26t29.5 -22.5t12 -35q0 -30 -21.5 -51t-53.5 -21q-34 0 -60.5 22.5t-47 59t-34.5 82t-23.5 91.5t-13.5 87.5t-4 69.5
q0 26 3 66t11.5 84t22 88.5t35 80.5t51 58.5t68.5 23.5z" />
    <glyph glyph-name="parenright" unicode=")" horiz-adv-x="276" 
d="M79 -120q-27 0 -40 16.5t-13 33.5q0 26 10.5 40t27 26.5t35 29t35 46.5t27 79t10.5 128q0 81 -12 131.5t-30 80.5t-38.5 45.5t-38.5 26.5t-30 22.5t-12 35.5q0 30 21.5 50.5t53.5 20.5q35 0 62 -22.5t47.5 -59t34.5 -82t22.5 -91t12.5 -86.5t4 -69q0 -27 -3 -67
t-11 -84.5t-21.5 -89.5t-34.5 -80.5t-50.5 -58t-68.5 -22.5z" />
    <glyph glyph-name="asterisk" unicode="*" horiz-adv-x="467" 
d="M231 666q9 0 22.5 -2.5t25.5 -8t20.5 -15t8.5 -22.5q0 -11 -6.5 -21.5t-14.5 -21t-14.5 -20.5t-6.5 -20q0 -9 8 -18.5t22 -9.5q18 0 28 10t20.5 22t25 22t41.5 10q20 0 34.5 -17.5t14.5 -51.5q0 -23 -11 -44t-34 -21q-17 0 -35.5 7.5t-34.5 7.5q-11 0 -19 -7.5t-8 -18.5
q0 -15 13 -24.5t29 -19t29 -23t13 -35.5q0 -14 -6.5 -28t-17.5 -25t-25 -18t-30 -7q-17 0 -27 8.5t-15.5 21.5t-9 28.5t-8 28.5t-11.5 21.5t-19 8.5q-20 0 -28.5 -18.5t-15.5 -41t-18 -41t-35 -18.5q-12 0 -26 6t-26.5 16.5t-20.5 24.5t-8 31q0 25 14.5 35.5t32 18t32 16.5
t14.5 30q0 29 -29 29q-14 0 -31.5 -4.5t-34.5 -4.5q-20 0 -33 13t-13 39q0 29 18 51.5t42 22.5q19 0 31.5 -9.5t23 -21t21 -21t26.5 -9.5q10 0 17 7.5t7 17.5q0 13 -6.5 21.5t-15 16.5t-15 18t-6.5 27q0 28 24.5 39.5t56.5 11.5z" />
    <glyph glyph-name="plus" unicode="+" horiz-adv-x="454" 
d="M227 545q38 -2 52 -18t14 -35q0 -11 -3.5 -23t-8 -24t-8 -23.5t-3.5 -21.5q0 -15 10.5 -26t30.5 -11q22 0 48.5 7.5t49.5 7.5q42 0 42 -44q0 -20 -4 -32.5t-10.5 -19.5t-14.5 -9.5t-16 -2.5q-22 0 -48 8.5t-47 8.5q-17 0 -26.5 -9.5t-11.5 -39.5q0 -10 8.5 -34.5
t8.5 -49.5q0 -26 -14.5 -40.5t-48.5 -14.5q-33 0 -49 13.5t-16 36.5q0 20 7.5 39.5t7.5 29.5q0 43 -12.5 55.5t-31.5 12.5q-20 0 -42.5 -7t-41.5 -7q-16 0 -30.5 12t-14.5 53q0 18 8.5 30.5t29.5 12.5t47.5 -8.5t48.5 -8.5q21 0 31 12t10 26q0 10 -4 21t-9 22.5t-9 23
t-4 22.5q0 21 20 38t54 17z" />
    <glyph glyph-name="comma" unicode="," horiz-adv-x="195" 
d="M51 -88q0 19 -6.5 33.5t-15 30.5t-15 35.5t-6.5 48.5q0 11 5.5 23.5t16 23t26 17.5t35.5 7q22 0 40 -11t30 -28.5t18.5 -40t6.5 -45.5q0 -29 -9 -58.5t-24 -54t-34.5 -40t-40.5 -15.5q-16 0 -23.5 10.5t-7.5 24.5q0 10 2 20.5t2 18.5z" />
    <glyph glyph-name="hyphen" unicode="-" horiz-adv-x="289" 
d="M229 313q23 0 35.5 -18.5t12.5 -39.5q0 -23 -13.5 -36.5t-33.5 -13.5t-43 7.5t-45 7.5q-18 0 -39.5 -8.5t-41.5 -8.5q-16 0 -32 12t-16 44q0 23 15 38.5t38 15.5q18 0 36.5 -6t33.5 -6q17 0 29 2t22 4t19.5 4t22.5 2z" />
    <glyph glyph-name="period" unicode="." horiz-adv-x="248" 
d="M128 184q7 0 25.5 -4t37 -14.5t33 -29t14.5 -48.5q0 -19 -8.5 -36.5t-24 -30.5t-39 -21t-53.5 -8q-21 0 -39.5 6.5t-32.5 18t-22.5 28t-8.5 36.5q0 19 6.5 38t20.5 33t36.5 23t54.5 9z" />
    <glyph glyph-name="slash" unicode="/" horiz-adv-x="461" 
d="M395 659q34 -2 49 -12t15 -34q0 -20 -8 -39.5t-17 -30.5q-49 -60 -96.5 -119t-79.5 -128q-20 -43 -41.5 -96.5t-46 -101t-52 -79.5t-60.5 -32q-30 0 -42.5 14t-12.5 34q0 41 22 77t52 71.5t62 71t52 76.5q11 23 21.5 56.5t22.5 70t26.5 72.5t33.5 64.5t43.5 46.5t56.5 18
z" />
    <glyph glyph-name="zero" unicode="0" horiz-adv-x="567" 
d="M308 666q55 0 100.5 -22t78.5 -64.5t51.5 -103.5t18.5 -139q0 -56 -16.5 -117.5t-50 -112.5t-86 -84.5t-124.5 -33.5q-77 0 -129 27.5t-83.5 72t-44.5 101.5t-13 116q0 94 18 162t55 111.5t93 64.5t132 22zM243 527q-20 0 -34.5 -13.5t-24.5 -35t-14.5 -49t-4.5 -55.5
t4 -54t12.5 -45.5t21.5 -31.5t30 -12q23 0 40.5 12.5t29 33t17.5 47t6 54.5t-5 54.5t-15.5 47.5t-26 34t-36.5 13z" />
    <glyph glyph-name="one" unicode="1" horiz-adv-x="350" 
d="M251 669q43 0 58.5 -24.5t15.5 -58.5q0 -24 -5 -54t-10.5 -65.5t-10.5 -75.5t-5 -85q0 -30 7 -50t15 -39.5t15 -45.5t7 -68q0 -26 -6 -47t-20 -36t-37.5 -23t-58.5 -8q-57 0 -92 31.5t-35 82.5q0 40 12 67.5t26.5 54.5t26.5 58.5t12 78.5q0 13 -0.5 34.5t-3.5 42t-9.5 35
t-18.5 14.5q-7 0 -14.5 -4.5t-15.5 -9.5t-17.5 -9.5t-20.5 -4.5q-8 0 -19 4.5t-20.5 13.5t-16 21.5t-6.5 29.5q0 30 11.5 43.5t30.5 20t42.5 11t46.5 15.5q21 10 34 19t24.5 16t24 11t33.5 4z" />
    <glyph glyph-name="two" unicode="2" horiz-adv-x="545" 
d="M27 528q0 40 22 68.5t56 45.5t73 25t74 8q54 0 99 -13.5t77.5 -38.5t50.5 -60t18 -78q0 -54 -26 -107t-71 -98q-11 -11 -33.5 -28t-45 -37t-40 -40.5t-17.5 -38.5q0 -14 12 -23t23 -9q16 0 34.5 11t38.5 24.5t41 25t42 11.5q15 0 29.5 -7.5t26 -20t18.5 -28.5t7 -33
q0 -15 -6 -31t-17 -29t-27.5 -21.5t-37.5 -8.5q-16 0 -33.5 3t-35.5 7t-36 7t-35 3q-19 0 -42 -4t-48 -8.5t-50.5 -8t-49.5 -3.5q-21 0 -40.5 4.5t-34.5 15t-23.5 26.5t-8.5 40q0 34 15.5 69.5t35.5 55.5q25 25 63.5 50.5t75 56.5t63 68.5t26.5 85.5q0 33 -21.5 53.5
t-53.5 20.5q-20 0 -40.5 -5.5t-37.5 -12.5t-29 -13.5t-16 -7.5q-6 -2 -15.5 -5t-18.5 -3q-17 0 -24 11t-7 25z" />
    <glyph glyph-name="three" unicode="3" horiz-adv-x="522" 
d="M253 665q52 0 94.5 -11t73 -33t47 -53.5t16.5 -71.5q0 -44 -11.5 -68.5t-25 -39.5t-25 -25t-11.5 -23q0 -14 14 -23t31 -23.5t31 -41t14 -75.5q0 -51 -18 -87t-50 -59t-75 -34t-93 -11q-54 0 -100 15t-79 39.5t-51.5 55.5t-18.5 64q0 24 16 38.5t34 14.5q7 0 15.5 -8
t25 -18t44.5 -18t73 -8t60.5 18.5t15.5 44.5q0 19 -8.5 30t-21 16.5t-27.5 8.5l-27.5 5.5t-21 7.5t-8.5 15t8.5 14.5t21 7.5t27 6.5t27 12t21 24t8.5 42.5q0 49 -20 75.5t-55 26.5q-49 0 -75.5 -6.5t-43.5 -17.5q-10 -7 -19 -12.5t-20 -5.5q-19 0 -19 22q0 30 15 60t42 54
t65 39.5t84 15.5z" />
    <glyph glyph-name="four" unicode="4" horiz-adv-x="583" 
d="M420 665q33 0 56.5 -14.5t23.5 -48.5q0 -19 -5.5 -42t-12 -49.5t-12 -55.5t-5.5 -59q0 -15 1 -29.5t5 -26t10.5 -18.5t17.5 -7q10 0 20.5 4.5t21.5 4.5q21 0 30.5 -26.5t9.5 -61.5q0 -39 -9 -59.5t-23 -30.5t-30 -12.5t-30 -5.5t-23 -9.5t-9 -24.5q0 -11 3.5 -23.5
t3.5 -23.5q0 -15 -9 -25.5t-22 -16.5t-28 -9t-28 -3q-27 0 -44 3.5t-26.5 9.5t-12.5 13.5t-3 15.5q0 17 7 37t7 36q0 21 -17.5 29t-35.5 8q-20 0 -42 -5t-45.5 -11.5t-47 -11.5t-44.5 -5q-29 0 -52.5 15.5t-23.5 46.5q0 27 17.5 58.5t42 63t51 61t44.5 53.5q22 29 38 57
t30 53t27.5 47t30.5 39q27 27 66.5 43t75.5 16zM362 423q0 8 -1 17.5t-5 18t-10.5 14t-17.5 5.5q-20 0 -40 -14.5t-36.5 -34.5t-27 -40.5t-10.5 -33.5q0 -16 16 -27.5t52 -11.5q37 0 58.5 25t21.5 82z" />
    <glyph glyph-name="five" unicode="5" horiz-adv-x="515" 
d="M437 645q36 0 49.5 -22t13.5 -52q0 -57 -24.5 -90.5t-62.5 -33.5q-37 0 -60.5 10t-43.5 22.5t-41 22.5t-53 10q-14 0 -26.5 -4.5t-16.5 -7.5q-4 -4 -9.5 -20.5t-5.5 -33.5q0 -14 6 -23t20 -9t38.5 5.5t69.5 5.5q41 0 79.5 -14t68 -40t47.5 -62.5t18 -81.5t-20 -89.5
t-56.5 -79.5t-87.5 -57t-114 -22q-36 0 -74 11.5t-69.5 34.5t-52 58.5t-20.5 82.5q0 10 1.5 22t5 22.5t10.5 17t18 6.5q17 0 26.5 -14t21.5 -26q17 -17 35.5 -24t37.5 -7q21 0 41 8t36 22t25.5 32t9.5 38q0 10 -4 23.5t-13 25t-23.5 19.5t-35.5 8q-26 0 -45.5 -6.5t-35 -15
t-28.5 -15t-25 -6.5q-13 0 -24.5 11t-11.5 28q0 13 5 27.5t11 29.5t11 31t5 31q0 23 -4.5 49t-4.5 52q0 18 5 35t15.5 30.5t25.5 21.5t36 8q16 0 32.5 -3.5t33.5 -7.5t33.5 -7.5t31.5 -3.5q31 0 53.5 2.5t41 6t36 6t38.5 2.5z" />
    <glyph glyph-name="six" unicode="6" horiz-adv-x="557" 
d="M319 665q48 0 84 -14.5t61 -36.5t37.5 -48t12.5 -48q0 -13 -6.5 -17.5t-17.5 -4.5t-24 9t-32.5 20t-47 20t-66.5 9q-20 0 -42.5 -8t-42.5 -23.5t-33 -38t-13 -51.5q0 -14 9.5 -20t19.5 -6q11 0 24.5 5t29.5 11t35 11t42 5q45 0 81 -19t60.5 -48t37.5 -64t13 -68
q0 -60 -21 -107t-57.5 -78.5t-85 -48t-103.5 -16.5q-68 0 -117.5 25.5t-82 69.5t-48.5 101.5t-16 122.5q0 73 17.5 138t55 113.5t96 76.5t140.5 28zM247 347q-48 0 -75 -21t-27 -50q0 -13 6.5 -27t18.5 -26t29 -19.5t37 -7.5t36.5 8t28 20t18 26.5t6.5 26.5q0 31 -23.5 50.5
t-54.5 19.5z" />
    <glyph glyph-name="seven" unicode="7" horiz-adv-x="505" 
d="M3 578q0 42 24 69.5t72 27.5q20 0 41.5 -3.5t42.5 -7t41 -7t38 -3.5q20 0 42.5 2.5t45 5.5t44.5 5.5t40 2.5q35 0 52 -14t17 -37q0 -27 -21 -60.5t-49 -69.5t-56 -71.5t-41 -66.5q-12 -29 -17.5 -61t-8.5 -65t-6 -65.5t-10 -60.5q-15 -60 -50 -85.5t-89 -25.5
q-20 0 -39 7t-34 21t-24.5 35t-9.5 49q0 52 20 84t46 55q27 24 57.5 48t53.5 45q13 12 24.5 30.5t20.5 39.5t14 42.5t5 39.5q0 29 -15.5 43t-38.5 14q-15 0 -32 -7.5t-31 -21.5q-13 -13 -33 -24t-45 -11q-16 0 -32 7t-29 20t-21.5 32t-8.5 42z" />
    <glyph glyph-name="eight" unicode="8" horiz-adv-x="508" 
d="M35 493q0 42 21.5 73.5t55.5 52.5t75 31t79 10q42 0 81.5 -12t70 -33t49 -50.5t18.5 -63.5q0 -38 -14 -62.5t-30.5 -41.5t-30.5 -29t-14 -25q0 -8 6.5 -14t17 -12.5t22.5 -14.5t23 -19q17 -18 25 -39.5t8 -44.5q0 -47 -17.5 -86t-51 -67.5t-82.5 -44.5t-112 -16
q-42 0 -82 13t-72 38t-51.5 62t-19.5 84q0 26 9.5 50.5t30.5 45.5q12 11 24.5 19t23 14.5t17.5 12t7 11.5q0 8 -10 19q-11 10 -24.5 21.5t-25 27.5t-19.5 38t-8 52zM326 456q-7 8 -19 11.5t-25 3.5q-23 0 -40 -11t-17 -34q0 -26 16.5 -42.5t37.5 -16.5q31 0 45.5 18t14.5 35
q0 11 -4 21t-9 15zM270 269q-9 9 -23 13.5t-28 4.5q-26 0 -47 -14t-21 -43q0 -28 20 -43t43 -15q17 0 30.5 6t22.5 15t14 19.5t5 19.5q0 20 -16 37z" />
    <glyph glyph-name="nine" unicode="9" horiz-adv-x="551" 
d="M232 -10q-48 0 -84 14.5t-61 36.5t-37.5 47.5t-12.5 48.5q0 13 6.5 17.5t17.5 4.5t24 -9t32.5 -20t47 -20t66.5 -9q19 0 42 8t43 23.5t33 38t13 51.5q0 14 -9.5 20t-19.5 6q-11 0 -24.5 -5t-29.5 -11t-35.5 -11t-41.5 -5q-45 0 -81 19t-60.5 48t-37.5 64t-13 68
q0 60 21 107t57.5 78.5t85 48t103.5 16.5q67 0 117 -25.5t82.5 -69.5t48.5 -102t16 -122q0 -74 -17.5 -138.5t-55 -113t-96 -76.5t-140.5 -28zM304 308q48 0 75 21t27 50q0 13 -6.5 27t-18.5 26t-29 19.5t-37 7.5t-36.5 -8t-28 -20t-18 -26.5t-6.5 -26.5q0 -31 23.5 -50.5
t54.5 -19.5z" />
    <glyph glyph-name="colon" unicode=":" horiz-adv-x="249" 
d="M129 284q7 0 25.5 -4t37 -14.5t33 -29t14.5 -48.5q0 -19 -8.5 -36.5t-24 -30.5t-39 -21t-53.5 -8q-21 0 -39.5 6.5t-32.5 18t-22.5 28t-8.5 36.5q0 19 6.5 38t20.5 33t36.5 23t54.5 9zM129 584q7 0 25.5 -4t37 -14.5t33 -29t14.5 -48.5q0 -19 -8.5 -36.5t-24 -30.5
t-39 -21t-53.5 -8q-21 0 -39.5 6.5t-32.5 18t-22.5 28t-8.5 36.5q0 19 6.5 38t20.5 33t36.5 23t54.5 9z" />
    <glyph glyph-name="semicolon" unicode=";" horiz-adv-x="243" 
d="M72 -88q0 19 -6.5 33.5t-15 30.5t-15 35.5t-6.5 48.5q0 11 5.5 23.5t16 23t26 17.5t35.5 7q22 0 40 -11t30 -28.5t18.5 -40t6.5 -45.5q0 -29 -9 -58.5t-24 -54t-34.5 -40t-40.5 -15.5q-16 0 -23.5 10.5t-7.5 24.5q0 10 2 20.5t2 18.5zM126 464q7 0 25.5 -4t37 -14.5
t33 -29t14.5 -48.5q0 -19 -8.5 -36.5t-24 -30.5t-39 -21t-53.5 -8q-21 0 -39.5 6.5t-32.5 18t-22.5 28t-8.5 36.5q0 19 6.5 38t20.5 33t36.5 23t54.5 9z" />
    <glyph glyph-name="less" unicode="&#x3c;" horiz-adv-x="422" 
d="M366 536q23 -2 33 -14t10 -31q0 -32 -20 -52t-50 -33t-65.5 -21.5t-65.5 -17t-50 -19t-20 -28.5q0 -13 19.5 -21.5t49 -16t63.5 -16t63.5 -22.5t49 -34.5t19.5 -51.5q0 -28 -15.5 -41.5t-38.5 -13.5q-27 0 -45 8.5t-37 23.5t-42.5 35t-60.5 43q-24 15 -52 23.5
t-52.5 17.5t-40.5 23t-16 40q0 23 18.5 39.5t45.5 29t57 23.5t53 23q49 26 74 45.5t41.5 32.5t31.5 19.5t43 6.5z" />
    <glyph glyph-name="equal" unicode="=" horiz-adv-x="512" 
d="M409 297q45 -2 67 -18.5t22 -36.5q0 -26 -25.5 -37t-57.5 -11q-35 0 -77 6t-84 6q-32 0 -72 -8t-77 -8q-15 0 -30 2.5t-28 9t-21 17t-8 26.5q0 15 9 25t23 16.5t30 9t30 2.5q35 0 71.5 -6.5t63.5 -6.5q30 0 51 2t39 4t35 4t39 2zM101 372q-42 0 -65.5 16.5t-23.5 37.5
q0 13 7 22t18.5 15t25.5 8.5t29 2.5q38 0 84 -8.5t90 -8.5q16 0 35 3.5t38.5 8t39 8t38.5 3.5q12 0 26.5 -3t27 -10t21 -18t8.5 -27q0 -15 -9 -25t-23 -16t-30.5 -8.5t-32.5 -2.5q-36 0 -74 6.5t-66 6.5q-30 0 -51 -1.5t-38.5 -4t-35 -4t-39.5 -1.5z" />
    <glyph glyph-name="greater" unicode="&#x3e;" horiz-adv-x="423" 
d="M56 103q-20 0 -31.5 13t-11.5 33q0 32 20 52t50.5 33t65.5 21.5t65.5 17t50.5 19t20 27.5q0 13 -19.5 21.5t-49.5 16l-64 16t-64 22t-49.5 34t-19.5 52.5q0 28 15 40.5t40 14.5q27 0 45 -9t36.5 -24t42 -34.5t61.5 -41.5q25 -15 53.5 -24t52.5 -18.5t40 -24t16 -39.5
q0 -24 -19 -40t-46 -28.5t-57.5 -22.5t-52.5 -22q-49 -26 -75 -46t-42.5 -33t-31 -19.5t-41.5 -6.5z" />
    <glyph glyph-name="question" unicode="?" horiz-adv-x="433" 
d="M47 621q30 30 74.5 45t93.5 15q37 0 74.5 -9t68 -27t49.5 -46t19 -66q0 -32 -8.5 -59t-22 -47t-30.5 -33t-34 -17q-81 -21 -81 -67q0 -11 3 -22.5t3 -22.5q0 -23 -20 -33.5t-40 -10.5q-23 0 -38 6.5t-24.5 16.5t-13.5 23t-4 25q0 30 9.5 49.5t23.5 34t30.5 26.5
t30.5 25.5t23.5 31.5t9.5 45q0 23 -13 39t-53 16q-29 0 -47.5 -7.5t-33.5 -17t-28 -17t-31 -7.5q-14 0 -22 9.5t-8 23.5q0 17 10.5 38t29.5 40zM204 184q7 0 25.5 -4t37 -14.5t33 -29t14.5 -48.5q0 -19 -8.5 -36.5t-24 -30.5t-39 -21t-53.5 -8q-21 0 -39.5 6.5t-32.5 18
t-22.5 28t-8.5 36.5q0 19 6.5 38t20.5 33t36.5 23t54.5 9z" />
    <glyph glyph-name="at" unicode="@" horiz-adv-x="649" 
d="M335 653q59 0 114 -17t97 -53t67.5 -91.5t25.5 -131.5q0 -27 -7.5 -58.5t-23.5 -58.5t-40 -45.5t-57 -18.5q-23 0 -45.5 5.5t-42.5 5.5q-6 0 -18 -4t-27.5 -8.5t-33.5 -8.5t-37 -4q-27 0 -49.5 12t-38 33t-24 49t-8.5 60q0 31 8.5 58.5t24.5 48.5t38 33t48 12
q20 0 38.5 -4t33.5 -4q8 0 25 7t34 7q12 0 22 -7t10 -33q0 -23 -4 -53.5t-4 -59.5q0 -23 6 -43.5t23 -20.5q14 0 24.5 9.5t17.5 24t10.5 30.5t3.5 30q0 55 -16.5 94t-45 63.5t-67.5 36t-83 11.5q-54 0 -98 -18.5t-74.5 -51t-47 -76t-16.5 -92.5q0 -123 65 -186.5t183 -63.5
q37 0 62 4t42 10.5t28 14t21.5 14t22.5 10.5t30 4q23 0 39.5 -15.5t16.5 -39.5q0 -20 -17 -35t-43 -25.5t-58 -18t-62 -11.5t-55 -5.5t-37 -1.5q-80 0 -141 23.5t-102 66.5t-62 103t-21 134q0 80 22.5 145t64.5 110.5t102.5 70t135.5 24.5zM295 388q-22 0 -31.5 -11.5
t-9.5 -29.5q0 -22 12 -36.5t36 -14.5q26 0 37 13t11 28q0 29 -16 40t-39 11z" />
    <glyph glyph-name="A" unicode="A" horiz-adv-x="628" 
d="M314 660q44 0 74.5 -7.5t49 -20t27 -29t8.5 -34.5q0 -25 -9 -51.5t-9 -55.5q0 -32 9 -68t22 -72q14 -41 36.5 -75t44.5 -64t37.5 -57t15.5 -53q0 -17 -9 -33.5t-24 -29.5t-34.5 -21t-40.5 -8q-17 0 -37 3.5t-37.5 12.5t-29.5 23.5t-12 35.5q0 14 2.5 26.5t2.5 26.5
q0 32 -28 52.5t-74 20.5q-39 0 -67 -17.5t-28 -52.5q0 -17 4.5 -30t4.5 -26q0 -18 -8.5 -31.5t-23 -23.5t-33.5 -15t-39 -5q-48 0 -74.5 21.5t-26.5 58.5q0 39 24 87.5t53 101t53 105.5t24 100q0 26 -9.5 54t-9.5 55q0 18 8 35.5t27.5 31t52.5 21.5t83 8zM360 334
q0 10 -3 25t-9 28.5t-16 23.5t-24 10q-11 0 -23 -7t-21.5 -19.5t-16 -30t-6.5 -37.5q0 -11 3.5 -23t11 -21.5t18.5 -16t27 -6.5q26 0 42.5 22t16.5 52z" />
    <glyph glyph-name="B" unicode="B" horiz-adv-x="525" 
d="M185 591q19 0 38.5 8t42 17.5t49 17.5t59.5 8q32 0 54.5 -12t36.5 -31.5t20.5 -44t6.5 -48.5q0 -35 -12 -67t-35 -55q-11 -11 -23 -17t-22.5 -10.5t-17.5 -8.5t-7 -11q0 -9 8.5 -14.5t22 -10.5t29 -12.5t29.5 -21.5q26 -26 38 -56t12 -59t-11 -62t-33 -61.5t-53.5 -47.5
t-73.5 -19q-25 0 -45.5 8.5t-39 18.5t-35.5 18.5t-35 8.5q-17 0 -28 -7t-23 -16t-29 -16t-45 -7q-27 0 -39 17t-12 34q0 19 7.5 38.5t12.5 36.5q3 10 5.5 28t4.5 47.5t3 73t1 104.5q0 67 -1.5 106t-12.5 57q-3 5 -9 19t-6 31q0 19 13.5 31.5t33.5 12.5q14 0 25.5 -4t24 -9
t29.5 -9t42 -4zM290 439q0 25 -14.5 45t-43.5 20q-26 0 -45 -19t-19 -61q0 -11 3 -23.5t9 -23t16 -17t24 -6.5q32 0 51 26t19 59zM173 197q0 -23 12 -43.5t40 -20.5q21 0 40 17t19 53q0 9 -4 23t-11.5 26.5t-18.5 22t-26 9.5q-12 0 -21 -7.5t-16 -20t-10.5 -28t-3.5 -31.5z
" />
    <glyph glyph-name="C" unicode="C" horiz-adv-x="542" 
d="M277 -12q-62 0 -112 26t-84.5 68t-53 96t-18.5 111q0 64 22 129t63.5 117.5t101.5 86t137 33.5q26 0 59 -7t62 -21.5t48.5 -36.5t19.5 -51q0 -11 -6 -20t-19 -9q-9 0 -20.5 3.5t-25 7.5t-28.5 7.5t-31 3.5q-33 0 -60 -19t-45.5 -48t-28.5 -65t-10 -69q0 -36 9 -66
t24 -51.5t35 -33.5t42 -12t43 9.5t40 21t35 21t29 9.5q14 0 21 -12.5t7 -25.5q0 -46 -26.5 -83.5t-65.5 -64t-83.5 -41t-80.5 -14.5z" />
    <glyph glyph-name="D" unicode="D" horiz-adv-x="601" 
d="M61 -18q-14 0 -23 4.5t-14.5 11.5t-8 14.5t-2.5 12.5q0 11 4 22t16 25q10 12 17.5 30t12 48.5t7 75.5t2.5 111q0 101 -11.5 157t-29.5 82q-16 22 -16 43q0 17 10.5 29t33.5 12q24 0 43 -17q16 -15 26.5 -26t19.5 -18.5t18.5 -11t23.5 -3.5q24 0 49.5 12t52.5 26.5
t56.5 26.5t61.5 12q55 0 89.5 -18.5t53.5 -58t25.5 -101t6.5 -146.5q0 -184 -44 -270.5t-131 -86.5q-26 0 -49.5 7.5t-43 17t-33.5 20t-20 16.5q-4 4 -11.5 11t-18 14t-22.5 12.5t-24 5.5q-22 0 -32.5 -16t-21 -35t-26.5 -35t-47 -16zM233 518q-36 0 -50.5 -11t-14.5 -36
q0 -22 6.5 -52t6.5 -66q0 -35 -6 -65.5t-6 -54.5q0 -13 3 -24t10.5 -19.5t21 -13.5t33.5 -5q28 0 48 14.5t33 39t18.5 56t5.5 64.5q0 88 -25.5 130.5t-83.5 42.5z" />
    <glyph glyph-name="E" unicode="E" horiz-adv-x="493" 
d="M264 264q19 0 38 2t34.5 7.5t25 15t9.5 23.5q0 22 -18 31.5t-37 9.5q-43 0 -65.5 -18.5t-22.5 -41.5q0 -11 9.5 -20t26.5 -9zM278 642q100 0 150.5 -56.5t50.5 -164.5q0 -66 -18 -104.5t-44.5 -60t-57.5 -30t-57.5 -14t-44.5 -13t-18 -26.5q0 -11 5.5 -18.5t13.5 -12
t18 -7t18 -2.5q18 0 36.5 6t34.5 14t27.5 16t16.5 13q17 17 28.5 31t26.5 14q18 0 18 -20q0 -49 -19.5 -84.5t-50 -58.5t-68 -34t-74.5 -11q-64 0 -112.5 24t-81.5 67.5t-49.5 104.5t-16.5 136q0 67 14.5 121t46.5 91.5t83 58t124 20.5z" />
    <glyph glyph-name="F" unicode="F" horiz-adv-x="471" 
d="M13 580q0 15 6 29t16 25t24 18t31 7q16 0 33.5 -5t37 -11t42 -11t48.5 -5q25 0 46 3.5t39 7.5t33.5 7.5t29.5 3.5q12 0 23.5 -4t21.5 -13.5t16 -25t6 -37.5q0 -20 -6.5 -41t-18 -38t-28.5 -28t-38 -11q-17 0 -33.5 6.5t-32.5 14t-32.5 14t-32.5 6.5q-25 0 -44 -16.5
t-19 -41.5q0 -9 3.5 -19.5t10.5 -20.5t18.5 -16.5t28.5 -6.5q14 0 29.5 3t32 7t33 7t31.5 3q67 0 67 -73q0 -45 -19 -62t-46 -17q-15 0 -31 3.5t-32.5 7.5t-32.5 7.5t-30 3.5q-26 0 -41.5 -4.5t-24 -11t-11.5 -15.5t-3 -18q0 -17 14.5 -29.5t31.5 -26t31.5 -32t14.5 -48.5
q0 -19 -3 -37t-15 -32.5t-35.5 -23.5t-63.5 -9q-60 0 -90 25.5t-30 70.5q0 27 5.5 50t11.5 53.5t11.5 75t5.5 115.5q0 55 -6.5 86.5t-14 51.5l-13.5 36t-6 42z" />
    <glyph glyph-name="G" unicode="G" horiz-adv-x="611" 
d="M9 332q0 69 26.5 132.5t73.5 111.5t110 76.5t137 28.5q27 0 58.5 -7t58.5 -20.5t45.5 -34.5t18.5 -48q0 -17 -10 -25.5t-22 -8.5q-13 0 -23 5t-21 13q-35 23 -74 23q-37 0 -66.5 -18t-50.5 -48t-32.5 -69.5t-11.5 -82.5q0 -35 7.5 -69t23.5 -60.5t40 -43t57 -16.5
q11 0 25.5 4.5t27.5 13.5t22 21.5t9 28.5q0 21 -14 40.5t-25 30.5q-30 28 -30 53q0 14 9 25.5t25 19.5t36.5 12.5t44.5 4.5q48 0 82.5 -17.5t34.5 -47.5q0 -12 -6 -23.5t-13.5 -22t-13.5 -20.5t-6 -19q0 -11 5.5 -23t11.5 -24.5t11.5 -25.5t5.5 -28q0 -39 -22 -69t-57.5 -50
t-79.5 -30.5t-87 -10.5q-71 0 -133.5 20t-108.5 59.5t-72.5 99t-26.5 139.5z" />
    <glyph glyph-name="H" unicode="H" horiz-adv-x="568" 
d="M310 599q0 21 12.5 34.5t31 21t39.5 10t38 2.5q57 0 91 -18.5t34 -63.5q0 -42 -13 -72.5t-28.5 -56t-28.5 -51t-13 -58.5q0 -40 12 -67t26.5 -53.5t26.5 -58.5t12 -82q0 -26 -10 -45t-27 -31t-39 -18t-46 -6q-49 0 -77 22.5t-28 57.5q0 20 7.5 41.5t16.5 43t16.5 43.5
t7.5 43q0 13 -5 27t-15 25t-26 18.5t-37 7.5q-37 0 -61 -21t-24 -66q0 -11 6 -28t13 -37t13 -42t6 -43q0 -42 -29 -64.5t-78 -22.5q-50 0 -85 20.5t-35 61.5q0 34 5 58t12.5 43.5t16.5 36t16.5 36t12.5 43.5t5 59q0 54 -11 84.5t-23.5 51.5t-23.5 40.5t-11 52.5
q0 51 36 72.5t93 21.5q24 0 45 -4t37 -12t25.5 -19.5t9.5 -27.5q0 -32 -10 -50.5t-22 -32.5t-22 -29t-10 -41q0 -38 20.5 -49.5t55.5 -11.5q58 0 81 18.5t23 41.5q0 18 -10 36t-22.5 36t-22.5 36t-10 36z" />
    <glyph glyph-name="I" unicode="I" horiz-adv-x="255" 
d="M128 665q66 0 91 -23t25 -68q0 -21 -8 -44.5t-18 -51t-18 -59t-8 -68.5q0 -54 7 -91t15 -65t15 -51t7 -47q0 -43 -23 -73.5t-82 -30.5q-64 0 -90.5 25t-26.5 67q0 30 8 53t18 45.5t18 48.5t8 64q0 67 -8.5 107.5t-19 67.5t-19 47.5t-8.5 47.5q0 48 25.5 73.5t91.5 25.5z
" />
    <glyph glyph-name="J" unicode="J" horiz-adv-x="387" 
d="M207 219q0 54 -10.5 112t-40.5 109q-13 22 -26.5 38.5t-24.5 32t-18 34t-7 44.5q0 21 10.5 36t27 24.5t37.5 14t42 4.5q28 0 53 -6t45 -23t34 -47t21 -78q10 -69 18 -137.5t8 -131.5q0 -54 -8 -100.5t-28 -80.5t-53 -53.5t-84 -19.5q-27 0 -62 12t-66.5 32t-53 46.5
t-21.5 55.5q0 13 6.5 23.5t19.5 10.5q15 0 25 -7t22.5 -15.5t31.5 -15.5t52 -7q15 0 24.5 7.5t15.5 20.5t8 30t2 35z" />
    <glyph glyph-name="K" unicode="K" horiz-adv-x="613" 
d="M134 444q0 28 -4.5 56t-4.5 54q0 21 8 44t24 42t41 31.5t60 12.5q17 0 33.5 -5t29.5 -14t21 -21.5t8 -27.5q0 -23 -16.5 -47t-36.5 -47.5t-36.5 -46.5t-16.5 -44q0 -10 7 -23.5t24 -13.5q12 0 25.5 5.5t24.5 16.5q26 25 38.5 54.5t19 60t11 59t15 50.5t30.5 35.5t58 13.5
q30 0 50 -12t32 -31.5t17.5 -45t5.5 -52.5q0 -40 -8 -75.5t-23 -62t-36 -42t-46 -15.5q-42 0 -71.5 8t-49.5 8q-16 0 -29 -10t-13 -33q0 -25 30 -25q15 0 34.5 3.5t41.5 7.5t44.5 7.5t42.5 3.5q35 0 52.5 -15t17.5 -49q0 -33 -16 -77t-42 -84t-60.5 -67.5t-70.5 -27.5
q-19 0 -37 7t-32.5 19.5t-23 30.5t-8.5 39q0 16 3.5 33t7.5 33t7.5 31t3.5 27q0 17 -8 27.5t-25 10.5q-26 0 -38 -17t-12 -37q0 -27 9.5 -58.5t9.5 -62.5q0 -17 -7 -35t-23 -32.5t-43 -24t-66 -9.5q-21 0 -41 6t-35 17.5t-24.5 29t-9.5 40.5q0 34 19.5 71.5t41.5 69.5
q65 95 65 225z" />
    <glyph glyph-name="L" unicode="L" horiz-adv-x="439" 
d="M82 533q0 25 6 48t19.5 40.5t34 28t49.5 10.5q45 0 71 -24.5t26 -75.5q0 -42 -23.5 -79t-51.5 -75.5t-51.5 -81t-23.5 -96.5q0 -66 65 -66q34 0 60 10.5t47 23.5t38 23.5t33 10.5q10 0 20 -6t17.5 -16t12 -22t4.5 -24q0 -41 -28 -74t-78 -56.5t-118 -36.5t-149 -13
q-35 0 -48.5 15t-13.5 36q0 41 6 74t15 65.5t20 67t20 76.5t15 94.5t6 122.5z" />
    <glyph glyph-name="M" unicode="M" horiz-adv-x="729" 
d="M115 30q-53 0 -80 34t-27 122q0 45 8 99t23.5 108.5t37.5 105.5t51 90t64.5 62.5t76.5 23.5q25 0 39.5 -12.5t22.5 -32t11.5 -44.5t6.5 -50q1 -8 4 -21.5t7.5 -27.5t10.5 -24t12 -10q12 0 21.5 13.5t19 33t20.5 43t25.5 43t34 33t47.5 13.5q32 0 56.5 -20.5t43 -56
t31.5 -83.5t21 -103.5t11.5 -116t3.5 -119.5q0 -35 -7.5 -71t-25 -65t-45 -47t-66.5 -18q-23 0 -42.5 8.5t-34 23t-23 34.5t-8.5 44q0 38 16 63t35 48.5t35 52.5t16 74q0 29 -4.5 47.5t-11.5 29t-16 14t-17 3.5q-29 0 -43.5 -15t-22 -37t-12 -48.5t-14 -48.5t-28.5 -37
t-55 -15q-32 0 -52 7t-31.5 20t-16 30.5t-4.5 38.5q0 36 7 74t7 65q0 18 -5 28t-20 10q-18 0 -30.5 -12t-20 -30t-11 -38t-3.5 -36q0 -26 3.5 -52.5t8 -52.5t8.5 -51.5t4 -48.5q0 -38 -17 -66.5t-56 -28.5z" />
    <glyph glyph-name="N" unicode="N" horiz-adv-x="588" 
d="M349 577q0 25 9 44.5t24.5 32.5t36 20t43.5 7q54 0 81.5 -32t27.5 -80q0 -28 -6.5 -62.5t-14 -77.5t-13.5 -94t-6 -112q0 -55 7 -90t15 -57.5t15 -36t7 -24.5t-12.5 -18t-26.5 -7q-30 0 -68 20.5t-70 53.5q-23 23 -42 57t-35.5 72t-32.5 76t-32 68t-33.5 49t-38.5 19
q-23 0 -32.5 -17.5t-9.5 -37.5q0 -51 14.5 -86t32 -63t32 -55t14.5 -62q0 -22 -11 -38.5t-28 -28t-38 -17.5t-41 -6q-55 0 -80.5 24.5t-25.5 55.5q0 29 12.5 58.5t27.5 57.5q6 12 13.5 28t14 39t11 55.5t4.5 76.5q0 68 -11.5 108.5t-25 65.5t-24.5 40t-11 31q0 17 17.5 26.5
t40.5 9.5q34 0 67.5 -14.5t67 -48t66.5 -87.5t66 -133q7 -18 15 -38.5t18 -37.5t23.5 -28.5t31.5 -11.5q17 0 27.5 16t10.5 51q0 38 -19.5 63.5t-42.5 49.5t-42.5 53t-19.5 73z" />
    <glyph glyph-name="O" unicode="O" horiz-adv-x="567" 
d="M308 666q55 0 100.5 -22t78.5 -64.5t51.5 -103.5t18.5 -139q0 -56 -16.5 -117.5t-50 -112.5t-86 -84.5t-124.5 -33.5q-77 0 -129 27.5t-83.5 72t-44.5 101.5t-13 116q0 94 18 162t55 111.5t93 64.5t132 22zM243 527q-20 0 -34.5 -13.5t-24.5 -35t-14.5 -49t-4.5 -55.5
t4 -54t12.5 -45.5t21.5 -31.5t30 -12q23 0 40.5 12.5t29 33t17.5 47t6 54.5t-5 54.5t-15.5 47.5t-26 34t-36.5 13z" />
    <glyph glyph-name="P" unicode="P" horiz-adv-x="508" 
d="M84 654q16 0 27.5 -4t25.5 -9t34 -9t53 -4q11 0 29.5 4t40.5 8.5t47 8.5t49 4q55 0 84.5 -34t29.5 -106q0 -82 -25 -125t-62.5 -61.5t-81.5 -20.5t-81.5 -2t-62.5 -6.5t-25 -33.5q0 -47 5.5 -71.5t12 -42.5t12 -36t5.5 -52q0 -42 -26.5 -58t-64.5 -16q-49 0 -73 22
t-24 54q0 21 7 50t16 69.5t16 94t7 124.5q0 63 -6 100.5t-20 57.5q-6 8 -10.5 19.5t-4.5 24.5q0 20 15 35t51 15zM232 528q-23 0 -40.5 -17.5t-17.5 -62.5q0 -11 2.5 -23t8.5 -22.5t15 -17t23 -6.5q11 0 22.5 6t21.5 18t16 30t6 41t-14 38.5t-43 15.5z" />
    <glyph glyph-name="Q" unicode="Q" horiz-adv-x="607" 
d="M336 666q52 0 99 -21.5t82.5 -59t56.5 -88.5t21 -109q0 -63 -13 -107t-32 -75t-42 -51.5t-42 -35.5t-32 -28t-13 -28q0 -10 4.5 -16t18.5 -6q19 0 47.5 7.5t56.5 7.5q24 0 44.5 -11.5t20.5 -40.5q0 -27 -11.5 -46.5t-28.5 -32t-37 -18t-38 -5.5q-27 0 -53.5 7.5t-51.5 17
t-47 19t-39 14.5q-63 17 -117.5 42t-95 63.5t-63.5 94t-23 133.5q0 190 86.5 281.5t241.5 91.5zM256 369q-24 0 -41 -11.5t-27.5 -29.5t-15 -40t-4.5 -44q0 -48 19.5 -78t56.5 -30q40 0 65.5 37.5t25.5 109.5q0 19 -3.5 34.5t-12.5 27t-24.5 18t-38.5 6.5z" />
    <glyph glyph-name="R" unicode="R" horiz-adv-x="521" 
d="M227 650q42 0 87 -8t82.5 -27.5t62 -51t24.5 -78.5q0 -51 -17.5 -75t-39 -36t-39 -20t-17.5 -27t22 -34.5t48.5 -37.5t48.5 -55.5t22 -87.5q0 -28 -9 -53.5t-26.5 -45t-43 -31t-57.5 -11.5q-21 0 -39 7t-31 19t-20.5 27.5t-7.5 33.5q0 19 7 38.5t15 37t15 32t7 24.5
q0 44 -22 61.5t-52 17.5q-35 0 -51.5 -20t-16.5 -44q0 -18 6 -36.5t13.5 -38t14 -38.5t6.5 -37q0 -12 -5 -26t-17.5 -25.5t-33.5 -19.5t-52 -8q-15 0 -32 5t-30.5 15t-22.5 25t-9 35q0 19 6.5 42.5t14 51t14 59t6.5 67.5q0 46 -7 86t-16 73.5t-16 61.5t-7 51q0 19 7.5 37.5
t31 33t65.5 23t111 8.5zM297 469q0 22 -17.5 33t-40.5 11q-27 0 -40.5 -15t-13.5 -38q0 -32 15.5 -45.5t35.5 -13.5q26 0 43.5 18t17.5 50z" />
    <glyph glyph-name="S" unicode="S" horiz-adv-x="456" 
d="M243 643q37 0 71.5 -7t61 -21t42 -36.5t15.5 -53.5q0 -17 -9.5 -28t-23.5 -11q-16 0 -23 10.5t-16.5 23.5t-27 23.5t-53.5 10.5q-17 0 -31.5 -10t-14.5 -29q0 -22 15.5 -36.5t39.5 -27.5t51 -27.5t51 -36.5t39.5 -54.5t15.5 -80.5q0 -67 -19.5 -113t-51.5 -74.5
t-72.5 -41.5t-82.5 -13q-50 0 -89.5 12.5t-66.5 35t-41 52t-14 64.5q0 12 3 24.5t9 23t14.5 17t19.5 6.5t17 -8.5t14.5 -18t24 -18t44.5 -8.5q22 0 36.5 13t14.5 36q0 25 -11.5 39.5t-28 25t-36.5 21t-36.5 28.5t-28 46.5t-11.5 75.5q0 34 12.5 64t36.5 52.5t59.5 36
t80.5 13.5z" />
    <glyph glyph-name="T" unicode="T" horiz-adv-x="384" 
d="M229 631q18 -2 25.5 -13.5t10.5 -28t3 -34.5t2 -33.5t8.5 -26t22.5 -10.5q11 0 23.5 2.5t24.5 2.5t20 -5.5t8 -21.5q0 -14 -11 -23t-28 -17.5t-36 -18.5t-36 -26.5t-28 -41.5t-11 -63t13.5 -54t29.5 -16q10 0 19 5t18 10.5t17 10.5t16 5q16 0 23.5 -19.5t7.5 -37.5
q0 -41 -14.5 -68.5t-39 -44t-56.5 -23.5t-66 -7q-52 0 -87.5 9t-57 25t-31 37.5t-9.5 47.5q0 30 9.5 63t21.5 63.5t21.5 57.5t9.5 45q0 17 -10 22t-22.5 7.5t-22.5 7.5t-10 23q0 12 8.5 17t22 8.5t31.5 8t36.5 16.5t36 34t31.5 60q6 17 19 31t37 14z" />
    <glyph glyph-name="U" unicode="U" 
d="M164 666q54 0 79 -20t25 -74t-11 -97.5t-24.5 -80.5t-24.5 -68.5t-11 -62.5q0 -140 107 -140q57 0 78 37t21 104q0 23 -10.5 57t-23.5 72.5t-23.5 79.5t-10.5 77q0 22 6 43t18.5 36.5t33 25t50.5 9.5q44 0 72 -24.5t44.5 -63.5t22.5 -88t6 -98q0 -84 -5.5 -157
t-33.5 -128t-86.5 -86.5t-164.5 -31.5q-89 0 -145 32.5t-87.5 86t-43 122.5t-11.5 143q0 43 6 94.5t22.5 96t46.5 74.5t78 30z" />
    <glyph glyph-name="V" unicode="V" horiz-adv-x="595" 
d="M85 662q17 -1 31.5 -4.5t25.5 -14.5q7 -7 10.5 -12.5t6.5 -16t5.5 -29.5t6.5 -52q8 -66 15 -119t16.5 -90.5t22.5 -57.5t34 -20q23 0 37 19t22.5 55t14.5 89t13 121q4 40 17 66.5t30.5 42.5t38 22t39.5 6q38 0 60.5 -10.5t34.5 -28t15.5 -39.5t3.5 -45q0 -46 -8 -105
t-24 -121t-41 -121.5t-58 -106t-75 -75t-93 -28.5q-46 0 -84.5 26.5t-69 71t-53.5 103t-38.5 121.5t-23 127t-7.5 120q0 33 6.5 53.5t17 32t24 16t27.5 4.5z" />
    <glyph glyph-name="W" unicode="W" horiz-adv-x="729" 
d="M614 586q53 0 80 -34t27 -122q0 -45 -8 -99t-23.5 -108.5t-37.5 -105.5t-51 -90t-64.5 -62.5t-76.5 -23.5q-25 0 -39.5 12.5t-22.5 32t-11.5 44.5t-6.5 50q-1 7 -4 21t-7.5 28t-10.5 24t-12 10q-12 0 -21.5 -13.5t-19 -33t-20.5 -43t-25.5 -43t-34.5 -33t-47 -13.5
q-48 0 -80 44.5t-51.5 115.5t-27.5 160t-8 179q0 35 7.5 71t25 65t45 47t66.5 18q22 0 42 -8.5t34.5 -23t23 -34.5t8.5 -44q0 -38 -16 -63t-35 -48.5t-35 -52.5t-16 -74q0 -29 4.5 -47.5t11.5 -29t16 -14t17 -3.5q29 0 43.5 15t22 37t12 48.5t14 48.5t28.5 37t55 15
q31 0 51.5 -7t32 -20t16 -30.5t4.5 -38.5q0 -36 -7 -74t-7 -65q0 -18 5 -28t20 -10q18 0 30.5 12t20 30t11 38t3.5 36q0 25 -4 51.5t-8.5 53t-8 52t-3.5 48.5q0 38 17 66.5t56 28.5z" />
    <glyph glyph-name="X" unicode="X" horiz-adv-x="641" 
d="M509 670q47 0 65 -19.5t18 -46.5t-13 -50t-32 -44t-41.5 -40.5t-41.5 -38.5t-32 -38.5t-13 -39.5q0 -22 15.5 -44t39 -45t50.5 -46.5t50.5 -47.5t39 -49.5t15.5 -52.5q0 -18 -9 -33t-23 -25.5t-33 -16.5t-38 -6q-20 0 -40 4t-36.5 9t-26.5 9.5t-11 6.5q-6 5 -8.5 21
t-5 36.5t-6 43.5t-11 41.5t-22 31t-37.5 12.5t-39 -13.5t-26 -35t-15 -47.5t-5 -51q0 -16 -11.5 -28.5t-29.5 -20.5t-41 -12.5t-46 -4.5q-48 0 -72.5 16.5t-24.5 45.5q0 26 16 52t40 51.5t52 51t52 50t40 48t16 46.5q0 22 -14.5 42.5t-36 40t-46.5 39t-46.5 40.5t-36 43.5
t-14.5 48.5q0 63 110 63q33 0 63 -7.5t46 -22.5q13 -13 16.5 -40t9 -54.5t17 -48.5t40.5 -21q19 0 30.5 11t17.5 30t7.5 42.5t1.5 49.5q0 16 12.5 28t30.5 20t38 12t35 4z" />
    <glyph glyph-name="Y" unicode="Y" horiz-adv-x="550" 
d="M361 220q-8 14 -26 19.5t-35 5.5q-29 0 -62.5 -7t-67.5 -7q-39 0 -68.5 17t-50 46t-31 67t-10.5 80q0 40 10 79.5t30 71t50 51t70 19.5q21 0 36 -7t25 -18t15 -24.5t5 -26.5q0 -22 -8.5 -43.5t-19 -41t-19 -36t-8.5 -27.5q0 -8 3.5 -20t14 -23.5t28.5 -20t47 -8.5
q10 0 22 3t22.5 9.5t17.5 17.5t7 28q0 27 -7.5 46t-16 36t-16 34t-7.5 41q0 32 20.5 55t58.5 23q24 0 50 -6.5t48 -28.5t36.5 -65t14.5 -115q0 -102 -11.5 -188.5t-43.5 -148.5t-88 -97t-144 -35q-31 0 -65 8t-62.5 24.5t-47 42t-18.5 60.5q0 22 14 39.5t37 17.5
q18 0 38.5 -9t42 -19.5t44.5 -19t46 -8.5q12 0 26.5 4.5t28 14t22.5 25t9 37.5q0 14 -6 28z" />
    <glyph glyph-name="Z" unicode="Z" horiz-adv-x="561" 
d="M68 652q12 12 26 17t30 5q18 0 37.5 -5t41 -10.5t44.5 -10.5t49 -5q14 0 33 2.5t39.5 6t42 6t41.5 2.5q38 0 62.5 -16t24.5 -61t-16.5 -78t-41.5 -60t-54.5 -50.5t-56.5 -49.5q-6 -6 -19 -22t-26 -37.5t-23 -45t-10 -44.5q0 -26 18 -41t34 -15q17 0 33.5 10.5t33 22.5
t32.5 22.5t32 10.5q42 0 58 -27.5t16 -75.5q0 -51 -17 -83t-59 -32q-17 0 -37 3.5t-42 8t-44.5 8.5t-44.5 4q-16 0 -39 -3.5t-50 -8t-55 -8t-53 -3.5q-52 0 -74 21t-22 53q0 30 16.5 63t39.5 63.5t47 56t39 39.5q18 17 41 40t43 48.5t33.5 51.5t13.5 50q0 15 -10 31.5
t-28 16.5q-14 0 -29 -9t-32 -19.5t-34.5 -19t-35.5 -8.5q-17 0 -31 9.5t-24 24.5t-15.5 33.5t-5.5 36.5q0 24 7 45.5t21 35.5z" />
    <glyph glyph-name="bracketleft" unicode="[" horiz-adv-x="288" 
d="M233 724q24 0 35.5 -13.5t11.5 -36.5t-11 -37t-29 -14q-14 0 -30 4.5t-31 4.5q-43 0 -43 -73q0 -25 3.5 -55.5t8 -62t8 -62t3.5 -56.5q0 -44 -6 -87.5t-12.5 -84t-12.5 -76t-6 -61.5q0 -23 6 -39t24 -16q14 0 33.5 6t39.5 6t35 -11.5t15 -39.5q0 -26 -12.5 -40.5
t-29.5 -14.5q-15 0 -33 6t-44 6q-20 0 -43.5 -9t-46.5 -9q-32 0 -42 22.5t-10 57.5v689q0 40 13.5 69.5t43.5 29.5q18 0 37.5 -6t37.5 -6q23 0 46 4.5t41 4.5z" />
    <glyph glyph-name="backslash" unicode="\" horiz-adv-x="464" 
d="M66 659q30 0 54 -17.5t42.5 -46t33.5 -64.5t27.5 -72.5t23.5 -70t23 -57.5q10 -20 28 -44t39.5 -50t43.5 -52.5t40 -51.5t29.5 -48.5t11.5 -43.5q0 -9 -2.5 -18t-9.5 -17t-18 -13t-27 -5q-33 0 -61 31.5t-52.5 78.5t-46 100.5t-42.5 97.5q-33 68 -80 127.5t-97 119.5
q-10 12 -17 32t-7 38q0 27 16 35.5t48 10.5z" />
    <glyph glyph-name="bracketright" unicode="]" horiz-adv-x="287" 
d="M54 -138q-20 0 -33 10.5t-13 39.5q0 22 9.5 36.5t29.5 14.5q14 0 30 -4.5t30 -4.5q25 0 35 19t10 54q0 25 -4 55t-8.5 61.5t-8 62.5t-3.5 58q0 43 6 87.5t12.5 85.5t12.5 76.5t6 61.5q0 23 -6 37.5t-23 14.5q-15 0 -34.5 -5.5t-39.5 -5.5t-35 11t-15 39q0 26 13 40.5
t30 14.5q14 0 32 -5.5t44 -5.5q20 0 44.5 8t46.5 8q32 0 42 -22t10 -57q0 -48 -5 -93.5t-11 -91t-11 -94t-5 -103.5q0 -45 2.5 -76.5t5.5 -55t7.5 -42t7.5 -37.5t5.5 -41.5t2.5 -53.5q0 -42 -14.5 -71t-43.5 -29q-17 0 -36 6.5t-36 6.5q-23 0 -46.5 -5t-42.5 -5z" />
    <glyph glyph-name="asciicircum" unicode="^" horiz-adv-x="446" 
d="M440 288q0 -20 -13.5 -30.5t-34.5 -10.5q-31 0 -50.5 20t-32.5 50t-21.5 65t-17 65t-19.5 50t-28 20q-13 0 -21 -19.5t-16 -49t-16.5 -64t-22 -64t-34 -49t-50.5 -19.5q-27 0 -42 15t-15 40q0 27 8.5 45.5t23.5 37t35 42t43 60.5q15 24 24 52.5t18.5 52.5t23.5 40.5
t39 16.5q24 0 40 -19t28.5 -46t23 -57t22.5 -52q27 -48 46.5 -73.5t32.5 -43t19.5 -33t6.5 -42.5z" />
    <glyph glyph-name="underscore" unicode="_" horiz-adv-x="507" 
d="M479 -8q38 0 52.5 -16t14.5 -41q0 -10 -2 -19t-9.5 -16t-21.5 -11t-38 -4q-20 0 -33.5 2.5t-33 5t-51 5t-86.5 2.5q-90 0 -149 -9.5t-94 -9.5q-28 0 -45.5 12t-17.5 48q0 27 18 40t50 13q34 0 89 -7.5t141 -7.5q52 0 85 2t55 4.5t38.5 4.5t37.5 2z" />
    <glyph glyph-name="grave" unicode="`" horiz-adv-x="208" 
d="M55 890q11 0 24.5 -6.5t28 -16t27.5 -21t24 -21.5q26 -26 34.5 -50t8.5 -36t-5 -14.5t-13 -2.5q-16 0 -40.5 9t-49.5 22t-45.5 26t-27.5 21q-5 6 -10 16t-5 23q0 7 3 15.5t9 16.5t15 13.5t22 5.5z" />
    <glyph glyph-name="a" unicode="a" horiz-adv-x="628" 
d="M314 660q44 0 74.5 -7.5t49 -20t27 -29t8.5 -34.5q0 -25 -9 -51.5t-9 -55.5q0 -32 9 -68t22 -72q14 -41 36.5 -75t44.5 -64t37.5 -57t15.5 -53q0 -17 -9 -33.5t-24 -29.5t-34.5 -21t-40.5 -8q-17 0 -37 3.5t-37.5 12.5t-29.5 23.5t-12 35.5q0 14 2.5 26.5t2.5 26.5
q0 32 -28 52.5t-74 20.5q-39 0 -67 -17.5t-28 -52.5q0 -17 4.5 -30t4.5 -26q0 -18 -8.5 -31.5t-23 -23.5t-33.5 -15t-39 -5q-48 0 -74.5 21.5t-26.5 58.5q0 39 24 87.5t53 101t53 105.5t24 100q0 26 -9.5 54t-9.5 55q0 18 8 35.5t27.5 31t52.5 21.5t83 8zM360 334
q0 10 -3 25t-9 28.5t-16 23.5t-24 10q-11 0 -23 -7t-21.5 -19.5t-16 -30t-6.5 -37.5q0 -11 3.5 -23t11 -21.5t18.5 -16t27 -6.5q26 0 42.5 22t16.5 52z" />
    <glyph glyph-name="b" unicode="b" horiz-adv-x="525" 
d="M185 591q19 0 38.5 8t42 17.5t49 17.5t59.5 8q32 0 54.5 -12t36.5 -31.5t20.5 -44t6.5 -48.5q0 -35 -12 -67t-35 -55q-11 -11 -23 -17t-22.5 -10.5t-17.5 -8.5t-7 -11q0 -9 8.5 -14.5t22 -10.5t29 -12.5t29.5 -21.5q26 -26 38 -56t12 -59t-11 -62t-33 -61.5t-53.5 -47.5
t-73.5 -19q-25 0 -45.5 8.5t-39 18.5t-35.5 18.5t-35 8.5q-17 0 -28 -7t-23 -16t-29 -16t-45 -7q-27 0 -39 17t-12 34q0 19 7.5 38.5t12.5 36.5q3 10 5.5 28t4.5 47.5t3 73t1 104.5q0 67 -1.5 106t-12.5 57q-3 5 -9 19t-6 31q0 19 13.5 31.5t33.5 12.5q14 0 25.5 -4t24 -9
t29.5 -9t42 -4zM290 439q0 25 -14.5 45t-43.5 20q-26 0 -45 -19t-19 -61q0 -11 3 -23.5t9 -23t16 -17t24 -6.5q32 0 51 26t19 59zM173 197q0 -23 12 -43.5t40 -20.5q21 0 40 17t19 53q0 9 -4 23t-11.5 26.5t-18.5 22t-26 9.5q-12 0 -21 -7.5t-16 -20t-10.5 -28t-3.5 -31.5z
" />
    <glyph glyph-name="c" unicode="c" horiz-adv-x="542" 
d="M277 -12q-62 0 -112 26t-84.5 68t-53 96t-18.5 111q0 64 22 129t63.5 117.5t101.5 86t137 33.5q26 0 59 -7t62 -21.5t48.5 -36.5t19.5 -51q0 -11 -6 -20t-19 -9q-9 0 -20.5 3.5t-25 7.5t-28.5 7.5t-31 3.5q-33 0 -60 -19t-45.5 -48t-28.5 -65t-10 -69q0 -36 9 -66
t24 -51.5t35 -33.5t42 -12t43 9.5t40 21t35 21t29 9.5q14 0 21 -12.5t7 -25.5q0 -46 -26.5 -83.5t-65.5 -64t-83.5 -41t-80.5 -14.5z" />
    <glyph glyph-name="d" unicode="d" horiz-adv-x="601" 
d="M61 -18q-14 0 -23 4.5t-14.5 11.5t-8 14.5t-2.5 12.5q0 11 4 22t16 25q10 12 17.5 30t12 48.5t7 75.5t2.5 111q0 101 -11.5 157t-29.5 82q-16 22 -16 43q0 17 10.5 29t33.5 12q24 0 43 -17q16 -15 26.5 -26t19.5 -18.5t18.5 -11t23.5 -3.5q24 0 49.5 12t52.5 26.5
t56.5 26.5t61.5 12q55 0 89.5 -18.5t53.5 -58t25.5 -101t6.5 -146.5q0 -184 -44 -270.5t-131 -86.5q-26 0 -49.5 7.5t-43 17t-33.5 20t-20 16.5q-4 4 -11.5 11t-18 14t-22.5 12.5t-24 5.5q-22 0 -32.5 -16t-21 -35t-26.5 -35t-47 -16zM233 518q-36 0 -50.5 -11t-14.5 -36
q0 -22 6.5 -52t6.5 -66q0 -35 -6 -65.5t-6 -54.5q0 -13 3 -24t10.5 -19.5t21 -13.5t33.5 -5q28 0 48 14.5t33 39t18.5 56t5.5 64.5q0 88 -25.5 130.5t-83.5 42.5z" />
    <glyph glyph-name="e" unicode="e" horiz-adv-x="493" 
d="M264 264q19 0 38 2t34.5 7.5t25 15t9.5 23.5q0 22 -18 31.5t-37 9.5q-43 0 -65.5 -18.5t-22.5 -41.5q0 -11 9.5 -20t26.5 -9zM278 642q100 0 150.5 -56.5t50.5 -164.5q0 -66 -18 -104.5t-44.5 -60t-57.5 -30t-57.5 -14t-44.5 -13t-18 -26.5q0 -11 5.5 -18.5t13.5 -12
t18 -7t18 -2.5q18 0 36.5 6t34.5 14t27.5 16t16.5 13q17 17 28.5 31t26.5 14q18 0 18 -20q0 -49 -19.5 -84.5t-50 -58.5t-68 -34t-74.5 -11q-64 0 -112.5 24t-81.5 67.5t-49.5 104.5t-16.5 136q0 67 14.5 121t46.5 91.5t83 58t124 20.5z" />
    <glyph glyph-name="f" unicode="f" horiz-adv-x="471" 
d="M13 580q0 15 6 29t16 25t24 18t31 7q16 0 33.5 -5t37 -11t42 -11t48.5 -5q25 0 46 3.5t39 7.5t33.5 7.5t29.5 3.5q12 0 23.5 -4t21.5 -13.5t16 -25t6 -37.5q0 -20 -6.5 -41t-18 -38t-28.5 -28t-38 -11q-17 0 -33.5 6.5t-32.5 14t-32.5 14t-32.5 6.5q-25 0 -44 -16.5
t-19 -41.5q0 -9 3.5 -19.5t10.5 -20.5t18.5 -16.5t28.5 -6.5q14 0 29.5 3t32 7t33 7t31.5 3q67 0 67 -73q0 -45 -19 -62t-46 -17q-15 0 -31 3.5t-32.5 7.5t-32.5 7.5t-30 3.5q-26 0 -41.5 -4.5t-24 -11t-11.5 -15.5t-3 -18q0 -17 14.5 -29.5t31.5 -26t31.5 -32t14.5 -48.5
q0 -19 -3 -37t-15 -32.5t-35.5 -23.5t-63.5 -9q-60 0 -90 25.5t-30 70.5q0 27 5.5 50t11.5 53.5t11.5 75t5.5 115.5q0 55 -6.5 86.5t-14 51.5l-13.5 36t-6 42z" />
    <glyph glyph-name="g" unicode="g" horiz-adv-x="611" 
d="M9 332q0 69 26.5 132.5t73.5 111.5t110 76.5t137 28.5q27 0 58.5 -7t58.5 -20.5t45.5 -34.5t18.5 -48q0 -17 -10 -25.5t-22 -8.5q-13 0 -23 5t-21 13q-35 23 -74 23q-37 0 -66.5 -18t-50.5 -48t-32.5 -69.5t-11.5 -82.5q0 -35 7.5 -69t23.5 -60.5t40 -43t57 -16.5
q11 0 25.5 4.5t27.5 13.5t22 21.5t9 28.5q0 21 -14 40.5t-25 30.5q-30 28 -30 53q0 14 9 25.5t25 19.5t36.5 12.5t44.5 4.5q48 0 82.5 -17.5t34.5 -47.5q0 -12 -6 -23.5t-13.5 -22t-13.5 -20.5t-6 -19q0 -11 5.5 -23t11.5 -24.5t11.5 -25.5t5.5 -28q0 -39 -22 -69t-57.5 -50
t-79.5 -30.5t-87 -10.5q-71 0 -133.5 20t-108.5 59.5t-72.5 99t-26.5 139.5z" />
    <glyph glyph-name="h" unicode="h" horiz-adv-x="568" 
d="M310 599q0 21 12.5 34.5t31 21t39.5 10t38 2.5q57 0 91 -18.5t34 -63.5q0 -42 -13 -72.5t-28.5 -56t-28.5 -51t-13 -58.5q0 -40 12 -67t26.5 -53.5t26.5 -58.5t12 -82q0 -26 -10 -45t-27 -31t-39 -18t-46 -6q-49 0 -77 22.5t-28 57.5q0 20 7.5 41.5t16.5 43t16.5 43.5
t7.5 43q0 13 -5 27t-15 25t-26 18.5t-37 7.5q-37 0 -61 -21t-24 -66q0 -11 6 -28t13 -37t13 -42t6 -43q0 -42 -29 -64.5t-78 -22.5q-50 0 -85 20.5t-35 61.5q0 34 5 58t12.5 43.5t16.5 36t16.5 36t12.5 43.5t5 59q0 54 -11 84.5t-23.5 51.5t-23.5 40.5t-11 52.5
q0 51 36 72.5t93 21.5q24 0 45 -4t37 -12t25.5 -19.5t9.5 -27.5q0 -32 -10 -50.5t-22 -32.5t-22 -29t-10 -41q0 -38 20.5 -49.5t55.5 -11.5q58 0 81 18.5t23 41.5q0 18 -10 36t-22.5 36t-22.5 36t-10 36z" />
    <glyph glyph-name="i" unicode="i" horiz-adv-x="255" 
d="M128 665q66 0 91 -23t25 -68q0 -21 -8 -44.5t-18 -51t-18 -59t-8 -68.5q0 -54 7 -91t15 -65t15 -51t7 -47q0 -43 -23 -73.5t-82 -30.5q-64 0 -90.5 25t-26.5 67q0 30 8 53t18 45.5t18 48.5t8 64q0 67 -8.5 107.5t-19 67.5t-19 47.5t-8.5 47.5q0 48 25.5 73.5t91.5 25.5z
" />
    <glyph glyph-name="j" unicode="j" horiz-adv-x="387" 
d="M207 219q0 54 -10.5 112t-40.5 109q-13 22 -26.5 38.5t-24.5 32t-18 34t-7 44.5q0 21 10.5 36t27 24.5t37.5 14t42 4.5q28 0 53 -6t45 -23t34 -47t21 -78q10 -69 18 -137.5t8 -131.5q0 -54 -8 -100.5t-28 -80.5t-53 -53.5t-84 -19.5q-27 0 -62 12t-66.5 32t-53 46.5
t-21.5 55.5q0 13 6.5 23.5t19.5 10.5q15 0 25 -7t22.5 -15.5t31.5 -15.5t52 -7q15 0 24.5 7.5t15.5 20.5t8 30t2 35z" />
    <glyph glyph-name="k" unicode="k" horiz-adv-x="613" 
d="M134 444q0 28 -4.5 56t-4.5 54q0 21 8 44t24 42t41 31.5t60 12.5q17 0 33.5 -5t29.5 -14t21 -21.5t8 -27.5q0 -23 -16.5 -47t-36.5 -47.5t-36.5 -46.5t-16.5 -44q0 -10 7 -23.5t24 -13.5q12 0 25.5 5.5t24.5 16.5q26 25 38.5 54.5t19 60t11 59t15 50.5t30.5 35.5t58 13.5
q30 0 50 -12t32 -31.5t17.5 -45t5.5 -52.5q0 -40 -8 -75.5t-23 -62t-36 -42t-46 -15.5q-42 0 -71.5 8t-49.5 8q-16 0 -29 -10t-13 -33q0 -25 30 -25q15 0 34.5 3.5t41.5 7.5t44.5 7.5t42.5 3.5q35 0 52.5 -15t17.5 -49q0 -33 -16 -77t-42 -84t-60.5 -67.5t-70.5 -27.5
q-19 0 -37 7t-32.5 19.5t-23 30.5t-8.5 39q0 16 3.5 33t7.5 33t7.5 31t3.5 27q0 17 -8 27.5t-25 10.5q-26 0 -38 -17t-12 -37q0 -27 9.5 -58.5t9.5 -62.5q0 -17 -7 -35t-23 -32.5t-43 -24t-66 -9.5q-21 0 -41 6t-35 17.5t-24.5 29t-9.5 40.5q0 34 19.5 71.5t41.5 69.5
q65 95 65 225z" />
    <glyph glyph-name="l" unicode="l" horiz-adv-x="439" 
d="M82 533q0 25 6 48t19.5 40.5t34 28t49.5 10.5q45 0 71 -24.5t26 -75.5q0 -42 -23.5 -79t-51.5 -75.5t-51.5 -81t-23.5 -96.5q0 -66 65 -66q34 0 60 10.5t47 23.5t38 23.5t33 10.5q10 0 20 -6t17.5 -16t12 -22t4.5 -24q0 -41 -28 -74t-78 -56.5t-118 -36.5t-149 -13
q-35 0 -48.5 15t-13.5 36q0 41 6 74t15 65.5t20 67t20 76.5t15 94.5t6 122.5z" />
    <glyph glyph-name="m" unicode="m" horiz-adv-x="740" 
d="M533 77q0 27 9 58t20.5 64t20.5 66.5t9 65.5q0 15 -2.5 31.5t-8.5 30t-16.5 22.5t-26.5 9q-17 0 -22 -19t-5.5 -47t-0.5 -61.5t-7.5 -61.5t-26.5 -47t-57 -19q-41 0 -63 11.5t-32.5 30.5t-13 42t-4 46.5t-5.5 44.5t-17 35q-7 7 -16 12.5t-22 5.5q-6 0 -16.5 -3t-21.5 -14
t-19 -34.5t-8 -63.5q0 -33 10.5 -58t23.5 -47.5t23.5 -45t10.5 -50.5q0 -26 -8.5 -47t-23.5 -36t-34.5 -23t-41.5 -8q-37 0 -62.5 15.5t-41 40t-22.5 55.5t-7 62q0 36 6.5 78.5t16.5 86t22 84t23 72.5q15 43 32 79t37.5 62t44 41t50.5 15q31 0 50.5 -15t32.5 -38t21 -49
t14.5 -49t14 -38t20.5 -15q6 0 13.5 9.5t13.5 22t11 25.5t7 20q6 22 12.5 45t16.5 41t24 29.5t35 11.5q19 0 36.5 -7t32.5 -17.5t28 -24.5t22 -27q22 -32 37.5 -73t26 -86.5t15.5 -93t5 -92.5q0 -67 -8 -113.5t-22.5 -75t-35.5 -41.5t-46 -13q-42 0 -63 22.5t-21 60.5z" />
    <glyph glyph-name="n" unicode="n" horiz-adv-x="588" 
d="M349 577q0 25 9 44.5t24.5 32.5t36 20t43.5 7q54 0 81.5 -32t27.5 -80q0 -28 -6.5 -62.5t-14 -77.5t-13.5 -94t-6 -112q0 -55 7 -90t15 -57.5t15 -36t7 -24.5t-12.5 -18t-26.5 -7q-30 0 -68 20.5t-70 53.5q-23 23 -42 57t-35.5 72t-32.5 76t-32 68t-33.5 49t-38.5 19
q-23 0 -32.5 -17.5t-9.5 -37.5q0 -51 14.5 -86t32 -63t32 -55t14.5 -62q0 -22 -11 -38.5t-28 -28t-38 -17.5t-41 -6q-55 0 -80.5 24.5t-25.5 55.5q0 29 12.5 58.5t27.5 57.5q6 12 13.5 28t14 39t11 55.5t4.5 76.5q0 68 -11.5 108.5t-25 65.5t-24.5 40t-11 31q0 17 17.5 26.5
t40.5 9.5q34 0 67.5 -14.5t67 -48t66.5 -87.5t66 -133q7 -18 15 -38.5t18 -37.5t23.5 -28.5t31.5 -11.5q17 0 27.5 16t10.5 51q0 38 -19.5 63.5t-42.5 49.5t-42.5 53t-19.5 73z" />
    <glyph glyph-name="o" unicode="o" horiz-adv-x="380" 
d="M207 666q75 0 121 -42t46 -120q0 -27 -11 -57t-33.5 -55t-57.5 -41.5t-83 -16.5q-52 0 -86.5 13.5t-55.5 35t-30 49.5t-9 57q0 94 48 135.5t151 41.5zM229 513q-27 0 -39.5 -18t-12.5 -39q0 -20 11 -36.5t34 -16.5q32 0 47.5 17t15.5 38q0 20 -13.5 37.5t-42.5 17.5z" />
    <glyph glyph-name="p" unicode="p" horiz-adv-x="508" 
d="M84 654q16 0 27.5 -4t25.5 -9t34 -9t53 -4q11 0 29.5 4t40.5 8.5t47 8.5t49 4q55 0 84.5 -34t29.5 -106q0 -82 -25 -125t-62.5 -61.5t-81.5 -20.5t-81.5 -2t-62.5 -6.5t-25 -33.5q0 -47 5.5 -71.5t12 -42.5t12 -36t5.5 -52q0 -42 -26.5 -58t-64.5 -16q-49 0 -73 22
t-24 54q0 21 7 50t16 69.5t16 94t7 124.5q0 63 -6 100.5t-20 57.5q-6 8 -10.5 19.5t-4.5 24.5q0 20 15 35t51 15zM232 528q-23 0 -40.5 -17.5t-17.5 -62.5q0 -11 2.5 -23t8.5 -22.5t15 -17t23 -6.5q11 0 22.5 6t21.5 18t16 30t6 41t-14 38.5t-43 15.5z" />
    <glyph glyph-name="q" unicode="q" horiz-adv-x="607" 
d="M336 666q52 0 99 -21.5t82.5 -59t56.5 -88.5t21 -109q0 -63 -13 -107t-32 -75t-42 -51.5t-42 -35.5t-32 -28t-13 -28q0 -10 4.5 -16t18.5 -6q19 0 47.5 7.5t56.5 7.5q24 0 44.5 -11.5t20.5 -40.5q0 -27 -11.5 -46.5t-28.5 -32t-37 -18t-38 -5.5q-27 0 -53.5 7.5t-51.5 17
t-47 19t-39 14.5q-63 17 -117.5 42t-95 63.5t-63.5 94t-23 133.5q0 190 86.5 281.5t241.5 91.5zM256 369q-24 0 -41 -11.5t-27.5 -29.5t-15 -40t-4.5 -44q0 -48 19.5 -78t56.5 -30q40 0 65.5 37.5t25.5 109.5q0 19 -3.5 34.5t-12.5 27t-24.5 18t-38.5 6.5z" />
    <glyph glyph-name="r" unicode="r" horiz-adv-x="521" 
d="M227 650q42 0 87 -8t82.5 -27.5t62 -51t24.5 -78.5q0 -51 -17.5 -75t-39 -36t-39 -20t-17.5 -27t22 -34.5t48.5 -37.5t48.5 -55.5t22 -87.5q0 -28 -9 -53.5t-26.5 -45t-43 -31t-57.5 -11.5q-21 0 -39 7t-31 19t-20.5 27.5t-7.5 33.5q0 19 7 38.5t15 37t15 32t7 24.5
q0 44 -22 61.5t-52 17.5q-35 0 -51.5 -20t-16.5 -44q0 -18 6 -36.5t13.5 -38t14 -38.5t6.5 -37q0 -12 -5 -26t-17.5 -25.5t-33.5 -19.5t-52 -8q-15 0 -32 5t-30.5 15t-22.5 25t-9 35q0 19 6.5 42.5t14 51t14 59t6.5 67.5q0 46 -7 86t-16 73.5t-16 61.5t-7 51q0 19 7.5 37.5
t31 33t65.5 23t111 8.5zM297 469q0 22 -17.5 33t-40.5 11q-27 0 -40.5 -15t-13.5 -38q0 -32 15.5 -45.5t35.5 -13.5q26 0 43.5 18t17.5 50z" />
    <glyph glyph-name="s" unicode="s" horiz-adv-x="456" 
d="M243 643q37 0 71.5 -7t61 -21t42 -36.5t15.5 -53.5q0 -17 -9.5 -28t-23.5 -11q-16 0 -23 10.5t-16.5 23.5t-27 23.5t-53.5 10.5q-17 0 -31.5 -10t-14.5 -29q0 -22 15.5 -36.5t39.5 -27.5t51 -27.5t51 -36.5t39.5 -54.5t15.5 -80.5q0 -67 -19.5 -113t-51.5 -74.5
t-72.5 -41.5t-82.5 -13q-50 0 -89.5 12.5t-66.5 35t-41 52t-14 64.5q0 12 3 24.5t9 23t14.5 17t19.5 6.5t17 -8.5t14.5 -18t24 -18t44.5 -8.5q22 0 36.5 13t14.5 36q0 25 -11.5 39.5t-28 25t-36.5 21t-36.5 28.5t-28 46.5t-11.5 75.5q0 34 12.5 64t36.5 52.5t59.5 36
t80.5 13.5z" />
    <glyph glyph-name="t" unicode="t" horiz-adv-x="384" 
d="M229 631q18 -2 25.5 -13.5t10.5 -28t3 -34.5t2 -33.5t8.5 -26t22.5 -10.5q11 0 23.5 2.5t24.5 2.5t20 -5.5t8 -21.5q0 -14 -11 -23t-28 -17.5t-36 -18.5t-36 -26.5t-28 -41.5t-11 -63t13.5 -54t29.5 -16q10 0 19 5t18 10.5t17 10.5t16 5q16 0 23.5 -19.5t7.5 -37.5
q0 -41 -14.5 -68.5t-39 -44t-56.5 -23.5t-66 -7q-52 0 -87.5 9t-57 25t-31 37.5t-9.5 47.5q0 30 9.5 63t21.5 63.5t21.5 57.5t9.5 45q0 17 -10 22t-22.5 7.5t-22.5 7.5t-10 23q0 12 8.5 17t22 8.5t31.5 8t36.5 16.5t36 34t31.5 60q6 17 19 31t37 14z" />
    <glyph glyph-name="u" unicode="u" 
d="M164 666q54 0 79 -20t25 -74t-11 -97.5t-24.5 -80.5t-24.5 -68.5t-11 -62.5q0 -140 107 -140q57 0 78 37t21 104q0 23 -10.5 57t-23.5 72.5t-23.5 79.5t-10.5 77q0 22 6 43t18.5 36.5t33 25t50.5 9.5q44 0 72 -24.5t44.5 -63.5t22.5 -88t6 -98q0 -84 -5.5 -157
t-33.5 -128t-86.5 -86.5t-164.5 -31.5q-89 0 -145 32.5t-87.5 86t-43 122.5t-11.5 143q0 43 6 94.5t22.5 96t46.5 74.5t78 30z" />
    <glyph glyph-name="v" unicode="v" horiz-adv-x="595" 
d="M85 662q17 -1 31.5 -4.5t25.5 -14.5q7 -7 10.5 -12.5t6.5 -16t5.5 -29.5t6.5 -52q8 -66 15 -119t16.5 -90.5t22.5 -57.5t34 -20q23 0 37 19t22.5 55t14.5 89t13 121q4 40 17 66.5t30.5 42.5t38 22t39.5 6q38 0 60.5 -10.5t34.5 -28t15.5 -39.5t3.5 -45q0 -46 -8 -105
t-24 -121t-41 -121.5t-58 -106t-75 -75t-93 -28.5q-46 0 -84.5 26.5t-69 71t-53.5 103t-38.5 121.5t-23 127t-7.5 120q0 33 6.5 53.5t17 32t24 16t27.5 4.5z" />
    <glyph glyph-name="w" unicode="w" horiz-adv-x="729" 
d="M201 569q0 -27 -9 -58t-20.5 -64t-20.5 -66.5t-9 -65.5q0 -15 2.5 -31.5t8.5 -30t16.5 -22.5t26.5 -9q17 0 22 19t5.5 47t0.5 61.5t7.5 61.5t26.5 47t57 19q40 0 62.5 -11.5t33 -30.5t13 -42t4 -46.5t5.5 -44.5t17 -35q6 -7 15.5 -12.5t22.5 -5.5q6 0 16.5 3t21.5 14
t19 34t8 64q0 33 -10.5 58t-23.5 47.5t-23.5 44.5t-10.5 51q0 25 8.5 46t23.5 36t34.5 23.5t41.5 8.5q37 0 62 -15.5t41 -40.5t23 -55.5t7 -61.5q0 -36 -6.5 -78.5t-16.5 -86t-22 -84t-23 -72.5q-15 -43 -32.5 -79t-37.5 -62.5t-43.5 -41t-50.5 -14.5q-31 0 -50.5 15
t-32.5 38t-21 49t-14.5 49t-14.5 38t-20 15q-6 0 -13.5 -9.5t-13.5 -22t-11 -25.5t-7 -20q-6 -23 -12.5 -45.5t-16.5 -40.5t-24 -29.5t-35 -11.5q-19 0 -36.5 6.5t-32.5 17.5t-28 24.5t-22 27.5q-22 32 -37.5 73t-26 86.5t-15.5 93t-5 92.5q0 67 8 113.5t22.5 75t35 41.5
t46.5 13q42 0 63 -22.5t21 -60.5z" />
    <glyph glyph-name="x" unicode="x" horiz-adv-x="641" 
d="M509 670q47 0 65 -19.5t18 -46.5t-13 -50t-32 -44t-41.5 -40.5t-41.5 -38.5t-32 -38.5t-13 -39.5q0 -22 15.5 -44t39 -45t50.5 -46.5t50.5 -47.5t39 -49.5t15.5 -52.5q0 -18 -9 -33t-23 -25.5t-33 -16.5t-38 -6q-20 0 -40 4t-36.5 9t-26.5 9.5t-11 6.5q-6 5 -8.5 21
t-5 36.5t-6 43.5t-11 41.5t-22 31t-37.5 12.5t-39 -13.5t-26 -35t-15 -47.5t-5 -51q0 -16 -11.5 -28.5t-29.5 -20.5t-41 -12.5t-46 -4.5q-48 0 -72.5 16.5t-24.5 45.5q0 26 16 52t40 51.5t52 51t52 50t40 48t16 46.5q0 22 -14.5 42.5t-36 40t-46.5 39t-46.5 40.5t-36 43.5
t-14.5 48.5q0 63 110 63q33 0 63 -7.5t46 -22.5q13 -13 16.5 -40t9 -54.5t17 -48.5t40.5 -21q19 0 30.5 11t17.5 30t7.5 42.5t1.5 49.5q0 16 12.5 28t30.5 20t38 12t35 4z" />
    <glyph glyph-name="y" unicode="y" horiz-adv-x="550" 
d="M361 220q-8 14 -26 19.5t-35 5.5q-29 0 -62.5 -7t-67.5 -7q-39 0 -68.5 17t-50 46t-31 67t-10.5 80q0 40 10 79.5t30 71t50 51t70 19.5q21 0 36 -7t25 -18t15 -24.5t5 -26.5q0 -22 -8.5 -43.5t-19 -41t-19 -36t-8.5 -27.5q0 -8 3.5 -20t14 -23.5t28.5 -20t47 -8.5
q10 0 22 3t22.5 9.5t17.5 17.5t7 28q0 27 -7.5 46t-16 36t-16 34t-7.5 41q0 32 20.5 55t58.5 23q24 0 50 -6.5t48 -28.5t36.5 -65t14.5 -115q0 -102 -11.5 -188.5t-43.5 -148.5t-88 -97t-144 -35q-31 0 -65 8t-62.5 24.5t-47 42t-18.5 60.5q0 22 14 39.5t37 17.5
q18 0 38.5 -9t42 -19.5t44.5 -19t46 -8.5q12 0 26.5 4.5t28 14t22.5 25t9 37.5q0 14 -6 28z" />
    <glyph glyph-name="z" unicode="z" horiz-adv-x="561" 
d="M68 652q12 12 26 17t30 5q18 0 37.5 -5t41 -10.5t44.5 -10.5t49 -5q14 0 33 2.5t39.5 6t42 6t41.5 2.5q38 0 62.5 -16t24.5 -61t-16.5 -78t-41.5 -60t-54.5 -50.5t-56.5 -49.5q-6 -6 -19 -22t-26 -37.5t-23 -45t-10 -44.5q0 -26 18 -41t34 -15q17 0 33.5 10.5t33 22.5
t32.5 22.5t32 10.5q42 0 58 -27.5t16 -75.5q0 -51 -17 -83t-59 -32q-17 0 -37 3.5t-42 8t-44.5 8.5t-44.5 4q-16 0 -39 -3.5t-50 -8t-55 -8t-53 -3.5q-52 0 -74 21t-22 53q0 30 16.5 63t39.5 63.5t47 56t39 39.5q18 17 41 40t43 48.5t33.5 51.5t13.5 50q0 15 -10 31.5
t-28 16.5q-14 0 -29 -9t-32 -19.5t-34.5 -19t-35.5 -8.5q-17 0 -31 9.5t-24 24.5t-15.5 33.5t-5.5 36.5q0 24 7 45.5t21 35.5z" />
    <glyph glyph-name="braceleft" unicode="{" horiz-adv-x="341" 
d="M282 719q23 0 36.5 -10t13.5 -37q0 -20 -10 -28.5t-25 -12.5t-33 -6.5t-33 -9t-25 -21t-10 -41.5q0 -17 3.5 -35t7 -37l7 -38t3.5 -37q0 -30 -13 -47t-28 -27t-28 -16.5t-13 -14.5q0 -14 14 -19.5t30.5 -12.5t30.5 -19.5t14 -40.5q0 -17 -5 -36t-11.5 -38.5t-11.5 -39.5
t-5 -39q0 -26 10 -42t25 -25.5t33 -15t33 -12t25 -16.5t10 -28q0 -28 -19 -39.5t-42 -11.5q-47 0 -78 15t-49.5 37t-26.5 46.5t-8 42.5q0 20 4 40t9 39t9 37.5t4 35.5q0 26 -9.5 41t-23.5 23.5t-30.5 13.5t-30.5 11.5t-23.5 17t-9.5 30.5q0 26 9.5 39t23 19t30 8t30 6t23 13
t9.5 29q0 9 -3 27t-7 41.5t-7 50.5t-3 53q0 38 9 64t29 42.5t53.5 23.5t82.5 7z" />
    <glyph glyph-name="bar" unicode="|" horiz-adv-x="136" 
d="M70 721q29 0 41 -20.5t12 -53.5q0 -20 -2.5 -49.5t-5.5 -71t-5.5 -97.5t-2.5 -130q0 -86 2.5 -142.5t5.5 -100.5t5.5 -83t2.5 -89q0 -23 -11 -40t-48 -17q-20 0 -35.5 12t-15.5 50q0 49 2 87t4.5 80.5t4.5 96t2 133.5q0 128 -6.5 209.5t-6.5 130.5q0 48 13.5 71.5
t43.5 23.5z" />
    <glyph glyph-name="braceright" unicode="}" horiz-adv-x="340" 
d="M59 719q49 0 83 -7.5t54 -24t29 -42.5t9 -62q0 -23 -3 -47t-6 -46.5t-6 -43t-3 -35.5q0 -20 9 -29.5t22.5 -13.5t29 -6t29 -8t22.5 -19t9 -39q0 -20 -9.5 -30.5t-23.5 -17.5t-30 -12t-30 -14t-23.5 -24t-9.5 -41q0 -17 3.5 -35t8 -37t8.5 -39t4 -39q0 -18 -7.5 -42.5
t-26 -46.5t-50 -37t-78.5 -15q-22 0 -40.5 10.5t-18.5 39.5q0 19 10 29t25 17t32.5 12.5t32.5 15t25 25t10 42.5q0 19 -5 39t-11.5 39.5t-11.5 38.5t-5 36q0 27 14 39.5t30.5 19.5t30.5 12.5t14 18.5q0 11 -13.5 16.5t-30 16t-30 30t-13.5 58.5q0 15 4 33t8.5 36.5t8.5 36.5
t4 34q0 24 -10 36.5t-25 19t-32 9t-32 7t-25 13t-10 26.5q0 31 15.5 39t34.5 8z" />
    <glyph glyph-name="asciitilde" unicode="~" horiz-adv-x="520" 
d="M456 361q29 -2 40.5 -19t11.5 -39q0 -30 -12 -51t-29.5 -34t-37 -19t-34.5 -6q-30 0 -60 12.5t-58.5 27.5t-55.5 27.5t-51 12.5q-21 0 -36 -11.5t-26.5 -25t-22 -24.5t-23.5 -11q-23 0 -36.5 16.5t-13.5 38.5q0 24 11.5 44.5t29 35.5t39.5 23.5t43 8.5q37 0 67 -13.5
t54.5 -29t45.5 -29t41 -13.5q18 0 31.5 12t26 27t25.5 27t30 12z" />
    <glyph glyph-name="uni00A0" unicode="&#xa0;" horiz-adv-x="417" 
 />
    <glyph glyph-name="exclamdown" unicode="&#xa1;" horiz-adv-x="286" 
d="M146 -69q-44 0 -71 7.5t-41 20t-18.5 28.5t-4.5 33q0 18 10.5 35t22.5 37.5t22.5 47.5t10.5 66q0 23 -6.5 52.5t-6.5 57.5q0 33 18 56t57 23q37 0 52.5 -23t15.5 -50q0 -20 -3 -44t-3 -56q0 -25 11.5 -48.5t26 -47.5t26 -50t11.5 -56q0 -51 -33.5 -70t-96.5 -19zM131 438
q-8 0 -26 4t-36.5 14.5t-33 29t-14.5 48.5q0 19 8.5 36.5t24 30.5t39 21t53.5 8q21 0 39.5 -6.5t32.5 -18t22.5 -28t8.5 -36.5t-6.5 -38.5t-20.5 -32.5t-36.5 -23t-54.5 -9z" />
    <glyph glyph-name="cent" unicode="&#xa2;" horiz-adv-x="385" 
d="M227 672q33 0 43.5 -10.5t10.5 -23.5t-5 -27t-5 -26q0 -16 8 -22t20 -7.5t25.5 -1t25.5 -2.5t20 -12t8 -29q0 -21 -15 -37t-28 -16q-7 0 -14.5 4.5t-15 9.5t-15.5 9.5t-16 4.5q-17 0 -32.5 -8.5t-27 -26.5t-18.5 -47.5t-7 -71.5q0 -19 4 -47t13 -54t22.5 -44.5
t33.5 -18.5q10 0 19.5 4.5t18.5 9.5t17.5 9.5t16.5 4.5q14 0 30 -15.5t16 -38.5q0 -29 -15 -39.5t-32 -10.5q-10 0 -19.5 1.5t-17.5 1.5q-17 0 -22 -10.5t-5 -22.5q0 -10 2 -21t2 -21q0 -37 -47 -37q-18 0 -33.5 9t-15.5 27q0 9 2.5 18t2.5 17q0 12 -13 21.5t-32.5 21
t-42.5 27.5t-42.5 41t-32.5 62t-13 90q0 60 8.5 98.5t23 63t33.5 38t40 22.5q25 11 47.5 24.5t22.5 26.5q0 11 -5 22.5t-5 23.5q0 14 12 25t44 11z" />
    <glyph glyph-name="sterling" unicode="&#xa3;" horiz-adv-x="509" 
d="M167 535q10 23 25 44t36.5 37t50 25.5t64.5 9.5q19 0 45.5 -8.5t50.5 -24t41 -38t17 -49.5q0 -9 -4.5 -17.5t-13.5 -8.5q-8 0 -18.5 7t-22 15.5t-24.5 15.5t-26 7q-18 0 -32 -14.5t-23 -37.5t-13.5 -51t-4.5 -56q0 -35 6.5 -51t24.5 -16q6 0 19 5.5t28 5.5q17 0 31 -13
t14 -39t-11.5 -39.5t-25.5 -13.5t-28.5 8t-28.5 8t-25.5 -11.5t-19.5 -27.5t-12 -34t-4 -31q0 -15 3 -29t10 -25t18 -18t27 -7q10 0 22.5 5.5t26 11.5t27.5 11.5t27 5.5q22 0 34 -17.5t12 -43.5q0 -38 -20 -53t-58 -15q-21 0 -45.5 3.5l-49 7t-47 7t-40.5 3.5
q-20 0 -40.5 -3.5t-41 -8t-40.5 -8t-38 -3.5q-28 0 -46 13.5t-18 39.5q0 29 9.5 43.5t23.5 22.5t29.5 13.5t26.5 16.5q9 9 16.5 22.5t13 28t8.5 28.5t3 25q0 9 -2.5 15t-7.5 6q-8 0 -21 -5.5t-27 -5.5q-20 0 -31.5 15.5t-11.5 38.5q0 29 12 39.5t26 10.5q11 0 22 -3t20 -3
q19 0 23.5 19.5t5.5 50t4 67t19 71.5z" />
    <glyph glyph-name="yen" unicode="&#xa5;" horiz-adv-x="486" 
d="M414 666q35 0 49.5 -15t14.5 -35q0 -21 -14 -45.5t-35.5 -50.5t-46.5 -51.5t-46.5 -49t-35.5 -43.5t-14 -35q0 -21 3 -31.5t21 -10.5q29 0 52.5 7.5t41.5 7.5q37 0 37 -48q0 -23 -9.5 -38t-25.5 -15q-24 0 -42 4.5t-32 4.5t-26.5 -10.5t-12.5 -30.5q0 -25 28 -25
q-1 0 17 4t54 4q23 0 33.5 -9.5t10.5 -35.5q0 -52 -40 -52q-17 0 -35 6t-35 6q-12 0 -21.5 -7t-9.5 -19q0 -8 2.5 -15.5t2.5 -15.5q0 -20 -19 -29.5t-45 -9.5q-60 0 -60 27q0 11 6 22.5t6 22.5q0 14 -13 19.5t-24 5.5q-20 0 -42 -6t-39 -6q-20 0 -28 14t-8 31q0 32 11 42
t28 10q20 0 44 -6.5t43 -6.5q30 0 30 36q0 15 -6.5 27.5t-26.5 12.5q-18 0 -42.5 -7.5t-44.5 -7.5q-7 0 -14 1.5t-13 6.5t-9.5 15.5t-3.5 28.5q0 17 9.5 30t35.5 13q21 0 45.5 -5.5t42.5 -5.5q15 0 20.5 6.5t5.5 29.5q0 21 -13.5 43.5t-33.5 46.5t-43 48.5t-43 49
t-33.5 47.5t-13.5 44q0 20 16.5 38t42.5 18q31 0 52 -16t36 -40t25 -52.5t19.5 -52.5t19 -40t23.5 -16q11 0 19 16t16 40t18 51.5t25.5 51.5t37.5 40t55 16z" />
    <glyph glyph-name="dieresis" unicode="&#xa8;" horiz-adv-x="395" 
d="M90 850q36 -1 53.5 -24t17.5 -54q0 -29 -19.5 -47t-55.5 -18q-34 0 -54 18.5t-20 46.5q0 30 21 54t57 24zM323 846q32 0 46 -19t14 -47q0 -31 -17.5 -52t-47.5 -21q-35 0 -58.5 21t-23.5 50q0 10 4.5 22t14.5 22.5t27 17t41 6.5z" />
    <glyph glyph-name="copyright" unicode="&#xa9;" horiz-adv-x="713" 
d="M355 671q86 0 151.5 -30t109 -78.5t65.5 -111t22 -127.5t-23 -128t-68.5 -112.5t-113 -79.5t-156.5 -30q-63 0 -124.5 22t-112.5 73t-73 112t-22 124q0 80 24.5 147.5t70 116t109 75.5t141.5 27zM348 598q-65 0 -114 -25t-82 -64.5t-50 -88t-17 -95.5q0 -51 18 -99
t54 -86t89 -61t123 -23q58 0 105 23.5t79.5 63t50 90.5t17.5 107q0 127 -69 192.5t-204 65.5zM344 431q-14 0 -25 -8.5t-18.5 -23t-11 -33t-3.5 -38.5t4 -39t11.5 -33.5t19 -23t26.5 -8.5q25 0 37.5 9.5t21 21t17 21t25.5 9.5q21 0 32.5 -13t11.5 -29q0 -22 -15.5 -39
t-38.5 -29t-48.5 -18t-46.5 -6q-41 0 -72 15t-51.5 39t-31 55.5t-10.5 64.5q0 100 48.5 142t136.5 42q21 0 42 -4t38 -12.5t27.5 -21.5t10.5 -32t-14 -33.5t-34 -14.5q-18 0 -25.5 6t-14 13.5t-16.5 14t-33 6.5z" />
    <glyph glyph-name="ordfeminine" unicode="&#xaa;" horiz-adv-x="321" 
d="M166 625q23 0 47 -2t43.5 -10.5t32 -26.5t12.5 -49q0 -27 -4.5 -57t-4.5 -54q0 -10 2.5 -25t6 -31.5t6 -33t2.5 -29.5q0 -20 -9 -29.5t-38 -9.5q-14 0 -20.5 3t-12 6t-11.5 6t-18 3q-16 0 -41.5 -10t-55.5 -10q-17 0 -33.5 6.5t-29.5 19t-21 31.5t-8 44q0 32 13.5 52
t33.5 32t43.5 19t43.5 14t33.5 16t13.5 25q0 17 -9 23.5t-17 6.5q-11 0 -23.5 -7.5t-25 -16.5t-26 -16.5t-26.5 -7.5q-12 0 -25 10t-13 34q0 23 14 37.5t34.5 22.5t45 11t45.5 3zM208 465q-17 0 -30.5 -12t-13.5 -30q0 -12 7.5 -20.5t29.5 -8.5q14 0 26 8.5t12 34.5
q0 11 -7 19.5t-24 8.5z" />
    <glyph glyph-name="guillemotleft" unicode="&#xab;" horiz-adv-x="381" 
d="M149 413q18 -2 28.5 -17t10.5 -29q0 -17 -13.5 -34t-29.5 -32t-29.5 -27.5t-13.5 -20.5t13.5 -18.5t29.5 -24t29.5 -31.5t13.5 -41q0 -14 -10 -26t-31 -12t-45 19.5t-45 45.5t-34.5 52t-13.5 39q0 10 13.5 36t34 53t45 47.5t47.5 20.5zM328 408q16 -2 27 -14.5t11 -29.5
q0 -18 -13 -34t-28.5 -29.5t-28.5 -24.5t-13 -19t13.5 -18.5t29.5 -24.5t29.5 -32t13.5 -40q0 -14 -10.5 -27t-29.5 -13q-21 0 -45.5 19t-45.5 44t-34.5 50.5t-13.5 39.5q0 10 13 35.5t33 51.5t44.5 46t47.5 20z" />
    <glyph glyph-name="registered" unicode="&#xae;" horiz-adv-x="479" 
d="M224 679q64 0 110.5 -20.5t76.5 -53t44 -71.5t14 -76q0 -53 -18 -97.5t-48.5 -76.5t-72.5 -50t-90 -18q-52 0 -94.5 19.5t-72.5 52.5t-46.5 77.5t-16.5 95.5q0 48 14 88.5t41.5 69t67.5 44.5t91 16zM232 635q-40 -1 -69 -14t-47.5 -35.5t-27.5 -53t-9 -66.5
q0 -35 9 -68.5t27 -60.5t44 -43.5t61 -16.5q46 0 81.5 19.5t60 48t37 61.5t12.5 61t-11 57.5t-33.5 54t-56 40.5t-78.5 16zM231 573q13 0 29 -3t29.5 -10t22.5 -17.5t9 -26.5q0 -18 -6.5 -28t-15 -15.5t-15 -9t-6.5 -10.5q0 -5 9 -9.5t19.5 -13t19.5 -22.5t9 -38
q0 -13 -6.5 -23t-23.5 -10q-18 0 -26 7.5t-11 18.5t-3 24.5t-2 24.5t-8.5 18.5t-22.5 7.5q-10 0 -14 -6.5t-4 -14.5q0 -12 4 -25.5t4 -25.5q0 -11 -7 -20t-25 -9q-14 0 -23 8.5t-9 28.5q0 19 5 41.5t5 36.5q0 20 -5.5 41t-5.5 39q0 8 1.5 15.5t8.5 13t22 9t42 3.5zM243 531
q-14 0 -19 -7t-5 -18q0 -25 23 -25q11 0 18 9t7 22q0 8 -4.5 13.5t-19.5 5.5z" />
    <glyph glyph-name="macron" unicode="&#xaf;" horiz-adv-x="369" 
d="M295 848q30 0 46 -24.5t16 -51.5q0 -31 -17.5 -48.5t-43.5 -17.5t-56 10t-59 10q-12 0 -25 -3.5t-26.5 -7.5t-27.5 -7.5t-27 -3.5q-10 0 -21 3.5t-20.5 12t-15.5 22.5t-6 35q0 29 20 50t50 21q23 0 47 -8t44 -8q22 0 37.5 2.5t28.5 5.5t26 5.5t30 2.5z" />
    <glyph glyph-name="degree" unicode="&#xb0;" horiz-adv-x="316" 
d="M159 663q37 0 64.5 -12t46 -31.5t27.5 -44.5t9 -52q0 -26 -9.5 -53t-28.5 -49.5t-46.5 -37t-64.5 -14.5q-31 0 -57.5 14t-46.5 36.5t-31.5 52t-11.5 59.5q0 31 12 55.5t32.5 41.5t47.5 26t57 9zM188 592q-24 0 -38 -15t-14 -50q0 -24 12.5 -45.5t40.5 -21.5
q26 0 39.5 21.5t13.5 47.5q0 24 -12.5 43.5t-41.5 19.5z" />
    <glyph glyph-name="acute" unicode="&#xb4;" horiz-adv-x="209" 
d="M154 890q23 -2 36 -18.5t13 -36.5t-13 -33q-8 -8 -29 -21.5t-46 -26.5t-50.5 -22.5t-41.5 -9.5q-8 0 -12.5 2t-4.5 13q0 12 8 36.5t35 51.5q10 10 23.5 21.5t28 21t28.5 16t25 6.5z" />
    <glyph glyph-name="mu" unicode="&#xb5;" horiz-adv-x="421" 
d="M349 472q30 0 44 -16t14 -61q0 -21 -2.5 -45t-5 -47.5t-5 -44t-2.5 -34.5q0 -20 3.5 -41.5t8 -43t8 -42t3.5 -38.5q0 -25 -11.5 -45t-37.5 -20q-16 0 -31.5 6t-25.5 6q-11 0 -19 -2t-15.5 -4t-16.5 -4t-22 -2q-26 0 -45.5 7.5t-33.5 7.5q-9 0 -16.5 -6.5t-7.5 -21.5
t4 -30.5t9.5 -30t9.5 -28.5t4 -27q0 -26 -21 -44t-53 -18q-22 0 -36.5 6.5t-22.5 18t-11.5 26t-3.5 30.5q0 26 6 58.5t12.5 72t12.5 86.5t6 103q0 66 -11 116.5t-11 85.5q0 29 14 46.5t56 17.5q31 0 48.5 -17t17.5 -59q0 -6 -3 -24.5t-6 -44t-6 -56t-3 -59.5t3 -51.5
t11.5 -38.5t23.5 -24.5t38 -8.5q43 0 58 31t15 88q0 18 -2.5 41t-5 47.5l-5 49t-2.5 45.5q0 48 16.5 65.5t53.5 17.5z" />
    <glyph glyph-name="paragraph" unicode="&#xb6;" horiz-adv-x="708" 
d="M292 6q-47 49 -97 98.5t-91.5 103.5t-68.5 115t-27 133q0 41 12.5 74t34.5 56t50.5 35.5t60.5 12.5t63 -12t57 -32q20 -16 39.5 -29.5t38.5 -13.5q20 0 39.5 17.5t51.5 49.5q18 18 44 29t57 11q26 0 52 -10t46.5 -29t33.5 -46.5t13 -61.5q0 -42 -15.5 -86.5t-37.5 -84.5
t-46.5 -72.5t-41.5 -50.5q-22 -23 -43 -44l-44 -44q-18 -18 -39 -43.5t-40.5 -48t-36.5 -38.5t-27 -16q-14 0 -38 27z" />
    <glyph glyph-name="periodcentered" unicode="&#xb7;" horiz-adv-x="248" 
d="M128 444q7 0 25.5 -4t37 -14.5t33 -29t14.5 -48.5q0 -19 -8.5 -36.5t-24 -30.5t-39 -21t-53.5 -8q-21 0 -39.5 6.5t-32.5 18t-22.5 28t-8.5 36.5q0 19 6.5 38t20.5 33t36.5 23t54.5 9z" />
    <glyph glyph-name="cedilla" unicode="&#xb8;" horiz-adv-x="235" 
d="M179 64q26 0 37 -18t11 -44q0 -27 -11.5 -59t-33 -59t-52 -45t-68.5 -18q-23 0 -40.5 13.5t-17.5 38.5q0 16 10 27t23.5 20t28 17t23.5 18q18 19 24 38t11.5 35t16.5 26t38 10z" />
    <glyph glyph-name="ordmasculine" unicode="&#xba;" horiz-adv-x="306" 
d="M157 632q39 -1 66 -14.5t43 -35.5t23 -51.5t7 -63.5q0 -36 -10 -72t-29 -65t-47.5 -47t-65.5 -18q-38 0 -63 13.5t-41 37t-22.5 55.5t-6.5 70q0 41 8 76t25.5 60.5t45.5 40t67 14.5zM138 446q-32 -1 -43 -16.5t-11 -39.5q0 -26 11 -41.5t35 -15.5q31 0 42 16t11 35
q0 33 -13 47t-32 15z" />
    <glyph glyph-name="guillemotright" unicode="&#xbb;" horiz-adv-x="380" 
d="M232 99q-15 0 -27 10.5t-12 31.5q0 18 13.5 35.5t29 33t29 28t13.5 20.5q0 7 -13.5 17.5t-29.5 24.5t-29.5 32t-13.5 41q0 13 9.5 25.5t31.5 12.5q21 0 45 -19.5t44.5 -45t34.5 -51.5t14 -39q0 -11 -13.5 -36.5t-34.5 -52.5t-45.5 -47.5t-45.5 -20.5zM53 104
q-14 0 -26.5 12t-12.5 31q0 16 13.5 32.5t29 30.5t29 25.5t13.5 19.5t-13.5 18t-30 23.5t-30 31.5t-13.5 42q0 14 10.5 26.5t29.5 12.5q20 0 44 -18.5t45 -43.5t35 -50.5t14 -38.5q0 -10 -12.5 -35t-32.5 -51.5t-44.5 -47t-47.5 -20.5z" />
    <glyph glyph-name="questiondown" unicode="&#xbf;" horiz-adv-x="433" 
d="M386 2q-30 -30 -74.5 -45t-93.5 -15q-37 0 -74.5 9t-68 27t-49.5 46t-19 66q0 33 8.5 59.5t22 46.5t30.5 32.5t34 17.5q81 22 81 67q0 11 -3 22.5t-3 22.5q0 23 20 33.5t40 10.5q22 0 37.5 -6.5t25 -16.5t13.5 -23t4 -25q0 -29 -9.5 -49t-23.5 -34.5t-30.5 -26.5
t-30.5 -25.5t-23.5 -31.5t-9.5 -45q0 -23 13 -39t53 -16q28 0 47 7.5t34 17t28.5 17t30.5 7.5q14 0 22 -9.5t8 -23.5q0 -17 -10.5 -38t-29.5 -40zM229 439q-8 0 -26 4t-36.5 14.5t-33 29t-14.5 48.5q0 19 8.5 36.5t24 30.5t39 21t53.5 8q21 0 39.5 -6.5t32.5 -18t22.5 -28
t8.5 -36.5t-6.5 -38.5t-20.5 -32.5t-36.5 -23t-54.5 -9z" />
    <glyph glyph-name="Agrave" unicode="&#xc0;" horiz-adv-x="628" 
d="M314 660q44 0 74.5 -7.5t49 -20t27 -29t8.5 -34.5q0 -25 -9 -51.5t-9 -55.5q0 -32 9 -68t22 -72q14 -41 36.5 -75t44.5 -64t37.5 -57t15.5 -53q0 -17 -9 -33.5t-24 -29.5t-34.5 -21t-40.5 -8q-17 0 -37 3.5t-37.5 12.5t-29.5 23.5t-12 35.5q0 14 2.5 26.5t2.5 26.5
q0 32 -28 52.5t-74 20.5q-39 0 -67 -17.5t-28 -52.5q0 -17 4.5 -30t4.5 -26q0 -18 -8.5 -31.5t-23 -23.5t-33.5 -15t-39 -5q-48 0 -74.5 21.5t-26.5 58.5q0 39 24 87.5t53 101t53 105.5t24 100q0 26 -9.5 54t-9.5 55q0 18 8 35.5t27.5 31t52.5 21.5t83 8zM360 334
q0 10 -3 25t-9 28.5t-16 23.5t-24 10q-11 0 -23 -7t-21.5 -19.5t-16 -30t-6.5 -37.5q0 -11 3.5 -23t11 -21.5t18.5 -16t27 -6.5q26 0 42.5 22t16.5 52zM235 890q11 0 24.5 -6.5t28 -16t27.5 -21t24 -21.5q26 -26 34.5 -50t8.5 -36t-5 -14.5t-13 -2.5q-16 0 -40.5 9t-49.5 22
t-45.5 26t-27.5 21q-5 6 -10 16t-5 23q0 7 3 15.5t9 16.5t15 13.5t22 5.5z" />
    <glyph glyph-name="Aacute" unicode="&#xc1;" horiz-adv-x="628" 
d="M314 660q44 0 74.5 -7.5t49 -20t27 -29t8.5 -34.5q0 -25 -9 -51.5t-9 -55.5q0 -32 9 -68t22 -72q14 -41 36.5 -75t44.5 -64t37.5 -57t15.5 -53q0 -17 -9 -33.5t-24 -29.5t-34.5 -21t-40.5 -8q-17 0 -37 3.5t-37.5 12.5t-29.5 23.5t-12 35.5q0 14 2.5 26.5t2.5 26.5
q0 32 -28 52.5t-74 20.5q-39 0 -67 -17.5t-28 -52.5q0 -17 4.5 -30t4.5 -26q0 -18 -8.5 -31.5t-23 -23.5t-33.5 -15t-39 -5q-48 0 -74.5 21.5t-26.5 58.5q0 39 24 87.5t53 101t53 105.5t24 100q0 26 -9.5 54t-9.5 55q0 18 8 35.5t27.5 31t52.5 21.5t83 8zM360 334
q0 10 -3 25t-9 28.5t-16 23.5t-24 10q-11 0 -23 -7t-21.5 -19.5t-16 -30t-6.5 -37.5q0 -11 3.5 -23t11 -21.5t18.5 -16t27 -6.5q26 0 42.5 22t16.5 52zM393 890q23 -2 36 -18.5t13 -36.5t-13 -33q-8 -8 -29 -21.5t-46 -26.5t-50.5 -22.5t-41.5 -9.5q-8 0 -12.5 2t-4.5 13
q0 12 8 36.5t35 51.5q10 10 23.5 21.5t28 21t28.5 16t25 6.5z" />
    <glyph glyph-name="Acircumflex" unicode="&#xc2;" horiz-adv-x="628" 
d="M314 660q44 0 74.5 -7.5t49 -20t27 -29t8.5 -34.5q0 -25 -9 -51.5t-9 -55.5q0 -32 9 -68t22 -72q14 -41 36.5 -75t44.5 -64t37.5 -57t15.5 -53q0 -17 -9 -33.5t-24 -29.5t-34.5 -21t-40.5 -8q-17 0 -37 3.5t-37.5 12.5t-29.5 23.5t-12 35.5q0 14 2.5 26.5t2.5 26.5
q0 32 -28 52.5t-74 20.5q-39 0 -67 -17.5t-28 -52.5q0 -17 4.5 -30t4.5 -26q0 -18 -8.5 -31.5t-23 -23.5t-33.5 -15t-39 -5q-48 0 -74.5 21.5t-26.5 58.5q0 39 24 87.5t53 101t53 105.5t24 100q0 26 -9.5 54t-9.5 55q0 18 8 35.5t27.5 31t52.5 21.5t83 8zM360 334
q0 10 -3 25t-9 28.5t-16 23.5t-24 10q-11 0 -23 -7t-21.5 -19.5t-16 -30t-6.5 -37.5q0 -11 3.5 -23t11 -21.5t18.5 -16t27 -6.5q26 0 42.5 22t16.5 52zM313 885q11 -1 37 -14.5t52.5 -34t47 -44.5t20.5 -46q0 -15 -13.5 -27t-30.5 -12t-34 13t-32 29t-27.5 29t-21.5 13
t-19.5 -13.5t-24 -29.5t-31.5 -29.5t-41 -13.5q-14 0 -25.5 10t-11.5 30q0 21 19 45.5t45 45.5t51.5 35t39.5 14z" />
    <glyph glyph-name="Atilde" unicode="&#xc3;" horiz-adv-x="628" 
d="M314 660q44 0 74.5 -7.5t49 -20t27 -29t8.5 -34.5q0 -25 -9 -51.5t-9 -55.5q0 -32 9 -68t22 -72q14 -41 36.5 -75t44.5 -64t37.5 -57t15.5 -53q0 -17 -9 -33.5t-24 -29.5t-34.5 -21t-40.5 -8q-17 0 -37 3.5t-37.5 12.5t-29.5 23.5t-12 35.5q0 14 2.5 26.5t2.5 26.5
q0 32 -28 52.5t-74 20.5q-39 0 -67 -17.5t-28 -52.5q0 -17 4.5 -30t4.5 -26q0 -18 -8.5 -31.5t-23 -23.5t-33.5 -15t-39 -5q-48 0 -74.5 21.5t-26.5 58.5q0 39 24 87.5t53 101t53 105.5t24 100q0 26 -9.5 54t-9.5 55q0 18 8 35.5t27.5 31t52.5 21.5t83 8zM360 334
q0 10 -3 25t-9 28.5t-16 23.5t-24 10q-11 0 -23 -7t-21.5 -19.5t-16 -30t-6.5 -37.5q0 -11 3.5 -23t11 -21.5t18.5 -16t27 -6.5q26 0 42.5 22t16.5 52zM236 850q22 0 40 -9.5t33 -21.5t28 -21.5t25 -9.5q13 0 21.5 10.5t16 23t15.5 23t19 10.5q19 0 30 -16.5t11 -33.5
q0 -24 -9.5 -40.5t-22 -27t-26.5 -15t-23 -4.5q-20 0 -38 9t-34.5 20.5t-32 20.5t-29.5 9q-15 0 -24 -10t-15.5 -21.5t-12.5 -21.5t-14 -10q-17 0 -29 13t-12 32q0 20 8.5 37t21 29t27 18.5t26.5 6.5z" />
    <glyph glyph-name="Adieresis" unicode="&#xc4;" horiz-adv-x="628" 
d="M314 660q44 0 74.5 -7.5t49 -20t27 -29t8.5 -34.5q0 -25 -9 -51.5t-9 -55.5q0 -32 9 -68t22 -72q14 -41 36.5 -75t44.5 -64t37.5 -57t15.5 -53q0 -17 -9 -33.5t-24 -29.5t-34.5 -21t-40.5 -8q-17 0 -37 3.5t-37.5 12.5t-29.5 23.5t-12 35.5q0 14 2.5 26.5t2.5 26.5
q0 32 -28 52.5t-74 20.5q-39 0 -67 -17.5t-28 -52.5q0 -17 4.5 -30t4.5 -26q0 -18 -8.5 -31.5t-23 -23.5t-33.5 -15t-39 -5q-48 0 -74.5 21.5t-26.5 58.5q0 39 24 87.5t53 101t53 105.5t24 100q0 26 -9.5 54t-9.5 55q0 18 8 35.5t27.5 31t52.5 21.5t83 8zM360 334
q0 10 -3 25t-9 28.5t-16 23.5t-24 10q-11 0 -23 -7t-21.5 -19.5t-16 -30t-6.5 -37.5q0 -11 3.5 -23t11 -21.5t18.5 -16t27 -6.5q26 0 42.5 22t16.5 52zM206 850q36 -1 53.5 -24t17.5 -54q0 -29 -19.5 -47t-55.5 -18q-34 0 -54 18.5t-20 46.5q0 30 21 54t57 24zM439 846
q32 0 46 -19t14 -47q0 -31 -17.5 -52t-47.5 -21q-35 0 -58.5 21t-23.5 50q0 10 4.5 22t14.5 22.5t27 17t41 6.5z" />
    <glyph glyph-name="Aring" unicode="&#xc5;" horiz-adv-x="628" 
d="M314 660q44 0 74.5 -7.5t49 -20t27 -29t8.5 -34.5q0 -25 -9 -51.5t-9 -55.5q0 -32 9 -68t22 -72q14 -41 36.5 -75t44.5 -64t37.5 -57t15.5 -53q0 -17 -9 -33.5t-24 -29.5t-34.5 -21t-40.5 -8q-17 0 -37 3.5t-37.5 12.5t-29.5 23.5t-12 35.5q0 14 2.5 26.5t2.5 26.5
q0 32 -28 52.5t-74 20.5q-39 0 -67 -17.5t-28 -52.5q0 -17 4.5 -30t4.5 -26q0 -18 -8.5 -31.5t-23 -23.5t-33.5 -15t-39 -5q-48 0 -74.5 21.5t-26.5 58.5q0 39 24 87.5t53 101t53 105.5t24 100q0 26 -9.5 54t-9.5 55q0 18 8 35.5t27.5 31t52.5 21.5t83 8zM360 334
q0 10 -3 25t-9 28.5t-16 23.5t-24 10q-11 0 -23 -7t-21.5 -19.5t-16 -30t-6.5 -37.5q0 -11 3.5 -23t11 -21.5t18.5 -16t27 -6.5q26 0 42.5 22t16.5 52zM316 878q51 0 76.5 -29.5t25.5 -69.5q0 -18 -7 -37t-20 -34.5t-33 -26t-45 -10.5q-21 0 -39.5 9.5t-33 25.5t-22.5 36.5
t-8 42.5t9 39.5t23.5 29.5t33.5 18t40 6zM311 825q-19 -2 -27.5 -12t-8.5 -33q0 -16 8 -31t27 -15q20 0 29.5 15t9.5 32t-9 29.5t-29 14.5z" />
    <glyph glyph-name="AE" unicode="&#xc6;" horiz-adv-x="858" 
d="M643 642q100 0 150.5 -56.5t50.5 -164.5q0 -66 -18 -104.5t-44.5 -60t-57.5 -30t-57.5 -14t-44.5 -13t-18 -26.5q0 -11 5.5 -18.5t13.5 -12t18 -7t18 -2.5q18 0 36.5 6t34.5 14t27.5 16t16.5 13q17 17 28.5 31t26.5 14q18 0 18 -20q0 -49 -19.5 -84.5t-50 -58.5t-68 -34
t-74.5 -11q-36 0 -66.5 8t-54 19.5t-39 24.5t-22.5 24q-17 23 -33.5 39.5t-36 27t-43 15.5t-53.5 5q-35 0 -59 -19t-24 -51q0 -17 4.5 -30t4.5 -26q0 -18 -8.5 -31.5t-23 -23.5t-33.5 -15t-39 -5q-48 0 -74.5 21.5t-26.5 58.5q0 39 24 87.5t53 101t53 105.5t24 100
q0 26 -9.5 54t-9.5 55q0 18 8 35.5t27.5 31t52.5 21.5t83 8q33 0 54.5 -11.5t37.5 -25t28 -24.5t25 -11q15 0 31.5 8.5t38 18.5t49 18.5t65.5 8.5zM360 334q0 10 -3 25t-9 28.5t-16 23.5t-24 10q-11 0 -23 -7t-21.5 -19.5t-16 -30t-6.5 -37.5q0 -11 3.5 -23t11 -21.5
t18.5 -16t27 -6.5q26 0 42.5 22t16.5 52zM629 264q19 0 38 2t34.5 7.5t25 15t9.5 23.5q0 22 -18 31.5t-37 9.5q-43 0 -65.5 -18.5t-22.5 -41.5q0 -11 9.5 -20t26.5 -9z" />
    <glyph glyph-name="Ccedilla" unicode="&#xc7;" horiz-adv-x="542" 
d="M533 191q0 -27 -9.5 -50.5t-26 -44.5t-38 -38.5t-45.5 -30.5q-5 -3 -10.5 -9.5t-10.5 -14.5t-9 -16t-5 -13q-5 -26 -19 -53.5t-35 -49.5t-48.5 -36t-59.5 -14q-23 0 -40.5 13.5t-17.5 38.5q0 18 14 30.5t31.5 22.5t31.5 20t14 23q0 9 -6.5 15.5t-15.5 8.5
q-51 10 -92 38.5t-69 68.5t-43 89t-15 100q0 64 22 129t63.5 117.5t101.5 86t137 33.5q26 0 59 -7t62 -21.5t48.5 -36.5t19.5 -51q0 -11 -6 -20t-19 -9q-9 0 -20.5 3.5t-25 7.5t-28.5 7.5t-31 3.5q-33 0 -60 -19t-45.5 -48t-28.5 -65t-10 -69q0 -36 9 -66t24 -51.5t35 -33.5
t42 -12t43 9.5t40 21t35 21t29 9.5q14 0 21 -12.5t7 -25.5z" />
    <glyph glyph-name="Egrave" unicode="&#xc8;" horiz-adv-x="493" 
d="M264 264q19 0 38 2t34.5 7.5t25 15t9.5 23.5q0 22 -18 31.5t-37 9.5q-43 0 -65.5 -18.5t-22.5 -41.5q0 -11 9.5 -20t26.5 -9zM278 642q100 0 150.5 -56.5t50.5 -164.5q0 -66 -18 -104.5t-44.5 -60t-57.5 -30t-57.5 -14t-44.5 -13t-18 -26.5q0 -11 5.5 -18.5t13.5 -12
t18 -7t18 -2.5q18 0 36.5 6t34.5 14t27.5 16t16.5 13q17 17 28.5 31t26.5 14q18 0 18 -20q0 -49 -19.5 -84.5t-50 -58.5t-68 -34t-74.5 -11q-64 0 -112.5 24t-81.5 67.5t-49.5 104.5t-16.5 136q0 67 14.5 121t46.5 91.5t83 58t124 20.5zM167 890q11 0 24.5 -6.5t28 -16
t27.5 -21t24 -21.5q26 -26 34.5 -50t8.5 -36t-5 -14.5t-13 -2.5q-16 0 -40.5 9t-49.5 22t-45.5 26t-27.5 21q-5 6 -10 16t-5 23q0 7 3 15.5t9 16.5t15 13.5t22 5.5z" />
    <glyph glyph-name="Eacute" unicode="&#xc9;" horiz-adv-x="493" 
d="M264 264q19 0 38 2t34.5 7.5t25 15t9.5 23.5q0 22 -18 31.5t-37 9.5q-43 0 -65.5 -18.5t-22.5 -41.5q0 -11 9.5 -20t26.5 -9zM278 642q100 0 150.5 -56.5t50.5 -164.5q0 -66 -18 -104.5t-44.5 -60t-57.5 -30t-57.5 -14t-44.5 -13t-18 -26.5q0 -11 5.5 -18.5t13.5 -12
t18 -7t18 -2.5q18 0 36.5 6t34.5 14t27.5 16t16.5 13q17 17 28.5 31t26.5 14q18 0 18 -20q0 -49 -19.5 -84.5t-50 -58.5t-68 -34t-74.5 -11q-64 0 -112.5 24t-81.5 67.5t-49.5 104.5t-16.5 136q0 67 14.5 121t46.5 91.5t83 58t124 20.5zM326 890q23 -2 36 -18.5t13 -36.5
t-13 -33q-8 -8 -29 -21.5t-46 -26.5t-50.5 -22.5t-41.5 -9.5q-8 0 -12.5 2t-4.5 13q0 12 8 36.5t35 51.5q10 10 23.5 21.5t28 21t28.5 16t25 6.5z" />
    <glyph glyph-name="Ecircumflex" unicode="&#xca;" horiz-adv-x="493" 
d="M264 264q19 0 38 2t34.5 7.5t25 15t9.5 23.5q0 22 -18 31.5t-37 9.5q-43 0 -65.5 -18.5t-22.5 -41.5q0 -11 9.5 -20t26.5 -9zM278 642q100 0 150.5 -56.5t50.5 -164.5q0 -66 -18 -104.5t-44.5 -60t-57.5 -30t-57.5 -14t-44.5 -13t-18 -26.5q0 -11 5.5 -18.5t13.5 -12
t18 -7t18 -2.5q18 0 36.5 6t34.5 14t27.5 16t16.5 13q17 17 28.5 31t26.5 14q18 0 18 -20q0 -49 -19.5 -84.5t-50 -58.5t-68 -34t-74.5 -11q-64 0 -112.5 24t-81.5 67.5t-49.5 104.5t-16.5 136q0 67 14.5 121t46.5 91.5t83 58t124 20.5zM245 885q11 -1 37 -14.5t52.5 -34
t47 -44.5t20.5 -46q0 -15 -13.5 -27t-30.5 -12t-34 13t-32 29t-27.5 29t-21.5 13t-19.5 -13.5t-24 -29.5t-31.5 -29.5t-41 -13.5q-14 0 -25.5 10t-11.5 30q0 21 19 45.5t45 45.5t51.5 35t39.5 14z" />
    <glyph glyph-name="Edieresis" unicode="&#xcb;" horiz-adv-x="493" 
d="M264 264q19 0 38 2t34.5 7.5t25 15t9.5 23.5q0 22 -18 31.5t-37 9.5q-43 0 -65.5 -18.5t-22.5 -41.5q0 -11 9.5 -20t26.5 -9zM278 642q100 0 150.5 -56.5t50.5 -164.5q0 -66 -18 -104.5t-44.5 -60t-57.5 -30t-57.5 -14t-44.5 -13t-18 -26.5q0 -11 5.5 -18.5t13.5 -12
t18 -7t18 -2.5q18 0 36.5 6t34.5 14t27.5 16t16.5 13q17 17 28.5 31t26.5 14q18 0 18 -20q0 -49 -19.5 -84.5t-50 -58.5t-68 -34t-74.5 -11q-64 0 -112.5 24t-81.5 67.5t-49.5 104.5t-16.5 136q0 67 14.5 121t46.5 91.5t83 58t124 20.5zM139 850q36 -1 53.5 -24t17.5 -54
q0 -29 -19.5 -47t-55.5 -18q-34 0 -54 18.5t-20 46.5q0 30 21 54t57 24zM372 846q32 0 46 -19t14 -47q0 -31 -17.5 -52t-47.5 -21q-35 0 -58.5 21t-23.5 50q0 10 4.5 22t14.5 22.5t27 17t41 6.5z" />
    <glyph glyph-name="Igrave" unicode="&#xcc;" horiz-adv-x="255" 
d="M128 665q66 0 91 -23t25 -68q0 -21 -8 -44.5t-18 -51t-18 -59t-8 -68.5q0 -54 7 -91t15 -65t15 -51t7 -47q0 -43 -23 -73.5t-82 -30.5q-64 0 -90.5 25t-26.5 67q0 30 8 53t18 45.5t18 48.5t8 64q0 67 -8.5 107.5t-19 67.5t-19 47.5t-8.5 47.5q0 48 25.5 73.5t91.5 25.5z
M50 890q11 0 24.5 -6.5t28 -16t27.5 -21t24 -21.5q26 -26 34.5 -50t8.5 -36t-5 -14.5t-13 -2.5q-16 0 -40.5 9t-49.5 22t-45.5 26t-27.5 21q-5 6 -10 16t-5 23q0 7 3 15.5t9 16.5t15 13.5t22 5.5z" />
    <glyph glyph-name="Iacute" unicode="&#xcd;" horiz-adv-x="255" 
d="M128 665q66 0 91 -23t25 -68q0 -21 -8 -44.5t-18 -51t-18 -59t-8 -68.5q0 -54 7 -91t15 -65t15 -51t7 -47q0 -43 -23 -73.5t-82 -30.5q-64 0 -90.5 25t-26.5 67q0 30 8 53t18 45.5t18 48.5t8 64q0 67 -8.5 107.5t-19 67.5t-19 47.5t-8.5 47.5q0 48 25.5 73.5t91.5 25.5z
M207 890q23 -2 36 -18.5t13 -36.5t-13 -33q-8 -8 -29 -21.5t-46 -26.5t-50.5 -22.5t-41.5 -9.5q-8 0 -12.5 2t-4.5 13q0 12 8 36.5t35 51.5q10 10 23.5 21.5t28 21t28.5 16t25 6.5z" />
    <glyph glyph-name="Icircumflex" unicode="&#xce;" horiz-adv-x="255" 
d="M128 665q66 0 91 -23t25 -68q0 -21 -8 -44.5t-18 -51t-18 -59t-8 -68.5q0 -54 7 -91t15 -65t15 -51t7 -47q0 -43 -23 -73.5t-82 -30.5q-64 0 -90.5 25t-26.5 67q0 30 8 53t18 45.5t18 48.5t8 64q0 67 -8.5 107.5t-19 67.5t-19 47.5t-8.5 47.5q0 48 25.5 73.5t91.5 25.5z
M128 885q11 -1 37 -14.5t52.5 -34t47 -44.5t20.5 -46q0 -15 -13.5 -27t-30.5 -12t-34 13t-32 29t-27.5 29t-21.5 13t-19.5 -13.5t-24 -29.5t-31.5 -29.5t-41 -13.5q-14 0 -25.5 10t-11.5 30q0 21 19 45.5t45 45.5t51.5 35t39.5 14z" />
    <glyph glyph-name="Idieresis" unicode="&#xcf;" horiz-adv-x="255" 
d="M128 665q66 0 91 -23t25 -68q0 -21 -8 -44.5t-18 -51t-18 -59t-8 -68.5q0 -54 7 -91t15 -65t15 -51t7 -47q0 -43 -23 -73.5t-82 -30.5q-64 0 -90.5 25t-26.5 67q0 30 8 53t18 45.5t18 48.5t8 64q0 67 -8.5 107.5t-19 67.5t-19 47.5t-8.5 47.5q0 48 25.5 73.5t91.5 25.5z
M21 850q36 -1 53.5 -24t17.5 -54q0 -29 -19.5 -47t-55.5 -18q-34 0 -54 18.5t-20 46.5q0 30 21 54t57 24zM254 846q32 0 46 -19t14 -47q0 -31 -17.5 -52t-47.5 -21q-35 0 -58.5 21t-23.5 50q0 10 4.5 22t14.5 22.5t27 17t41 6.5z" />
    <glyph glyph-name="Eth" unicode="&#xd0;" horiz-adv-x="618" 
d="M78 -18q-14 0 -23 4.5t-14.5 11.5t-8 14.5t-2.5 12.5q0 11 4 22t16 25q9 10 16 25t12 38t7.5 56t2.5 80q0 16 -12 20t-26 7t-26 11.5t-12 33.5q0 19 16.5 32.5t41.5 13.5q8 0 12.5 7.5t4.5 15.5q-4 66 -14.5 105t-24.5 59q-16 22 -16 43q0 17 10.5 29t33.5 12
q24 0 43 -17q16 -15 26.5 -26t19.5 -18.5t18.5 -11t23.5 -3.5q24 0 49.5 12t52.5 26.5t56.5 26.5t61.5 12q55 0 89.5 -18.5t53.5 -58t25.5 -101t6.5 -146.5q0 -184 -44 -270.5t-131 -86.5q-26 0 -49.5 7.5t-43 17t-33.5 20t-20 16.5q-4 4 -11.5 11t-18 14t-22.5 12.5
t-24 5.5q-22 0 -32.5 -16t-21 -35t-26.5 -35t-47 -16zM249 389q25 0 39 -16t14 -33q0 -20 -14.5 -31.5t-37.5 -11.5q-15 0 -30 3q-12 0 -19 -7.5t-10.5 -18t-4 -22t-0.5 -19.5q0 -13 3 -24t10.5 -19.5t21 -13.5t33.5 -5q28 0 48 14.5t33 39t18.5 56t5.5 64.5
q0 88 -25.5 130.5t-83.5 42.5q-36 0 -50.5 -11t-14.5 -36q0 -9 1 -23.5t4.5 -28t10.5 -23.5t19 -10q7 0 14 1.5t15 1.5z" />
    <glyph glyph-name="Ntilde" unicode="&#xd1;" horiz-adv-x="588" 
d="M349 577q0 25 9 44.5t24.5 32.5t36 20t43.5 7q54 0 81.5 -32t27.5 -80q0 -28 -6.5 -62.5t-14 -77.5t-13.5 -94t-6 -112q0 -55 7 -90t15 -57.5t15 -36t7 -24.5t-12.5 -18t-26.5 -7q-30 0 -68 20.5t-70 53.5q-23 23 -42 57t-35.5 72t-32.5 76t-32 68t-33.5 49t-38.5 19
q-23 0 -32.5 -17.5t-9.5 -37.5q0 -51 14.5 -86t32 -63t32 -55t14.5 -62q0 -22 -11 -38.5t-28 -28t-38 -17.5t-41 -6q-55 0 -80.5 24.5t-25.5 55.5q0 29 12.5 58.5t27.5 57.5q6 12 13.5 28t14 39t11 55.5t4.5 76.5q0 68 -11.5 108.5t-25 65.5t-24.5 40t-11 31q0 17 17.5 26.5
t40.5 9.5q34 0 67.5 -14.5t67 -48t66.5 -87.5t66 -133q7 -18 15 -38.5t18 -37.5t23.5 -28.5t31.5 -11.5q17 0 27.5 16t10.5 51q0 38 -19.5 63.5t-42.5 49.5t-42.5 53t-19.5 73zM216 850q22 0 40 -9.5t33 -21.5t28 -21.5t25 -9.5q13 0 21.5 10.5t16 23t15.5 23t19 10.5
q19 0 30 -16.5t11 -33.5q0 -24 -9.5 -40.5t-22 -27t-26.5 -15t-23 -4.5q-20 0 -38 9t-34.5 20.5t-32 20.5t-29.5 9q-15 0 -24 -10t-15.5 -21.5t-12.5 -21.5t-14 -10q-17 0 -29 13t-12 32q0 20 8.5 37t21 29t27 18.5t26.5 6.5z" />
    <glyph glyph-name="Ograve" unicode="&#xd2;" horiz-adv-x="567" 
d="M308 666q55 0 100.5 -22t78.5 -64.5t51.5 -103.5t18.5 -139q0 -56 -16.5 -117.5t-50 -112.5t-86 -84.5t-124.5 -33.5q-77 0 -129 27.5t-83.5 72t-44.5 101.5t-13 116q0 94 18 162t55 111.5t93 64.5t132 22zM243 527q-20 0 -34.5 -13.5t-24.5 -35t-14.5 -49t-4.5 -55.5
t4 -54t12.5 -45.5t21.5 -31.5t30 -12q23 0 40.5 12.5t29 33t17.5 47t6 54.5t-5 54.5t-15.5 47.5t-26 34t-36.5 13zM204 890q11 0 24.5 -6.5t28 -16t27.5 -21t24 -21.5q26 -26 34.5 -50t8.5 -36t-5 -14.5t-13 -2.5q-16 0 -40.5 9t-49.5 22t-45.5 26t-27.5 21q-5 6 -10 16
t-5 23q0 7 3 15.5t9 16.5t15 13.5t22 5.5z" />
    <glyph glyph-name="Oacute" unicode="&#xd3;" horiz-adv-x="567" 
d="M308 666q55 0 100.5 -22t78.5 -64.5t51.5 -103.5t18.5 -139q0 -56 -16.5 -117.5t-50 -112.5t-86 -84.5t-124.5 -33.5q-77 0 -129 27.5t-83.5 72t-44.5 101.5t-13 116q0 94 18 162t55 111.5t93 64.5t132 22zM243 527q-20 0 -34.5 -13.5t-24.5 -35t-14.5 -49t-4.5 -55.5
t4 -54t12.5 -45.5t21.5 -31.5t30 -12q23 0 40.5 12.5t29 33t17.5 47t6 54.5t-5 54.5t-15.5 47.5t-26 34t-36.5 13zM363 890q23 -2 36 -18.5t13 -36.5t-13 -33q-8 -8 -29 -21.5t-46 -26.5t-50.5 -22.5t-41.5 -9.5q-8 0 -12.5 2t-4.5 13q0 12 8 36.5t35 51.5q10 10 23.5 21.5
t28 21t28.5 16t25 6.5z" />
    <glyph glyph-name="Ocircumflex" unicode="&#xd4;" horiz-adv-x="567" 
d="M308 666q55 0 100.5 -22t78.5 -64.5t51.5 -103.5t18.5 -139q0 -56 -16.5 -117.5t-50 -112.5t-86 -84.5t-124.5 -33.5q-77 0 -129 27.5t-83.5 72t-44.5 101.5t-13 116q0 94 18 162t55 111.5t93 64.5t132 22zM243 527q-20 0 -34.5 -13.5t-24.5 -35t-14.5 -49t-4.5 -55.5
t4 -54t12.5 -45.5t21.5 -31.5t30 -12q23 0 40.5 12.5t29 33t17.5 47t6 54.5t-5 54.5t-15.5 47.5t-26 34t-36.5 13zM282 885q11 -1 37 -14.5t52.5 -34t47 -44.5t20.5 -46q0 -15 -13.5 -27t-30.5 -12t-34 13t-32 29t-27.5 29t-21.5 13t-19.5 -13.5t-24 -29.5t-31.5 -29.5
t-41 -13.5q-14 0 -25.5 10t-11.5 30q0 21 19 45.5t45 45.5t51.5 35t39.5 14z" />
    <glyph glyph-name="Otilde" unicode="&#xd5;" horiz-adv-x="567" 
d="M308 666q55 0 100.5 -22t78.5 -64.5t51.5 -103.5t18.5 -139q0 -56 -16.5 -117.5t-50 -112.5t-86 -84.5t-124.5 -33.5q-77 0 -129 27.5t-83.5 72t-44.5 101.5t-13 116q0 94 18 162t55 111.5t93 64.5t132 22zM243 527q-20 0 -34.5 -13.5t-24.5 -35t-14.5 -49t-4.5 -55.5
t4 -54t12.5 -45.5t21.5 -31.5t30 -12q23 0 40.5 12.5t29 33t17.5 47t6 54.5t-5 54.5t-15.5 47.5t-26 34t-36.5 13zM205 850q22 0 40 -9.5t33 -21.5t28 -21.5t25 -9.5q13 0 21.5 10.5t16 23t15.5 23t19 10.5q19 0 30 -16.5t11 -33.5q0 -24 -9.5 -40.5t-22 -27t-26.5 -15
t-23 -4.5q-20 0 -38 9t-34.5 20.5t-32 20.5t-29.5 9q-15 0 -24 -10t-15.5 -21.5t-12.5 -21.5t-14 -10q-17 0 -29 13t-12 32q0 20 8.5 37t21 29t27 18.5t26.5 6.5z" />
    <glyph glyph-name="Odieresis" unicode="&#xd6;" horiz-adv-x="567" 
d="M308 666q55 0 100.5 -22t78.5 -64.5t51.5 -103.5t18.5 -139q0 -56 -16.5 -117.5t-50 -112.5t-86 -84.5t-124.5 -33.5q-77 0 -129 27.5t-83.5 72t-44.5 101.5t-13 116q0 94 18 162t55 111.5t93 64.5t132 22zM243 527q-20 0 -34.5 -13.5t-24.5 -35t-14.5 -49t-4.5 -55.5
t4 -54t12.5 -45.5t21.5 -31.5t30 -12q23 0 40.5 12.5t29 33t17.5 47t6 54.5t-5 54.5t-15.5 47.5t-26 34t-36.5 13zM176 850q36 -1 53.5 -24t17.5 -54q0 -29 -19.5 -47t-55.5 -18q-34 0 -54 18.5t-20 46.5q0 30 21 54t57 24zM409 846q32 0 46 -19t14 -47q0 -31 -17.5 -52
t-47.5 -21q-35 0 -58.5 21t-23.5 50q0 10 4.5 22t14.5 22.5t27 17t41 6.5z" />
    <glyph glyph-name="multiply" unicode="&#xd7;" horiz-adv-x="390" 
d="M299 508q20 0 35 -7.5t24.5 -18.5t14 -24t4.5 -24q0 -27 -17 -39t-37.5 -19.5t-37.5 -16.5t-17 -30t17 -34t38 -24.5t38 -26t17 -38.5q0 -12 -7 -23.5t-17.5 -21t-23 -15.5t-24.5 -6q-23 0 -35.5 17.5t-22 38t-19 38t-25.5 17.5q-21 0 -32 -17.5t-22 -38.5t-26 -38.5
t-43 -17.5q-32 0 -50 20t-18 47q0 25 16 39.5t35.5 26.5t36 25.5t16.5 36.5q0 20 -16 32t-35.5 23t-35.5 24t-16 34q0 10 4 20.5t11.5 19.5t18 15t24.5 6q23 0 38 -16.5t27.5 -36.5t24.5 -36.5t29 -16.5q22 0 32 16.5t18 36.5t20 36.5t38 16.5z" />
    <glyph glyph-name="Oslash" unicode="&#xd8;" horiz-adv-x="567" 
d="M463 713q42 -2 60.5 -13.5t18.5 -37.5q0 -17 -5.5 -31t-12.5 -26t-12.5 -23t-5.5 -21q0 -13 4 -17q47 -83 47 -207q0 -56 -16.5 -117.5t-50 -112.5t-86 -84.5t-124.5 -33.5q-63 0 -111 19q-7 4 -24 4q-8 0 -16 -1.5t-13 -6.5q-17 -15 -34 -23.5t-36 -8.5q-38 0 -53 15
t-15 38q0 25 9 47t23 45q8 14 12 23t4 20q0 16 -4 31q-12 55 -12 115q0 94 18 162t55 111.5t93 64.5t132 22q10 0 17 -0.5t12 -0.5q11 0 18.5 3t23.5 16q35 29 84 29zM243 527q-20 0 -34.5 -13.5t-24.5 -35t-14.5 -49t-4.5 -55.5t4 -54t12.5 -45.5t21.5 -31.5t30 -12
q23 0 40.5 12.5t29 33t17.5 47t6 54.5t-5 54.5t-15.5 47.5t-26 34t-36.5 13z" />
    <glyph glyph-name="Ugrave" unicode="&#xd9;" 
d="M164 666q54 0 79 -20t25 -74t-11 -97.5t-24.5 -80.5t-24.5 -68.5t-11 -62.5q0 -140 107 -140q57 0 78 37t21 104q0 23 -10.5 57t-23.5 72.5t-23.5 79.5t-10.5 77q0 22 6 43t18.5 36.5t33 25t50.5 9.5q44 0 72 -24.5t44.5 -63.5t22.5 -88t6 -98q0 -84 -5.5 -157
t-33.5 -128t-86.5 -86.5t-164.5 -31.5q-89 0 -145 32.5t-87.5 86t-43 122.5t-11.5 143q0 43 6 94.5t22.5 96t46.5 74.5t78 30zM221 890q11 0 24.5 -6.5t28 -16t27.5 -21t24 -21.5q26 -26 34.5 -50t8.5 -36t-5 -14.5t-13 -2.5q-16 0 -40.5 9t-49.5 22t-45.5 26t-27.5 21
q-5 6 -10 16t-5 23q0 7 3 15.5t9 16.5t15 13.5t22 5.5z" />
    <glyph glyph-name="Uacute" unicode="&#xda;" 
d="M164 666q54 0 79 -20t25 -74t-11 -97.5t-24.5 -80.5t-24.5 -68.5t-11 -62.5q0 -140 107 -140q57 0 78 37t21 104q0 23 -10.5 57t-23.5 72.5t-23.5 79.5t-10.5 77q0 22 6 43t18.5 36.5t33 25t50.5 9.5q44 0 72 -24.5t44.5 -63.5t22.5 -88t6 -98q0 -84 -5.5 -157
t-33.5 -128t-86.5 -86.5t-164.5 -31.5q-89 0 -145 32.5t-87.5 86t-43 122.5t-11.5 143q0 43 6 94.5t22.5 96t46.5 74.5t78 30zM379 890q23 -2 36 -18.5t13 -36.5t-13 -33q-8 -8 -29 -21.5t-46 -26.5t-50.5 -22.5t-41.5 -9.5q-8 0 -12.5 2t-4.5 13q0 12 8 36.5t35 51.5
q10 10 23.5 21.5t28 21t28.5 16t25 6.5z" />
    <glyph glyph-name="Ucircumflex" unicode="&#xdb;" 
d="M164 666q54 0 79 -20t25 -74t-11 -97.5t-24.5 -80.5t-24.5 -68.5t-11 -62.5q0 -140 107 -140q57 0 78 37t21 104q0 23 -10.5 57t-23.5 72.5t-23.5 79.5t-10.5 77q0 22 6 43t18.5 36.5t33 25t50.5 9.5q44 0 72 -24.5t44.5 -63.5t22.5 -88t6 -98q0 -84 -5.5 -157
t-33.5 -128t-86.5 -86.5t-164.5 -31.5q-89 0 -145 32.5t-87.5 86t-43 122.5t-11.5 143q0 43 6 94.5t22.5 96t46.5 74.5t78 30zM299 885q11 -1 37 -14.5t52.5 -34t47 -44.5t20.5 -46q0 -15 -13.5 -27t-30.5 -12t-34 13t-32 29t-27.5 29t-21.5 13t-19.5 -13.5t-24 -29.5
t-31.5 -29.5t-41 -13.5q-14 0 -25.5 10t-11.5 30q0 21 19 45.5t45 45.5t51.5 35t39.5 14z" />
    <glyph glyph-name="Udieresis" unicode="&#xdc;" 
d="M164 666q54 0 79 -20t25 -74t-11 -97.5t-24.5 -80.5t-24.5 -68.5t-11 -62.5q0 -140 107 -140q57 0 78 37t21 104q0 23 -10.5 57t-23.5 72.5t-23.5 79.5t-10.5 77q0 22 6 43t18.5 36.5t33 25t50.5 9.5q44 0 72 -24.5t44.5 -63.5t22.5 -88t6 -98q0 -84 -5.5 -157
t-33.5 -128t-86.5 -86.5t-164.5 -31.5q-89 0 -145 32.5t-87.5 86t-43 122.5t-11.5 143q0 43 6 94.5t22.5 96t46.5 74.5t78 30zM192 850q36 -1 53.5 -24t17.5 -54q0 -29 -19.5 -47t-55.5 -18q-34 0 -54 18.5t-20 46.5q0 30 21 54t57 24zM425 846q32 0 46 -19t14 -47
q0 -31 -17.5 -52t-47.5 -21q-35 0 -58.5 21t-23.5 50q0 10 4.5 22t14.5 22.5t27 17t41 6.5z" />
    <glyph glyph-name="Yacute" unicode="&#xdd;" horiz-adv-x="550" 
d="M361 220q-8 14 -26 19.5t-35 5.5q-29 0 -62.5 -7t-67.5 -7q-39 0 -68.5 17t-50 46t-31 67t-10.5 80q0 40 10 79.5t30 71t50 51t70 19.5q21 0 36 -7t25 -18t15 -24.5t5 -26.5q0 -22 -8.5 -43.5t-19 -41t-19 -36t-8.5 -27.5q0 -8 3.5 -20t14 -23.5t28.5 -20t47 -8.5
q10 0 22 3t22.5 9.5t17.5 17.5t7 28q0 27 -7.5 46t-16 36t-16 34t-7.5 41q0 32 20.5 55t58.5 23q24 0 50 -6.5t48 -28.5t36.5 -65t14.5 -115q0 -102 -11.5 -188.5t-43.5 -148.5t-88 -97t-144 -35q-31 0 -65 8t-62.5 24.5t-47 42t-18.5 60.5q0 22 14 39.5t37 17.5
q18 0 38.5 -9t42 -19.5t44.5 -19t46 -8.5q12 0 26.5 4.5t28 14t22.5 25t9 37.5q0 14 -6 28zM354 890q23 -2 36 -18.5t13 -36.5t-13 -33q-8 -8 -29 -21.5t-46 -26.5t-50.5 -22.5t-41.5 -9.5q-8 0 -12.5 2t-4.5 13q0 12 8 36.5t35 51.5q10 10 23.5 21.5t28 21t28.5 16t25 6.5z
" />
    <glyph glyph-name="Thorn" unicode="&#xde;" horiz-adv-x="511" 
d="M126 664q12 0 24.5 -3.5t23 -10.5t17 -17t6.5 -22q0 -17 -8.5 -35.5t-8.5 -33.5q0 -10 6 -17.5t26 -7.5q21 0 52.5 5t66.5 5q40 0 72.5 -13.5t56 -37.5t36.5 -58t13 -75q0 -66 -23.5 -103t-58.5 -55t-76 -24t-76 -10t-58.5 -13.5t-23.5 -34.5q0 -14 3 -29t3 -29
q0 -28 -22.5 -40t-60.5 -12q-54 0 -76 28.5t-22 80.5q0 24 3.5 51t7 53.5t7 51t3.5 45.5q0 27 -4 55t-9 56.5t-9 56.5t-4 55q0 46 7 73.5t21 41.5t35 18.5t50 4.5zM223 417q-23 0 -40.5 -24t-17.5 -64q0 -17 4 -33t11.5 -29t17 -20.5t21.5 -7.5q24 0 39.5 27.5t15.5 66.5
q0 37 -15 60.5t-36 23.5z" />
    <glyph glyph-name="germandbls" unicode="&#xdf;" horiz-adv-x="912" 
d="M243 643q37 0 71.5 -7t61 -21t42 -36.5t15.5 -53.5q0 -17 -9.5 -28t-23.5 -11q-16 0 -23 10.5t-16.5 23.5t-27 23.5t-53.5 10.5q-17 0 -31.5 -10t-14.5 -29q0 -22 15.5 -36.5t39.5 -27.5t51 -27.5t51 -36.5t39.5 -54.5t15.5 -80.5q0 -67 -19.5 -113t-51.5 -74.5
t-72.5 -41.5t-82.5 -13q-50 0 -89.5 12.5t-66.5 35t-41 52t-14 64.5q0 12 3 24.5t9 23t14.5 17t19.5 6.5t17 -8.5t14.5 -18t24 -18t44.5 -8.5q22 0 36.5 13t14.5 36q0 25 -11.5 39.5t-28 25t-36.5 21t-36.5 28.5t-28 46.5t-11.5 75.5q0 34 12.5 64t36.5 52.5t59.5 36
t80.5 13.5zM699 643q37 0 71.5 -7t61 -21t42 -36.5t15.5 -53.5q0 -17 -9.5 -28t-23.5 -11q-16 0 -23 10.5t-16.5 23.5t-27 23.5t-53.5 10.5q-17 0 -31.5 -10t-14.5 -29q0 -22 15.5 -36.5t39.5 -27.5t51 -27.5t51 -36.5t39.5 -54.5t15.5 -80.5q0 -67 -19.5 -113t-51.5 -74.5
t-72.5 -41.5t-82.5 -13q-50 0 -89.5 12.5t-66.5 35t-41 52t-14 64.5q0 12 3 24.5t9 23t14.5 17t19.5 6.5t17 -8.5t14.5 -18t24 -18t44.5 -8.5q22 0 36.5 13t14.5 36q0 25 -11.5 39.5t-28 25t-36.5 21t-36.5 28.5t-28 46.5t-11.5 75.5q0 34 12.5 64t36.5 52.5t59.5 36
t80.5 13.5z" />
    <glyph glyph-name="agrave" unicode="&#xe0;" horiz-adv-x="628" 
d="M314 660q44 0 74.5 -7.5t49 -20t27 -29t8.5 -34.5q0 -25 -9 -51.5t-9 -55.5q0 -32 9 -68t22 -72q14 -41 36.5 -75t44.5 -64t37.5 -57t15.5 -53q0 -17 -9 -33.5t-24 -29.5t-34.5 -21t-40.5 -8q-17 0 -37 3.5t-37.5 12.5t-29.5 23.5t-12 35.5q0 14 2.5 26.5t2.5 26.5
q0 32 -28 52.5t-74 20.5q-39 0 -67 -17.5t-28 -52.5q0 -17 4.5 -30t4.5 -26q0 -18 -8.5 -31.5t-23 -23.5t-33.5 -15t-39 -5q-48 0 -74.5 21.5t-26.5 58.5q0 39 24 87.5t53 101t53 105.5t24 100q0 26 -9.5 54t-9.5 55q0 18 8 35.5t27.5 31t52.5 21.5t83 8zM360 334
q0 10 -3 25t-9 28.5t-16 23.5t-24 10q-11 0 -23 -7t-21.5 -19.5t-16 -30t-6.5 -37.5q0 -11 3.5 -23t11 -21.5t18.5 -16t27 -6.5q26 0 42.5 22t16.5 52zM235 890q11 0 24.5 -6.5t28 -16t27.5 -21t24 -21.5q26 -26 34.5 -50t8.5 -36t-5 -14.5t-13 -2.5q-16 0 -40.5 9t-49.5 22
t-45.5 26t-27.5 21q-5 6 -10 16t-5 23q0 7 3 15.5t9 16.5t15 13.5t22 5.5z" />
    <glyph glyph-name="aacute" unicode="&#xe1;" horiz-adv-x="628" 
d="M314 660q44 0 74.5 -7.5t49 -20t27 -29t8.5 -34.5q0 -25 -9 -51.5t-9 -55.5q0 -32 9 -68t22 -72q14 -41 36.5 -75t44.5 -64t37.5 -57t15.5 -53q0 -17 -9 -33.5t-24 -29.5t-34.5 -21t-40.5 -8q-17 0 -37 3.5t-37.5 12.5t-29.5 23.5t-12 35.5q0 14 2.5 26.5t2.5 26.5
q0 32 -28 52.5t-74 20.5q-39 0 -67 -17.5t-28 -52.5q0 -17 4.5 -30t4.5 -26q0 -18 -8.5 -31.5t-23 -23.5t-33.5 -15t-39 -5q-48 0 -74.5 21.5t-26.5 58.5q0 39 24 87.5t53 101t53 105.5t24 100q0 26 -9.5 54t-9.5 55q0 18 8 35.5t27.5 31t52.5 21.5t83 8zM360 334
q0 10 -3 25t-9 28.5t-16 23.5t-24 10q-11 0 -23 -7t-21.5 -19.5t-16 -30t-6.5 -37.5q0 -11 3.5 -23t11 -21.5t18.5 -16t27 -6.5q26 0 42.5 22t16.5 52zM393 890q23 -2 36 -18.5t13 -36.5t-13 -33q-8 -8 -29 -21.5t-46 -26.5t-50.5 -22.5t-41.5 -9.5q-8 0 -12.5 2t-4.5 13
q0 12 8 36.5t35 51.5q10 10 23.5 21.5t28 21t28.5 16t25 6.5z" />
    <glyph glyph-name="acircumflex" unicode="&#xe2;" horiz-adv-x="628" 
d="M314 660q44 0 74.5 -7.5t49 -20t27 -29t8.5 -34.5q0 -25 -9 -51.5t-9 -55.5q0 -32 9 -68t22 -72q14 -41 36.5 -75t44.5 -64t37.5 -57t15.5 -53q0 -17 -9 -33.5t-24 -29.5t-34.5 -21t-40.5 -8q-17 0 -37 3.5t-37.5 12.5t-29.5 23.5t-12 35.5q0 14 2.5 26.5t2.5 26.5
q0 32 -28 52.5t-74 20.5q-39 0 -67 -17.5t-28 -52.5q0 -17 4.5 -30t4.5 -26q0 -18 -8.5 -31.5t-23 -23.5t-33.5 -15t-39 -5q-48 0 -74.5 21.5t-26.5 58.5q0 39 24 87.5t53 101t53 105.5t24 100q0 26 -9.5 54t-9.5 55q0 18 8 35.5t27.5 31t52.5 21.5t83 8zM360 334
q0 10 -3 25t-9 28.5t-16 23.5t-24 10q-11 0 -23 -7t-21.5 -19.5t-16 -30t-6.5 -37.5q0 -11 3.5 -23t11 -21.5t18.5 -16t27 -6.5q26 0 42.5 22t16.5 52zM313 885q11 -1 37 -14.5t52.5 -34t47 -44.5t20.5 -46q0 -15 -13.5 -27t-30.5 -12t-34 13t-32 29t-27.5 29t-21.5 13
t-19.5 -13.5t-24 -29.5t-31.5 -29.5t-41 -13.5q-14 0 -25.5 10t-11.5 30q0 21 19 45.5t45 45.5t51.5 35t39.5 14z" />
    <glyph glyph-name="atilde" unicode="&#xe3;" horiz-adv-x="628" 
d="M314 660q44 0 74.5 -7.5t49 -20t27 -29t8.5 -34.5q0 -25 -9 -51.5t-9 -55.5q0 -32 9 -68t22 -72q14 -41 36.5 -75t44.5 -64t37.5 -57t15.5 -53q0 -17 -9 -33.5t-24 -29.5t-34.5 -21t-40.5 -8q-17 0 -37 3.5t-37.5 12.5t-29.5 23.5t-12 35.5q0 14 2.5 26.5t2.5 26.5
q0 32 -28 52.5t-74 20.5q-39 0 -67 -17.5t-28 -52.5q0 -17 4.5 -30t4.5 -26q0 -18 -8.5 -31.5t-23 -23.5t-33.5 -15t-39 -5q-48 0 -74.5 21.5t-26.5 58.5q0 39 24 87.5t53 101t53 105.5t24 100q0 26 -9.5 54t-9.5 55q0 18 8 35.5t27.5 31t52.5 21.5t83 8zM360 334
q0 10 -3 25t-9 28.5t-16 23.5t-24 10q-11 0 -23 -7t-21.5 -19.5t-16 -30t-6.5 -37.5q0 -11 3.5 -23t11 -21.5t18.5 -16t27 -6.5q26 0 42.5 22t16.5 52zM236 850q22 0 40 -9.5t33 -21.5t28 -21.5t25 -9.5q13 0 21.5 10.5t16 23t15.5 23t19 10.5q19 0 30 -16.5t11 -33.5
q0 -24 -9.5 -40.5t-22 -27t-26.5 -15t-23 -4.5q-20 0 -38 9t-34.5 20.5t-32 20.5t-29.5 9q-15 0 -24 -10t-15.5 -21.5t-12.5 -21.5t-14 -10q-17 0 -29 13t-12 32q0 20 8.5 37t21 29t27 18.5t26.5 6.5z" />
    <glyph glyph-name="adieresis" unicode="&#xe4;" horiz-adv-x="628" 
d="M314 660q44 0 74.5 -7.5t49 -20t27 -29t8.5 -34.5q0 -25 -9 -51.5t-9 -55.5q0 -32 9 -68t22 -72q14 -41 36.5 -75t44.5 -64t37.5 -57t15.5 -53q0 -17 -9 -33.5t-24 -29.5t-34.5 -21t-40.5 -8q-17 0 -37 3.5t-37.5 12.5t-29.5 23.5t-12 35.5q0 14 2.5 26.5t2.5 26.5
q0 32 -28 52.5t-74 20.5q-39 0 -67 -17.5t-28 -52.5q0 -17 4.5 -30t4.5 -26q0 -18 -8.5 -31.5t-23 -23.5t-33.5 -15t-39 -5q-48 0 -74.5 21.5t-26.5 58.5q0 39 24 87.5t53 101t53 105.5t24 100q0 26 -9.5 54t-9.5 55q0 18 8 35.5t27.5 31t52.5 21.5t83 8zM360 334
q0 10 -3 25t-9 28.5t-16 23.5t-24 10q-11 0 -23 -7t-21.5 -19.5t-16 -30t-6.5 -37.5q0 -11 3.5 -23t11 -21.5t18.5 -16t27 -6.5q26 0 42.5 22t16.5 52zM206 850q36 -1 53.5 -24t17.5 -54q0 -29 -19.5 -47t-55.5 -18q-34 0 -54 18.5t-20 46.5q0 30 21 54t57 24zM439 846
q32 0 46 -19t14 -47q0 -31 -17.5 -52t-47.5 -21q-35 0 -58.5 21t-23.5 50q0 10 4.5 22t14.5 22.5t27 17t41 6.5z" />
    <glyph glyph-name="aring" unicode="&#xe5;" horiz-adv-x="628" 
d="M314 660q44 0 74.5 -7.5t49 -20t27 -29t8.5 -34.5q0 -25 -9 -51.5t-9 -55.5q0 -32 9 -68t22 -72q14 -41 36.5 -75t44.5 -64t37.5 -57t15.5 -53q0 -17 -9 -33.5t-24 -29.5t-34.5 -21t-40.5 -8q-17 0 -37 3.5t-37.5 12.5t-29.5 23.5t-12 35.5q0 14 2.5 26.5t2.5 26.5
q0 32 -28 52.5t-74 20.5q-39 0 -67 -17.5t-28 -52.5q0 -17 4.5 -30t4.5 -26q0 -18 -8.5 -31.5t-23 -23.5t-33.5 -15t-39 -5q-48 0 -74.5 21.5t-26.5 58.5q0 39 24 87.5t53 101t53 105.5t24 100q0 26 -9.5 54t-9.5 55q0 18 8 35.5t27.5 31t52.5 21.5t83 8zM360 334
q0 10 -3 25t-9 28.5t-16 23.5t-24 10q-11 0 -23 -7t-21.5 -19.5t-16 -30t-6.5 -37.5q0 -11 3.5 -23t11 -21.5t18.5 -16t27 -6.5q26 0 42.5 22t16.5 52zM316 878q51 0 76.5 -29.5t25.5 -69.5q0 -18 -7 -37t-20 -34.5t-33 -26t-45 -10.5q-21 0 -39.5 9.5t-33 25.5t-22.5 36.5
t-8 42.5t9 39.5t23.5 29.5t33.5 18t40 6zM311 825q-19 -2 -27.5 -12t-8.5 -33q0 -16 8 -31t27 -15q20 0 29.5 15t9.5 32t-9 29.5t-29 14.5z" />
    <glyph glyph-name="ae" unicode="&#xe6;" horiz-adv-x="858" 
d="M643 642q100 0 150.5 -56.5t50.5 -164.5q0 -66 -18 -104.5t-44.5 -60t-57.5 -30t-57.5 -14t-44.5 -13t-18 -26.5q0 -11 5.5 -18.5t13.5 -12t18 -7t18 -2.5q18 0 36.5 6t34.5 14t27.5 16t16.5 13q17 17 28.5 31t26.5 14q18 0 18 -20q0 -49 -19.5 -84.5t-50 -58.5t-68 -34
t-74.5 -11q-36 0 -66.5 8t-54 19.5t-39 24.5t-22.5 24q-17 23 -33.5 39.5t-36 27t-43 15.5t-53.5 5q-35 0 -59 -19t-24 -51q0 -17 4.5 -30t4.5 -26q0 -18 -8.5 -31.5t-23 -23.5t-33.5 -15t-39 -5q-48 0 -74.5 21.5t-26.5 58.5q0 39 24 87.5t53 101t53 105.5t24 100
q0 26 -9.5 54t-9.5 55q0 18 8 35.5t27.5 31t52.5 21.5t83 8q33 0 54.5 -11.5t37.5 -25t28 -24.5t25 -11q15 0 31.5 8.5t38 18.5t49 18.5t65.5 8.5zM360 334q0 10 -3 25t-9 28.5t-16 23.5t-24 10q-11 0 -23 -7t-21.5 -19.5t-16 -30t-6.5 -37.5q0 -11 3.5 -23t11 -21.5
t18.5 -16t27 -6.5q26 0 42.5 22t16.5 52zM629 264q19 0 38 2t34.5 7.5t25 15t9.5 23.5q0 22 -18 31.5t-37 9.5q-43 0 -65.5 -18.5t-22.5 -41.5q0 -11 9.5 -20t26.5 -9z" />
    <glyph glyph-name="ccedilla" unicode="&#xe7;" horiz-adv-x="542" 
d="M533 191q0 -27 -9.5 -50.5t-26 -44.5t-38 -38.5t-45.5 -30.5q-5 -3 -10.5 -9.5t-10.5 -14.5t-9 -16t-5 -13q-5 -26 -19 -53.5t-35 -49.5t-48.5 -36t-59.5 -14q-23 0 -40.5 13.5t-17.5 38.5q0 18 14 30.5t31.5 22.5t31.5 20t14 23q0 9 -6.5 15.5t-15.5 8.5
q-51 10 -92 38.5t-69 68.5t-43 89t-15 100q0 64 22 129t63.5 117.5t101.5 86t137 33.5q26 0 59 -7t62 -21.5t48.5 -36.5t19.5 -51q0 -11 -6 -20t-19 -9q-9 0 -20.5 3.5t-25 7.5t-28.5 7.5t-31 3.5q-33 0 -60 -19t-45.5 -48t-28.5 -65t-10 -69q0 -36 9 -66t24 -51.5t35 -33.5
t42 -12t43 9.5t40 21t35 21t29 9.5q14 0 21 -12.5t7 -25.5z" />
    <glyph glyph-name="egrave" unicode="&#xe8;" horiz-adv-x="493" 
d="M264 264q19 0 38 2t34.5 7.5t25 15t9.5 23.5q0 22 -18 31.5t-37 9.5q-43 0 -65.5 -18.5t-22.5 -41.5q0 -11 9.5 -20t26.5 -9zM278 642q100 0 150.5 -56.5t50.5 -164.5q0 -66 -18 -104.5t-44.5 -60t-57.5 -30t-57.5 -14t-44.5 -13t-18 -26.5q0 -11 5.5 -18.5t13.5 -12
t18 -7t18 -2.5q18 0 36.5 6t34.5 14t27.5 16t16.5 13q17 17 28.5 31t26.5 14q18 0 18 -20q0 -49 -19.5 -84.5t-50 -58.5t-68 -34t-74.5 -11q-64 0 -112.5 24t-81.5 67.5t-49.5 104.5t-16.5 136q0 67 14.5 121t46.5 91.5t83 58t124 20.5zM167 890q11 0 24.5 -6.5t28 -16
t27.5 -21t24 -21.5q26 -26 34.5 -50t8.5 -36t-5 -14.5t-13 -2.5q-16 0 -40.5 9t-49.5 22t-45.5 26t-27.5 21q-5 6 -10 16t-5 23q0 7 3 15.5t9 16.5t15 13.5t22 5.5z" />
    <glyph glyph-name="eacute" unicode="&#xe9;" horiz-adv-x="493" 
d="M264 264q19 0 38 2t34.5 7.5t25 15t9.5 23.5q0 22 -18 31.5t-37 9.5q-43 0 -65.5 -18.5t-22.5 -41.5q0 -11 9.5 -20t26.5 -9zM278 642q100 0 150.5 -56.5t50.5 -164.5q0 -66 -18 -104.5t-44.5 -60t-57.5 -30t-57.5 -14t-44.5 -13t-18 -26.5q0 -11 5.5 -18.5t13.5 -12
t18 -7t18 -2.5q18 0 36.5 6t34.5 14t27.5 16t16.5 13q17 17 28.5 31t26.5 14q18 0 18 -20q0 -49 -19.5 -84.5t-50 -58.5t-68 -34t-74.5 -11q-64 0 -112.5 24t-81.5 67.5t-49.5 104.5t-16.5 136q0 67 14.5 121t46.5 91.5t83 58t124 20.5zM326 890q23 -2 36 -18.5t13 -36.5
t-13 -33q-8 -8 -29 -21.5t-46 -26.5t-50.5 -22.5t-41.5 -9.5q-8 0 -12.5 2t-4.5 13q0 12 8 36.5t35 51.5q10 10 23.5 21.5t28 21t28.5 16t25 6.5z" />
    <glyph glyph-name="ecircumflex" unicode="&#xea;" horiz-adv-x="493" 
d="M264 264q19 0 38 2t34.5 7.5t25 15t9.5 23.5q0 22 -18 31.5t-37 9.5q-43 0 -65.5 -18.5t-22.5 -41.5q0 -11 9.5 -20t26.5 -9zM278 642q100 0 150.5 -56.5t50.5 -164.5q0 -66 -18 -104.5t-44.5 -60t-57.5 -30t-57.5 -14t-44.5 -13t-18 -26.5q0 -11 5.5 -18.5t13.5 -12
t18 -7t18 -2.5q18 0 36.5 6t34.5 14t27.5 16t16.5 13q17 17 28.5 31t26.5 14q18 0 18 -20q0 -49 -19.5 -84.5t-50 -58.5t-68 -34t-74.5 -11q-64 0 -112.5 24t-81.5 67.5t-49.5 104.5t-16.5 136q0 67 14.5 121t46.5 91.5t83 58t124 20.5zM245 885q11 -1 37 -14.5t52.5 -34
t47 -44.5t20.5 -46q0 -15 -13.5 -27t-30.5 -12t-34 13t-32 29t-27.5 29t-21.5 13t-19.5 -13.5t-24 -29.5t-31.5 -29.5t-41 -13.5q-14 0 -25.5 10t-11.5 30q0 21 19 45.5t45 45.5t51.5 35t39.5 14z" />
    <glyph glyph-name="edieresis" unicode="&#xeb;" horiz-adv-x="493" 
d="M264 264q19 0 38 2t34.5 7.5t25 15t9.5 23.5q0 22 -18 31.5t-37 9.5q-43 0 -65.5 -18.5t-22.5 -41.5q0 -11 9.5 -20t26.5 -9zM278 642q100 0 150.5 -56.5t50.5 -164.5q0 -66 -18 -104.5t-44.5 -60t-57.5 -30t-57.5 -14t-44.5 -13t-18 -26.5q0 -11 5.5 -18.5t13.5 -12
t18 -7t18 -2.5q18 0 36.5 6t34.5 14t27.5 16t16.5 13q17 17 28.5 31t26.5 14q18 0 18 -20q0 -49 -19.5 -84.5t-50 -58.5t-68 -34t-74.5 -11q-64 0 -112.5 24t-81.5 67.5t-49.5 104.5t-16.5 136q0 67 14.5 121t46.5 91.5t83 58t124 20.5zM139 850q36 -1 53.5 -24t17.5 -54
q0 -29 -19.5 -47t-55.5 -18q-34 0 -54 18.5t-20 46.5q0 30 21 54t57 24zM372 846q32 0 46 -19t14 -47q0 -31 -17.5 -52t-47.5 -21q-35 0 -58.5 21t-23.5 50q0 10 4.5 22t14.5 22.5t27 17t41 6.5z" />
    <glyph glyph-name="igrave" unicode="&#xec;" horiz-adv-x="255" 
d="M128 665q66 0 91 -23t25 -68q0 -21 -8 -44.5t-18 -51t-18 -59t-8 -68.5q0 -54 7 -91t15 -65t15 -51t7 -47q0 -43 -23 -73.5t-82 -30.5q-64 0 -90.5 25t-26.5 67q0 30 8 53t18 45.5t18 48.5t8 64q0 67 -8.5 107.5t-19 67.5t-19 47.5t-8.5 47.5q0 48 25.5 73.5t91.5 25.5z
M50 890q11 0 24.5 -6.5t28 -16t27.5 -21t24 -21.5q26 -26 34.5 -50t8.5 -36t-5 -14.5t-13 -2.5q-16 0 -40.5 9t-49.5 22t-45.5 26t-27.5 21q-5 6 -10 16t-5 23q0 7 3 15.5t9 16.5t15 13.5t22 5.5z" />
    <glyph glyph-name="iacute" unicode="&#xed;" horiz-adv-x="255" 
d="M128 665q66 0 91 -23t25 -68q0 -21 -8 -44.5t-18 -51t-18 -59t-8 -68.5q0 -54 7 -91t15 -65t15 -51t7 -47q0 -43 -23 -73.5t-82 -30.5q-64 0 -90.5 25t-26.5 67q0 30 8 53t18 45.5t18 48.5t8 64q0 67 -8.5 107.5t-19 67.5t-19 47.5t-8.5 47.5q0 48 25.5 73.5t91.5 25.5z
M207 890q23 -2 36 -18.5t13 -36.5t-13 -33q-8 -8 -29 -21.5t-46 -26.5t-50.5 -22.5t-41.5 -9.5q-8 0 -12.5 2t-4.5 13q0 12 8 36.5t35 51.5q10 10 23.5 21.5t28 21t28.5 16t25 6.5z" />
    <glyph glyph-name="icircumflex" unicode="&#xee;" horiz-adv-x="255" 
d="M128 665q66 0 91 -23t25 -68q0 -21 -8 -44.5t-18 -51t-18 -59t-8 -68.5q0 -54 7 -91t15 -65t15 -51t7 -47q0 -43 -23 -73.5t-82 -30.5q-64 0 -90.5 25t-26.5 67q0 30 8 53t18 45.5t18 48.5t8 64q0 67 -8.5 107.5t-19 67.5t-19 47.5t-8.5 47.5q0 48 25.5 73.5t91.5 25.5z
M128 885q11 -1 37 -14.5t52.5 -34t47 -44.5t20.5 -46q0 -15 -13.5 -27t-30.5 -12t-34 13t-32 29t-27.5 29t-21.5 13t-19.5 -13.5t-24 -29.5t-31.5 -29.5t-41 -13.5q-14 0 -25.5 10t-11.5 30q0 21 19 45.5t45 45.5t51.5 35t39.5 14z" />
    <glyph glyph-name="idieresis" unicode="&#xef;" horiz-adv-x="255" 
d="M128 665q66 0 91 -23t25 -68q0 -21 -8 -44.5t-18 -51t-18 -59t-8 -68.5q0 -54 7 -91t15 -65t15 -51t7 -47q0 -43 -23 -73.5t-82 -30.5q-64 0 -90.5 25t-26.5 67q0 30 8 53t18 45.5t18 48.5t8 64q0 67 -8.5 107.5t-19 67.5t-19 47.5t-8.5 47.5q0 48 25.5 73.5t91.5 25.5z
M21 850q36 -1 53.5 -24t17.5 -54q0 -29 -19.5 -47t-55.5 -18q-34 0 -54 18.5t-20 46.5q0 30 21 54t57 24zM254 846q32 0 46 -19t14 -47q0 -31 -17.5 -52t-47.5 -21q-35 0 -58.5 21t-23.5 50q0 10 4.5 22t14.5 22.5t27 17t41 6.5z" />
    <glyph glyph-name="eth" unicode="&#xf0;" horiz-adv-x="618" 
d="M78 -18q-14 0 -23 4.5t-14.5 11.5t-8 14.5t-2.5 12.5q0 11 4 22t16 25q9 10 16 25t12 38t7.5 56t2.5 80q0 16 -12 20t-26 7t-26 11.5t-12 33.5q0 19 16.5 32.5t41.5 13.5q8 0 12.5 7.5t4.5 15.5q-4 66 -14.5 105t-24.5 59q-16 22 -16 43q0 17 10.5 29t33.5 12
q24 0 43 -17q16 -15 26.5 -26t19.5 -18.5t18.5 -11t23.5 -3.5q24 0 49.5 12t52.5 26.5t56.5 26.5t61.5 12q55 0 89.5 -18.5t53.5 -58t25.5 -101t6.5 -146.5q0 -184 -44 -270.5t-131 -86.5q-26 0 -49.5 7.5t-43 17t-33.5 20t-20 16.5q-4 4 -11.5 11t-18 14t-22.5 12.5
t-24 5.5q-22 0 -32.5 -16t-21 -35t-26.5 -35t-47 -16zM249 389q25 0 39 -16t14 -33q0 -20 -14.5 -31.5t-37.5 -11.5q-15 0 -30 3q-12 0 -19 -7.5t-10.5 -18t-4 -22t-0.5 -19.5q0 -13 3 -24t10.5 -19.5t21 -13.5t33.5 -5q28 0 48 14.5t33 39t18.5 56t5.5 64.5
q0 88 -25.5 130.5t-83.5 42.5q-36 0 -50.5 -11t-14.5 -36q0 -9 1 -23.5t4.5 -28t10.5 -23.5t19 -10q7 0 14 1.5t15 1.5z" />
    <glyph glyph-name="ntilde" unicode="&#xf1;" horiz-adv-x="588" 
d="M349 577q0 25 9 44.5t24.5 32.5t36 20t43.5 7q54 0 81.5 -32t27.5 -80q0 -28 -6.5 -62.5t-14 -77.5t-13.5 -94t-6 -112q0 -55 7 -90t15 -57.5t15 -36t7 -24.5t-12.5 -18t-26.5 -7q-30 0 -68 20.5t-70 53.5q-23 23 -42 57t-35.5 72t-32.5 76t-32 68t-33.5 49t-38.5 19
q-23 0 -32.5 -17.5t-9.5 -37.5q0 -51 14.5 -86t32 -63t32 -55t14.5 -62q0 -22 -11 -38.5t-28 -28t-38 -17.5t-41 -6q-55 0 -80.5 24.5t-25.5 55.5q0 29 12.5 58.5t27.5 57.5q6 12 13.5 28t14 39t11 55.5t4.5 76.5q0 68 -11.5 108.5t-25 65.5t-24.5 40t-11 31q0 17 17.5 26.5
t40.5 9.5q34 0 67.5 -14.5t67 -48t66.5 -87.5t66 -133q7 -18 15 -38.5t18 -37.5t23.5 -28.5t31.5 -11.5q17 0 27.5 16t10.5 51q0 38 -19.5 63.5t-42.5 49.5t-42.5 53t-19.5 73zM216 850q22 0 40 -9.5t33 -21.5t28 -21.5t25 -9.5q13 0 21.5 10.5t16 23t15.5 23t19 10.5
q19 0 30 -16.5t11 -33.5q0 -24 -9.5 -40.5t-22 -27t-26.5 -15t-23 -4.5q-20 0 -38 9t-34.5 20.5t-32 20.5t-29.5 9q-15 0 -24 -10t-15.5 -21.5t-12.5 -21.5t-14 -10q-17 0 -29 13t-12 32q0 20 8.5 37t21 29t27 18.5t26.5 6.5z" />
    <glyph glyph-name="ograve" unicode="&#xf2;" horiz-adv-x="380" 
d="M207 666q75 0 121 -42t46 -120q0 -27 -11 -57t-33.5 -55t-57.5 -41.5t-83 -16.5q-52 0 -86.5 13.5t-55.5 35t-30 49.5t-9 57q0 94 48 135.5t151 41.5zM229 513q-27 0 -39.5 -18t-12.5 -39q0 -20 11 -36.5t34 -16.5q32 0 47.5 17t15.5 38q0 20 -13.5 37.5t-42.5 17.5z
M111 890q11 0 24.5 -6.5t28 -16t27.5 -21t24 -21.5q26 -26 34.5 -50t8.5 -36t-5 -14.5t-13 -2.5q-16 0 -40.5 9t-49.5 22t-45.5 26t-27.5 21q-5 6 -10 16t-5 23q0 7 3 15.5t9 16.5t15 13.5t22 5.5z" />
    <glyph glyph-name="oacute" unicode="&#xf3;" horiz-adv-x="380" 
d="M207 666q75 0 121 -42t46 -120q0 -27 -11 -57t-33.5 -55t-57.5 -41.5t-83 -16.5q-52 0 -86.5 13.5t-55.5 35t-30 49.5t-9 57q0 94 48 135.5t151 41.5zM229 513q-27 0 -39.5 -18t-12.5 -39q0 -20 11 -36.5t34 -16.5q32 0 47.5 17t15.5 38q0 20 -13.5 37.5t-42.5 17.5z
M269 890q23 -2 36 -18.5t13 -36.5t-13 -33q-8 -8 -29 -21.5t-46 -26.5t-50.5 -22.5t-41.5 -9.5q-8 0 -12.5 2t-4.5 13q0 12 8 36.5t35 51.5q10 10 23.5 21.5t28 21t28.5 16t25 6.5z" />
    <glyph glyph-name="ocircumflex" unicode="&#xf4;" horiz-adv-x="380" 
d="M207 666q75 0 121 -42t46 -120q0 -27 -11 -57t-33.5 -55t-57.5 -41.5t-83 -16.5q-52 0 -86.5 13.5t-55.5 35t-30 49.5t-9 57q0 94 48 135.5t151 41.5zM229 513q-27 0 -39.5 -18t-12.5 -39q0 -20 11 -36.5t34 -16.5q32 0 47.5 17t15.5 38q0 20 -13.5 37.5t-42.5 17.5z
M189 885q11 -1 37 -14.5t52.5 -34t47 -44.5t20.5 -46q0 -15 -13.5 -27t-30.5 -12t-34 13t-32 29t-27.5 29t-21.5 13t-19.5 -13.5t-24 -29.5t-31.5 -29.5t-41 -13.5q-14 0 -25.5 10t-11.5 30q0 21 19 45.5t45 45.5t51.5 35t39.5 14z" />
    <glyph glyph-name="otilde" unicode="&#xf5;" horiz-adv-x="380" 
d="M207 666q75 0 121 -42t46 -120q0 -27 -11 -57t-33.5 -55t-57.5 -41.5t-83 -16.5q-52 0 -86.5 13.5t-55.5 35t-30 49.5t-9 57q0 94 48 135.5t151 41.5zM229 513q-27 0 -39.5 -18t-12.5 -39q0 -20 11 -36.5t34 -16.5q32 0 47.5 17t15.5 38q0 20 -13.5 37.5t-42.5 17.5z
M112 850q22 0 40 -9.5t33 -21.5t28 -21.5t25 -9.5q13 0 21.5 10.5t16 23t15.5 23t19 10.5q19 0 30 -16.5t11 -33.5q0 -24 -9.5 -40.5t-22 -27t-26.5 -15t-23 -4.5q-20 0 -38 9t-34.5 20.5t-32 20.5t-29.5 9q-15 0 -24 -10t-15.5 -21.5t-12.5 -21.5t-14 -10q-17 0 -29 13
t-12 32q0 20 8.5 37t21 29t27 18.5t26.5 6.5z" />
    <glyph glyph-name="odieresis" unicode="&#xf6;" horiz-adv-x="380" 
d="M207 666q75 0 121 -42t46 -120q0 -27 -11 -57t-33.5 -55t-57.5 -41.5t-83 -16.5q-52 0 -86.5 13.5t-55.5 35t-30 49.5t-9 57q0 94 48 135.5t151 41.5zM229 513q-27 0 -39.5 -18t-12.5 -39q0 -20 11 -36.5t34 -16.5q32 0 47.5 17t15.5 38q0 20 -13.5 37.5t-42.5 17.5z
M84 850q36 -1 53.5 -24t17.5 -54q0 -29 -19.5 -47t-55.5 -18q-34 0 -54 18.5t-20 46.5q0 30 21 54t57 24zM317 846q32 0 46 -19t14 -47q0 -31 -17.5 -52t-47.5 -21q-35 0 -58.5 21t-23.5 50q0 10 4.5 22t14.5 22.5t27 17t41 6.5z" />
    <glyph glyph-name="divide" unicode="&#xf7;" horiz-adv-x="459" 
d="M240 558q32 0 47 -13.5t15 -33.5q0 -14 -6 -27t-15 -23t-20.5 -16t-23.5 -6q-15 0 -27 6.5t-20 16t-12 20t-4 18.5q0 53 66 58zM231 203q32 0 48 -13.5t16 -33.5q0 -22 -17.5 -40.5t-39.5 -18.5q-14 0 -25 6.5t-18.5 16t-11 19.5t-3.5 17q0 20 15.5 33.5t35.5 13.5z
M390 379q38 0 52 -16t14 -42q0 -28 -16 -38.5t-40 -10.5q-27 0 -69 7t-108 7q-48 0 -87.5 -9t-69.5 -9q-12 0 -23 2.5t-20 9.5t-14.5 18t-5.5 29q0 26 18.5 40t42.5 14q26 0 62 -7t90 -7q39 0 63.5 2t42.5 4t33 4t35 2z" />
    <glyph glyph-name="oslash" unicode="&#xf8;" horiz-adv-x="380" 
d="M330 705q26 -1 37 -7.5t11 -21.5q0 -12 -4 -20.5t-9 -16t-9 -16t-4 -20.5q0 -11 4 -18q18 -35 18 -81q0 -27 -11 -57t-33.5 -55t-57.5 -41.5t-83 -16.5q-17 0 -31 -4.5t-26 -16.5q-13 -13 -26.5 -21t-27.5 -8q-23 0 -32 8.5t-9 21.5q0 14 5.5 26t5.5 23q0 9 -3.5 17
t-9.5 16q-14 20 -20.5 44t-6.5 49q0 94 48 135.5t151 41.5q17 0 33.5 2t29.5 13t27 17.5t33 6.5zM229 513q-27 0 -39.5 -18t-12.5 -39q0 -20 11 -36.5t34 -16.5q32 0 47.5 17t15.5 38q0 20 -13.5 37.5t-42.5 17.5z" />
    <glyph glyph-name="ugrave" unicode="&#xf9;" 
d="M164 666q54 0 79 -20t25 -74t-11 -97.5t-24.5 -80.5t-24.5 -68.5t-11 -62.5q0 -140 107 -140q57 0 78 37t21 104q0 23 -10.5 57t-23.5 72.5t-23.5 79.5t-10.5 77q0 22 6 43t18.5 36.5t33 25t50.5 9.5q44 0 72 -24.5t44.5 -63.5t22.5 -88t6 -98q0 -84 -5.5 -157
t-33.5 -128t-86.5 -86.5t-164.5 -31.5q-89 0 -145 32.5t-87.5 86t-43 122.5t-11.5 143q0 43 6 94.5t22.5 96t46.5 74.5t78 30zM221 890q11 0 24.5 -6.5t28 -16t27.5 -21t24 -21.5q26 -26 34.5 -50t8.5 -36t-5 -14.5t-13 -2.5q-16 0 -40.5 9t-49.5 22t-45.5 26t-27.5 21
q-5 6 -10 16t-5 23q0 7 3 15.5t9 16.5t15 13.5t22 5.5z" />
    <glyph glyph-name="uacute" unicode="&#xfa;" 
d="M164 666q54 0 79 -20t25 -74t-11 -97.5t-24.5 -80.5t-24.5 -68.5t-11 -62.5q0 -140 107 -140q57 0 78 37t21 104q0 23 -10.5 57t-23.5 72.5t-23.5 79.5t-10.5 77q0 22 6 43t18.5 36.5t33 25t50.5 9.5q44 0 72 -24.5t44.5 -63.5t22.5 -88t6 -98q0 -84 -5.5 -157
t-33.5 -128t-86.5 -86.5t-164.5 -31.5q-89 0 -145 32.5t-87.5 86t-43 122.5t-11.5 143q0 43 6 94.5t22.5 96t46.5 74.5t78 30zM379 890q23 -2 36 -18.5t13 -36.5t-13 -33q-8 -8 -29 -21.5t-46 -26.5t-50.5 -22.5t-41.5 -9.5q-8 0 -12.5 2t-4.5 13q0 12 8 36.5t35 51.5
q10 10 23.5 21.5t28 21t28.5 16t25 6.5z" />
    <glyph glyph-name="ucircumflex" unicode="&#xfb;" 
d="M164 666q54 0 79 -20t25 -74t-11 -97.5t-24.5 -80.5t-24.5 -68.5t-11 -62.5q0 -140 107 -140q57 0 78 37t21 104q0 23 -10.5 57t-23.5 72.5t-23.5 79.5t-10.5 77q0 22 6 43t18.5 36.5t33 25t50.5 9.5q44 0 72 -24.5t44.5 -63.5t22.5 -88t6 -98q0 -84 -5.5 -157
t-33.5 -128t-86.5 -86.5t-164.5 -31.5q-89 0 -145 32.5t-87.5 86t-43 122.5t-11.5 143q0 43 6 94.5t22.5 96t46.5 74.5t78 30zM299 885q11 -1 37 -14.5t52.5 -34t47 -44.5t20.5 -46q0 -15 -13.5 -27t-30.5 -12t-34 13t-32 29t-27.5 29t-21.5 13t-19.5 -13.5t-24 -29.5
t-31.5 -29.5t-41 -13.5q-14 0 -25.5 10t-11.5 30q0 21 19 45.5t45 45.5t51.5 35t39.5 14z" />
    <glyph glyph-name="udieresis" unicode="&#xfc;" 
d="M164 666q54 0 79 -20t25 -74t-11 -97.5t-24.5 -80.5t-24.5 -68.5t-11 -62.5q0 -140 107 -140q57 0 78 37t21 104q0 23 -10.5 57t-23.5 72.5t-23.5 79.5t-10.5 77q0 22 6 43t18.5 36.5t33 25t50.5 9.5q44 0 72 -24.5t44.5 -63.5t22.5 -88t6 -98q0 -84 -5.5 -157
t-33.5 -128t-86.5 -86.5t-164.5 -31.5q-89 0 -145 32.5t-87.5 86t-43 122.5t-11.5 143q0 43 6 94.5t22.5 96t46.5 74.5t78 30zM192 850q36 -1 53.5 -24t17.5 -54q0 -29 -19.5 -47t-55.5 -18q-34 0 -54 18.5t-20 46.5q0 30 21 54t57 24zM425 846q32 0 46 -19t14 -47
q0 -31 -17.5 -52t-47.5 -21q-35 0 -58.5 21t-23.5 50q0 10 4.5 22t14.5 22.5t27 17t41 6.5z" />
    <glyph glyph-name="yacute" unicode="&#xfd;" horiz-adv-x="550" 
d="M361 220q-8 14 -26 19.5t-35 5.5q-29 0 -62.5 -7t-67.5 -7q-39 0 -68.5 17t-50 46t-31 67t-10.5 80q0 40 10 79.5t30 71t50 51t70 19.5q21 0 36 -7t25 -18t15 -24.5t5 -26.5q0 -22 -8.5 -43.5t-19 -41t-19 -36t-8.5 -27.5q0 -8 3.5 -20t14 -23.5t28.5 -20t47 -8.5
q10 0 22 3t22.5 9.5t17.5 17.5t7 28q0 27 -7.5 46t-16 36t-16 34t-7.5 41q0 32 20.5 55t58.5 23q24 0 50 -6.5t48 -28.5t36.5 -65t14.5 -115q0 -102 -11.5 -188.5t-43.5 -148.5t-88 -97t-144 -35q-31 0 -65 8t-62.5 24.5t-47 42t-18.5 60.5q0 22 14 39.5t37 17.5
q18 0 38.5 -9t42 -19.5t44.5 -19t46 -8.5q12 0 26.5 4.5t28 14t22.5 25t9 37.5q0 14 -6 28zM354 890q23 -2 36 -18.5t13 -36.5t-13 -33q-8 -8 -29 -21.5t-46 -26.5t-50.5 -22.5t-41.5 -9.5q-8 0 -12.5 2t-4.5 13q0 12 8 36.5t35 51.5q10 10 23.5 21.5t28 21t28.5 16t25 6.5z
" />
    <glyph glyph-name="thorn" unicode="&#xfe;" horiz-adv-x="511" 
d="M126 664q12 0 24.5 -3.5t23 -10.5t17 -17t6.5 -22q0 -17 -8.5 -35.5t-8.5 -33.5q0 -10 6 -17.5t26 -7.5q21 0 52.5 5t66.5 5q40 0 72.5 -13.5t56 -37.5t36.5 -58t13 -75q0 -66 -23.5 -103t-58.5 -55t-76 -24t-76 -10t-58.5 -13.5t-23.5 -34.5q0 -14 3 -29t3 -29
q0 -28 -22.5 -40t-60.5 -12q-54 0 -76 28.5t-22 80.5q0 24 3.5 51t7 53.5t7 51t3.5 45.5q0 27 -4 55t-9 56.5t-9 56.5t-4 55q0 46 7 73.5t21 41.5t35 18.5t50 4.5zM223 417q-23 0 -40.5 -24t-17.5 -64q0 -17 4 -33t11.5 -29t17 -20.5t21.5 -7.5q24 0 39.5 27.5t15.5 66.5
q0 37 -15 60.5t-36 23.5z" />
    <glyph glyph-name="ydieresis" unicode="&#xff;" horiz-adv-x="550" 
d="M361 220q-8 14 -26 19.5t-35 5.5q-29 0 -62.5 -7t-67.5 -7q-39 0 -68.5 17t-50 46t-31 67t-10.5 80q0 40 10 79.5t30 71t50 51t70 19.5q21 0 36 -7t25 -18t15 -24.5t5 -26.5q0 -22 -8.5 -43.5t-19 -41t-19 -36t-8.5 -27.5q0 -8 3.5 -20t14 -23.5t28.5 -20t47 -8.5
q10 0 22 3t22.5 9.5t17.5 17.5t7 28q0 27 -7.5 46t-16 36t-16 34t-7.5 41q0 32 20.5 55t58.5 23q24 0 50 -6.5t48 -28.5t36.5 -65t14.5 -115q0 -102 -11.5 -188.5t-43.5 -148.5t-88 -97t-144 -35q-31 0 -65 8t-62.5 24.5t-47 42t-18.5 60.5q0 22 14 39.5t37 17.5
q18 0 38.5 -9t42 -19.5t44.5 -19t46 -8.5q12 0 26.5 4.5t28 14t22.5 25t9 37.5q0 14 -6 28zM167 850q36 -1 53.5 -24t17.5 -54q0 -29 -19.5 -47t-55.5 -18q-34 0 -54 18.5t-20 46.5q0 30 21 54t57 24zM400 846q32 0 46 -19t14 -47q0 -31 -17.5 -52t-47.5 -21q-35 0 -58.5 21
t-23.5 50q0 10 4.5 22t14.5 22.5t27 17t41 6.5z" />
    <glyph glyph-name="Amacron" unicode="&#x100;" horiz-adv-x="628" 
d="M314 660q44 0 74.5 -7.5t49 -20t27 -29t8.5 -34.5q0 -25 -9 -51.5t-9 -55.5q0 -32 9 -68t22 -72q14 -41 36.5 -75t44.5 -64t37.5 -57t15.5 -53q0 -17 -9 -33.5t-24 -29.5t-34.5 -21t-40.5 -8q-17 0 -37 3.5t-37.5 12.5t-29.5 23.5t-12 35.5q0 14 2.5 26.5t2.5 26.5
q0 32 -28 52.5t-74 20.5q-39 0 -67 -17.5t-28 -52.5q0 -17 4.5 -30t4.5 -26q0 -18 -8.5 -31.5t-23 -23.5t-33.5 -15t-39 -5q-48 0 -74.5 21.5t-26.5 58.5q0 39 24 87.5t53 101t53 105.5t24 100q0 26 -9.5 54t-9.5 55q0 18 8 35.5t27.5 31t52.5 21.5t83 8zM360 334
q0 10 -3 25t-9 28.5t-16 23.5t-24 10q-11 0 -23 -7t-21.5 -19.5t-16 -30t-6.5 -37.5q0 -11 3.5 -23t11 -21.5t18.5 -16t27 -6.5q26 0 42.5 22t16.5 52zM424 848q30 0 46 -24.5t16 -51.5q0 -31 -17.5 -48.5t-43.5 -17.5t-56 10t-59 10q-12 0 -25 -3.5t-26.5 -7.5t-27.5 -7.5
t-27 -3.5q-10 0 -21 3.5t-20.5 12t-15.5 22.5t-6 35q0 29 20 50t50 21q23 0 47 -8t44 -8q22 0 37.5 2.5t28.5 5.5t26 5.5t30 2.5z" />
    <glyph glyph-name="amacron" unicode="&#x101;" horiz-adv-x="628" 
d="M314 660q44 0 74.5 -7.5t49 -20t27 -29t8.5 -34.5q0 -25 -9 -51.5t-9 -55.5q0 -32 9 -68t22 -72q14 -41 36.5 -75t44.5 -64t37.5 -57t15.5 -53q0 -17 -9 -33.5t-24 -29.5t-34.5 -21t-40.5 -8q-17 0 -37 3.5t-37.5 12.5t-29.5 23.5t-12 35.5q0 14 2.5 26.5t2.5 26.5
q0 32 -28 52.5t-74 20.5q-39 0 -67 -17.5t-28 -52.5q0 -17 4.5 -30t4.5 -26q0 -18 -8.5 -31.5t-23 -23.5t-33.5 -15t-39 -5q-48 0 -74.5 21.5t-26.5 58.5q0 39 24 87.5t53 101t53 105.5t24 100q0 26 -9.5 54t-9.5 55q0 18 8 35.5t27.5 31t52.5 21.5t83 8zM360 334
q0 10 -3 25t-9 28.5t-16 23.5t-24 10q-11 0 -23 -7t-21.5 -19.5t-16 -30t-6.5 -37.5q0 -11 3.5 -23t11 -21.5t18.5 -16t27 -6.5q26 0 42.5 22t16.5 52zM424 848q30 0 46 -24.5t16 -51.5q0 -31 -17.5 -48.5t-43.5 -17.5t-56 10t-59 10q-12 0 -25 -3.5t-26.5 -7.5t-27.5 -7.5
t-27 -3.5q-10 0 -21 3.5t-20.5 12t-15.5 22.5t-6 35q0 29 20 50t50 21q23 0 47 -8t44 -8q22 0 37.5 2.5t28.5 5.5t26 5.5t30 2.5z" />
    <glyph glyph-name="Abreve" unicode="&#x102;" horiz-adv-x="628" 
d="M314 660q44 0 74.5 -7.5t49 -20t27 -29t8.5 -34.5q0 -25 -9 -51.5t-9 -55.5q0 -32 9 -68t22 -72q14 -41 36.5 -75t44.5 -64t37.5 -57t15.5 -53q0 -17 -9 -33.5t-24 -29.5t-34.5 -21t-40.5 -8q-17 0 -37 3.5t-37.5 12.5t-29.5 23.5t-12 35.5q0 14 2.5 26.5t2.5 26.5
q0 32 -28 52.5t-74 20.5q-39 0 -67 -17.5t-28 -52.5q0 -17 4.5 -30t4.5 -26q0 -18 -8.5 -31.5t-23 -23.5t-33.5 -15t-39 -5q-48 0 -74.5 21.5t-26.5 58.5q0 39 24 87.5t53 101t53 105.5t24 100q0 26 -9.5 54t-9.5 55q0 18 8 35.5t27.5 31t52.5 21.5t83 8zM360 334
q0 10 -3 25t-9 28.5t-16 23.5t-24 10q-11 0 -23 -7t-21.5 -19.5t-16 -30t-6.5 -37.5q0 -11 3.5 -23t11 -21.5t18.5 -16t27 -6.5q26 0 42.5 22t16.5 52zM318 716q-30 0 -62 12t-58.5 30.5t-43 41t-16.5 44.5q0 16 13 28t30 12t28.5 -13.5t25 -29.5t32 -29.5t50.5 -13.5
q31 0 48 13.5t28.5 30t23.5 30t34 13.5q14 0 26.5 -10t12.5 -31t-15.5 -44t-40 -41.5t-55.5 -30.5t-61 -12z" />
    <glyph glyph-name="abreve" unicode="&#x103;" horiz-adv-x="628" 
d="M314 660q44 0 74.5 -7.5t49 -20t27 -29t8.5 -34.5q0 -25 -9 -51.5t-9 -55.5q0 -32 9 -68t22 -72q14 -41 36.5 -75t44.5 -64t37.5 -57t15.5 -53q0 -17 -9 -33.5t-24 -29.5t-34.5 -21t-40.5 -8q-17 0 -37 3.5t-37.5 12.5t-29.5 23.5t-12 35.5q0 14 2.5 26.5t2.5 26.5
q0 32 -28 52.5t-74 20.5q-39 0 -67 -17.5t-28 -52.5q0 -17 4.5 -30t4.5 -26q0 -18 -8.5 -31.5t-23 -23.5t-33.5 -15t-39 -5q-48 0 -74.5 21.5t-26.5 58.5q0 39 24 87.5t53 101t53 105.5t24 100q0 26 -9.5 54t-9.5 55q0 18 8 35.5t27.5 31t52.5 21.5t83 8zM360 334
q0 10 -3 25t-9 28.5t-16 23.5t-24 10q-11 0 -23 -7t-21.5 -19.5t-16 -30t-6.5 -37.5q0 -11 3.5 -23t11 -21.5t18.5 -16t27 -6.5q26 0 42.5 22t16.5 52zM318 716q-30 0 -62 12t-58.5 30.5t-43 41t-16.5 44.5q0 16 13 28t30 12t28.5 -13.5t25 -29.5t32 -29.5t50.5 -13.5
q31 0 48 13.5t28.5 30t23.5 30t34 13.5q14 0 26.5 -10t12.5 -31t-15.5 -44t-40 -41.5t-55.5 -30.5t-61 -12z" />
    <glyph glyph-name="Aogonek" unicode="&#x104;" horiz-adv-x="628" 
d="M398 -201q-10 0 -22.5 1t-23 5t-18 12.5t-7.5 22.5q0 21 11.5 41t25.5 48.5t25.5 71t11.5 108.5q0 32 -28 52.5t-74 20.5q-39 0 -67 -17.5t-28 -52.5q0 -17 4.5 -30t4.5 -26q0 -18 -8.5 -31.5t-23 -23.5t-33.5 -15t-39 -5q-48 0 -74.5 21.5t-26.5 58.5q0 39 24 87.5
t53 101t53 105.5t24 100q0 26 -9.5 54t-9.5 55q0 18 8 35.5t27.5 31t52.5 21.5t83 8q44 0 74.5 -7.5t49 -20t27 -29t8.5 -34.5q0 -25 -9 -51.5t-9 -55.5q0 -32 9 -68t22 -72q14 -41 36.5 -75t44.5 -64t37.5 -57t15.5 -53t-12 -41t-30.5 -25t-39.5 -16.5t-39.5 -15.5
t-30.5 -22.5t-12 -37.5q0 -11 8.5 -20t27.5 -9q10 0 22 3.5t23 7t20 7t14 3.5q6 0 9 -4.5t3 -8.5q0 -9 -5.5 -18t-13.5 -17q-18 -18 -40 -29.5t-44 -18.5t-43 -9.5t-39 -2.5zM360 334q0 10 -3 25t-9 28.5t-16 23.5t-24 10q-11 0 -23 -7t-21.5 -19.5t-16 -30t-6.5 -37.5
q0 -11 3.5 -23t11 -21.5t18.5 -16t27 -6.5q26 0 42.5 22t16.5 52z" />
    <glyph glyph-name="aogonek" unicode="&#x105;" horiz-adv-x="628" 
d="M398 -201q-10 0 -22.5 1t-23 5t-18 12.5t-7.5 22.5q0 21 11.5 41t25.5 48.5t25.5 71t11.5 108.5q0 32 -28 52.5t-74 20.5q-39 0 -67 -17.5t-28 -52.5q0 -17 4.5 -30t4.5 -26q0 -18 -8.5 -31.5t-23 -23.5t-33.5 -15t-39 -5q-48 0 -74.5 21.5t-26.5 58.5q0 39 24 87.5
t53 101t53 105.5t24 100q0 26 -9.5 54t-9.5 55q0 18 8 35.5t27.5 31t52.5 21.5t83 8q44 0 74.5 -7.5t49 -20t27 -29t8.5 -34.5q0 -25 -9 -51.5t-9 -55.5q0 -32 9 -68t22 -72q14 -41 36.5 -75t44.5 -64t37.5 -57t15.5 -53t-12 -41t-30.5 -25t-39.5 -16.5t-39.5 -15.5
t-30.5 -22.5t-12 -37.5q0 -11 8.5 -20t27.5 -9q10 0 22 3.5t23 7t20 7t14 3.5q6 0 9 -4.5t3 -8.5q0 -9 -5.5 -18t-13.5 -17q-18 -18 -40 -29.5t-44 -18.5t-43 -9.5t-39 -2.5zM360 334q0 10 -3 25t-9 28.5t-16 23.5t-24 10q-11 0 -23 -7t-21.5 -19.5t-16 -30t-6.5 -37.5
q0 -11 3.5 -23t11 -21.5t18.5 -16t27 -6.5q26 0 42.5 22t16.5 52z" />
    <glyph glyph-name="Cacute" unicode="&#x106;" horiz-adv-x="542" 
d="M277 -12q-62 0 -112 26t-84.5 68t-53 96t-18.5 111q0 64 22 129t63.5 117.5t101.5 86t137 33.5q26 0 59 -7t62 -21.5t48.5 -36.5t19.5 -51q0 -11 -6 -20t-19 -9q-9 0 -20.5 3.5t-25 7.5t-28.5 7.5t-31 3.5q-33 0 -60 -19t-45.5 -48t-28.5 -65t-10 -69q0 -36 9 -66
t24 -51.5t35 -33.5t42 -12t43 9.5t40 21t35 21t29 9.5q14 0 21 -12.5t7 -25.5q0 -46 -26.5 -83.5t-65.5 -64t-83.5 -41t-80.5 -14.5zM350 890q23 -2 36 -18.5t13 -36.5t-13 -33q-8 -8 -29 -21.5t-46 -26.5t-50.5 -22.5t-41.5 -9.5q-8 0 -12.5 2t-4.5 13q0 12 8 36.5t35 51.5
q10 10 23.5 21.5t28 21t28.5 16t25 6.5z" />
    <glyph glyph-name="cacute" unicode="&#x107;" horiz-adv-x="542" 
d="M277 -12q-62 0 -112 26t-84.5 68t-53 96t-18.5 111q0 64 22 129t63.5 117.5t101.5 86t137 33.5q26 0 59 -7t62 -21.5t48.5 -36.5t19.5 -51q0 -11 -6 -20t-19 -9q-9 0 -20.5 3.5t-25 7.5t-28.5 7.5t-31 3.5q-33 0 -60 -19t-45.5 -48t-28.5 -65t-10 -69q0 -36 9 -66
t24 -51.5t35 -33.5t42 -12t43 9.5t40 21t35 21t29 9.5q14 0 21 -12.5t7 -25.5q0 -46 -26.5 -83.5t-65.5 -64t-83.5 -41t-80.5 -14.5zM350 890q23 -2 36 -18.5t13 -36.5t-13 -33q-8 -8 -29 -21.5t-46 -26.5t-50.5 -22.5t-41.5 -9.5q-8 0 -12.5 2t-4.5 13q0 12 8 36.5t35 51.5
q10 10 23.5 21.5t28 21t28.5 16t25 6.5z" />
    <glyph glyph-name="Ccircumflex" unicode="&#x108;" horiz-adv-x="542" 
d="M277 -12q-62 0 -112 26t-84.5 68t-53 96t-18.5 111q0 64 22 129t63.5 117.5t101.5 86t137 33.5q26 0 59 -7t62 -21.5t48.5 -36.5t19.5 -51q0 -11 -6 -20t-19 -9q-9 0 -20.5 3.5t-25 7.5t-28.5 7.5t-31 3.5q-33 0 -60 -19t-45.5 -48t-28.5 -65t-10 -69q0 -36 9 -66
t24 -51.5t35 -33.5t42 -12t43 9.5t40 21t35 21t29 9.5q14 0 21 -12.5t7 -25.5q0 -46 -26.5 -83.5t-65.5 -64t-83.5 -41t-80.5 -14.5zM270 885q11 -1 37 -14.5t52.5 -34t47 -44.5t20.5 -46q0 -15 -13.5 -27t-30.5 -12t-34 13t-32 29t-27.5 29t-21.5 13t-19.5 -13.5t-24 -29.5
t-31.5 -29.5t-41 -13.5q-14 0 -25.5 10t-11.5 30q0 21 19 45.5t45 45.5t51.5 35t39.5 14z" />
    <glyph glyph-name="ccircumflex" unicode="&#x109;" horiz-adv-x="542" 
d="M277 -12q-62 0 -112 26t-84.5 68t-53 96t-18.5 111q0 64 22 129t63.5 117.5t101.5 86t137 33.5q26 0 59 -7t62 -21.5t48.5 -36.5t19.5 -51q0 -11 -6 -20t-19 -9q-9 0 -20.5 3.5t-25 7.5t-28.5 7.5t-31 3.5q-33 0 -60 -19t-45.5 -48t-28.5 -65t-10 -69q0 -36 9 -66
t24 -51.5t35 -33.5t42 -12t43 9.5t40 21t35 21t29 9.5q14 0 21 -12.5t7 -25.5q0 -46 -26.5 -83.5t-65.5 -64t-83.5 -41t-80.5 -14.5zM270 885q11 -1 37 -14.5t52.5 -34t47 -44.5t20.5 -46q0 -15 -13.5 -27t-30.5 -12t-34 13t-32 29t-27.5 29t-21.5 13t-19.5 -13.5t-24 -29.5
t-31.5 -29.5t-41 -13.5q-14 0 -25.5 10t-11.5 30q0 21 19 45.5t45 45.5t51.5 35t39.5 14z" />
    <glyph glyph-name="Cdotaccent" unicode="&#x10a;" horiz-adv-x="542" 
d="M277 -12q-62 0 -112 26t-84.5 68t-53 96t-18.5 111q0 64 22 129t63.5 117.5t101.5 86t137 33.5q26 0 59 -7t62 -21.5t48.5 -36.5t19.5 -51q0 -11 -6 -20t-19 -9q-9 0 -20.5 3.5t-25 7.5t-28.5 7.5t-31 3.5q-33 0 -60 -19t-45.5 -48t-28.5 -65t-10 -69q0 -36 9 -66
t24 -51.5t35 -33.5t42 -12t43 9.5t40 21t35 21t29 9.5q14 0 21 -12.5t7 -25.5q0 -46 -26.5 -83.5t-65.5 -64t-83.5 -41t-80.5 -14.5zM274 850q36 0 53.5 -24t17.5 -54q0 -29 -19.5 -47t-55.5 -18q-34 0 -54 18.5t-20 46.5q0 30 21 54t57 24z" />
    <glyph glyph-name="cdotaccent" unicode="&#x10b;" horiz-adv-x="542" 
d="M277 -12q-62 0 -112 26t-84.5 68t-53 96t-18.5 111q0 64 22 129t63.5 117.5t101.5 86t137 33.5q26 0 59 -7t62 -21.5t48.5 -36.5t19.5 -51q0 -11 -6 -20t-19 -9q-9 0 -20.5 3.5t-25 7.5t-28.5 7.5t-31 3.5q-33 0 -60 -19t-45.5 -48t-28.5 -65t-10 -69q0 -36 9 -66
t24 -51.5t35 -33.5t42 -12t43 9.5t40 21t35 21t29 9.5q14 0 21 -12.5t7 -25.5q0 -46 -26.5 -83.5t-65.5 -64t-83.5 -41t-80.5 -14.5zM274 850q36 0 53.5 -24t17.5 -54q0 -29 -19.5 -47t-55.5 -18q-34 0 -54 18.5t-20 46.5q0 30 21 54t57 24z" />
    <glyph glyph-name="Ccaron" unicode="&#x10c;" horiz-adv-x="542" 
d="M277 -12q-62 0 -112 26t-84.5 68t-53 96t-18.5 111q0 64 22 129t63.5 117.5t101.5 86t137 33.5q26 0 59 -7t62 -21.5t48.5 -36.5t19.5 -51q0 -11 -6 -20t-19 -9q-9 0 -20.5 3.5t-25 7.5t-28.5 7.5t-31 3.5q-33 0 -60 -19t-45.5 -48t-28.5 -65t-10 -69q0 -36 9 -66
t24 -51.5t35 -33.5t42 -12t43 9.5t40 21t35 21t29 9.5q14 0 21 -12.5t7 -25.5q0 -46 -26.5 -83.5t-65.5 -64t-83.5 -41t-80.5 -14.5zM271 706q-11 0 -36.5 13.5t-52 34t-47 44.5t-20.5 46q0 16 13 28t30 12t34.5 -13.5t32.5 -29.5t28 -29.5t21 -13.5q7 0 17.5 13.5t24.5 30
t32 30t40 13.5q14 0 26.5 -10t12.5 -31t-19.5 -45.5t-45.5 -45t-52 -34t-39 -13.5z" />
    <glyph glyph-name="ccaron" unicode="&#x10d;" horiz-adv-x="542" 
d="M277 -12q-62 0 -112 26t-84.5 68t-53 96t-18.5 111q0 64 22 129t63.5 117.5t101.5 86t137 33.5q26 0 59 -7t62 -21.5t48.5 -36.5t19.5 -51q0 -11 -6 -20t-19 -9q-9 0 -20.5 3.5t-25 7.5t-28.5 7.5t-31 3.5q-33 0 -60 -19t-45.5 -48t-28.5 -65t-10 -69q0 -36 9 -66
t24 -51.5t35 -33.5t42 -12t43 9.5t40 21t35 21t29 9.5q14 0 21 -12.5t7 -25.5q0 -46 -26.5 -83.5t-65.5 -64t-83.5 -41t-80.5 -14.5zM271 706q-11 0 -36.5 13.5t-52 34t-47 44.5t-20.5 46q0 16 13 28t30 12t34.5 -13.5t32.5 -29.5t28 -29.5t21 -13.5q7 0 17.5 13.5t24.5 30
t32 30t40 13.5q14 0 26.5 -10t12.5 -31t-19.5 -45.5t-45.5 -45t-52 -34t-39 -13.5z" />
    <glyph glyph-name="Dcaron" unicode="&#x10e;" horiz-adv-x="601" 
d="M61 -18q-14 0 -23 4.5t-14.5 11.5t-8 14.5t-2.5 12.5q0 11 4 22t16 25q10 12 17.5 30t12 48.5t7 75.5t2.5 111q0 101 -11.5 157t-29.5 82q-16 22 -16 43q0 17 10.5 29t33.5 12q24 0 43 -17q16 -15 26.5 -26t19.5 -18.5t18.5 -11t23.5 -3.5q24 0 49.5 12t52.5 26.5
t56.5 26.5t61.5 12q55 0 89.5 -18.5t53.5 -58t25.5 -101t6.5 -146.5q0 -184 -44 -270.5t-131 -86.5q-26 0 -49.5 7.5t-43 17t-33.5 20t-20 16.5q-4 4 -11.5 11t-18 14t-22.5 12.5t-24 5.5q-22 0 -32.5 -16t-21 -35t-26.5 -35t-47 -16zM233 518q-36 0 -50.5 -11t-14.5 -36
q0 -22 6.5 -52t6.5 -66q0 -35 -6 -65.5t-6 -54.5q0 -13 3 -24t10.5 -19.5t21 -13.5t33.5 -5q28 0 48 14.5t33 39t18.5 56t5.5 64.5q0 88 -25.5 130.5t-83.5 42.5zM298 706q-11 0 -36.5 13.5t-52 34t-47 44.5t-20.5 46q0 16 13 28t30 12t34.5 -13.5t32.5 -29.5t28 -29.5
t21 -13.5q7 0 17.5 13.5t24.5 30t32 30t40 13.5q14 0 26.5 -10t12.5 -31t-19.5 -45.5t-45.5 -45t-52 -34t-39 -13.5z" />
    <glyph glyph-name="dcaron" unicode="&#x10f;" horiz-adv-x="601" 
d="M61 -18q-14 0 -23 4.5t-14.5 11.5t-8 14.5t-2.5 12.5q0 11 4 22t16 25q10 12 17.5 30t12 48.5t7 75.5t2.5 111q0 101 -11.5 157t-29.5 82q-16 22 -16 43q0 17 10.5 29t33.5 12q24 0 43 -17q16 -15 26.5 -26t19.5 -18.5t18.5 -11t23.5 -3.5q24 0 49.5 12t52.5 26.5
t56.5 26.5t61.5 12q55 0 89.5 -18.5t53.5 -58t25.5 -101t6.5 -146.5q0 -184 -44 -270.5t-131 -86.5q-26 0 -49.5 7.5t-43 17t-33.5 20t-20 16.5q-4 4 -11.5 11t-18 14t-22.5 12.5t-24 5.5q-22 0 -32.5 -16t-21 -35t-26.5 -35t-47 -16zM233 518q-36 0 -50.5 -11t-14.5 -36
q0 -22 6.5 -52t6.5 -66q0 -35 -6 -65.5t-6 -54.5q0 -13 3 -24t10.5 -19.5t21 -13.5t33.5 -5q28 0 48 14.5t33 39t18.5 56t5.5 64.5q0 88 -25.5 130.5t-83.5 42.5zM298 706q-11 0 -36.5 13.5t-52 34t-47 44.5t-20.5 46q0 16 13 28t30 12t34.5 -13.5t32.5 -29.5t28 -29.5
t21 -13.5q7 0 17.5 13.5t24.5 30t32 30t40 13.5q14 0 26.5 -10t12.5 -31t-19.5 -45.5t-45.5 -45t-52 -34t-39 -13.5z" />
    <glyph glyph-name="Dcroat" unicode="&#x110;" horiz-adv-x="618" 
d="M78 -18q-14 0 -23 4.5t-14.5 11.5t-8 14.5t-2.5 12.5q0 11 4 22t16 25q9 10 16 25t12 38t7.5 56t2.5 80q0 16 -12 20t-26 7t-26 11.5t-12 33.5q0 19 16.5 32.5t41.5 13.5q8 0 12.5 7.5t4.5 15.5q-4 66 -14.5 105t-24.5 59q-16 22 -16 43q0 17 10.5 29t33.5 12
q24 0 43 -17q16 -15 26.5 -26t19.5 -18.5t18.5 -11t23.5 -3.5q24 0 49.5 12t52.5 26.5t56.5 26.5t61.5 12q55 0 89.5 -18.5t53.5 -58t25.5 -101t6.5 -146.5q0 -184 -44 -270.5t-131 -86.5q-26 0 -49.5 7.5t-43 17t-33.5 20t-20 16.5q-4 4 -11.5 11t-18 14t-22.5 12.5
t-24 5.5q-22 0 -32.5 -16t-21 -35t-26.5 -35t-47 -16zM249 389q25 0 39 -16t14 -33q0 -20 -14.5 -31.5t-37.5 -11.5q-15 0 -30 3q-12 0 -19 -7.5t-10.5 -18t-4 -22t-0.5 -19.5q0 -13 3 -24t10.5 -19.5t21 -13.5t33.5 -5q28 0 48 14.5t33 39t18.5 56t5.5 64.5
q0 88 -25.5 130.5t-83.5 42.5q-36 0 -50.5 -11t-14.5 -36q0 -9 1 -23.5t4.5 -28t10.5 -23.5t19 -10q7 0 14 1.5t15 1.5z" />
    <glyph glyph-name="dcroat" unicode="&#x111;" horiz-adv-x="618" 
d="M78 -18q-14 0 -23 4.5t-14.5 11.5t-8 14.5t-2.5 12.5q0 11 4 22t16 25q9 10 16 25t12 38t7.5 56t2.5 80q0 16 -12 20t-26 7t-26 11.5t-12 33.5q0 19 16.5 32.5t41.5 13.5q8 0 12.5 7.5t4.5 15.5q-4 66 -14.5 105t-24.5 59q-16 22 -16 43q0 17 10.5 29t33.5 12
q24 0 43 -17q16 -15 26.5 -26t19.5 -18.5t18.5 -11t23.5 -3.5q24 0 49.5 12t52.5 26.5t56.5 26.5t61.5 12q55 0 89.5 -18.5t53.5 -58t25.5 -101t6.5 -146.5q0 -184 -44 -270.5t-131 -86.5q-26 0 -49.5 7.5t-43 17t-33.5 20t-20 16.5q-4 4 -11.5 11t-18 14t-22.5 12.5
t-24 5.5q-22 0 -32.5 -16t-21 -35t-26.5 -35t-47 -16zM249 389q25 0 39 -16t14 -33q0 -20 -14.5 -31.5t-37.5 -11.5q-15 0 -30 3q-12 0 -19 -7.5t-10.5 -18t-4 -22t-0.5 -19.5q0 -13 3 -24t10.5 -19.5t21 -13.5t33.5 -5q28 0 48 14.5t33 39t18.5 56t5.5 64.5
q0 88 -25.5 130.5t-83.5 42.5q-36 0 -50.5 -11t-14.5 -36q0 -9 1 -23.5t4.5 -28t10.5 -23.5t19 -10q7 0 14 1.5t15 1.5z" />
    <glyph glyph-name="Emacron" unicode="&#x112;" horiz-adv-x="493" 
d="M264 264q19 0 38 2t34.5 7.5t25 15t9.5 23.5q0 22 -18 31.5t-37 9.5q-43 0 -65.5 -18.5t-22.5 -41.5q0 -11 9.5 -20t26.5 -9zM278 642q100 0 150.5 -56.5t50.5 -164.5q0 -66 -18 -104.5t-44.5 -60t-57.5 -30t-57.5 -14t-44.5 -13t-18 -26.5q0 -11 5.5 -18.5t13.5 -12
t18 -7t18 -2.5q18 0 36.5 6t34.5 14t27.5 16t16.5 13q17 17 28.5 31t26.5 14q18 0 18 -20q0 -49 -19.5 -84.5t-50 -58.5t-68 -34t-74.5 -11q-64 0 -112.5 24t-81.5 67.5t-49.5 104.5t-16.5 136q0 67 14.5 121t46.5 91.5t83 58t124 20.5zM357 848q30 0 46 -24.5t16 -51.5
q0 -31 -17.5 -48.5t-43.5 -17.5t-56 10t-59 10q-12 0 -25 -3.5t-26.5 -7.5t-27.5 -7.5t-27 -3.5q-10 0 -21 3.5t-20.5 12t-15.5 22.5t-6 35q0 29 20 50t50 21q23 0 47 -8t44 -8q22 0 37.5 2.5t28.5 5.5t26 5.5t30 2.5z" />
    <glyph glyph-name="emacron" unicode="&#x113;" horiz-adv-x="493" 
d="M264 264q19 0 38 2t34.5 7.5t25 15t9.5 23.5q0 22 -18 31.5t-37 9.5q-43 0 -65.5 -18.5t-22.5 -41.5q0 -11 9.5 -20t26.5 -9zM278 642q100 0 150.5 -56.5t50.5 -164.5q0 -66 -18 -104.5t-44.5 -60t-57.5 -30t-57.5 -14t-44.5 -13t-18 -26.5q0 -11 5.5 -18.5t13.5 -12
t18 -7t18 -2.5q18 0 36.5 6t34.5 14t27.5 16t16.5 13q17 17 28.5 31t26.5 14q18 0 18 -20q0 -49 -19.5 -84.5t-50 -58.5t-68 -34t-74.5 -11q-64 0 -112.5 24t-81.5 67.5t-49.5 104.5t-16.5 136q0 67 14.5 121t46.5 91.5t83 58t124 20.5zM357 848q30 0 46 -24.5t16 -51.5
q0 -31 -17.5 -48.5t-43.5 -17.5t-56 10t-59 10q-12 0 -25 -3.5t-26.5 -7.5t-27.5 -7.5t-27 -3.5q-10 0 -21 3.5t-20.5 12t-15.5 22.5t-6 35q0 29 20 50t50 21q23 0 47 -8t44 -8q22 0 37.5 2.5t28.5 5.5t26 5.5t30 2.5z" />
    <glyph glyph-name="Ebreve" unicode="&#x114;" horiz-adv-x="493" 
d="M264 264q19 0 38 2t34.5 7.5t25 15t9.5 23.5q0 22 -18 31.5t-37 9.5q-43 0 -65.5 -18.5t-22.5 -41.5q0 -11 9.5 -20t26.5 -9zM278 642q100 0 150.5 -56.5t50.5 -164.5q0 -66 -18 -104.5t-44.5 -60t-57.5 -30t-57.5 -14t-44.5 -13t-18 -26.5q0 -11 5.5 -18.5t13.5 -12
t18 -7t18 -2.5q18 0 36.5 6t34.5 14t27.5 16t16.5 13q17 17 28.5 31t26.5 14q18 0 18 -20q0 -49 -19.5 -84.5t-50 -58.5t-68 -34t-74.5 -11q-64 0 -112.5 24t-81.5 67.5t-49.5 104.5t-16.5 136q0 67 14.5 121t46.5 91.5t83 58t124 20.5zM250 716q-30 0 -62 12t-58.5 30.5
t-43 41t-16.5 44.5q0 16 13 28t30 12t28.5 -13.5t25 -29.5t32 -29.5t50.5 -13.5q31 0 48 13.5t28.5 30t23.5 30t34 13.5q14 0 26.5 -10t12.5 -31t-15.5 -44t-40 -41.5t-55.5 -30.5t-61 -12z" />
    <glyph glyph-name="ebreve" unicode="&#x115;" horiz-adv-x="493" 
d="M264 264q19 0 38 2t34.5 7.5t25 15t9.5 23.5q0 22 -18 31.5t-37 9.5q-43 0 -65.5 -18.5t-22.5 -41.5q0 -11 9.5 -20t26.5 -9zM278 642q100 0 150.5 -56.5t50.5 -164.5q0 -66 -18 -104.5t-44.5 -60t-57.5 -30t-57.5 -14t-44.5 -13t-18 -26.5q0 -11 5.5 -18.5t13.5 -12
t18 -7t18 -2.5q18 0 36.5 6t34.5 14t27.5 16t16.5 13q17 17 28.5 31t26.5 14q18 0 18 -20q0 -49 -19.5 -84.5t-50 -58.5t-68 -34t-74.5 -11q-64 0 -112.5 24t-81.5 67.5t-49.5 104.5t-16.5 136q0 67 14.5 121t46.5 91.5t83 58t124 20.5zM250 716q-30 0 -62 12t-58.5 30.5
t-43 41t-16.5 44.5q0 16 13 28t30 12t28.5 -13.5t25 -29.5t32 -29.5t50.5 -13.5q31 0 48 13.5t28.5 30t23.5 30t34 13.5q14 0 26.5 -10t12.5 -31t-15.5 -44t-40 -41.5t-55.5 -30.5t-61 -12z" />
    <glyph glyph-name="Edotaccent" unicode="&#x116;" horiz-adv-x="493" 
d="M264 264q19 0 38 2t34.5 7.5t25 15t9.5 23.5q0 22 -18 31.5t-37 9.5q-43 0 -65.5 -18.5t-22.5 -41.5q0 -11 9.5 -20t26.5 -9zM278 642q100 0 150.5 -56.5t50.5 -164.5q0 -66 -18 -104.5t-44.5 -60t-57.5 -30t-57.5 -14t-44.5 -13t-18 -26.5q0 -11 5.5 -18.5t13.5 -12
t18 -7t18 -2.5q18 0 36.5 6t34.5 14t27.5 16t16.5 13q17 17 28.5 31t26.5 14q18 0 18 -20q0 -49 -19.5 -84.5t-50 -58.5t-68 -34t-74.5 -11q-64 0 -112.5 24t-81.5 67.5t-49.5 104.5t-16.5 136q0 67 14.5 121t46.5 91.5t83 58t124 20.5zM250 850q36 0 53.5 -24t17.5 -54
q0 -29 -19.5 -47t-55.5 -18q-34 0 -54 18.5t-20 46.5q0 30 21 54t57 24z" />
    <glyph glyph-name="edotaccent" unicode="&#x117;" horiz-adv-x="493" 
d="M264 264q19 0 38 2t34.5 7.5t25 15t9.5 23.5q0 22 -18 31.5t-37 9.5q-43 0 -65.5 -18.5t-22.5 -41.5q0 -11 9.5 -20t26.5 -9zM278 642q100 0 150.5 -56.5t50.5 -164.5q0 -66 -18 -104.5t-44.5 -60t-57.5 -30t-57.5 -14t-44.5 -13t-18 -26.5q0 -11 5.5 -18.5t13.5 -12
t18 -7t18 -2.5q18 0 36.5 6t34.5 14t27.5 16t16.5 13q17 17 28.5 31t26.5 14q18 0 18 -20q0 -49 -19.5 -84.5t-50 -58.5t-68 -34t-74.5 -11q-64 0 -112.5 24t-81.5 67.5t-49.5 104.5t-16.5 136q0 67 14.5 121t46.5 91.5t83 58t124 20.5zM250 850q36 0 53.5 -24t17.5 -54
q0 -29 -19.5 -47t-55.5 -18q-34 0 -54 18.5t-20 46.5q0 30 21 54t57 24z" />
    <glyph glyph-name="Eogonek" unicode="&#x118;" horiz-adv-x="493" 
d="M220 -201q-10 0 -22.5 1t-23 5t-18 12.5t-7.5 22.5q0 15 7 33t19.5 37.5t29 39.5t35.5 38q7 7 7 15q0 7 -4.5 12.5t-12.5 6.5q-54 7 -95.5 33.5t-69 69.5t-41.5 100t-14 126q0 67 14.5 121t46.5 91.5t83 58t124 20.5q100 0 150.5 -56.5t50.5 -164.5q0 -66 -18 -104.5
t-44.5 -60t-57.5 -30t-57.5 -14t-44.5 -13t-18 -26.5q0 -11 5.5 -18.5t13.5 -12t18 -7t18 -2.5q18 0 36.5 6t34.5 14t27.5 16t16.5 13q17 17 28.5 31t26.5 14q18 0 18 -20q0 -29 -7.5 -52.5t-20 -42.5t-29 -34t-33.5 -28q-13 -10 -32.5 -25.5t-37.5 -34t-31 -38t-13 -37.5
q0 -11 8.5 -20t27.5 -9q10 0 22 3.5t23 7t20 7t14 3.5q6 0 9 -4.5t3 -8.5q0 -9 -5.5 -18t-13.5 -17q-18 -18 -40 -29.5t-44 -18.5t-43 -9.5t-39 -2.5zM264 264q19 0 38 2t34.5 7.5t25 15t9.5 23.5q0 22 -18 31.5t-37 9.5q-43 0 -65.5 -18.5t-22.5 -41.5q0 -11 9.5 -20
t26.5 -9z" />
    <glyph glyph-name="eogonek" unicode="&#x119;" horiz-adv-x="493" 
d="M220 -201q-10 0 -22.5 1t-23 5t-18 12.5t-7.5 22.5q0 15 7 33t19.5 37.5t29 39.5t35.5 38q7 7 7 15q0 7 -4.5 12.5t-12.5 6.5q-54 7 -95.5 33.5t-69 69.5t-41.5 100t-14 126q0 67 14.5 121t46.5 91.5t83 58t124 20.5q100 0 150.5 -56.5t50.5 -164.5q0 -66 -18 -104.5
t-44.5 -60t-57.5 -30t-57.5 -14t-44.5 -13t-18 -26.5q0 -11 5.5 -18.5t13.5 -12t18 -7t18 -2.5q18 0 36.5 6t34.5 14t27.5 16t16.5 13q17 17 28.5 31t26.5 14q18 0 18 -20q0 -29 -7.5 -52.5t-20 -42.5t-29 -34t-33.5 -28q-13 -10 -32.5 -25.5t-37.5 -34t-31 -38t-13 -37.5
q0 -11 8.5 -20t27.5 -9q10 0 22 3.5t23 7t20 7t14 3.5q6 0 9 -4.5t3 -8.5q0 -9 -5.5 -18t-13.5 -17q-18 -18 -40 -29.5t-44 -18.5t-43 -9.5t-39 -2.5zM264 264q19 0 38 2t34.5 7.5t25 15t9.5 23.5q0 22 -18 31.5t-37 9.5q-43 0 -65.5 -18.5t-22.5 -41.5q0 -11 9.5 -20
t26.5 -9z" />
    <glyph glyph-name="Ecaron" unicode="&#x11a;" horiz-adv-x="493" 
d="M264 264q19 0 38 2t34.5 7.5t25 15t9.5 23.5q0 22 -18 31.5t-37 9.5q-43 0 -65.5 -18.5t-22.5 -41.5q0 -11 9.5 -20t26.5 -9zM278 642q100 0 150.5 -56.5t50.5 -164.5q0 -66 -18 -104.5t-44.5 -60t-57.5 -30t-57.5 -14t-44.5 -13t-18 -26.5q0 -11 5.5 -18.5t13.5 -12
t18 -7t18 -2.5q18 0 36.5 6t34.5 14t27.5 16t16.5 13q17 17 28.5 31t26.5 14q18 0 18 -20q0 -49 -19.5 -84.5t-50 -58.5t-68 -34t-74.5 -11q-64 0 -112.5 24t-81.5 67.5t-49.5 104.5t-16.5 136q0 67 14.5 121t46.5 91.5t83 58t124 20.5zM246 706q-11 0 -36.5 13.5t-52 34
t-47 44.5t-20.5 46q0 16 13 28t30 12t34.5 -13.5t32.5 -29.5t28 -29.5t21 -13.5q7 0 17.5 13.5t24.5 30t32 30t40 13.5q14 0 26.5 -10t12.5 -31t-19.5 -45.5t-45.5 -45t-52 -34t-39 -13.5z" />
    <glyph glyph-name="ecaron" unicode="&#x11b;" horiz-adv-x="493" 
d="M264 264q19 0 38 2t34.5 7.5t25 15t9.5 23.5q0 22 -18 31.5t-37 9.5q-43 0 -65.5 -18.5t-22.5 -41.5q0 -11 9.5 -20t26.5 -9zM278 642q100 0 150.5 -56.5t50.5 -164.5q0 -66 -18 -104.5t-44.5 -60t-57.5 -30t-57.5 -14t-44.5 -13t-18 -26.5q0 -11 5.5 -18.5t13.5 -12
t18 -7t18 -2.5q18 0 36.5 6t34.5 14t27.5 16t16.5 13q17 17 28.5 31t26.5 14q18 0 18 -20q0 -49 -19.5 -84.5t-50 -58.5t-68 -34t-74.5 -11q-64 0 -112.5 24t-81.5 67.5t-49.5 104.5t-16.5 136q0 67 14.5 121t46.5 91.5t83 58t124 20.5zM246 706q-11 0 -36.5 13.5t-52 34
t-47 44.5t-20.5 46q0 16 13 28t30 12t34.5 -13.5t32.5 -29.5t28 -29.5t21 -13.5q7 0 17.5 13.5t24.5 30t32 30t40 13.5q14 0 26.5 -10t12.5 -31t-19.5 -45.5t-45.5 -45t-52 -34t-39 -13.5z" />
    <glyph glyph-name="Gcircumflex" unicode="&#x11c;" horiz-adv-x="611" 
d="M9 332q0 69 26.5 132.5t73.5 111.5t110 76.5t137 28.5q27 0 58.5 -7t58.5 -20.5t45.5 -34.5t18.5 -48q0 -17 -10 -25.5t-22 -8.5q-13 0 -23 5t-21 13q-35 23 -74 23q-37 0 -66.5 -18t-50.5 -48t-32.5 -69.5t-11.5 -82.5q0 -35 7.5 -69t23.5 -60.5t40 -43t57 -16.5
q11 0 25.5 4.5t27.5 13.5t22 21.5t9 28.5q0 21 -14 40.5t-25 30.5q-30 28 -30 53q0 14 9 25.5t25 19.5t36.5 12.5t44.5 4.5q48 0 82.5 -17.5t34.5 -47.5q0 -12 -6 -23.5t-13.5 -22t-13.5 -20.5t-6 -19q0 -11 5.5 -23t11.5 -24.5t11.5 -25.5t5.5 -28q0 -39 -22 -69t-57.5 -50
t-79.5 -30.5t-87 -10.5q-71 0 -133.5 20t-108.5 59.5t-72.5 99t-26.5 139.5zM304 885q11 -1 37 -14.5t52.5 -34t47 -44.5t20.5 -46q0 -15 -13.5 -27t-30.5 -12t-34 13t-32 29t-27.5 29t-21.5 13t-19.5 -13.5t-24 -29.5t-31.5 -29.5t-41 -13.5q-14 0 -25.5 10t-11.5 30
q0 21 19 45.5t45 45.5t51.5 35t39.5 14z" />
    <glyph glyph-name="gcircumflex" unicode="&#x11d;" horiz-adv-x="611" 
d="M9 332q0 69 26.5 132.5t73.5 111.5t110 76.5t137 28.5q27 0 58.5 -7t58.5 -20.5t45.5 -34.5t18.5 -48q0 -17 -10 -25.5t-22 -8.5q-13 0 -23 5t-21 13q-35 23 -74 23q-37 0 -66.5 -18t-50.5 -48t-32.5 -69.5t-11.5 -82.5q0 -35 7.5 -69t23.5 -60.5t40 -43t57 -16.5
q11 0 25.5 4.5t27.5 13.5t22 21.5t9 28.5q0 21 -14 40.5t-25 30.5q-30 28 -30 53q0 14 9 25.5t25 19.5t36.5 12.5t44.5 4.5q48 0 82.5 -17.5t34.5 -47.5q0 -12 -6 -23.5t-13.5 -22t-13.5 -20.5t-6 -19q0 -11 5.5 -23t11.5 -24.5t11.5 -25.5t5.5 -28q0 -39 -22 -69t-57.5 -50
t-79.5 -30.5t-87 -10.5q-71 0 -133.5 20t-108.5 59.5t-72.5 99t-26.5 139.5zM304 885q11 -1 37 -14.5t52.5 -34t47 -44.5t20.5 -46q0 -15 -13.5 -27t-30.5 -12t-34 13t-32 29t-27.5 29t-21.5 13t-19.5 -13.5t-24 -29.5t-31.5 -29.5t-41 -13.5q-14 0 -25.5 10t-11.5 30
q0 21 19 45.5t45 45.5t51.5 35t39.5 14z" />
    <glyph glyph-name="Gbreve" unicode="&#x11e;" horiz-adv-x="611" 
d="M9 332q0 69 26.5 132.5t73.5 111.5t110 76.5t137 28.5q27 0 58.5 -7t58.5 -20.5t45.5 -34.5t18.5 -48q0 -17 -10 -25.5t-22 -8.5q-13 0 -23 5t-21 13q-35 23 -74 23q-37 0 -66.5 -18t-50.5 -48t-32.5 -69.5t-11.5 -82.5q0 -35 7.5 -69t23.5 -60.5t40 -43t57 -16.5
q11 0 25.5 4.5t27.5 13.5t22 21.5t9 28.5q0 21 -14 40.5t-25 30.5q-30 28 -30 53q0 14 9 25.5t25 19.5t36.5 12.5t44.5 4.5q48 0 82.5 -17.5t34.5 -47.5q0 -12 -6 -23.5t-13.5 -22t-13.5 -20.5t-6 -19q0 -11 5.5 -23t11.5 -24.5t11.5 -25.5t5.5 -28q0 -39 -22 -69t-57.5 -50
t-79.5 -30.5t-87 -10.5q-71 0 -133.5 20t-108.5 59.5t-72.5 99t-26.5 139.5zM309 716q-30 0 -62 12t-58.5 30.5t-43 41t-16.5 44.5q0 16 13 28t30 12t28.5 -13.5t25 -29.5t32 -29.5t50.5 -13.5q31 0 48 13.5t28.5 30t23.5 30t34 13.5q14 0 26.5 -10t12.5 -31t-15.5 -44
t-40 -41.5t-55.5 -30.5t-61 -12z" />
    <glyph glyph-name="gbreve" unicode="&#x11f;" horiz-adv-x="611" 
d="M9 332q0 69 26.5 132.5t73.5 111.5t110 76.5t137 28.5q27 0 58.5 -7t58.5 -20.5t45.5 -34.5t18.5 -48q0 -17 -10 -25.5t-22 -8.5q-13 0 -23 5t-21 13q-35 23 -74 23q-37 0 -66.5 -18t-50.5 -48t-32.5 -69.5t-11.5 -82.5q0 -35 7.5 -69t23.5 -60.5t40 -43t57 -16.5
q11 0 25.5 4.5t27.5 13.5t22 21.5t9 28.5q0 21 -14 40.5t-25 30.5q-30 28 -30 53q0 14 9 25.5t25 19.5t36.5 12.5t44.5 4.5q48 0 82.5 -17.5t34.5 -47.5q0 -12 -6 -23.5t-13.5 -22t-13.5 -20.5t-6 -19q0 -11 5.5 -23t11.5 -24.5t11.5 -25.5t5.5 -28q0 -39 -22 -69t-57.5 -50
t-79.5 -30.5t-87 -10.5q-71 0 -133.5 20t-108.5 59.5t-72.5 99t-26.5 139.5zM309 716q-30 0 -62 12t-58.5 30.5t-43 41t-16.5 44.5q0 16 13 28t30 12t28.5 -13.5t25 -29.5t32 -29.5t50.5 -13.5q31 0 48 13.5t28.5 30t23.5 30t34 13.5q14 0 26.5 -10t12.5 -31t-15.5 -44
t-40 -41.5t-55.5 -30.5t-61 -12z" />
    <glyph glyph-name="Gdotaccent" unicode="&#x120;" horiz-adv-x="611" 
d="M9 332q0 69 26.5 132.5t73.5 111.5t110 76.5t137 28.5q27 0 58.5 -7t58.5 -20.5t45.5 -34.5t18.5 -48q0 -17 -10 -25.5t-22 -8.5q-13 0 -23 5t-21 13q-35 23 -74 23q-37 0 -66.5 -18t-50.5 -48t-32.5 -69.5t-11.5 -82.5q0 -35 7.5 -69t23.5 -60.5t40 -43t57 -16.5
q11 0 25.5 4.5t27.5 13.5t22 21.5t9 28.5q0 21 -14 40.5t-25 30.5q-30 28 -30 53q0 14 9 25.5t25 19.5t36.5 12.5t44.5 4.5q48 0 82.5 -17.5t34.5 -47.5q0 -12 -6 -23.5t-13.5 -22t-13.5 -20.5t-6 -19q0 -11 5.5 -23t11.5 -24.5t11.5 -25.5t5.5 -28q0 -39 -22 -69t-57.5 -50
t-79.5 -30.5t-87 -10.5q-71 0 -133.5 20t-108.5 59.5t-72.5 99t-26.5 139.5zM309 850q36 0 53.5 -24t17.5 -54q0 -29 -19.5 -47t-55.5 -18q-34 0 -54 18.5t-20 46.5q0 30 21 54t57 24z" />
    <glyph glyph-name="gdotaccent" unicode="&#x121;" horiz-adv-x="611" 
d="M9 332q0 69 26.5 132.5t73.5 111.5t110 76.5t137 28.5q27 0 58.5 -7t58.5 -20.5t45.5 -34.5t18.5 -48q0 -17 -10 -25.5t-22 -8.5q-13 0 -23 5t-21 13q-35 23 -74 23q-37 0 -66.5 -18t-50.5 -48t-32.5 -69.5t-11.5 -82.5q0 -35 7.5 -69t23.5 -60.5t40 -43t57 -16.5
q11 0 25.5 4.5t27.5 13.5t22 21.5t9 28.5q0 21 -14 40.5t-25 30.5q-30 28 -30 53q0 14 9 25.5t25 19.5t36.5 12.5t44.5 4.5q48 0 82.5 -17.5t34.5 -47.5q0 -12 -6 -23.5t-13.5 -22t-13.5 -20.5t-6 -19q0 -11 5.5 -23t11.5 -24.5t11.5 -25.5t5.5 -28q0 -39 -22 -69t-57.5 -50
t-79.5 -30.5t-87 -10.5q-71 0 -133.5 20t-108.5 59.5t-72.5 99t-26.5 139.5zM309 850q36 0 53.5 -24t17.5 -54q0 -29 -19.5 -47t-55.5 -18q-34 0 -54 18.5t-20 46.5q0 30 21 54t57 24z" />
    <glyph glyph-name="uni0122" unicode="&#x122;" horiz-adv-x="611" 
d="M9 332q0 69 26.5 132.5t73.5 111.5t110 76.5t137 28.5q27 0 58.5 -7t58.5 -20.5t45.5 -34.5t18.5 -48q0 -17 -10 -25.5t-22 -8.5q-13 0 -23 5t-21 13q-35 23 -74 23q-37 0 -66.5 -18t-50.5 -48t-32.5 -69.5t-11.5 -82.5q0 -35 7.5 -69t23.5 -60.5t40 -43t57 -16.5
q11 0 25.5 4.5t27.5 13.5t22 21.5t9 28.5q0 21 -14 40.5t-25 30.5q-30 28 -30 53q0 14 9 25.5t25 19.5t36.5 12.5t44.5 4.5q48 0 82.5 -17.5t34.5 -47.5q0 -12 -6 -23.5t-13.5 -22t-13.5 -20.5t-6 -19q0 -11 5.5 -23t11.5 -24.5t11.5 -25.5t5.5 -28q0 -39 -22 -69t-57.5 -50
t-79.5 -30.5t-87 -10.5q-71 0 -133.5 20t-108.5 59.5t-72.5 99t-26.5 139.5zM327 -174q0 11 -5.5 19.5t-11.5 17.5t-11.5 20.5t-5.5 28.5q0 13 16 27.5t48 14.5q18 0 31.5 -6.5t23 -16.5t14.5 -23t5 -26q0 -17 -7 -34.5t-18.5 -32t-26.5 -23.5t-31 -9q-14 0 -19.5 6t-5.5 14
q0 5 2 11.5t2 11.5z" />
    <glyph glyph-name="uni0123" unicode="&#x123;" horiz-adv-x="611" 
d="M9 332q0 69 26.5 132.5t73.5 111.5t110 76.5t137 28.5q27 0 58.5 -7t58.5 -20.5t45.5 -34.5t18.5 -48q0 -17 -10 -25.5t-22 -8.5q-13 0 -23 5t-21 13q-35 23 -74 23q-37 0 -66.5 -18t-50.5 -48t-32.5 -69.5t-11.5 -82.5q0 -35 7.5 -69t23.5 -60.5t40 -43t57 -16.5
q11 0 25.5 4.5t27.5 13.5t22 21.5t9 28.5q0 21 -14 40.5t-25 30.5q-30 28 -30 53q0 14 9 25.5t25 19.5t36.5 12.5t44.5 4.5q48 0 82.5 -17.5t34.5 -47.5q0 -12 -6 -23.5t-13.5 -22t-13.5 -20.5t-6 -19q0 -11 5.5 -23t11.5 -24.5t11.5 -25.5t5.5 -28q0 -39 -22 -69t-57.5 -50
t-79.5 -30.5t-87 -10.5q-71 0 -133.5 20t-108.5 59.5t-72.5 99t-26.5 139.5zM327 -174q0 11 -5.5 19.5t-11.5 17.5t-11.5 20.5t-5.5 28.5q0 13 16 27.5t48 14.5q18 0 31.5 -6.5t23 -16.5t14.5 -23t5 -26q0 -17 -7 -34.5t-18.5 -32t-26.5 -23.5t-31 -9q-14 0 -19.5 6t-5.5 14
q0 5 2 11.5t2 11.5z" />
    <glyph glyph-name="Hcircumflex" unicode="&#x124;" horiz-adv-x="568" 
d="M310 599q0 21 12.5 34.5t31 21t39.5 10t38 2.5q57 0 91 -18.5t34 -63.5q0 -42 -13 -72.5t-28.5 -56t-28.5 -51t-13 -58.5q0 -40 12 -67t26.5 -53.5t26.5 -58.5t12 -82q0 -26 -10 -45t-27 -31t-39 -18t-46 -6q-49 0 -77 22.5t-28 57.5q0 20 7.5 41.5t16.5 43t16.5 43.5
t7.5 43q0 13 -5 27t-15 25t-26 18.5t-37 7.5q-37 0 -61 -21t-24 -66q0 -11 6 -28t13 -37t13 -42t6 -43q0 -42 -29 -64.5t-78 -22.5q-50 0 -85 20.5t-35 61.5q0 34 5 58t12.5 43.5t16.5 36t16.5 36t12.5 43.5t5 59q0 54 -11 84.5t-23.5 51.5t-23.5 40.5t-11 52.5
q0 51 36 72.5t93 21.5q24 0 45 -4t37 -12t25.5 -19.5t9.5 -27.5q0 -32 -10 -50.5t-22 -32.5t-22 -29t-10 -41q0 -38 20.5 -49.5t55.5 -11.5q58 0 81 18.5t23 41.5q0 18 -10 36t-22.5 36t-22.5 36t-10 36zM283 885q11 -1 37 -14.5t52.5 -34t47 -44.5t20.5 -46
q0 -15 -13.5 -27t-30.5 -12t-34 13t-32 29t-27.5 29t-21.5 13t-19.5 -13.5t-24 -29.5t-31.5 -29.5t-41 -13.5q-14 0 -25.5 10t-11.5 30q0 21 19 45.5t45 45.5t51.5 35t39.5 14z" />
    <glyph glyph-name="hcircumflex" unicode="&#x125;" horiz-adv-x="568" 
d="M310 599q0 21 12.5 34.5t31 21t39.5 10t38 2.5q57 0 91 -18.5t34 -63.5q0 -42 -13 -72.5t-28.5 -56t-28.5 -51t-13 -58.5q0 -40 12 -67t26.5 -53.5t26.5 -58.5t12 -82q0 -26 -10 -45t-27 -31t-39 -18t-46 -6q-49 0 -77 22.5t-28 57.5q0 20 7.5 41.5t16.5 43t16.5 43.5
t7.5 43q0 13 -5 27t-15 25t-26 18.5t-37 7.5q-37 0 -61 -21t-24 -66q0 -11 6 -28t13 -37t13 -42t6 -43q0 -42 -29 -64.5t-78 -22.5q-50 0 -85 20.5t-35 61.5q0 34 5 58t12.5 43.5t16.5 36t16.5 36t12.5 43.5t5 59q0 54 -11 84.5t-23.5 51.5t-23.5 40.5t-11 52.5
q0 51 36 72.5t93 21.5q24 0 45 -4t37 -12t25.5 -19.5t9.5 -27.5q0 -32 -10 -50.5t-22 -32.5t-22 -29t-10 -41q0 -38 20.5 -49.5t55.5 -11.5q58 0 81 18.5t23 41.5q0 18 -10 36t-22.5 36t-22.5 36t-10 36zM283 885q11 -1 37 -14.5t52.5 -34t47 -44.5t20.5 -46
q0 -15 -13.5 -27t-30.5 -12t-34 13t-32 29t-27.5 29t-21.5 13t-19.5 -13.5t-24 -29.5t-31.5 -29.5t-41 -13.5q-14 0 -25.5 10t-11.5 30q0 21 19 45.5t45 45.5t51.5 35t39.5 14z" />
    <glyph glyph-name="Hbar" unicode="&#x126;" horiz-adv-x="568" 
d="M340 606q0 19 8 30.5t20.5 18.5t29 9.5t33.5 2.5q57 0 91 -18.5t34 -63.5q0 -42 -13 -72.5t-28.5 -56t-28.5 -51t-13 -58.5q0 -40 12 -67t26.5 -53.5t26.5 -58.5t12 -82q0 -26 -10 -45t-27 -31t-39 -18t-46 -6q-49 0 -77 22.5t-28 57.5q0 20 7.5 38t16.5 36t16.5 37
t7.5 40q0 13 -5 27t-15 25t-26 18.5t-37 7.5q-37 0 -61 -21t-24 -66q0 -11 6 -24.5t13 -30t13 -35.5t6 -40q0 -42 -29 -64.5t-78 -22.5q-50 0 -85 20.5t-35 61.5q0 34 5 58t12.5 43.5t16.5 36t16.5 36t12.5 43.5t5 59q0 54 -11 84.5t-23.5 51.5t-23.5 40.5t-11 52.5
q0 51 36 72.5t93 21.5q48 0 67.5 -15.5t19.5 -47.5q0 -18 -7.5 -28.5t-7.5 -24.5q0 -13 15 -22.5t54 -9.5q40 0 56 6.5t16 25.5q0 13 -7.5 22.5t-7.5 27.5zM375 435q0 14 -8 23t-21.5 14.5t-31.5 7.5t-37 2q-12 0 -26.5 -2t-27 -7t-20.5 -14t-8 -23q0 -38 20.5 -49.5
t55.5 -11.5q58 0 81 18.5t23 41.5z" />
    <glyph glyph-name="hbar" unicode="&#x127;" horiz-adv-x="568" 
d="M340 606q0 19 8 30.5t20.5 18.5t29 9.5t33.5 2.5q57 0 91 -18.5t34 -63.5q0 -42 -13 -72.5t-28.5 -56t-28.5 -51t-13 -58.5q0 -40 12 -67t26.5 -53.5t26.5 -58.5t12 -82q0 -26 -10 -45t-27 -31t-39 -18t-46 -6q-49 0 -77 22.5t-28 57.5q0 20 7.5 38t16.5 36t16.5 37
t7.5 40q0 13 -5 27t-15 25t-26 18.5t-37 7.5q-37 0 -61 -21t-24 -66q0 -11 6 -24.5t13 -30t13 -35.5t6 -40q0 -42 -29 -64.5t-78 -22.5q-50 0 -85 20.5t-35 61.5q0 34 5 58t12.5 43.5t16.5 36t16.5 36t12.5 43.5t5 59q0 54 -11 84.5t-23.5 51.5t-23.5 40.5t-11 52.5
q0 51 36 72.5t93 21.5q48 0 67.5 -15.5t19.5 -47.5q0 -18 -7.5 -28.5t-7.5 -24.5q0 -13 15 -22.5t54 -9.5q40 0 56 6.5t16 25.5q0 13 -7.5 22.5t-7.5 27.5zM375 435q0 14 -8 23t-21.5 14.5t-31.5 7.5t-37 2q-12 0 -26.5 -2t-27 -7t-20.5 -14t-8 -23q0 -38 20.5 -49.5
t55.5 -11.5q58 0 81 18.5t23 41.5z" />
    <glyph glyph-name="Itilde" unicode="&#x128;" horiz-adv-x="255" 
d="M128 665q66 0 91 -23t25 -68q0 -21 -8 -44.5t-18 -51t-18 -59t-8 -68.5q0 -54 7 -91t15 -65t15 -51t7 -47q0 -43 -23 -73.5t-82 -30.5q-64 0 -90.5 25t-26.5 67q0 30 8 53t18 45.5t18 48.5t8 64q0 67 -8.5 107.5t-19 67.5t-19 47.5t-8.5 47.5q0 48 25.5 73.5t91.5 25.5z
M51 850q22 0 40 -9.5t33 -21.5t28 -21.5t25 -9.5q13 0 21.5 10.5t16 23t15.5 23t19 10.5q19 0 30 -16.5t11 -33.5q0 -24 -9.5 -40.5t-22 -27t-26.5 -15t-23 -4.5q-20 0 -38 9t-34.5 20.5t-32 20.5t-29.5 9q-15 0 -24 -10t-15.5 -21.5t-12.5 -21.5t-14 -10q-17 0 -29 13
t-12 32q0 20 8.5 37t21 29t27 18.5t26.5 6.5z" />
    <glyph glyph-name="itilde" unicode="&#x129;" horiz-adv-x="255" 
d="M128 665q66 0 91 -23t25 -68q0 -21 -8 -44.5t-18 -51t-18 -59t-8 -68.5q0 -54 7 -91t15 -65t15 -51t7 -47q0 -43 -23 -73.5t-82 -30.5q-64 0 -90.5 25t-26.5 67q0 30 8 53t18 45.5t18 48.5t8 64q0 67 -8.5 107.5t-19 67.5t-19 47.5t-8.5 47.5q0 48 25.5 73.5t91.5 25.5z
M51 850q22 0 40 -9.5t33 -21.5t28 -21.5t25 -9.5q13 0 21.5 10.5t16 23t15.5 23t19 10.5q19 0 30 -16.5t11 -33.5q0 -24 -9.5 -40.5t-22 -27t-26.5 -15t-23 -4.5q-20 0 -38 9t-34.5 20.5t-32 20.5t-29.5 9q-15 0 -24 -10t-15.5 -21.5t-12.5 -21.5t-14 -10q-17 0 -29 13
t-12 32q0 20 8.5 37t21 29t27 18.5t26.5 6.5z" />
    <glyph glyph-name="Imacron" unicode="&#x12a;" horiz-adv-x="255" 
d="M128 665q66 0 91 -23t25 -68q0 -21 -8 -44.5t-18 -51t-18 -59t-8 -68.5q0 -54 7 -91t15 -65t15 -51t7 -47q0 -43 -23 -73.5t-82 -30.5q-64 0 -90.5 25t-26.5 67q0 30 8 53t18 45.5t18 48.5t8 64q0 67 -8.5 107.5t-19 67.5t-19 47.5t-8.5 47.5q0 48 25.5 73.5t91.5 25.5z
M239 848q30 0 46 -24.5t16 -51.5q0 -31 -17.5 -48.5t-43.5 -17.5t-56 10t-59 10q-12 0 -25 -3.5t-26.5 -7.5t-27.5 -7.5t-27 -3.5q-10 0 -21 3.5t-20.5 12t-15.5 22.5t-6 35q0 29 20 50t50 21q23 0 47 -8t44 -8q22 0 37.5 2.5t28.5 5.5t26 5.5t30 2.5z" />
    <glyph glyph-name="imacron" unicode="&#x12b;" horiz-adv-x="255" 
d="M128 665q66 0 91 -23t25 -68q0 -21 -8 -44.5t-18 -51t-18 -59t-8 -68.5q0 -54 7 -91t15 -65t15 -51t7 -47q0 -43 -23 -73.5t-82 -30.5q-64 0 -90.5 25t-26.5 67q0 30 8 53t18 45.5t18 48.5t8 64q0 67 -8.5 107.5t-19 67.5t-19 47.5t-8.5 47.5q0 48 25.5 73.5t91.5 25.5z
M239 848q30 0 46 -24.5t16 -51.5q0 -31 -17.5 -48.5t-43.5 -17.5t-56 10t-59 10q-12 0 -25 -3.5t-26.5 -7.5t-27.5 -7.5t-27 -3.5q-10 0 -21 3.5t-20.5 12t-15.5 22.5t-6 35q0 29 20 50t50 21q23 0 47 -8t44 -8q22 0 37.5 2.5t28.5 5.5t26 5.5t30 2.5z" />
    <glyph glyph-name="Ibreve" unicode="&#x12c;" horiz-adv-x="255" 
d="M128 665q66 0 91 -23t25 -68q0 -21 -8 -44.5t-18 -51t-18 -59t-8 -68.5q0 -54 7 -91t15 -65t15 -51t7 -47q0 -43 -23 -73.5t-82 -30.5q-64 0 -90.5 25t-26.5 67q0 30 8 53t18 45.5t18 48.5t8 64q0 67 -8.5 107.5t-19 67.5t-19 47.5t-8.5 47.5q0 48 25.5 73.5t91.5 25.5z
M133 716q-30 0 -62 12t-58.5 30.5t-43 41t-16.5 44.5q0 16 13 28t30 12t28.5 -13.5t25 -29.5t32 -29.5t50.5 -13.5q31 0 48 13.5t28.5 30t23.5 30t34 13.5q14 0 26.5 -10t12.5 -31t-15.5 -44t-40 -41.5t-55.5 -30.5t-61 -12z" />
    <glyph glyph-name="ibreve" unicode="&#x12d;" horiz-adv-x="255" 
d="M128 665q66 0 91 -23t25 -68q0 -21 -8 -44.5t-18 -51t-18 -59t-8 -68.5q0 -54 7 -91t15 -65t15 -51t7 -47q0 -43 -23 -73.5t-82 -30.5q-64 0 -90.5 25t-26.5 67q0 30 8 53t18 45.5t18 48.5t8 64q0 67 -8.5 107.5t-19 67.5t-19 47.5t-8.5 47.5q0 48 25.5 73.5t91.5 25.5z
M133 716q-30 0 -62 12t-58.5 30.5t-43 41t-16.5 44.5q0 16 13 28t30 12t28.5 -13.5t25 -29.5t32 -29.5t50.5 -13.5q31 0 48 13.5t28.5 30t23.5 30t34 13.5q14 0 26.5 -10t12.5 -31t-15.5 -44t-40 -41.5t-55.5 -30.5t-61 -12z" />
    <glyph glyph-name="Iogonek" unicode="&#x12e;" horiz-adv-x="255" 
d="M43 -201q-10 0 -22.5 1t-23 5t-18 12.5t-7.5 22.5q0 25 19 57.5t48 65.5q17 19 17 30q0 13 -15 25q-27 22 -27 67q0 30 8 53t18 45.5t18 48.5t8 64q0 67 -8.5 107.5t-19 67.5t-19 47.5t-8.5 47.5q0 48 25.5 73.5t91.5 25.5t91 -23t25 -68q0 -21 -8 -44.5t-18 -51t-18 -59
t-8 -68.5q0 -54 7 -91t15 -65t15 -51t7 -47q0 -26 -7.5 -47.5t-25.5 -35.5q-8 -6 -18 -10.5t-19.5 -8.5t-19 -9t-16.5 -13q-13 -15 -21 -29.5t-8 -28.5q0 -11 8.5 -20t27.5 -9q10 0 22 3.5t23 7t20 7t14 3.5q6 0 9 -4.5t3 -8.5q0 -9 -5.5 -18t-13.5 -17q-18 -18 -40 -29.5
t-44 -18.5t-43 -9.5t-39 -2.5z" />
    <glyph glyph-name="iogonek" unicode="&#x12f;" horiz-adv-x="255" 
d="M43 -201q-10 0 -22.5 1t-23 5t-18 12.5t-7.5 22.5q0 25 19 57.5t48 65.5q17 19 17 30q0 13 -15 25q-27 22 -27 67q0 30 8 53t18 45.5t18 48.5t8 64q0 67 -8.5 107.5t-19 67.5t-19 47.5t-8.5 47.5q0 48 25.5 73.5t91.5 25.5t91 -23t25 -68q0 -21 -8 -44.5t-18 -51t-18 -59
t-8 -68.5q0 -54 7 -91t15 -65t15 -51t7 -47q0 -26 -7.5 -47.5t-25.5 -35.5q-8 -6 -18 -10.5t-19.5 -8.5t-19 -9t-16.5 -13q-13 -15 -21 -29.5t-8 -28.5q0 -11 8.5 -20t27.5 -9q10 0 22 3.5t23 7t20 7t14 3.5q6 0 9 -4.5t3 -8.5q0 -9 -5.5 -18t-13.5 -17q-18 -18 -40 -29.5
t-44 -18.5t-43 -9.5t-39 -2.5z" />
    <glyph glyph-name="Idotaccent" unicode="&#x130;" horiz-adv-x="255" 
d="M128 665q66 0 91 -23t25 -68q0 -21 -8 -44.5t-18 -51t-18 -59t-8 -68.5q0 -54 7 -91t15 -65t15 -51t7 -47q0 -43 -23 -73.5t-82 -30.5q-64 0 -90.5 25t-26.5 67q0 30 8 53t18 45.5t18 48.5t8 64q0 67 -8.5 107.5t-19 67.5t-19 47.5t-8.5 47.5q0 48 25.5 73.5t91.5 25.5z
M131 850q36 0 53.5 -24t17.5 -54q0 -29 -19.5 -47t-55.5 -18q-34 0 -54 18.5t-20 46.5q0 30 21 54t57 24z" />
    <glyph glyph-name="dotlessi" unicode="&#x131;" horiz-adv-x="255" 
d="M128 665q66 0 91 -23t25 -68q0 -21 -8 -44.5t-18 -51t-18 -59t-8 -68.5q0 -54 7 -91t15 -65t15 -51t7 -47q0 -43 -23 -73.5t-82 -30.5q-64 0 -90.5 25t-26.5 67q0 30 8 53t18 45.5t18 48.5t8 64q0 67 -8.5 107.5t-19 67.5t-19 47.5t-8.5 47.5q0 48 25.5 73.5t91.5 25.5z
" />
    <glyph glyph-name="IJ" unicode="&#x132;" horiz-adv-x="642" 
d="M128 665q66 0 91 -23t25 -68q0 -21 -8 -44.5t-18 -51t-18 -59t-8 -68.5q0 -54 7 -91t15 -65t15 -51t7 -47q0 -43 -23 -73.5t-82 -30.5q-64 0 -90.5 25t-26.5 67q0 30 8 53t18 45.5t18 48.5t8 64q0 67 -8.5 107.5t-19 67.5t-19 47.5t-8.5 47.5q0 48 25.5 73.5t91.5 25.5z
M462 219q0 54 -10.5 112t-40.5 109q-13 22 -26.5 38.5t-24.5 32t-18 34t-7 44.5q0 21 10.5 36t27 24.5t37.5 14t42 4.5q28 0 53 -6t45 -23t34 -47t21 -78q10 -69 18 -137.5t8 -131.5q0 -54 -8 -100.5t-28 -80.5t-53 -53.5t-84 -19.5q-27 0 -62 12t-66.5 32t-53 46.5
t-21.5 55.5q0 13 6.5 23.5t19.5 10.5q15 0 25 -7t22.5 -15.5t31.5 -15.5t52 -7q15 0 24.5 7.5t15.5 20.5t8 30t2 35z" />
    <glyph glyph-name="ij" unicode="&#x133;" horiz-adv-x="642" 
d="M128 665q66 0 91 -23t25 -68q0 -21 -8 -44.5t-18 -51t-18 -59t-8 -68.5q0 -54 7 -91t15 -65t15 -51t7 -47q0 -43 -23 -73.5t-82 -30.5q-64 0 -90.5 25t-26.5 67q0 30 8 53t18 45.5t18 48.5t8 64q0 67 -8.5 107.5t-19 67.5t-19 47.5t-8.5 47.5q0 48 25.5 73.5t91.5 25.5z
M462 219q0 54 -10.5 112t-40.5 109q-13 22 -26.5 38.5t-24.5 32t-18 34t-7 44.5q0 21 10.5 36t27 24.5t37.5 14t42 4.5q28 0 53 -6t45 -23t34 -47t21 -78q10 -69 18 -137.5t8 -131.5q0 -54 -8 -100.5t-28 -80.5t-53 -53.5t-84 -19.5q-27 0 -62 12t-66.5 32t-53 46.5
t-21.5 55.5q0 13 6.5 23.5t19.5 10.5q15 0 25 -7t22.5 -15.5t31.5 -15.5t52 -7q15 0 24.5 7.5t15.5 20.5t8 30t2 35z" />
    <glyph glyph-name="Jcircumflex" unicode="&#x134;" horiz-adv-x="387" 
d="M207 219q0 54 -10.5 112t-40.5 109q-13 22 -26.5 38.5t-24.5 32t-18 34t-7 44.5q0 21 10.5 36t27 24.5t37.5 14t42 4.5q28 0 53 -6t45 -23t34 -47t21 -78q10 -69 18 -137.5t8 -131.5q0 -54 -8 -100.5t-28 -80.5t-53 -53.5t-84 -19.5q-27 0 -62 12t-66.5 32t-53 46.5
t-21.5 55.5q0 13 6.5 23.5t19.5 10.5q15 0 25 -7t22.5 -15.5t31.5 -15.5t52 -7q15 0 24.5 7.5t15.5 20.5t8 30t2 35zM192 885q11 -1 37 -14.5t52.5 -34t47 -44.5t20.5 -46q0 -15 -13.5 -27t-30.5 -12t-34 13t-32 29t-27.5 29t-21.5 13t-19.5 -13.5t-24 -29.5t-31.5 -29.5
t-41 -13.5q-14 0 -25.5 10t-11.5 30q0 21 19 45.5t45 45.5t51.5 35t39.5 14z" />
    <glyph glyph-name="jcircumflex" unicode="&#x135;" horiz-adv-x="387" 
d="M207 219q0 54 -10.5 112t-40.5 109q-13 22 -26.5 38.5t-24.5 32t-18 34t-7 44.5q0 21 10.5 36t27 24.5t37.5 14t42 4.5q28 0 53 -6t45 -23t34 -47t21 -78q10 -69 18 -137.5t8 -131.5q0 -54 -8 -100.5t-28 -80.5t-53 -53.5t-84 -19.5q-27 0 -62 12t-66.5 32t-53 46.5
t-21.5 55.5q0 13 6.5 23.5t19.5 10.5q15 0 25 -7t22.5 -15.5t31.5 -15.5t52 -7q15 0 24.5 7.5t15.5 20.5t8 30t2 35zM192 885q11 -1 37 -14.5t52.5 -34t47 -44.5t20.5 -46q0 -15 -13.5 -27t-30.5 -12t-34 13t-32 29t-27.5 29t-21.5 13t-19.5 -13.5t-24 -29.5t-31.5 -29.5
t-41 -13.5q-14 0 -25.5 10t-11.5 30q0 21 19 45.5t45 45.5t51.5 35t39.5 14z" />
    <glyph glyph-name="uni0136" unicode="&#x136;" horiz-adv-x="613" 
d="M134 444q0 28 -4.5 56t-4.5 54q0 21 8 44t24 42t41 31.5t60 12.5q17 0 33.5 -5t29.5 -14t21 -21.5t8 -27.5q0 -23 -16.5 -47t-36.5 -47.5t-36.5 -46.5t-16.5 -44q0 -10 7 -23.5t24 -13.5q12 0 25.5 5.5t24.5 16.5q26 25 38.5 54.5t19 60t11 59t15 50.5t30.5 35.5t58 13.5
q30 0 50 -12t32 -31.5t17.5 -45t5.5 -52.5q0 -40 -8 -75.5t-23 -62t-36 -42t-46 -15.5q-42 0 -71.5 8t-49.5 8q-16 0 -29 -10t-13 -33q0 -25 30 -25q15 0 34.5 3.5t41.5 7.5t44.5 7.5t42.5 3.5q35 0 52.5 -15t17.5 -49q0 -33 -16 -77t-42 -84t-60.5 -67.5t-70.5 -27.5
q-19 0 -37 7t-32.5 19.5t-23 30.5t-8.5 39q0 16 3.5 33t7.5 33t7.5 31t3.5 27q0 17 -8 27.5t-25 10.5q-26 0 -38 -17t-12 -37q0 -27 9.5 -58.5t9.5 -62.5q0 -17 -7 -35t-23 -32.5t-43 -24t-66 -9.5q-21 0 -41 6t-35 17.5t-24.5 29t-9.5 40.5q0 34 19.5 71.5t41.5 69.5
q65 95 65 225zM271 -174q0 11 -5.5 19.5t-11.5 17.5t-11.5 20.5t-5.5 28.5q0 13 16 27.5t48 14.5q18 0 31.5 -6.5t23 -16.5t14.5 -23t5 -26q0 -17 -7 -34.5t-18.5 -32t-26.5 -23.5t-31 -9q-14 0 -19.5 6t-5.5 14q0 5 2 11.5t2 11.5z" />
    <glyph glyph-name="uni0137" unicode="&#x137;" horiz-adv-x="613" 
d="M134 444q0 28 -4.5 56t-4.5 54q0 21 8 44t24 42t41 31.5t60 12.5q17 0 33.5 -5t29.5 -14t21 -21.5t8 -27.5q0 -23 -16.5 -47t-36.5 -47.5t-36.5 -46.5t-16.5 -44q0 -10 7 -23.5t24 -13.5q12 0 25.5 5.5t24.5 16.5q26 25 38.5 54.5t19 60t11 59t15 50.5t30.5 35.5t58 13.5
q30 0 50 -12t32 -31.5t17.5 -45t5.5 -52.5q0 -40 -8 -75.5t-23 -62t-36 -42t-46 -15.5q-42 0 -71.5 8t-49.5 8q-16 0 -29 -10t-13 -33q0 -25 30 -25q15 0 34.5 3.5t41.5 7.5t44.5 7.5t42.5 3.5q35 0 52.5 -15t17.5 -49q0 -33 -16 -77t-42 -84t-60.5 -67.5t-70.5 -27.5
q-19 0 -37 7t-32.5 19.5t-23 30.5t-8.5 39q0 16 3.5 33t7.5 33t7.5 31t3.5 27q0 17 -8 27.5t-25 10.5q-26 0 -38 -17t-12 -37q0 -27 9.5 -58.5t9.5 -62.5q0 -17 -7 -35t-23 -32.5t-43 -24t-66 -9.5q-21 0 -41 6t-35 17.5t-24.5 29t-9.5 40.5q0 34 19.5 71.5t41.5 69.5
q65 95 65 225zM271 -174q0 11 -5.5 19.5t-11.5 17.5t-11.5 20.5t-5.5 28.5q0 13 16 27.5t48 14.5q18 0 31.5 -6.5t23 -16.5t14.5 -23t5 -26q0 -17 -7 -34.5t-18.5 -32t-26.5 -23.5t-31 -9q-14 0 -19.5 6t-5.5 14q0 5 2 11.5t2 11.5z" />
    <glyph glyph-name="kgreenlandic" unicode="&#x138;" horiz-adv-x="613" 
d="M134 444q0 28 -4.5 56t-4.5 54q0 21 8 44t24 42t41 31.5t60 12.5q17 0 33.5 -5t29.5 -14t21 -21.5t8 -27.5q0 -23 -16.5 -47t-36.5 -47.5t-36.5 -46.5t-16.5 -44q0 -10 7 -23.5t24 -13.5q12 0 25.5 5.5t24.5 16.5q26 25 38.5 54.5t19 60t11 59t15 50.5t30.5 35.5t58 13.5
q30 0 50 -12t32 -31.5t17.5 -45t5.5 -52.5q0 -40 -8 -75.5t-23 -62t-36 -42t-46 -15.5q-42 0 -71.5 8t-49.5 8q-16 0 -29 -10t-13 -33q0 -25 30 -25q15 0 34.5 3.5t41.5 7.5t44.5 7.5t42.5 3.5q35 0 52.5 -15t17.5 -49q0 -33 -16 -77t-42 -84t-60.5 -67.5t-70.5 -27.5
q-19 0 -37 7t-32.5 19.5t-23 30.5t-8.5 39q0 16 3.5 33t7.5 33t7.5 31t3.5 27q0 17 -8 27.5t-25 10.5q-26 0 -38 -17t-12 -37q0 -27 9.5 -58.5t9.5 -62.5q0 -17 -7 -35t-23 -32.5t-43 -24t-66 -9.5q-21 0 -41 6t-35 17.5t-24.5 29t-9.5 40.5q0 34 19.5 71.5t41.5 69.5
q65 95 65 225z" />
    <glyph glyph-name="Lacute" unicode="&#x139;" horiz-adv-x="439" 
d="M82 533q0 25 6 48t19.5 40.5t34 28t49.5 10.5q45 0 71 -24.5t26 -75.5q0 -42 -23.5 -79t-51.5 -75.5t-51.5 -81t-23.5 -96.5q0 -66 65 -66q34 0 60 10.5t47 23.5t38 23.5t33 10.5q10 0 20 -6t17.5 -16t12 -22t4.5 -24q0 -41 -28 -74t-78 -56.5t-118 -36.5t-149 -13
q-35 0 -48.5 15t-13.5 36q0 41 6 74t15 65.5t20 67t20 76.5t15 94.5t6 122.5zM299 890q23 -2 36 -18.5t13 -36.5t-13 -33q-8 -8 -29 -21.5t-46 -26.5t-50.5 -22.5t-41.5 -9.5q-8 0 -12.5 2t-4.5 13q0 12 8 36.5t35 51.5q10 10 23.5 21.5t28 21t28.5 16t25 6.5z" />
    <glyph glyph-name="lacute" unicode="&#x13a;" horiz-adv-x="439" 
d="M82 533q0 25 6 48t19.5 40.5t34 28t49.5 10.5q45 0 71 -24.5t26 -75.5q0 -42 -23.5 -79t-51.5 -75.5t-51.5 -81t-23.5 -96.5q0 -66 65 -66q34 0 60 10.5t47 23.5t38 23.5t33 10.5q10 0 20 -6t17.5 -16t12 -22t4.5 -24q0 -41 -28 -74t-78 -56.5t-118 -36.5t-149 -13
q-35 0 -48.5 15t-13.5 36q0 41 6 74t15 65.5t20 67t20 76.5t15 94.5t6 122.5zM299 890q23 -2 36 -18.5t13 -36.5t-13 -33q-8 -8 -29 -21.5t-46 -26.5t-50.5 -22.5t-41.5 -9.5q-8 0 -12.5 2t-4.5 13q0 12 8 36.5t35 51.5q10 10 23.5 21.5t28 21t28.5 16t25 6.5z" />
    <glyph glyph-name="uni013B" unicode="&#x13b;" horiz-adv-x="439" 
d="M82 533q0 25 6 48t19.5 40.5t34 28t49.5 10.5q45 0 71 -24.5t26 -75.5q0 -42 -23.5 -79t-51.5 -75.5t-51.5 -81t-23.5 -96.5q0 -66 65 -66q34 0 60 10.5t47 23.5t38 23.5t33 10.5q10 0 20 -6t17.5 -16t12 -22t4.5 -24q0 -41 -28 -74t-78 -56.5t-118 -36.5t-149 -13
q-35 0 -48.5 15t-13.5 36q0 41 6 74t15 65.5t20 67t20 76.5t15 94.5t6 122.5zM184 -174q0 11 -5.5 19.5t-11.5 17.5t-11.5 20.5t-5.5 28.5q0 13 16 27.5t48 14.5q18 0 31.5 -6.5t23 -16.5t14.5 -23t5 -26q0 -17 -7 -34.5t-18.5 -32t-26.5 -23.5t-31 -9q-14 0 -19.5 6
t-5.5 14q0 5 2 11.5t2 11.5z" />
    <glyph glyph-name="uni013C" unicode="&#x13c;" horiz-adv-x="439" 
d="M82 533q0 25 6 48t19.5 40.5t34 28t49.5 10.5q45 0 71 -24.5t26 -75.5q0 -42 -23.5 -79t-51.5 -75.5t-51.5 -81t-23.5 -96.5q0 -66 65 -66q34 0 60 10.5t47 23.5t38 23.5t33 10.5q10 0 20 -6t17.5 -16t12 -22t4.5 -24q0 -41 -28 -74t-78 -56.5t-118 -36.5t-149 -13
q-35 0 -48.5 15t-13.5 36q0 41 6 74t15 65.5t20 67t20 76.5t15 94.5t6 122.5zM184 -174q0 11 -5.5 19.5t-11.5 17.5t-11.5 20.5t-5.5 28.5q0 13 16 27.5t48 14.5q18 0 31.5 -6.5t23 -16.5t14.5 -23t5 -26q0 -17 -7 -34.5t-18.5 -32t-26.5 -23.5t-31 -9q-14 0 -19.5 6
t-5.5 14q0 5 2 11.5t2 11.5z" />
    <glyph glyph-name="Lcaron" unicode="&#x13d;" horiz-adv-x="472" 
d="M82 533q0 25 6 48t19.5 40.5t34 28t49.5 10.5q45 0 71 -24.5t26 -75.5q0 -42 -23.5 -79t-51.5 -75.5t-51.5 -81t-23.5 -96.5q0 -66 65 -66q34 0 60 10.5t47 23.5t38 23.5t33 10.5q10 0 20 -6t17.5 -16t12 -22t4.5 -24q0 -41 -28 -74t-78 -56.5t-118 -36.5t-149 -13
q-35 0 -48.5 15t-13.5 36q0 41 6 74t15 65.5t20 67t20 76.5t15 94.5t6 122.5zM342 546q0 11 -5.5 19.5t-11.5 17.5t-11.5 20.5t-5.5 28.5q0 13 16 27.5t48 14.5q18 0 31.5 -6.5t23 -16.5t14.5 -23t5 -26q0 -17 -7 -34.5t-18.5 -32t-26.5 -23.5t-31 -9q-14 0 -19.5 6t-5.5 14
q0 5 2 11.5t2 11.5z" />
    <glyph glyph-name="lcaron" unicode="&#x13e;" horiz-adv-x="472" 
d="M82 533q0 25 6 48t19.5 40.5t34 28t49.5 10.5q45 0 71 -24.5t26 -75.5q0 -42 -23.5 -79t-51.5 -75.5t-51.5 -81t-23.5 -96.5q0 -66 65 -66q34 0 60 10.5t47 23.5t38 23.5t33 10.5q10 0 20 -6t17.5 -16t12 -22t4.5 -24q0 -41 -28 -74t-78 -56.5t-118 -36.5t-149 -13
q-35 0 -48.5 15t-13.5 36q0 41 6 74t15 65.5t20 67t20 76.5t15 94.5t6 122.5zM342 546q0 11 -5.5 19.5t-11.5 17.5t-11.5 20.5t-5.5 28.5q0 13 16 27.5t48 14.5q18 0 31.5 -6.5t23 -16.5t14.5 -23t5 -26q0 -17 -7 -34.5t-18.5 -32t-26.5 -23.5t-31 -9q-14 0 -19.5 6t-5.5 14
q0 5 2 11.5t2 11.5z" />
    <glyph glyph-name="Ldot" unicode="&#x13f;" horiz-adv-x="451" 
d="M82 533q0 25 6 48t19.5 40.5t34 28t49.5 10.5q45 0 71 -24.5t26 -75.5q0 -42 -23.5 -79t-51.5 -75.5t-51.5 -81t-23.5 -96.5q0 -66 65 -66q34 0 60 10.5t47 23.5t38 23.5t33 10.5q10 0 20 -6t17.5 -16t12 -22t4.5 -24q0 -41 -28 -74t-78 -56.5t-118 -36.5t-149 -13
q-35 0 -48.5 15t-13.5 36q0 41 6 74t15 65.5t20 67t20 76.5t15 94.5t6 122.5zM350 444q7 0 25.5 -4t37 -14.5t33 -29t14.5 -48.5q0 -19 -8.5 -36.5t-24 -30.5t-39 -21t-53.5 -8q-21 0 -39.5 6.5t-32.5 18t-22.5 28t-8.5 36.5q0 19 6.5 38t20.5 33t36.5 23t54.5 9z" />
    <glyph glyph-name="ldot" unicode="&#x140;" horiz-adv-x="451" 
d="M82 533q0 25 6 48t19.5 40.5t34 28t49.5 10.5q45 0 71 -24.5t26 -75.5q0 -42 -23.5 -79t-51.5 -75.5t-51.5 -81t-23.5 -96.5q0 -66 65 -66q34 0 60 10.5t47 23.5t38 23.5t33 10.5q10 0 20 -6t17.5 -16t12 -22t4.5 -24q0 -41 -28 -74t-78 -56.5t-118 -36.5t-149 -13
q-35 0 -48.5 15t-13.5 36q0 41 6 74t15 65.5t20 67t20 76.5t15 94.5t6 122.5zM350 444q7 0 25.5 -4t37 -14.5t33 -29t14.5 -48.5q0 -19 -8.5 -36.5t-24 -30.5t-39 -21t-53.5 -8q-21 0 -39.5 6.5t-32.5 18t-22.5 28t-8.5 36.5q0 19 6.5 38t20.5 33t36.5 23t54.5 9z" />
    <glyph glyph-name="Lslash" unicode="&#x141;" horiz-adv-x="439" 
d="M238 407q14 0 26.5 7t28.5 7q24 0 38 -12.5t14 -29.5q0 -22 -16.5 -33.5t-41.5 -18t-55 -11t-56 -13.5q-23 -8 -30.5 -28.5t-7.5 -46.5q0 -66 65 -66q34 0 60 10.5t47 23.5t38 23.5t33 10.5q10 0 20 -6t17.5 -16t12 -22t4.5 -24q0 -41 -28 -74t-78 -56.5t-118 -36.5
t-149 -13q-35 0 -48.5 15t-13.5 36q0 29 6 54.5t12.5 49.5t12.5 47t6 48q0 9 -6.5 13.5t-14 9t-14 12t-6.5 21.5q0 16 12.5 29.5t33.5 23.5q11 5 19.5 15t10.5 24q5 32 7.5 70t2.5 83q0 25 6 48t19.5 40.5t34 28t49.5 10.5q45 0 71 -24.5t26 -75.5q0 -24 -9.5 -42.5
t-21 -34.5t-21 -31.5t-9.5 -33.5q0 -11 11 -11z" />
    <glyph glyph-name="lslash" unicode="&#x142;" horiz-adv-x="439" 
d="M238 407q14 0 26.5 7t28.5 7q24 0 38 -12.5t14 -29.5q0 -22 -16.5 -33.5t-41.5 -18t-55 -11t-56 -13.5q-23 -8 -30.5 -28.5t-7.5 -46.5q0 -66 65 -66q34 0 60 10.5t47 23.5t38 23.5t33 10.5q10 0 20 -6t17.5 -16t12 -22t4.5 -24q0 -41 -28 -74t-78 -56.5t-118 -36.5
t-149 -13q-35 0 -48.5 15t-13.5 36q0 29 6 54.5t12.5 49.5t12.5 47t6 48q0 9 -6.5 13.5t-14 9t-14 12t-6.5 21.5q0 16 12.5 29.5t33.5 23.5q11 5 19.5 15t10.5 24q5 32 7.5 70t2.5 83q0 25 6 48t19.5 40.5t34 28t49.5 10.5q45 0 71 -24.5t26 -75.5q0 -24 -9.5 -42.5
t-21 -34.5t-21 -31.5t-9.5 -33.5q0 -11 11 -11z" />
    <glyph glyph-name="Nacute" unicode="&#x143;" horiz-adv-x="588" 
d="M349 577q0 25 9 44.5t24.5 32.5t36 20t43.5 7q54 0 81.5 -32t27.5 -80q0 -28 -6.5 -62.5t-14 -77.5t-13.5 -94t-6 -112q0 -55 7 -90t15 -57.5t15 -36t7 -24.5t-12.5 -18t-26.5 -7q-30 0 -68 20.5t-70 53.5q-23 23 -42 57t-35.5 72t-32.5 76t-32 68t-33.5 49t-38.5 19
q-23 0 -32.5 -17.5t-9.5 -37.5q0 -51 14.5 -86t32 -63t32 -55t14.5 -62q0 -22 -11 -38.5t-28 -28t-38 -17.5t-41 -6q-55 0 -80.5 24.5t-25.5 55.5q0 29 12.5 58.5t27.5 57.5q6 12 13.5 28t14 39t11 55.5t4.5 76.5q0 68 -11.5 108.5t-25 65.5t-24.5 40t-11 31q0 17 17.5 26.5
t40.5 9.5q34 0 67.5 -14.5t67 -48t66.5 -87.5t66 -133q7 -18 15 -38.5t18 -37.5t23.5 -28.5t31.5 -11.5q17 0 27.5 16t10.5 51q0 38 -19.5 63.5t-42.5 49.5t-42.5 53t-19.5 73zM373 890q23 -2 36 -18.5t13 -36.5t-13 -33q-8 -8 -29 -21.5t-46 -26.5t-50.5 -22.5t-41.5 -9.5
q-8 0 -12.5 2t-4.5 13q0 12 8 36.5t35 51.5q10 10 23.5 21.5t28 21t28.5 16t25 6.5z" />
    <glyph glyph-name="nacute" unicode="&#x144;" horiz-adv-x="588" 
d="M349 577q0 25 9 44.5t24.5 32.5t36 20t43.5 7q54 0 81.5 -32t27.5 -80q0 -28 -6.5 -62.5t-14 -77.5t-13.5 -94t-6 -112q0 -55 7 -90t15 -57.5t15 -36t7 -24.5t-12.5 -18t-26.5 -7q-30 0 -68 20.5t-70 53.5q-23 23 -42 57t-35.5 72t-32.5 76t-32 68t-33.5 49t-38.5 19
q-23 0 -32.5 -17.5t-9.5 -37.5q0 -51 14.5 -86t32 -63t32 -55t14.5 -62q0 -22 -11 -38.5t-28 -28t-38 -17.5t-41 -6q-55 0 -80.5 24.5t-25.5 55.5q0 29 12.5 58.5t27.5 57.5q6 12 13.5 28t14 39t11 55.5t4.5 76.5q0 68 -11.5 108.5t-25 65.5t-24.5 40t-11 31q0 17 17.5 26.5
t40.5 9.5q34 0 67.5 -14.5t67 -48t66.5 -87.5t66 -133q7 -18 15 -38.5t18 -37.5t23.5 -28.5t31.5 -11.5q17 0 27.5 16t10.5 51q0 38 -19.5 63.5t-42.5 49.5t-42.5 53t-19.5 73zM373 890q23 -2 36 -18.5t13 -36.5t-13 -33q-8 -8 -29 -21.5t-46 -26.5t-50.5 -22.5t-41.5 -9.5
q-8 0 -12.5 2t-4.5 13q0 12 8 36.5t35 51.5q10 10 23.5 21.5t28 21t28.5 16t25 6.5z" />
    <glyph glyph-name="uni0145" unicode="&#x145;" horiz-adv-x="588" 
d="M349 577q0 25 9 44.5t24.5 32.5t36 20t43.5 7q54 0 81.5 -32t27.5 -80q0 -28 -6.5 -62.5t-14 -77.5t-13.5 -94t-6 -112q0 -55 7 -90t15 -57.5t15 -36t7 -24.5t-12.5 -18t-26.5 -7q-30 0 -68 20.5t-70 53.5q-23 23 -42 57t-35.5 72t-32.5 76t-32 68t-33.5 49t-38.5 19
q-23 0 -32.5 -17.5t-9.5 -37.5q0 -51 14.5 -86t32 -63t32 -55t14.5 -62q0 -22 -11 -38.5t-28 -28t-38 -17.5t-41 -6q-55 0 -80.5 24.5t-25.5 55.5q0 29 12.5 58.5t27.5 57.5q6 12 13.5 28t14 39t11 55.5t4.5 76.5q0 68 -11.5 108.5t-25 65.5t-24.5 40t-11 31q0 17 17.5 26.5
t40.5 9.5q34 0 67.5 -14.5t67 -48t66.5 -87.5t66 -133q7 -18 15 -38.5t18 -37.5t23.5 -28.5t31.5 -11.5q17 0 27.5 16t10.5 51q0 38 -19.5 63.5t-42.5 49.5t-42.5 53t-19.5 73zM259 -174q0 11 -5.5 19.5t-11.5 17.5t-11.5 20.5t-5.5 28.5q0 13 16 27.5t48 14.5
q18 0 31.5 -6.5t23 -16.5t14.5 -23t5 -26q0 -17 -7 -34.5t-18.5 -32t-26.5 -23.5t-31 -9q-14 0 -19.5 6t-5.5 14q0 5 2 11.5t2 11.5z" />
    <glyph glyph-name="uni0146" unicode="&#x146;" horiz-adv-x="588" 
d="M349 577q0 25 9 44.5t24.5 32.5t36 20t43.5 7q54 0 81.5 -32t27.5 -80q0 -28 -6.5 -62.5t-14 -77.5t-13.5 -94t-6 -112q0 -55 7 -90t15 -57.5t15 -36t7 -24.5t-12.5 -18t-26.5 -7q-30 0 -68 20.5t-70 53.5q-23 23 -42 57t-35.5 72t-32.5 76t-32 68t-33.5 49t-38.5 19
q-23 0 -32.5 -17.5t-9.5 -37.5q0 -51 14.5 -86t32 -63t32 -55t14.5 -62q0 -22 -11 -38.5t-28 -28t-38 -17.5t-41 -6q-55 0 -80.5 24.5t-25.5 55.5q0 29 12.5 58.5t27.5 57.5q6 12 13.5 28t14 39t11 55.5t4.5 76.5q0 68 -11.5 108.5t-25 65.5t-24.5 40t-11 31q0 17 17.5 26.5
t40.5 9.5q34 0 67.5 -14.5t67 -48t66.5 -87.5t66 -133q7 -18 15 -38.5t18 -37.5t23.5 -28.5t31.5 -11.5q17 0 27.5 16t10.5 51q0 38 -19.5 63.5t-42.5 49.5t-42.5 53t-19.5 73zM259 -174q0 11 -5.5 19.5t-11.5 17.5t-11.5 20.5t-5.5 28.5q0 13 16 27.5t48 14.5
q18 0 31.5 -6.5t23 -16.5t14.5 -23t5 -26q0 -17 -7 -34.5t-18.5 -32t-26.5 -23.5t-31 -9q-14 0 -19.5 6t-5.5 14q0 5 2 11.5t2 11.5z" />
    <glyph glyph-name="Ncaron" unicode="&#x147;" horiz-adv-x="588" 
d="M349 577q0 25 9 44.5t24.5 32.5t36 20t43.5 7q54 0 81.5 -32t27.5 -80q0 -28 -6.5 -62.5t-14 -77.5t-13.5 -94t-6 -112q0 -55 7 -90t15 -57.5t15 -36t7 -24.5t-12.5 -18t-26.5 -7q-30 0 -68 20.5t-70 53.5q-23 23 -42 57t-35.5 72t-32.5 76t-32 68t-33.5 49t-38.5 19
q-23 0 -32.5 -17.5t-9.5 -37.5q0 -51 14.5 -86t32 -63t32 -55t14.5 -62q0 -22 -11 -38.5t-28 -28t-38 -17.5t-41 -6q-55 0 -80.5 24.5t-25.5 55.5q0 29 12.5 58.5t27.5 57.5q6 12 13.5 28t14 39t11 55.5t4.5 76.5q0 68 -11.5 108.5t-25 65.5t-24.5 40t-11 31q0 17 17.5 26.5
t40.5 9.5q34 0 67.5 -14.5t67 -48t66.5 -87.5t66 -133q7 -18 15 -38.5t18 -37.5t23.5 -28.5t31.5 -11.5q17 0 27.5 16t10.5 51q0 38 -19.5 63.5t-42.5 49.5t-42.5 53t-19.5 73zM294 706q-11 0 -36.5 13.5t-52 34t-47 44.5t-20.5 46q0 16 13 28t30 12t34.5 -13.5t32.5 -29.5
t28 -29.5t21 -13.5q7 0 17.5 13.5t24.5 30t32 30t40 13.5q14 0 26.5 -10t12.5 -31t-19.5 -45.5t-45.5 -45t-52 -34t-39 -13.5z" />
    <glyph glyph-name="ncaron" unicode="&#x148;" horiz-adv-x="588" 
d="M349 577q0 25 9 44.5t24.5 32.5t36 20t43.5 7q54 0 81.5 -32t27.5 -80q0 -28 -6.5 -62.5t-14 -77.5t-13.5 -94t-6 -112q0 -55 7 -90t15 -57.5t15 -36t7 -24.5t-12.5 -18t-26.5 -7q-30 0 -68 20.5t-70 53.5q-23 23 -42 57t-35.5 72t-32.5 76t-32 68t-33.5 49t-38.5 19
q-23 0 -32.5 -17.5t-9.5 -37.5q0 -51 14.5 -86t32 -63t32 -55t14.5 -62q0 -22 -11 -38.5t-28 -28t-38 -17.5t-41 -6q-55 0 -80.5 24.5t-25.5 55.5q0 29 12.5 58.5t27.5 57.5q6 12 13.5 28t14 39t11 55.5t4.5 76.5q0 68 -11.5 108.5t-25 65.5t-24.5 40t-11 31q0 17 17.5 26.5
t40.5 9.5q34 0 67.5 -14.5t67 -48t66.5 -87.5t66 -133q7 -18 15 -38.5t18 -37.5t23.5 -28.5t31.5 -11.5q17 0 27.5 16t10.5 51q0 38 -19.5 63.5t-42.5 49.5t-42.5 53t-19.5 73zM294 706q-11 0 -36.5 13.5t-52 34t-47 44.5t-20.5 46q0 16 13 28t30 12t34.5 -13.5t32.5 -29.5
t28 -29.5t21 -13.5q7 0 17.5 13.5t24.5 30t32 30t40 13.5q14 0 26.5 -10t12.5 -31t-19.5 -45.5t-45.5 -45t-52 -34t-39 -13.5z" />
    <glyph glyph-name="napostrophe" unicode="&#x149;" horiz-adv-x="588" 
d="M349 577q0 25 9 44.5t24.5 32.5t36 20t43.5 7q54 0 81.5 -32t27.5 -80q0 -28 -6.5 -62.5t-14 -77.5t-13.5 -94t-6 -112q0 -55 7 -90t15 -57.5t15 -36t7 -24.5t-12.5 -18t-26.5 -7q-30 0 -68 20.5t-70 53.5q-23 23 -42 57t-35.5 72t-32.5 76t-32 68t-33.5 49t-38.5 19
q-23 0 -32.5 -17.5t-9.5 -37.5q0 -51 14.5 -86t32 -63t32 -55t14.5 -62q0 -22 -11 -38.5t-28 -28t-38 -17.5t-41 -6q-55 0 -80.5 24.5t-25.5 55.5q0 29 12.5 58.5t27.5 57.5q6 12 13.5 28t14 39t11 55.5t4.5 76.5q0 68 -11.5 108.5t-25 65.5t-24.5 40t-11 31q0 17 17.5 26.5
t40.5 9.5q34 0 67.5 -14.5t67 -48t66.5 -87.5t66 -133q7 -18 15 -38.5t18 -37.5t23.5 -28.5t31.5 -11.5q17 0 27.5 16t10.5 51q0 38 -19.5 63.5t-42.5 49.5t-42.5 53t-19.5 73zM46 -174q0 11 -5.5 19.5t-11.5 17.5t-11.5 20.5t-5.5 28.5q0 13 16 27.5t48 14.5
q18 0 31.5 -6.5t23 -16.5t14.5 -23t5 -26q0 -17 -7 -34.5t-18.5 -32t-26.5 -23.5t-31 -9q-14 0 -19.5 6t-5.5 14q0 5 2 11.5t2 11.5z" />
    <glyph glyph-name="Eng" unicode="&#x14a;" horiz-adv-x="588" 
d="M349 577q0 25 9 44.5t24.5 32.5t36 20t43.5 7q54 0 81.5 -32t27.5 -80q0 -28 -6.5 -62.5t-14 -77.5t-13.5 -94t-6 -112q0 -41 6.5 -68.5t15 -50t15 -44.5t6.5 -51q0 -48 -9.5 -88.5t-30 -70t-53.5 -46t-79 -16.5q-27 0 -62 12t-66.5 32t-53 46.5t-21.5 55.5
q0 13 6.5 23.5t19.5 10.5q15 0 25 -7t21 -15.5t27.5 -15.5t45.5 -7q34 0 45 24t11 61q0 32 -14 58t-31 57q-24 42 -43.5 91t-39 91.5t-40.5 71t-48 28.5q-23 0 -32.5 -17.5t-9.5 -37.5q0 -51 14.5 -86t32 -63t32 -55t14.5 -62q0 -22 -11 -38.5t-28 -28t-38 -17.5t-41 -6
q-55 0 -80.5 24.5t-25.5 55.5q0 29 12.5 58.5t27.5 57.5q6 12 13.5 28t14 39t11 55.5t4.5 76.5q0 68 -11.5 108.5t-25 65.5t-24.5 40t-11 31q0 17 17.5 26.5t40.5 9.5q34 0 67.5 -14.5t67 -48t66.5 -87.5t66 -133q7 -18 15 -38.5t18 -37.5t23.5 -28.5t31.5 -11.5
q17 0 27.5 16t10.5 51q0 38 -19.5 63.5t-42.5 49.5t-42.5 53t-19.5 73z" />
    <glyph glyph-name="eng" unicode="&#x14b;" horiz-adv-x="588" 
d="M349 577q0 25 9 44.5t24.5 32.5t36 20t43.5 7q54 0 81.5 -32t27.5 -80q0 -28 -6.5 -62.5t-14 -77.5t-13.5 -94t-6 -112q0 -41 6.5 -68.5t15 -50t15 -44.5t6.5 -51q0 -48 -9.5 -88.5t-30 -70t-53.5 -46t-79 -16.5q-27 0 -62 12t-66.5 32t-53 46.5t-21.5 55.5
q0 13 6.5 23.5t19.5 10.5q15 0 25 -7t21 -15.5t27.5 -15.5t45.5 -7q34 0 45 24t11 61q0 32 -14 58t-31 57q-24 42 -43.5 91t-39 91.5t-40.5 71t-48 28.5q-23 0 -32.5 -17.5t-9.5 -37.5q0 -51 14.5 -86t32 -63t32 -55t14.5 -62q0 -22 -11 -38.5t-28 -28t-38 -17.5t-41 -6
q-55 0 -80.5 24.5t-25.5 55.5q0 29 12.5 58.5t27.5 57.5q6 12 13.5 28t14 39t11 55.5t4.5 76.5q0 68 -11.5 108.5t-25 65.5t-24.5 40t-11 31q0 17 17.5 26.5t40.5 9.5q34 0 67.5 -14.5t67 -48t66.5 -87.5t66 -133q7 -18 15 -38.5t18 -37.5t23.5 -28.5t31.5 -11.5
q17 0 27.5 16t10.5 51q0 38 -19.5 63.5t-42.5 49.5t-42.5 53t-19.5 73z" />
    <glyph glyph-name="Omacron" unicode="&#x14c;" horiz-adv-x="567" 
d="M308 666q55 0 100.5 -22t78.5 -64.5t51.5 -103.5t18.5 -139q0 -56 -16.5 -117.5t-50 -112.5t-86 -84.5t-124.5 -33.5q-77 0 -129 27.5t-83.5 72t-44.5 101.5t-13 116q0 94 18 162t55 111.5t93 64.5t132 22zM243 527q-20 0 -34.5 -13.5t-24.5 -35t-14.5 -49t-4.5 -55.5
t4 -54t12.5 -45.5t21.5 -31.5t30 -12q23 0 40.5 12.5t29 33t17.5 47t6 54.5t-5 54.5t-15.5 47.5t-26 34t-36.5 13zM394 848q30 0 46 -24.5t16 -51.5q0 -31 -17.5 -48.5t-43.5 -17.5t-56 10t-59 10q-12 0 -25 -3.5t-26.5 -7.5t-27.5 -7.5t-27 -3.5q-10 0 -21 3.5t-20.5 12
t-15.5 22.5t-6 35q0 29 20 50t50 21q23 0 47 -8t44 -8q22 0 37.5 2.5t28.5 5.5t26 5.5t30 2.5z" />
    <glyph glyph-name="omacron" unicode="&#x14d;" horiz-adv-x="380" 
d="M207 666q75 0 121 -42t46 -120q0 -27 -11 -57t-33.5 -55t-57.5 -41.5t-83 -16.5q-52 0 -86.5 13.5t-55.5 35t-30 49.5t-9 57q0 94 48 135.5t151 41.5zM229 513q-27 0 -39.5 -18t-12.5 -39q0 -20 11 -36.5t34 -16.5q32 0 47.5 17t15.5 38q0 20 -13.5 37.5t-42.5 17.5z
M300 848q30 0 46 -24.5t16 -51.5q0 -31 -17.5 -48.5t-43.5 -17.5t-56 10t-59 10q-12 0 -25 -3.5t-26.5 -7.5t-27.5 -7.5t-27 -3.5q-10 0 -21 3.5t-20.5 12t-15.5 22.5t-6 35q0 29 20 50t50 21q23 0 47 -8t44 -8q22 0 37.5 2.5t28.5 5.5t26 5.5t30 2.5z" />
    <glyph glyph-name="Obreve" unicode="&#x14e;" horiz-adv-x="567" 
d="M308 666q55 0 100.5 -22t78.5 -64.5t51.5 -103.5t18.5 -139q0 -56 -16.5 -117.5t-50 -112.5t-86 -84.5t-124.5 -33.5q-77 0 -129 27.5t-83.5 72t-44.5 101.5t-13 116q0 94 18 162t55 111.5t93 64.5t132 22zM243 527q-20 0 -34.5 -13.5t-24.5 -35t-14.5 -49t-4.5 -55.5
t4 -54t12.5 -45.5t21.5 -31.5t30 -12q23 0 40.5 12.5t29 33t17.5 47t6 54.5t-5 54.5t-15.5 47.5t-26 34t-36.5 13zM287 716q-30 0 -62 12t-58.5 30.5t-43 41t-16.5 44.5q0 16 13 28t30 12t28.5 -13.5t25 -29.5t32 -29.5t50.5 -13.5q31 0 48 13.5t28.5 30t23.5 30t34 13.5
q14 0 26.5 -10t12.5 -31t-15.5 -44t-40 -41.5t-55.5 -30.5t-61 -12z" />
    <glyph glyph-name="obreve" unicode="&#x14f;" horiz-adv-x="380" 
d="M207 666q75 0 121 -42t46 -120q0 -27 -11 -57t-33.5 -55t-57.5 -41.5t-83 -16.5q-52 0 -86.5 13.5t-55.5 35t-30 49.5t-9 57q0 94 48 135.5t151 41.5zM229 513q-27 0 -39.5 -18t-12.5 -39q0 -20 11 -36.5t34 -16.5q32 0 47.5 17t15.5 38q0 20 -13.5 37.5t-42.5 17.5z
M194 716q-30 0 -62 12t-58.5 30.5t-43 41t-16.5 44.5q0 16 13 28t30 12t28.5 -13.5t25 -29.5t32 -29.5t50.5 -13.5q31 0 48 13.5t28.5 30t23.5 30t34 13.5q14 0 26.5 -10t12.5 -31t-15.5 -44t-40 -41.5t-55.5 -30.5t-61 -12z" />
    <glyph glyph-name="Ohungarumlaut" unicode="&#x150;" horiz-adv-x="567" 
d="M308 666q55 0 100.5 -22t78.5 -64.5t51.5 -103.5t18.5 -139q0 -56 -16.5 -117.5t-50 -112.5t-86 -84.5t-124.5 -33.5q-77 0 -129 27.5t-83.5 72t-44.5 101.5t-13 116q0 94 18 162t55 111.5t93 64.5t132 22zM243 527q-20 0 -34.5 -13.5t-24.5 -35t-14.5 -49t-4.5 -55.5
t4 -54t12.5 -45.5t21.5 -31.5t30 -12q23 0 40.5 12.5t29 33t17.5 47t6 54.5t-5 54.5t-15.5 47.5t-26 34t-36.5 13zM493 884q8 4 17 4q8 0 13 -6t5 -15q0 -14 -15 -32q-8 -10 -30.5 -31.5t-48 -43.5t-48 -39t-30.5 -17q-4 0 -4 4q1 6 9 28.5t36 56.5q10 12 22.5 26t25.5 27
t25.5 23t22.5 15zM348 884q7 4 16 4q10 0 16 -8t6 -20t-9 -25q-6 -10 -25 -31.5t-40.5 -43.5t-41.5 -39t-27 -17q-5 0 -5 8q0 9 5 30t25 51q8 12 18.5 26t21 26.5t21 23t19.5 15.5z" />
    <glyph glyph-name="ohungarumlaut" unicode="&#x151;" horiz-adv-x="380" 
d="M207 666q75 0 121 -42t46 -120q0 -27 -11 -57t-33.5 -55t-57.5 -41.5t-83 -16.5q-52 0 -86.5 13.5t-55.5 35t-30 49.5t-9 57q0 94 48 135.5t151 41.5zM229 513q-27 0 -39.5 -18t-12.5 -39q0 -20 11 -36.5t34 -16.5q32 0 47.5 17t15.5 38q0 20 -13.5 37.5t-42.5 17.5z
M400 884q8 4 17 4q8 0 13 -6t5 -15q0 -14 -15 -32q-8 -10 -30.5 -31.5t-48 -43.5t-48 -39t-30.5 -17q-4 0 -4 4q1 6 9 28.5t36 56.5q10 12 22.5 26t25.5 27t25.5 23t22.5 15zM255 884q7 4 16 4q10 0 16 -8t6 -20t-9 -25q-6 -10 -25 -31.5t-40.5 -43.5t-41.5 -39t-27 -17
q-5 0 -5 8q0 9 5 30t25 51q8 12 18.5 26t21 26.5t21 23t19.5 15.5z" />
    <glyph glyph-name="OE" unicode="&#x152;" horiz-adv-x="830" 
d="M615 642q100 0 150.5 -56.5t50.5 -164.5q0 -66 -18 -104.5t-44.5 -60t-57.5 -30t-57.5 -14t-44.5 -13t-18 -26.5q0 -11 5.5 -18.5t13.5 -12t18 -7t18 -2.5q18 0 36.5 6t34.5 14t27.5 16t16.5 13q17 17 28.5 31t26.5 14q18 0 18 -20q0 -49 -19.5 -84.5t-50 -58.5t-68 -34
t-74.5 -11q-36 0 -60 4.5t-40.5 10t-28 10t-22.5 4.5q-12 0 -25 -9t-32.5 -20.5t-48 -20.5t-70.5 -9q-77 0 -129 27.5t-83.5 72t-44.5 101.5t-13 116q0 93 17.5 161t50 112.5t79 65.5t105.5 21q39 0 69 -10t53.5 -21.5t43 -21.5t37.5 -10t35 6t35 13.5t37.5 13.5t42.5 6z
M243 527q-20 0 -34.5 -13.5t-24.5 -35t-14.5 -49t-4.5 -55.5t4 -54t12.5 -45.5t21.5 -31.5t30 -12q23 0 40.5 12.5t29 33t17.5 47t6 54.5t-5 54.5t-15.5 47.5t-26 34t-36.5 13zM601 264q19 0 38 2t34.5 7.5t25 15t9.5 23.5q0 22 -18 31.5t-37 9.5q-43 0 -65.5 -18.5
t-22.5 -41.5q0 -11 9.5 -20t26.5 -9z" />
    <glyph glyph-name="oe" unicode="&#x153;" horiz-adv-x="830" 
d="M615 642q100 0 150.5 -56.5t50.5 -164.5q0 -66 -18 -104.5t-44.5 -60t-57.5 -30t-57.5 -14t-44.5 -13t-18 -26.5q0 -11 5.5 -18.5t13.5 -12t18 -7t18 -2.5q18 0 36.5 6t34.5 14t27.5 16t16.5 13q17 17 28.5 31t26.5 14q18 0 18 -20q0 -49 -19.5 -84.5t-50 -58.5t-68 -34
t-74.5 -11q-36 0 -60 4.5t-40.5 10t-28 10t-22.5 4.5q-12 0 -25 -9t-32.5 -20.5t-48 -20.5t-70.5 -9q-77 0 -129 27.5t-83.5 72t-44.5 101.5t-13 116q0 93 17.5 161t50 112.5t79 65.5t105.5 21q39 0 69 -10t53.5 -21.5t43 -21.5t37.5 -10t35 6t35 13.5t37.5 13.5t42.5 6z
M243 527q-20 0 -34.5 -13.5t-24.5 -35t-14.5 -49t-4.5 -55.5t4 -54t12.5 -45.5t21.5 -31.5t30 -12q23 0 40.5 12.5t29 33t17.5 47t6 54.5t-5 54.5t-15.5 47.5t-26 34t-36.5 13zM601 264q19 0 38 2t34.5 7.5t25 15t9.5 23.5q0 22 -18 31.5t-37 9.5q-43 0 -65.5 -18.5
t-22.5 -41.5q0 -11 9.5 -20t26.5 -9z" />
    <glyph glyph-name="Racute" unicode="&#x154;" horiz-adv-x="521" 
d="M227 650q42 0 87 -8t82.5 -27.5t62 -51t24.5 -78.5q0 -51 -17.5 -75t-39 -36t-39 -20t-17.5 -27t22 -34.5t48.5 -37.5t48.5 -55.5t22 -87.5q0 -28 -9 -53.5t-26.5 -45t-43 -31t-57.5 -11.5q-21 0 -39 7t-31 19t-20.5 27.5t-7.5 33.5q0 19 7 38.5t15 37t15 32t7 24.5
q0 44 -22 61.5t-52 17.5q-35 0 -51.5 -20t-16.5 -44q0 -18 6 -36.5t13.5 -38t14 -38.5t6.5 -37q0 -12 -5 -26t-17.5 -25.5t-33.5 -19.5t-52 -8q-15 0 -32 5t-30.5 15t-22.5 25t-9 35q0 19 6.5 42.5t14 51t14 59t6.5 67.5q0 46 -7 86t-16 73.5t-16 61.5t-7 51q0 19 7.5 37.5
t31 33t65.5 23t111 8.5zM297 469q0 22 -17.5 33t-40.5 11q-27 0 -40.5 -15t-13.5 -38q0 -32 15.5 -45.5t35.5 -13.5q26 0 43.5 18t17.5 50zM340 890q23 -2 36 -18.5t13 -36.5t-13 -33q-8 -8 -29 -21.5t-46 -26.5t-50.5 -22.5t-41.5 -9.5q-8 0 -12.5 2t-4.5 13q0 12 8 36.5
t35 51.5q10 10 23.5 21.5t28 21t28.5 16t25 6.5z" />
    <glyph glyph-name="racute" unicode="&#x155;" horiz-adv-x="521" 
d="M227 650q42 0 87 -8t82.5 -27.5t62 -51t24.5 -78.5q0 -51 -17.5 -75t-39 -36t-39 -20t-17.5 -27t22 -34.5t48.5 -37.5t48.5 -55.5t22 -87.5q0 -28 -9 -53.5t-26.5 -45t-43 -31t-57.5 -11.5q-21 0 -39 7t-31 19t-20.5 27.5t-7.5 33.5q0 19 7 38.5t15 37t15 32t7 24.5
q0 44 -22 61.5t-52 17.5q-35 0 -51.5 -20t-16.5 -44q0 -18 6 -36.5t13.5 -38t14 -38.5t6.5 -37q0 -12 -5 -26t-17.5 -25.5t-33.5 -19.5t-52 -8q-15 0 -32 5t-30.5 15t-22.5 25t-9 35q0 19 6.5 42.5t14 51t14 59t6.5 67.5q0 46 -7 86t-16 73.5t-16 61.5t-7 51q0 19 7.5 37.5
t31 33t65.5 23t111 8.5zM297 469q0 22 -17.5 33t-40.5 11q-27 0 -40.5 -15t-13.5 -38q0 -32 15.5 -45.5t35.5 -13.5q26 0 43.5 18t17.5 50zM340 890q23 -2 36 -18.5t13 -36.5t-13 -33q-8 -8 -29 -21.5t-46 -26.5t-50.5 -22.5t-41.5 -9.5q-8 0 -12.5 2t-4.5 13q0 12 8 36.5
t35 51.5q10 10 23.5 21.5t28 21t28.5 16t25 6.5z" />
    <glyph glyph-name="uni0156" unicode="&#x156;" horiz-adv-x="521" 
d="M227 650q42 0 87 -8t82.5 -27.5t62 -51t24.5 -78.5q0 -51 -17.5 -75t-39 -36t-39 -20t-17.5 -27t22 -34.5t48.5 -37.5t48.5 -55.5t22 -87.5q0 -28 -9 -53.5t-26.5 -45t-43 -31t-57.5 -11.5q-21 0 -39 7t-31 19t-20.5 27.5t-7.5 33.5q0 19 7 38.5t15 37t15 32t7 24.5
q0 44 -22 61.5t-52 17.5q-35 0 -51.5 -20t-16.5 -44q0 -18 6 -36.5t13.5 -38t14 -38.5t6.5 -37q0 -12 -5 -26t-17.5 -25.5t-33.5 -19.5t-52 -8q-15 0 -32 5t-30.5 15t-22.5 25t-9 35q0 19 6.5 42.5t14 51t14 59t6.5 67.5q0 46 -7 86t-16 73.5t-16 61.5t-7 51q0 19 7.5 37.5
t31 33t65.5 23t111 8.5zM297 469q0 22 -17.5 33t-40.5 11q-27 0 -40.5 -15t-13.5 -38q0 -32 15.5 -45.5t35.5 -13.5q26 0 43.5 18t17.5 50zM225 -174q0 11 -5.5 19.5t-11.5 17.5t-11.5 20.5t-5.5 28.5q0 13 16 27.5t48 14.5q18 0 31.5 -6.5t23 -16.5t14.5 -23t5 -26
q0 -17 -7 -34.5t-18.5 -32t-26.5 -23.5t-31 -9q-14 0 -19.5 6t-5.5 14q0 5 2 11.5t2 11.5z" />
    <glyph glyph-name="uni0157" unicode="&#x157;" horiz-adv-x="521" 
d="M227 650q42 0 87 -8t82.5 -27.5t62 -51t24.5 -78.5q0 -51 -17.5 -75t-39 -36t-39 -20t-17.5 -27t22 -34.5t48.5 -37.5t48.5 -55.5t22 -87.5q0 -28 -9 -53.5t-26.5 -45t-43 -31t-57.5 -11.5q-21 0 -39 7t-31 19t-20.5 27.5t-7.5 33.5q0 19 7 38.5t15 37t15 32t7 24.5
q0 44 -22 61.5t-52 17.5q-35 0 -51.5 -20t-16.5 -44q0 -18 6 -36.5t13.5 -38t14 -38.5t6.5 -37q0 -12 -5 -26t-17.5 -25.5t-33.5 -19.5t-52 -8q-15 0 -32 5t-30.5 15t-22.5 25t-9 35q0 19 6.5 42.5t14 51t14 59t6.5 67.5q0 46 -7 86t-16 73.5t-16 61.5t-7 51q0 19 7.5 37.5
t31 33t65.5 23t111 8.5zM297 469q0 22 -17.5 33t-40.5 11q-27 0 -40.5 -15t-13.5 -38q0 -32 15.5 -45.5t35.5 -13.5q26 0 43.5 18t17.5 50zM225 -174q0 11 -5.5 19.5t-11.5 17.5t-11.5 20.5t-5.5 28.5q0 13 16 27.5t48 14.5q18 0 31.5 -6.5t23 -16.5t14.5 -23t5 -26
q0 -17 -7 -34.5t-18.5 -32t-26.5 -23.5t-31 -9q-14 0 -19.5 6t-5.5 14q0 5 2 11.5t2 11.5z" />
    <glyph glyph-name="Rcaron" unicode="&#x158;" horiz-adv-x="521" 
d="M227 650q42 0 87 -8t82.5 -27.5t62 -51t24.5 -78.5q0 -51 -17.5 -75t-39 -36t-39 -20t-17.5 -27t22 -34.5t48.5 -37.5t48.5 -55.5t22 -87.5q0 -28 -9 -53.5t-26.5 -45t-43 -31t-57.5 -11.5q-21 0 -39 7t-31 19t-20.5 27.5t-7.5 33.5q0 19 7 38.5t15 37t15 32t7 24.5
q0 44 -22 61.5t-52 17.5q-35 0 -51.5 -20t-16.5 -44q0 -18 6 -36.5t13.5 -38t14 -38.5t6.5 -37q0 -12 -5 -26t-17.5 -25.5t-33.5 -19.5t-52 -8q-15 0 -32 5t-30.5 15t-22.5 25t-9 35q0 19 6.5 42.5t14 51t14 59t6.5 67.5q0 46 -7 86t-16 73.5t-16 61.5t-7 51q0 19 7.5 37.5
t31 33t65.5 23t111 8.5zM297 469q0 22 -17.5 33t-40.5 11q-27 0 -40.5 -15t-13.5 -38q0 -32 15.5 -45.5t35.5 -13.5q26 0 43.5 18t17.5 50zM260 706q-11 0 -36.5 13.5t-52 34t-47 44.5t-20.5 46q0 16 13 28t30 12t34.5 -13.5t32.5 -29.5t28 -29.5t21 -13.5q7 0 17.5 13.5
t24.5 30t32 30t40 13.5q14 0 26.5 -10t12.5 -31t-19.5 -45.5t-45.5 -45t-52 -34t-39 -13.5z" />
    <glyph glyph-name="rcaron" unicode="&#x159;" horiz-adv-x="521" 
d="M227 650q42 0 87 -8t82.5 -27.5t62 -51t24.5 -78.5q0 -51 -17.5 -75t-39 -36t-39 -20t-17.5 -27t22 -34.5t48.5 -37.5t48.5 -55.5t22 -87.5q0 -28 -9 -53.5t-26.5 -45t-43 -31t-57.5 -11.5q-21 0 -39 7t-31 19t-20.5 27.5t-7.5 33.5q0 19 7 38.5t15 37t15 32t7 24.5
q0 44 -22 61.5t-52 17.5q-35 0 -51.5 -20t-16.5 -44q0 -18 6 -36.5t13.5 -38t14 -38.5t6.5 -37q0 -12 -5 -26t-17.5 -25.5t-33.5 -19.5t-52 -8q-15 0 -32 5t-30.5 15t-22.5 25t-9 35q0 19 6.5 42.5t14 51t14 59t6.5 67.5q0 46 -7 86t-16 73.5t-16 61.5t-7 51q0 19 7.5 37.5
t31 33t65.5 23t111 8.5zM297 469q0 22 -17.5 33t-40.5 11q-27 0 -40.5 -15t-13.5 -38q0 -32 15.5 -45.5t35.5 -13.5q26 0 43.5 18t17.5 50zM260 706q-11 0 -36.5 13.5t-52 34t-47 44.5t-20.5 46q0 16 13 28t30 12t34.5 -13.5t32.5 -29.5t28 -29.5t21 -13.5q7 0 17.5 13.5
t24.5 30t32 30t40 13.5q14 0 26.5 -10t12.5 -31t-19.5 -45.5t-45.5 -45t-52 -34t-39 -13.5z" />
    <glyph glyph-name="Sacute" unicode="&#x15a;" horiz-adv-x="456" 
d="M243 643q37 0 71.5 -7t61 -21t42 -36.5t15.5 -53.5q0 -17 -9.5 -28t-23.5 -11q-16 0 -23 10.5t-16.5 23.5t-27 23.5t-53.5 10.5q-17 0 -31.5 -10t-14.5 -29q0 -22 15.5 -36.5t39.5 -27.5t51 -27.5t51 -36.5t39.5 -54.5t15.5 -80.5q0 -67 -19.5 -113t-51.5 -74.5
t-72.5 -41.5t-82.5 -13q-50 0 -89.5 12.5t-66.5 35t-41 52t-14 64.5q0 12 3 24.5t9 23t14.5 17t19.5 6.5t17 -8.5t14.5 -18t24 -18t44.5 -8.5q22 0 36.5 13t14.5 36q0 25 -11.5 39.5t-28 25t-36.5 21t-36.5 28.5t-28 46.5t-11.5 75.5q0 34 12.5 64t36.5 52.5t59.5 36
t80.5 13.5zM307 890q23 -2 36 -18.5t13 -36.5t-13 -33q-8 -8 -29 -21.5t-46 -26.5t-50.5 -22.5t-41.5 -9.5q-8 0 -12.5 2t-4.5 13q0 12 8 36.5t35 51.5q10 10 23.5 21.5t28 21t28.5 16t25 6.5z" />
    <glyph glyph-name="sacute" unicode="&#x15b;" horiz-adv-x="456" 
d="M243 643q37 0 71.5 -7t61 -21t42 -36.5t15.5 -53.5q0 -17 -9.5 -28t-23.5 -11q-16 0 -23 10.5t-16.5 23.5t-27 23.5t-53.5 10.5q-17 0 -31.5 -10t-14.5 -29q0 -22 15.5 -36.5t39.5 -27.5t51 -27.5t51 -36.5t39.5 -54.5t15.5 -80.5q0 -67 -19.5 -113t-51.5 -74.5
t-72.5 -41.5t-82.5 -13q-50 0 -89.5 12.5t-66.5 35t-41 52t-14 64.5q0 12 3 24.5t9 23t14.5 17t19.5 6.5t17 -8.5t14.5 -18t24 -18t44.5 -8.5q22 0 36.5 13t14.5 36q0 25 -11.5 39.5t-28 25t-36.5 21t-36.5 28.5t-28 46.5t-11.5 75.5q0 34 12.5 64t36.5 52.5t59.5 36
t80.5 13.5zM307 890q23 -2 36 -18.5t13 -36.5t-13 -33q-8 -8 -29 -21.5t-46 -26.5t-50.5 -22.5t-41.5 -9.5q-8 0 -12.5 2t-4.5 13q0 12 8 36.5t35 51.5q10 10 23.5 21.5t28 21t28.5 16t25 6.5z" />
    <glyph glyph-name="Scircumflex" unicode="&#x15c;" horiz-adv-x="456" 
d="M243 643q37 0 71.5 -7t61 -21t42 -36.5t15.5 -53.5q0 -17 -9.5 -28t-23.5 -11q-16 0 -23 10.5t-16.5 23.5t-27 23.5t-53.5 10.5q-17 0 -31.5 -10t-14.5 -29q0 -22 15.5 -36.5t39.5 -27.5t51 -27.5t51 -36.5t39.5 -54.5t15.5 -80.5q0 -67 -19.5 -113t-51.5 -74.5
t-72.5 -41.5t-82.5 -13q-50 0 -89.5 12.5t-66.5 35t-41 52t-14 64.5q0 12 3 24.5t9 23t14.5 17t19.5 6.5t17 -8.5t14.5 -18t24 -18t44.5 -8.5q22 0 36.5 13t14.5 36q0 25 -11.5 39.5t-28 25t-36.5 21t-36.5 28.5t-28 46.5t-11.5 75.5q0 34 12.5 64t36.5 52.5t59.5 36
t80.5 13.5zM227 885q11 -1 37 -14.5t52.5 -34t47 -44.5t20.5 -46q0 -15 -13.5 -27t-30.5 -12t-34 13t-32 29t-27.5 29t-21.5 13t-19.5 -13.5t-24 -29.5t-31.5 -29.5t-41 -13.5q-14 0 -25.5 10t-11.5 30q0 21 19 45.5t45 45.5t51.5 35t39.5 14z" />
    <glyph glyph-name="scircumflex" unicode="&#x15d;" horiz-adv-x="456" 
d="M243 643q37 0 71.5 -7t61 -21t42 -36.5t15.5 -53.5q0 -17 -9.5 -28t-23.5 -11q-16 0 -23 10.5t-16.5 23.5t-27 23.5t-53.5 10.5q-17 0 -31.5 -10t-14.5 -29q0 -22 15.5 -36.5t39.5 -27.5t51 -27.5t51 -36.5t39.5 -54.5t15.5 -80.5q0 -67 -19.5 -113t-51.5 -74.5
t-72.5 -41.5t-82.5 -13q-50 0 -89.5 12.5t-66.5 35t-41 52t-14 64.5q0 12 3 24.5t9 23t14.5 17t19.5 6.5t17 -8.5t14.5 -18t24 -18t44.5 -8.5q22 0 36.5 13t14.5 36q0 25 -11.5 39.5t-28 25t-36.5 21t-36.5 28.5t-28 46.5t-11.5 75.5q0 34 12.5 64t36.5 52.5t59.5 36
t80.5 13.5zM227 885q11 -1 37 -14.5t52.5 -34t47 -44.5t20.5 -46q0 -15 -13.5 -27t-30.5 -12t-34 13t-32 29t-27.5 29t-21.5 13t-19.5 -13.5t-24 -29.5t-31.5 -29.5t-41 -13.5q-14 0 -25.5 10t-11.5 30q0 21 19 45.5t45 45.5t51.5 35t39.5 14z" />
    <glyph glyph-name="Scedilla" unicode="&#x15e;" horiz-adv-x="456" 
d="M243 643q37 0 71.5 -7t61 -21t42 -36.5t15.5 -53.5q0 -17 -9.5 -28t-23.5 -11q-16 0 -23 10.5t-16.5 23.5t-27 23.5t-53.5 10.5q-17 0 -31.5 -10t-14.5 -29q0 -22 15.5 -36.5t39.5 -27.5t51 -27.5t51 -36.5t39.5 -54.5t15.5 -80.5q0 -81 -26.5 -130t-68.5 -76
q-20 -13 -29 -30.5t-14 -41.5q-6 -26 -19.5 -53.5t-34 -49.5t-48 -36t-60.5 -14q-23 0 -40.5 13.5t-17.5 38.5q0 16 10 27t23.5 20t28 17t23.5 18q20 22 20 35q0 18 -34 25q-72 14 -111 57.5t-39 101.5q0 12 3 24.5t9 23t14.5 17t19.5 6.5t17 -8.5t14.5 -18t24 -18
t44.5 -8.5q22 0 36.5 13t14.5 36q0 25 -11.5 39.5t-28 25t-36.5 21t-36.5 28.5t-28 46.5t-11.5 75.5q0 34 12.5 64t36.5 52.5t59.5 36t80.5 13.5z" />
    <glyph glyph-name="scedilla" unicode="&#x15f;" horiz-adv-x="456" 
d="M243 643q37 0 71.5 -7t61 -21t42 -36.5t15.5 -53.5q0 -17 -9.5 -28t-23.5 -11q-16 0 -23 10.5t-16.5 23.5t-27 23.5t-53.5 10.5q-17 0 -31.5 -10t-14.5 -29q0 -22 15.5 -36.5t39.5 -27.5t51 -27.5t51 -36.5t39.5 -54.5t15.5 -80.5q0 -81 -26.5 -130t-68.5 -76
q-20 -13 -29 -30.5t-14 -41.5q-6 -26 -19.5 -53.5t-34 -49.5t-48 -36t-60.5 -14q-23 0 -40.5 13.5t-17.5 38.5q0 16 10 27t23.5 20t28 17t23.5 18q20 22 20 35q0 18 -34 25q-72 14 -111 57.5t-39 101.5q0 12 3 24.5t9 23t14.5 17t19.5 6.5t17 -8.5t14.5 -18t24 -18
t44.5 -8.5q22 0 36.5 13t14.5 36q0 25 -11.5 39.5t-28 25t-36.5 21t-36.5 28.5t-28 46.5t-11.5 75.5q0 34 12.5 64t36.5 52.5t59.5 36t80.5 13.5z" />
    <glyph glyph-name="Scaron" unicode="&#x160;" horiz-adv-x="456" 
d="M243 643q37 0 71.5 -7t61 -21t42 -36.5t15.5 -53.5q0 -17 -9.5 -28t-23.5 -11q-16 0 -23 10.5t-16.5 23.5t-27 23.5t-53.5 10.5q-17 0 -31.5 -10t-14.5 -29q0 -22 15.5 -36.5t39.5 -27.5t51 -27.5t51 -36.5t39.5 -54.5t15.5 -80.5q0 -67 -19.5 -113t-51.5 -74.5
t-72.5 -41.5t-82.5 -13q-50 0 -89.5 12.5t-66.5 35t-41 52t-14 64.5q0 12 3 24.5t9 23t14.5 17t19.5 6.5t17 -8.5t14.5 -18t24 -18t44.5 -8.5q22 0 36.5 13t14.5 36q0 25 -11.5 39.5t-28 25t-36.5 21t-36.5 28.5t-28 46.5t-11.5 75.5q0 34 12.5 64t36.5 52.5t59.5 36
t80.5 13.5zM228 706q-11 0 -36.5 13.5t-52 34t-47 44.5t-20.5 46q0 16 13 28t30 12t34.5 -13.5t32.5 -29.5t28 -29.5t21 -13.5q7 0 17.5 13.5t24.5 30t32 30t40 13.5q14 0 26.5 -10t12.5 -31t-19.5 -45.5t-45.5 -45t-52 -34t-39 -13.5z" />
    <glyph glyph-name="scaron" unicode="&#x161;" horiz-adv-x="456" 
d="M243 643q37 0 71.5 -7t61 -21t42 -36.5t15.5 -53.5q0 -17 -9.5 -28t-23.5 -11q-16 0 -23 10.5t-16.5 23.5t-27 23.5t-53.5 10.5q-17 0 -31.5 -10t-14.5 -29q0 -22 15.5 -36.5t39.5 -27.5t51 -27.5t51 -36.5t39.5 -54.5t15.5 -80.5q0 -67 -19.5 -113t-51.5 -74.5
t-72.5 -41.5t-82.5 -13q-50 0 -89.5 12.5t-66.5 35t-41 52t-14 64.5q0 12 3 24.5t9 23t14.5 17t19.5 6.5t17 -8.5t14.5 -18t24 -18t44.5 -8.5q22 0 36.5 13t14.5 36q0 25 -11.5 39.5t-28 25t-36.5 21t-36.5 28.5t-28 46.5t-11.5 75.5q0 34 12.5 64t36.5 52.5t59.5 36
t80.5 13.5zM228 706q-11 0 -36.5 13.5t-52 34t-47 44.5t-20.5 46q0 16 13 28t30 12t34.5 -13.5t32.5 -29.5t28 -29.5t21 -13.5q7 0 17.5 13.5t24.5 30t32 30t40 13.5q14 0 26.5 -10t12.5 -31t-19.5 -45.5t-45.5 -45t-52 -34t-39 -13.5z" />
    <glyph glyph-name="uni0162" unicode="&#x162;" horiz-adv-x="384" 
d="M229 631q18 -2 25.5 -13.5t10.5 -28t3 -34.5t2 -33.5t8.5 -26t22.5 -10.5q11 0 23.5 2.5t24.5 2.5t20 -5.5t8 -21.5q0 -14 -11 -23t-28 -17.5t-36 -18.5t-36 -26.5t-28 -41.5t-11 -63t13.5 -54t29.5 -16q10 0 19 5t18 10.5t17 10.5t16 5q16 0 23.5 -19.5t7.5 -37.5
q0 -41 -14.5 -68.5t-39 -44t-56.5 -23.5t-66 -7q-52 0 -87.5 9t-57 25t-31 37.5t-9.5 47.5q0 30 9.5 63t21.5 63.5t21.5 57.5t9.5 45q0 17 -10 22t-22.5 7.5t-22.5 7.5t-10 23q0 12 8.5 17t22 8.5t31.5 8t36.5 16.5t36 34t31.5 60q6 17 19 31t37 14zM157 -174
q0 11 -5.5 19.5t-11.5 17.5t-11.5 20.5t-5.5 28.5q0 13 16 27.5t48 14.5q18 0 31.5 -6.5t23 -16.5t14.5 -23t5 -26q0 -17 -7 -34.5t-18.5 -32t-26.5 -23.5t-31 -9q-14 0 -19.5 6t-5.5 14q0 5 2 11.5t2 11.5z" />
    <glyph glyph-name="uni0163" unicode="&#x163;" horiz-adv-x="384" 
d="M229 631q18 -2 25.5 -13.5t10.5 -28t3 -34.5t2 -33.5t8.5 -26t22.5 -10.5q11 0 23.5 2.5t24.5 2.5t20 -5.5t8 -21.5q0 -14 -11 -23t-28 -17.5t-36 -18.5t-36 -26.5t-28 -41.5t-11 -63t13.5 -54t29.5 -16q10 0 19 5t18 10.5t17 10.5t16 5q16 0 23.5 -19.5t7.5 -37.5
q0 -41 -14.5 -68.5t-39 -44t-56.5 -23.5t-66 -7q-52 0 -87.5 9t-57 25t-31 37.5t-9.5 47.5q0 30 9.5 63t21.5 63.5t21.5 57.5t9.5 45q0 17 -10 22t-22.5 7.5t-22.5 7.5t-10 23q0 12 8.5 17t22 8.5t31.5 8t36.5 16.5t36 34t31.5 60q6 17 19 31t37 14zM157 -174
q0 11 -5.5 19.5t-11.5 17.5t-11.5 20.5t-5.5 28.5q0 13 16 27.5t48 14.5q18 0 31.5 -6.5t23 -16.5t14.5 -23t5 -26q0 -17 -7 -34.5t-18.5 -32t-26.5 -23.5t-31 -9q-14 0 -19.5 6t-5.5 14q0 5 2 11.5t2 11.5z" />
    <glyph glyph-name="Tcaron" unicode="&#x164;" horiz-adv-x="384" 
d="M229 631q18 -2 25.5 -13.5t10.5 -28t3 -34.5t2 -33.5t8.5 -26t22.5 -10.5q11 0 23.5 2.5t24.5 2.5t20 -5.5t8 -21.5q0 -14 -11 -23t-28 -17.5t-36 -18.5t-36 -26.5t-28 -41.5t-11 -63t13.5 -54t29.5 -16q10 0 19 5t18 10.5t17 10.5t16 5q16 0 23.5 -19.5t7.5 -37.5
q0 -41 -14.5 -68.5t-39 -44t-56.5 -23.5t-66 -7q-52 0 -87.5 9t-57 25t-31 37.5t-9.5 47.5q0 30 9.5 63t21.5 63.5t21.5 57.5t9.5 45q0 17 -10 22t-22.5 7.5t-22.5 7.5t-10 23q0 12 8.5 17t22 8.5t31.5 8t36.5 16.5t36 34t31.5 60q6 17 19 31t37 14zM192 706
q-11 0 -36.5 13.5t-52 34t-47 44.5t-20.5 46q0 16 13 28t30 12t34.5 -13.5t32.5 -29.5t28 -29.5t21 -13.5q7 0 17.5 13.5t24.5 30t32 30t40 13.5q14 0 26.5 -10t12.5 -31t-19.5 -45.5t-45.5 -45t-52 -34t-39 -13.5z" />
    <glyph glyph-name="tcaron" unicode="&#x165;" horiz-adv-x="469" 
d="M229 631q18 -2 25.5 -13.5t10.5 -28t3 -34.5t2 -33.5t8.5 -26t22.5 -10.5q11 0 23.5 2.5t24.5 2.5t20 -5.5t8 -21.5q0 -14 -11 -23t-28 -17.5t-36 -18.5t-36 -26.5t-28 -41.5t-11 -63t13.5 -54t29.5 -16q10 0 19 5t18 10.5t17 10.5t16 5q16 0 23.5 -19.5t7.5 -37.5
q0 -41 -14.5 -68.5t-39 -44t-56.5 -23.5t-66 -7q-52 0 -87.5 9t-57 25t-31 37.5t-9.5 47.5q0 30 9.5 63t21.5 63.5t21.5 57.5t9.5 45q0 17 -10 22t-22.5 7.5t-22.5 7.5t-10 23q0 12 8.5 17t22 8.5t31.5 8t36.5 16.5t36 34t31.5 60q6 17 19 31t37 14zM330 592q0 19 -6.5 33.5
t-15 30.5t-15 35.5t-6.5 48.5q0 11 5.5 23.5t16 23t26 17.5t35.5 7q22 0 40 -11t30 -28.5t18.5 -40t6.5 -45.5q0 -29 -9 -58.5t-24 -54t-34.5 -40t-40.5 -15.5q-16 0 -23.5 10.5t-7.5 24.5q0 10 2 20.5t2 18.5z" />
    <glyph glyph-name="Tbar" unicode="&#x166;" horiz-adv-x="384" 
d="M293 352q33 0 45.5 -9t12.5 -23q0 -15 -12 -26t-30 -11q-19 0 -28 2.5t-18 2.5q-15 0 -25 -10.5t-10 -24.5t4.5 -23.5t11 -15.5t14 -8.5t12.5 -2.5q10 0 19 5t18 10.5t17 10.5t16 5q16 0 23.5 -19.5t7.5 -37.5q0 -41 -14.5 -68.5t-39 -44t-56.5 -23.5t-66 -7
q-52 0 -87.5 9t-57 25t-31 37.5t-9.5 47.5q0 20 4 40t11 41q2 10 2 18q0 11 -4 21.5t-16 14.5t-20.5 11.5t-8.5 18.5q0 18 14.5 23.5t32.5 8.5t32.5 8.5t14.5 23.5q0 17 -10 22t-22.5 7.5t-22.5 7.5t-10 23q0 12 8.5 17t22 8.5t31.5 8t36.5 16.5t36 34t31.5 60q6 17 19 31
t37 14q18 -2 25.5 -13.5t10.5 -28t3 -34.5t2 -33.5t8.5 -26t22.5 -10.5q11 0 23.5 2.5t24.5 2.5t20 -5.5t8 -21.5q0 -13 -9.5 -22t-24.5 -16.5l-33 -16.5t-34 -22q-6 -5 -10.5 -12t-4.5 -12q0 -8 7 -9t25 -1z" />
    <glyph glyph-name="tbar" unicode="&#x167;" horiz-adv-x="384" 
d="M293 352q33 0 45.5 -9t12.5 -23q0 -15 -12 -26t-30 -11q-19 0 -28 2.5t-18 2.5q-15 0 -25 -10.5t-10 -24.5t4.5 -23.5t11 -15.5t14 -8.5t12.5 -2.5q10 0 19 5t18 10.5t17 10.5t16 5q16 0 23.5 -19.5t7.5 -37.5q0 -41 -14.5 -68.5t-39 -44t-56.5 -23.5t-66 -7
q-52 0 -87.5 9t-57 25t-31 37.5t-9.5 47.5q0 20 4 40t11 41q2 10 2 18q0 11 -4 21.5t-16 14.5t-20.5 11.5t-8.5 18.5q0 18 14.5 23.5t32.5 8.5t32.5 8.5t14.5 23.5q0 17 -10 22t-22.5 7.5t-22.5 7.5t-10 23q0 12 8.5 17t22 8.5t31.5 8t36.5 16.5t36 34t31.5 60q6 17 19 31
t37 14q18 -2 25.5 -13.5t10.5 -28t3 -34.5t2 -33.5t8.5 -26t22.5 -10.5q11 0 23.5 2.5t24.5 2.5t20 -5.5t8 -21.5q0 -13 -9.5 -22t-24.5 -16.5l-33 -16.5t-34 -22q-6 -5 -10.5 -12t-4.5 -12q0 -8 7 -9t25 -1z" />
    <glyph glyph-name="Utilde" unicode="&#x168;" 
d="M164 666q54 0 79 -20t25 -74t-11 -97.5t-24.5 -80.5t-24.5 -68.5t-11 -62.5q0 -140 107 -140q57 0 78 37t21 104q0 23 -10.5 57t-23.5 72.5t-23.5 79.5t-10.5 77q0 22 6 43t18.5 36.5t33 25t50.5 9.5q44 0 72 -24.5t44.5 -63.5t22.5 -88t6 -98q0 -84 -5.5 -157
t-33.5 -128t-86.5 -86.5t-164.5 -31.5q-89 0 -145 32.5t-87.5 86t-43 122.5t-11.5 143q0 43 6 94.5t22.5 96t46.5 74.5t78 30zM222 850q22 0 40 -9.5t33 -21.5t28 -21.5t25 -9.5q13 0 21.5 10.5t16 23t15.5 23t19 10.5q19 0 30 -16.5t11 -33.5q0 -24 -9.5 -40.5t-22 -27
t-26.5 -15t-23 -4.5q-20 0 -38 9t-34.5 20.5t-32 20.5t-29.5 9q-15 0 -24 -10t-15.5 -21.5t-12.5 -21.5t-14 -10q-17 0 -29 13t-12 32q0 20 8.5 37t21 29t27 18.5t26.5 6.5z" />
    <glyph glyph-name="utilde" unicode="&#x169;" 
d="M164 666q54 0 79 -20t25 -74t-11 -97.5t-24.5 -80.5t-24.5 -68.5t-11 -62.5q0 -140 107 -140q57 0 78 37t21 104q0 23 -10.5 57t-23.5 72.5t-23.5 79.5t-10.5 77q0 22 6 43t18.5 36.5t33 25t50.5 9.5q44 0 72 -24.5t44.5 -63.5t22.5 -88t6 -98q0 -84 -5.5 -157
t-33.5 -128t-86.5 -86.5t-164.5 -31.5q-89 0 -145 32.5t-87.5 86t-43 122.5t-11.5 143q0 43 6 94.5t22.5 96t46.5 74.5t78 30zM222 850q22 0 40 -9.5t33 -21.5t28 -21.5t25 -9.5q13 0 21.5 10.5t16 23t15.5 23t19 10.5q19 0 30 -16.5t11 -33.5q0 -24 -9.5 -40.5t-22 -27
t-26.5 -15t-23 -4.5q-20 0 -38 9t-34.5 20.5t-32 20.5t-29.5 9q-15 0 -24 -10t-15.5 -21.5t-12.5 -21.5t-14 -10q-17 0 -29 13t-12 32q0 20 8.5 37t21 29t27 18.5t26.5 6.5z" />
    <glyph glyph-name="Umacron" unicode="&#x16a;" 
d="M164 666q54 0 79 -20t25 -74t-11 -97.5t-24.5 -80.5t-24.5 -68.5t-11 -62.5q0 -140 107 -140q57 0 78 37t21 104q0 23 -10.5 57t-23.5 72.5t-23.5 79.5t-10.5 77q0 22 6 43t18.5 36.5t33 25t50.5 9.5q44 0 72 -24.5t44.5 -63.5t22.5 -88t6 -98q0 -84 -5.5 -157
t-33.5 -128t-86.5 -86.5t-164.5 -31.5q-89 0 -145 32.5t-87.5 86t-43 122.5t-11.5 143q0 43 6 94.5t22.5 96t46.5 74.5t78 30zM410 848q30 0 46 -24.5t16 -51.5q0 -31 -17.5 -48.5t-43.5 -17.5t-56 10t-59 10q-12 0 -25 -3.5t-26.5 -7.5t-27.5 -7.5t-27 -3.5q-10 0 -21 3.5
t-20.5 12t-15.5 22.5t-6 35q0 29 20 50t50 21q23 0 47 -8t44 -8q22 0 37.5 2.5t28.5 5.5t26 5.5t30 2.5z" />
    <glyph glyph-name="umacron" unicode="&#x16b;" 
d="M164 666q54 0 79 -20t25 -74t-11 -97.5t-24.5 -80.5t-24.5 -68.5t-11 -62.5q0 -140 107 -140q57 0 78 37t21 104q0 23 -10.5 57t-23.5 72.5t-23.5 79.5t-10.5 77q0 22 6 43t18.5 36.5t33 25t50.5 9.5q44 0 72 -24.5t44.5 -63.5t22.5 -88t6 -98q0 -84 -5.5 -157
t-33.5 -128t-86.5 -86.5t-164.5 -31.5q-89 0 -145 32.5t-87.5 86t-43 122.5t-11.5 143q0 43 6 94.5t22.5 96t46.5 74.5t78 30zM410 848q30 0 46 -24.5t16 -51.5q0 -31 -17.5 -48.5t-43.5 -17.5t-56 10t-59 10q-12 0 -25 -3.5t-26.5 -7.5t-27.5 -7.5t-27 -3.5q-10 0 -21 3.5
t-20.5 12t-15.5 22.5t-6 35q0 29 20 50t50 21q23 0 47 -8t44 -8q22 0 37.5 2.5t28.5 5.5t26 5.5t30 2.5z" />
    <glyph glyph-name="Ubreve" unicode="&#x16c;" 
d="M164 666q54 0 79 -20t25 -74t-11 -97.5t-24.5 -80.5t-24.5 -68.5t-11 -62.5q0 -140 107 -140q57 0 78 37t21 104q0 23 -10.5 57t-23.5 72.5t-23.5 79.5t-10.5 77q0 22 6 43t18.5 36.5t33 25t50.5 9.5q44 0 72 -24.5t44.5 -63.5t22.5 -88t6 -98q0 -84 -5.5 -157
t-33.5 -128t-86.5 -86.5t-164.5 -31.5q-89 0 -145 32.5t-87.5 86t-43 122.5t-11.5 143q0 43 6 94.5t22.5 96t46.5 74.5t78 30zM304 716q-30 0 -62 12t-58.5 30.5t-43 41t-16.5 44.5q0 16 13 28t30 12t28.5 -13.5t25 -29.5t32 -29.5t50.5 -13.5q31 0 48 13.5t28.5 30t23.5 30
t34 13.5q14 0 26.5 -10t12.5 -31t-15.5 -44t-40 -41.5t-55.5 -30.5t-61 -12z" />
    <glyph glyph-name="ubreve" unicode="&#x16d;" 
d="M164 666q54 0 79 -20t25 -74t-11 -97.5t-24.5 -80.5t-24.5 -68.5t-11 -62.5q0 -140 107 -140q57 0 78 37t21 104q0 23 -10.5 57t-23.5 72.5t-23.5 79.5t-10.5 77q0 22 6 43t18.5 36.5t33 25t50.5 9.5q44 0 72 -24.5t44.5 -63.5t22.5 -88t6 -98q0 -84 -5.5 -157
t-33.5 -128t-86.5 -86.5t-164.5 -31.5q-89 0 -145 32.5t-87.5 86t-43 122.5t-11.5 143q0 43 6 94.5t22.5 96t46.5 74.5t78 30zM304 716q-30 0 -62 12t-58.5 30.5t-43 41t-16.5 44.5q0 16 13 28t30 12t28.5 -13.5t25 -29.5t32 -29.5t50.5 -13.5q31 0 48 13.5t28.5 30t23.5 30
t34 13.5q14 0 26.5 -10t12.5 -31t-15.5 -44t-40 -41.5t-55.5 -30.5t-61 -12z" />
    <glyph glyph-name="Uring" unicode="&#x16e;" 
d="M164 666q54 0 79 -20t25 -74t-11 -97.5t-24.5 -80.5t-24.5 -68.5t-11 -62.5q0 -140 107 -140q57 0 78 37t21 104q0 23 -10.5 57t-23.5 72.5t-23.5 79.5t-10.5 77q0 22 6 43t18.5 36.5t33 25t50.5 9.5q44 0 72 -24.5t44.5 -63.5t22.5 -88t6 -98q0 -84 -5.5 -157
t-33.5 -128t-86.5 -86.5t-164.5 -31.5q-89 0 -145 32.5t-87.5 86t-43 122.5t-11.5 143q0 43 6 94.5t22.5 96t46.5 74.5t78 30zM302 878q51 0 76.5 -29.5t25.5 -69.5q0 -18 -7 -37t-20 -34.5t-33 -26t-45 -10.5q-21 0 -39.5 9.5t-33 25.5t-22.5 36.5t-8 42.5t9 39.5
t23.5 29.5t33.5 18t40 6zM297 825q-19 -2 -27.5 -12t-8.5 -33q0 -16 8 -31t27 -15q20 0 29.5 15t9.5 32t-9 29.5t-29 14.5z" />
    <glyph glyph-name="uring" unicode="&#x16f;" 
d="M164 666q54 0 79 -20t25 -74t-11 -97.5t-24.5 -80.5t-24.5 -68.5t-11 -62.5q0 -140 107 -140q57 0 78 37t21 104q0 23 -10.5 57t-23.5 72.5t-23.5 79.5t-10.5 77q0 22 6 43t18.5 36.5t33 25t50.5 9.5q44 0 72 -24.5t44.5 -63.5t22.5 -88t6 -98q0 -84 -5.5 -157
t-33.5 -128t-86.5 -86.5t-164.5 -31.5q-89 0 -145 32.5t-87.5 86t-43 122.5t-11.5 143q0 43 6 94.5t22.5 96t46.5 74.5t78 30zM302 878q51 0 76.5 -29.5t25.5 -69.5q0 -18 -7 -37t-20 -34.5t-33 -26t-45 -10.5q-21 0 -39.5 9.5t-33 25.5t-22.5 36.5t-8 42.5t9 39.5
t23.5 29.5t33.5 18t40 6zM297 825q-19 -2 -27.5 -12t-8.5 -33q0 -16 8 -31t27 -15q20 0 29.5 15t9.5 32t-9 29.5t-29 14.5z" />
    <glyph glyph-name="Uhungarumlaut" unicode="&#x170;" 
d="M164 666q54 0 79 -20t25 -74t-11 -97.5t-24.5 -80.5t-24.5 -68.5t-11 -62.5q0 -140 107 -140q57 0 78 37t21 104q0 23 -10.5 57t-23.5 72.5t-23.5 79.5t-10.5 77q0 22 6 43t18.5 36.5t33 25t50.5 9.5q44 0 72 -24.5t44.5 -63.5t22.5 -88t6 -98q0 -84 -5.5 -157
t-33.5 -128t-86.5 -86.5t-164.5 -31.5q-89 0 -145 32.5t-87.5 86t-43 122.5t-11.5 143q0 43 6 94.5t22.5 96t46.5 74.5t78 30zM510 884q8 4 17 4q8 0 13 -6t5 -15q0 -14 -15 -32q-8 -10 -30.5 -31.5t-48 -43.5t-48 -39t-30.5 -17q-4 0 -4 4q1 6 9 28.5t36 56.5
q10 12 22.5 26t25.5 27t25.5 23t22.5 15zM365 884q7 4 16 4q10 0 16 -8t6 -20t-9 -25q-6 -10 -25 -31.5t-40.5 -43.5t-41.5 -39t-27 -17q-5 0 -5 8q0 9 5 30t25 51q8 12 18.5 26t21 26.5t21 23t19.5 15.5z" />
    <glyph glyph-name="uhungarumlaut" unicode="&#x171;" 
d="M164 666q54 0 79 -20t25 -74t-11 -97.5t-24.5 -80.5t-24.5 -68.5t-11 -62.5q0 -140 107 -140q57 0 78 37t21 104q0 23 -10.5 57t-23.5 72.5t-23.5 79.5t-10.5 77q0 22 6 43t18.5 36.5t33 25t50.5 9.5q44 0 72 -24.5t44.5 -63.5t22.5 -88t6 -98q0 -84 -5.5 -157
t-33.5 -128t-86.5 -86.5t-164.5 -31.5q-89 0 -145 32.5t-87.5 86t-43 122.5t-11.5 143q0 43 6 94.5t22.5 96t46.5 74.5t78 30zM510 884q8 4 17 4q8 0 13 -6t5 -15q0 -14 -15 -32q-8 -10 -30.5 -31.5t-48 -43.5t-48 -39t-30.5 -17q-4 0 -4 4q1 6 9 28.5t36 56.5
q10 12 22.5 26t25.5 27t25.5 23t22.5 15zM365 884q7 4 16 4q10 0 16 -8t6 -20t-9 -25q-6 -10 -25 -31.5t-40.5 -43.5t-41.5 -39t-27 -17q-5 0 -5 8q0 9 5 30t25 51q8 12 18.5 26t21 26.5t21 23t19.5 15.5z" />
    <glyph glyph-name="Uogonek" unicode="&#x172;" 
d="M331 -201q-10 0 -22.5 1t-23 5t-18 12.5t-7.5 22.5q0 20 16 52t42 61q13 14 13 22q0 12 -33 12q-89 0 -145 32.5t-87.5 86t-43 122.5t-11.5 143q0 43 6 94.5t22.5 96t46.5 74.5t78 30q54 0 79 -20t25 -74t-11 -97.5t-24.5 -80.5t-24.5 -68.5t-11 -62.5q0 -140 107 -140
q57 0 78 37t21 104q0 23 -10.5 57t-23.5 72.5t-23.5 79.5t-10.5 77q0 22 6 43t18.5 36.5t33 25t50.5 9.5q44 0 72 -24.5t44.5 -63.5t22.5 -88t6 -98q0 -62 -3 -116t-15 -100.5t-35 -84t-63 -65.5q-15 -11 -30 -24t-26.5 -27.5t-19 -29.5t-7.5 -28q0 -11 8.5 -20t27.5 -9
q10 0 22 3.5t23 7t20 7t14 3.5q6 0 9 -4.5t3 -8.5q0 -9 -5.5 -18t-13.5 -17q-18 -18 -40 -29.5t-44 -18.5t-43 -9.5t-39 -2.5z" />
    <glyph glyph-name="uogonek" unicode="&#x173;" 
d="M331 -201q-10 0 -22.5 1t-23 5t-18 12.5t-7.5 22.5q0 20 16 52t42 61q13 14 13 22q0 12 -33 12q-89 0 -145 32.5t-87.5 86t-43 122.5t-11.5 143q0 43 6 94.5t22.5 96t46.5 74.5t78 30q54 0 79 -20t25 -74t-11 -97.5t-24.5 -80.5t-24.5 -68.5t-11 -62.5q0 -140 107 -140
q57 0 78 37t21 104q0 23 -10.5 57t-23.5 72.5t-23.5 79.5t-10.5 77q0 22 6 43t18.5 36.5t33 25t50.5 9.5q44 0 72 -24.5t44.5 -63.5t22.5 -88t6 -98q0 -62 -3 -116t-15 -100.5t-35 -84t-63 -65.5q-15 -11 -30 -24t-26.5 -27.5t-19 -29.5t-7.5 -28q0 -11 8.5 -20t27.5 -9
q10 0 22 3.5t23 7t20 7t14 3.5q6 0 9 -4.5t3 -8.5q0 -9 -5.5 -18t-13.5 -17q-18 -18 -40 -29.5t-44 -18.5t-43 -9.5t-39 -2.5z" />
    <glyph glyph-name="Wcircumflex" unicode="&#x174;" horiz-adv-x="729" 
d="M614 586q53 0 80 -34t27 -122q0 -45 -8 -99t-23.5 -108.5t-37.5 -105.5t-51 -90t-64.5 -62.5t-76.5 -23.5q-25 0 -39.5 12.5t-22.5 32t-11.5 44.5t-6.5 50q-1 7 -4 21t-7.5 28t-10.5 24t-12 10q-12 0 -21.5 -13.5t-19 -33t-20.5 -43t-25.5 -43t-34.5 -33t-47 -13.5
q-48 0 -80 44.5t-51.5 115.5t-27.5 160t-8 179q0 35 7.5 71t25 65t45 47t66.5 18q22 0 42 -8.5t34.5 -23t23 -34.5t8.5 -44q0 -38 -16 -63t-35 -48.5t-35 -52.5t-16 -74q0 -29 4.5 -47.5t11.5 -29t16 -14t17 -3.5q29 0 43.5 15t22 37t12 48.5t14 48.5t28.5 37t55 15
q31 0 51.5 -7t32 -20t16 -30.5t4.5 -38.5q0 -36 -7 -74t-7 -65q0 -18 5 -28t20 -10q18 0 30.5 12t20 30t11 38t3.5 36q0 25 -4 51.5t-8.5 53t-8 52t-3.5 48.5q0 38 17 66.5t56 28.5zM363 885q11 -1 37 -14.5t52.5 -34t47 -44.5t20.5 -46q0 -15 -13.5 -27t-30.5 -12t-34 13
t-32 29t-27.5 29t-21.5 13t-19.5 -13.5t-24 -29.5t-31.5 -29.5t-41 -13.5q-14 0 -25.5 10t-11.5 30q0 21 19 45.5t45 45.5t51.5 35t39.5 14z" />
    </font>
</defs>
</svg>
