<?xml version="1.0" standalone="no"?>
<!DOCTYPE svg PUBLIC "-//W3C//DTD SVG 1.1//EN" "http://www.w3.org/Graphics/SVG/1.1/DTD/svg11.dtd" >
<svg>
<metadata>
Created by FontForge 20120731 at Thu Nov 26 18:57:05 2020
 By www
(C) 2000-2001 Michael Hagemann www.FontMesa.com
</metadata>
<defs>
<font id="Timepiece" horiz-adv-x="407" >
  <font-face 
    font-family="Timepiece"
    font-weight="5"
    font-stretch="normal"
    units-per-em="1010"
    panose-1="0 0 0 0 0 0 0 0 0 0"
    ascent="788"
    descent="-222"
    x-height="447"
    cap-height="579"
    bbox="-0.0952381 -332.02 4212 811"
    underline-thickness="20"
    underline-position="-240"
    unicode-range="U+0020-2122"
  />
<missing-glyph horiz-adv-x="505" 
d="M63 0v788h379v-788h-379zM126 63h253v662h-253v-662z" />
    <glyph glyph-name=".notdef" horiz-adv-x="505" 
d="M63 0v788h379v-788h-379zM126 63h253v662h-253v-662z" />
    <glyph glyph-name=".null" horiz-adv-x="0" 
 />
    <glyph glyph-name="nonmarkingreturn" horiz-adv-x="195" 
 />
    <glyph glyph-name="space" unicode=" " horiz-adv-x="195" 
 />
    <glyph glyph-name="exclam" unicode="!" horiz-adv-x="524" 
d="M447 373l-198 -366l-195 367q-20 39 -20 73q0 58 56 98q70 50 160 48q97 -1 163 -49q54 -39 54 -99q0 -35 -20 -72zM335 -82q0 -22 -25 -38t-60 -16t-60 16t-25 38t25 37.5t60 15.5t60 -15.5t25 -37.5z" />
    <glyph glyph-name="quotedbl" unicode="&#x22;" horiz-adv-x="359" 
d="M323 597l-59 -221l-53 241q-2 8 -2 16q0 30 22.5 46t48.5 11q48 -8 48 -63q0 -14 -5 -30zM175 598l-59 -221l-53 241q-2 8 -2 16q0 30 24 46q21 16 47 11q48 -8 48 -62q0 -15 -5 -31z" />
    <glyph glyph-name="numbersign" unicode="#" horiz-adv-x="729" 
d="M681 450q0 -13 -9.5 -23t-22.5 -10h-111l-48 -98h64q38 0 37 -35q-1 -30 -33 -30h-101l-50 -101q-9 -19 -28 -19q-7 0 -14 3q-19 7 -19 25q0 9 5 19l38 73h-165l-49 -99q-9 -19 -28 -19q-7 0 -14 3q-19 7 -19 25q0 9 5 19l37 71h-79q-31 0 -31 34q0 13 9 22t22 9h113
l50 98h-73q-30 0 -30 35q0 12 9 21t21 9h106l52 101q11 22 37 11q16 -7 16 -23q0 -6 -3 -13l-38 -76h169l50 99q11 22 37 11q17 -7 17 -24q0 -6 -3 -12l-36 -74h74q36 0 36 -32zM472 417h-167l-49 -98h165z" />
    <glyph glyph-name="dollar" unicode="$" horiz-adv-x="648" 
d="M516 119q0 -88 -79 -151q-53 -42 -104 -54v-95h-86v86q-62 0 -134 35t-111 84l136 138q-11 13 -51 54q-72 71 -72 155q0 96 77 158q62 49 155 57v89h86v-91q28 -3 77 -28q61 -31 100 -81l-135 -135q25 -23 78 -77q63 -69 63 -144z" />
    <glyph glyph-name="percent" unicode="%" horiz-adv-x="741" 
d="M704 508l-567 -576q-15 -15 -32 -15q-19 0 -34 16t-15 35q0 14 10 24l573 573q14 14 31 14q15 0 29.5 -11t14.5 -32q0 -17 -10 -28zM327 414q0 -69 -37 -118q-40 -53 -107 -53q-34 0 -62 13q-43 20 -66 66q-20 42 -20 92q0 70 36 119q41 53 108 53q69 0 110 -53
q38 -48 38 -119zM691 48q0 -70 -36 -118q-40 -53 -107 -53q-34 0 -63 13q-42 20 -65 66q-21 41 -21 92q0 69 37 118q40 54 108 54t110 -53q37 -49 37 -119zM271 492q0 15 -10.5 25.5t-25.5 10.5q-14 0 -24.5 -10.5t-10.5 -25.5t10.5 -25.5t24.5 -10.5q15 0 25.5 10.5
t10.5 25.5zM636 126q0 15 -10.5 25.5t-25.5 10.5t-25.5 -10.5t-10.5 -25.5t10.5 -26t25.5 -11t25.5 11t10.5 26z" />
    <glyph glyph-name="ampersand" unicode="&#x26;" horiz-adv-x="827" 
d="M760 -71h-211q-85 -43 -91 -45q-67 -25 -159 -25q-128 0 -208 89q-66 74 -66 157q0 87 29 137q38 66 138 105q-28 9 -46.5 37t-17.5 68q2 92 85 119q42 14 157 14q113 0 153 -14q81 -27 83 -119q1 -46 -27 -88q-31 -48 -85 -62q21 -10 44 -44q26 -38 26 -69l57 1z
M442 415q0 30 -21 51.5t-51 21.5q-29 0 -50 -21.5t-21 -51.5t21 -51.5t50 -21.5q30 0 51 21.5t21 51.5zM325 108q0 38 -26 64.5t-63 26.5t-63 -26.5t-26 -64.5q0 -37 26 -64t63 -27t63 27t26 64z" />
    <glyph glyph-name="quotesingle" unicode="'" horiz-adv-x="228" 
d="M175 577l-101 -206l-6 246q-1 31 19 48q16 16 41 16t41.5 -17t16.5 -42q0 -21 -11 -45z" />
    <glyph glyph-name="parenleft" unicode="(" horiz-adv-x="341" 
d="M270 -130q-37 5 -88 52q-47 42 -69 82q-63 109 -63 246q0 123 59 226q22 39 70 86q55 56 91 62q-43 -162 -41 -386q2 -203 41 -368z" />
    <glyph glyph-name="parenright" unicode=")" horiz-adv-x="341" 
d="M270 250q0 -137 -62 -246q-23 -40 -70 -82q-51 -47 -88 -52q39 165 41 368q2 224 -41 386q36 -6 91 -62q48 -47 70 -86q59 -103 59 -226z" />
    <glyph glyph-name="asterisk" unicode="*" horiz-adv-x="4659" 
d="M2023 469h-20v69h20v-69zM2108 452q-4 -15 -15 -34q-9 -15 -23 -29h-25q12 10 24.5 28t17.5 35h21zM4212 49h-20v311q0 28 -20 56.5t-54 38.5q47 -2 72 -32q22 -27 22 -64v-310zM2042 75q-15 -2 -27 8.5t-12 23.5v265h21v-265q0 -25 18 -32zM2069 452q-4 -15 -17 -33.5
t-26 -29.5h-39v-288q0 -22 23 -35q12 -7 39 -8v-9h-219v339h-77l26 64h51v42q0 19 -21 28q-12 5 -29 6v10h207v-86h82zM4174 49h-279q-34 0 -54 30q-16 25 -15 62q1 43 17 68.5t45 43.5q22 13 62 22q28 6 68 3v43q0 28 -23 44q-15 10 -55 10q-50 0 -90 -16q20 30 35 44
q23 22 51 37q33 17 85 17q51 0 77 -9q30 -11 50 -31q26 -26 26 -58v-310zM3787 343l-29 9q-13 23 -32 45q-34 39 -72 54q44 -2 92 -47q32 -30 41 -61zM1742 72q-17 -1 -27.5 9.5t-10.5 23.5v255q0 28 -18 55q-21 30 -56 40q47 -2 73 -32q21 -27 21 -64v-254q0 -25 18 -33z
M3796 139q0 -30 -16 -55q-19 -29 -49 -32q45 20 45 86q1 45 -29 76q-23 24 -90 54q-24 11 -49 21q-24 14 -25 34q-1 13 12 25.5t32 12.5q-23 -18 -23 -36q0 -16 25.5 -26.5t51.5 -20.5q59 -25 87 -57.5t28 -81.5zM1743 58l-1 -10h-195v262q0 19 -16.5 35t-39.5 16
q-8 0 -16 -2v-311h-157v369q0 12 -15 21q-1 1 -32 4q0 11 1 10h203v-17q46 22 83 22q33 0 55 -8q33 -11 53.5 -35.5t20.5 -54.5v-257q0 -22 20 -35q13 -8 36 -9zM3758 135q-1 -36 -16 -57q-23 -30 -72 -30h-280v79h119q40 0 39 23q-1 21 -29 43q-11 9 -63 41q-65 41 -67 99
q-3 86 87 114q38 12 78 12q55 0 91 -19q28 -15 52 -37q14 -13 34 -44q-40 17 -90 17q-39 -1 -56 -12q-22 -15 -21 -42q1 -32 66 -61q23 -9 66 -30q33 -18 47.5 -42t14.5 -54zM1512 50h-20v295q5 0 20 -3v-292zM3361 372q1 -35 -19.5 -62.5t-59.5 -37.5q28 17 42 39
q16 27 16 62q0 30 -11 49.5t-30 27.5q23 -1 45 -27q17 -19 17 -51zM1292 255q0 -111 -53 -163q-46 -45 -92 -47q122 50 120 211q-2 143 -123 193q70 -4 112 -67q36 -56 36 -127zM903 473h-20v93h20v-93zM1244 256q0 -217 -184 -217q-198 0 -198 214q0 93 50.5 147t142.5 54
q84 0 136.5 -56.5t52.5 -141.5zM3321 374q-1 -35 -12 -54q-17 -27 -45.5 -43t-64.5 -21.5t-69 -3.5v-75q0 -28 24 -43q15 -11 55 -11q49 0 90 16q-20 -30 -35 -44q-24 -22 -52 -37q-32 -17 -85 -17q-50 0 -76 9q-30 11 -51 32q-27 26 -27 57l1 312h283q35 0 53 -27
q12 -19 11 -50zM3354 156q-8 -32 -41 -61q-48 -45 -92 -48q38 16 73 55q18 21 31 45zM3186 142q-16 -2 -27.5 8.5t-11.5 23.5v62h20v-63q0 -24 19 -31zM2654 553q-9 -8 -15 -11q-14 19 -51 30q49 0 66 -19zM836 291l-37 -93h-20l37 93h20zM2941 -33q-17 0 -27.5 10t-10.5 23
v474q0 34 -24 63q-22 26 -50 32q46 0 72 -31q22 -27 22 -65v-473q0 -24 18 -33zM607 307h-20v108q0 38 -13 49q33 -10 33 -50v-107zM866 474h-314q18 -15 18 -46v-138l226 1l-37 -93h-189v-216q0 -38 -35 -45l-201 -42q28 12 52 31q11 9 11 47v537q0 23 -22 36q-12 8 -43 11
v10h534v-93zM2709 -33q-17 0 -27.5 10t-10.5 23v460q11 0 20 -3v-457q0 -24 18 -33zM2941 -55h-195v470q0 30 -24 47q-20 15 -48 15q-11 0 -20 -2v-477q0 -21 21 -34q12 -9 35 -10v-9h-196v467q0 64 -69 64q-14 0 -19 -2l-1 -487q0 -45 -35 -52l-200 -42q28 12 52 31
q11 9 11 48v539q0 22 -22 36q-13 7 -44 10l1 10h191q30 0 40 -23q42 27 93 28q44 1 68 -8q41 -17 56 -39q55 46 120 47q32 1 56 -8q29 -10 48 -30q26 -27 26 -59v-477q0 -21 20 -34q13 -9 35 -10v-9zM607 182l-1 -186q0 -41 -32 -50q13 10 13 49v187h20zM2462 458v-464
q0 -40 -32 -50q12 11 12 49v465h20zM4018 74v178h-13q-16 0 -26 -18q-10 -21 -10 -72q0 -67 12 -79q4 -4 21 -9h16zM3180 354q0 51 -13 63q-3 4 -21 8l-16 1v-149h14q16 0 26 20.5t10 56.5zM1113 251q0 47 -11 94q-16 64 -45 64q-33 0 -51 -60q-14 -47 -14 -99
q1 -57 14 -105q18 -65 52 -65q32 0 46 70q9 45 9 101zM1065 97q-53 8 -53 151q0 126 49 145q-29 -41 -29 -146q0 -122 33 -150z" />
    <glyph glyph-name="plus" unicode="+" horiz-adv-x="599" 
d="M554 155h-166v-140h-176v140h-131v151h126v143h181v-143h124z" />
    <glyph glyph-name="comma" unicode="," horiz-adv-x="279" 
d="M227 -2q0 -29 -15 -50l-132 -187l34 150q-31 8 -50 33t-19 57q0 36 24 63t68 27q40 0 65 -26.5t25 -66.5z" />
    <glyph glyph-name="hyphen" unicode="-" horiz-adv-x="547" 
d="M516 155h-471v151h430z" />
    <glyph glyph-name="hyphen" unicode="&#x2010;" horiz-adv-x="547" 
d="M516 155h-471v151h430z" />
    <glyph glyph-name="period" unicode="." horiz-adv-x="283" 
d="M215 -9q0 -36 -25 -61t-60 -25t-60 25t-25 61t25 61t60 25t60 -25t25 -61z" />
    <glyph glyph-name="slash" unicode="/" horiz-adv-x="474" 
d="M432 628l-200 -765h-231l200 765h231z" />
    <glyph glyph-name="zero" unicode="0" horiz-adv-x="672" 
d="M605 249q0 -138 -73 -235q-81 -107 -215 -107q-68 0 -124 27q-66 30 -113 100q-60 89 -60 216q0 139 74 236q81 107 215 107q138 0 220 -105q76 -97 76 -239zM493 405q0 30 -20.5 51.5t-50.5 21.5t-51 -21.5t-21 -51.5t21 -51.5t51 -21.5t50.5 21.5t20.5 51.5z" />
    <glyph glyph-name="one" unicode="1" horiz-adv-x="510" 
d="M439 -87h-297v389h-87l97 276h287v-665z" />
    <glyph glyph-name="two" unicode="2" horiz-adv-x="705" 
d="M657 -87h-566q-29 0 -46 16.5t-17 40.5q0 21 13 41l164 249q19 28 18 54q0 27 -19 44.5t-42 17.5q-30 0 -49.5 -20.5t-19.5 -53.5h-92v202q0 33 20 53.5t50 20.5h445q57 0 57 -51q0 -19 -11 -39l-164 -299h158z" />
    <glyph glyph-name="three" unicode="3" horiz-adv-x="730" 
d="M719 105q0 -83 -66 -157q-80 -88 -208 -89q-137 -1 -250 54h-84l-100 277h375l-27 76h-231v82h199l-26 75h-260l60 155h546q5 -80 -21.5 -146.5t-73.5 -84.5q100 -39 138 -105q29 -50 29 -137z" />
    <glyph glyph-name="four" unicode="4" horiz-adv-x="666" 
d="M614 -87h-297v112h-307l267 553h337v-665zM336 188q0 30 -21 51.5t-50 21.5q-30 0 -51 -21.5t-21 -51.5t21 -51.5t51 -21.5q29 0 50 21.5t21 51.5z" />
    <glyph glyph-name="five" unicode="5" horiz-adv-x="799" 
d="M767 578l-50 -231h-165q100 -39 138 -105q29 -50 29 -137q0 -83 -66 -157q-80 -89 -208 -89q-87 0 -156 25q-16 6 -94 45h-84l-100 274h263q3 -17 21.5 -32t45.5 -15q30 0 51 21.5t21 51.5t-21 51.5t-51 21.5h-210v276h636z" />
    <glyph glyph-name="six" unicode="6" horiz-adv-x="722" 
d="M681 133q0 -94 -76 -158q-91 -78 -264 -77q-160 1 -254 71q-86 64 -86 160q0 17 3 35l80 414h374l-41 -215q148 -11 216 -92q48 -59 48 -138zM557 108q0 30 -21 51.5t-50 21.5q-30 0 -51 -21.5t-21 -51.5t21 -51.5t51 -21.5q29 0 50 21.5t21 51.5z" />
    <glyph glyph-name="seven" unicode="7" horiz-adv-x="681" 
d="M653 488l-169 -575h-282v90l120 255q16 34 16 55q0 28 -19.5 45.5t-45.5 17.5q-30 0 -51 -22t-21 -52h-49l-150 276h595q61 0 61 -59q0 -15 -5 -31z" />
    <glyph glyph-name="eight" unicode="8" horiz-adv-x="734" 
d="M679 130q0 -93 -76 -157q-91 -76 -264 -75q-171 1 -261 74q-75 62 -77 155q-3 154 167 220q-28 9 -46.5 37t-17.5 68q2 91 93 121q46 15 149 15q95 0 139 -15q89 -30 91 -121q1 -40 -17.5 -68t-46.5 -37q167 -63 167 -217zM418 423q0 30 -21 51.5t-50 21.5
q-30 0 -51 -21.5t-21 -51.5t21 -51.5t51 -21.5q29 0 50 21.5t21 51.5zM302 108q0 38 -26.5 64.5t-63.5 26.5t-63 -26.5t-26 -64.5q0 -37 26 -64t63 -27t63.5 27t26.5 64z" />
    <glyph glyph-name="nine" unicode="9" horiz-adv-x="740" 
d="M677 327l-80 -414h-374l41 215q-147 11 -215 92q-49 59 -49 137q0 95 76 159q92 78 264 77q160 -1 254 -71q86 -64 86 -160q0 -17 -3 -35zM267 383q0 30 -21 51.5t-50 21.5q-30 0 -51 -21.5t-21 -51.5t21 -51.5t51 -21.5q29 0 50 21.5t21 51.5z" />
    <glyph glyph-name="colon" unicode=":" horiz-adv-x="288" 
d="M226 273q0 -38 -26 -64.5t-63 -26.5q-38 0 -64 26.5t-26 64.5t26 64.5t64 26.5q37 0 63 -26.5t26 -64.5zM226 -7q0 -38 -26 -64.5t-63 -26.5q-38 0 -64 26.5t-26 64.5t26 64.5t64 26.5q37 0 63 -26.5t26 -64.5z" />
    <glyph glyph-name="semicolon" unicode=";" horiz-adv-x="288" 
d="M227 270q0 -38 -26.5 -64.5t-63.5 -26.5t-63 26.5t-26 64.5t26 64.5t63 26.5t63.5 -26.5t26.5 -64.5zM227 -12q0 -29 -15 -50l-132 -187l34 150q-31 8 -50 33t-19 57q0 36 24 63t68 27q40 0 65 -26.5t25 -66.5z" />
    <glyph glyph-name="less" unicode="&#x3c;" horiz-adv-x="345" 
d="M275 5l-230 229l230 227v-149q-32 0 -55.5 -23.5t-23.5 -56.5t23.5 -56.5t55.5 -23.5v-147z" />
    <glyph glyph-name="equal" unicode="=" horiz-adv-x="621" 
d="M567 276h-525v151h484zM567 57h-525v151h484z" />
    <glyph glyph-name="greater" unicode="&#x3e;" horiz-adv-x="330" 
d="M275 234l-230 -229v147q32 0 55.5 23.5t23.5 56.5t-23.5 56.5t-55.5 23.5v149z" />
    <glyph glyph-name="question" unicode="?" horiz-adv-x="549" 
d="M506 408q2 -56 -38 -108l-138 -180h-256l175 204q8 -2 15 -2q28 0 44 19t16 44t-18 43.5t-43 18.5q-26 0 -43.5 -18.5t-17.5 -43.5v-60h-202v73q0 95 76 144q71 47 174 46q119 -1 187 -52q65 -49 69 -128zM327 0q0 -38 -38 -64.5t-91 -26.5t-91 26.5t-38 64.5t38 64.5
t91 26.5t91 -26.5t38 -64.5z" />
    <glyph glyph-name="at" unicode="@" horiz-adv-x="656" 
d="M589 299q0 -42 -3 -61q-5 -26 -23 -54h-193l-31 58l-30 -58h-131l161 304l142 -266l54 1q17 19 17 76q0 93 -60 152t-153 59q-90 0 -149 -59.5t-59 -150.5q0 -78 43 -132q38 -48 91 -66q37 -13 94 -13q42 0 86 7q22 3 22 -16q0 -18 -15 -21q-40 -8 -87 -8q-64 0 -111 15
q-63 20 -109 78q-51 65 -51 156q0 107 69 177t176 70q109 0 179.5 -69.5t70.5 -178.5z" />
    <glyph glyph-name="A" unicode="A" horiz-adv-x="736" 
d="M736 -87h-300l-70 130l-69 -130h-297l365 690z" />
    <glyph glyph-name="B" unicode="B" horiz-adv-x="740" 
d="M679 105q0 -83 -66 -157q-80 -89 -208 -89q-92 0 -159 25q-6 2 -91 45h-154v650h287q146 0 188 -11q98 -24 100 -116q1 -40 -17.5 -68t-46.5 -37q100 -39 138 -105q29 -50 29 -137zM405 415q0 30 -21 51.5t-51 21.5q-29 0 -50 -21.5t-21 -51.5t21 -51.5t50 -21.5
q30 0 51 21.5t21 51.5zM557 108q0 38 -26 64.5t-63 26.5t-63 -26.5t-26 -64.5q0 -37 26 -64t63 -27t63 27t26 64z" />
    <glyph glyph-name="C" unicode="C" horiz-adv-x="666" 
d="M621 489l-203 -186q-21 24 -53 24q-30 0 -51 -21.5t-21 -51.5t21 -51.5t51 -21.5q33 0 55 26l185 -214q-120 -86 -242 -86q-149 0 -251 102t-102 246q0 141 103 239q100 96 259 99q86 1 157 -36q56 -30 92 -68z" />
    <glyph glyph-name="D" unicode="D" horiz-adv-x="720" 
d="M652 260q0 -135 -58 -239q-60 -108 -169 -108h-424v666h424q106 0 171 -111q56 -95 56 -208zM403 244q0 30 -21 51.5t-51 21.5t-51 -21.5t-21 -51.5t21 -51.5t51 -21.5t51 21.5t21 51.5z" />
    <glyph glyph-name="E" unicode="E" horiz-adv-x="731" 
d="M731 -87h-731v666h562v-179h-131v-106h-130v-105h280z" />
    <glyph glyph-name="F" unicode="F" horiz-adv-x="601" 
d="M562 400h-131v-106h-130v-381h-301v666h562v-179z" />
    <glyph glyph-name="G" unicode="G" horiz-adv-x="908" 
d="M908 -87h-546q-156 0 -252 96q-102 102 -102 246q0 141 103 239q100 96 259 99q55 1 111.5 -17.5t92.5 -49.5l-171 -213q-20 14 -40 14q-30 0 -51 -21.5t-21 -51.5t21 -51t51 -22q22 0 42.5 16t24.5 41h300z" />
    <glyph glyph-name="H" unicode="H" horiz-adv-x="664" 
d="M593 -87h-218v65q0 31 -21 52t-50 21q-30 0 -51 -21.5t-21 -51.5v-65h-229v666h229v-65q0 -30 21 -51.5t51 -21.5q29 0 50 21.5t21 51.5v65h218v-666z" />
    <glyph glyph-name="I" unicode="I" horiz-adv-x="451" 
d="M340 -87h-301v666h301v-666z" />
    <glyph glyph-name="J" unicode="J" horiz-adv-x="665" 
d="M595 160q0 -123 -88 -189q-92 -69 -212 -70q-121 -1 -205 54q-89 58 -89 170v86h238l-1 -71q0 -30 21 -51.5t51 -21.5t51 21.5t21 51.5t-18 50q-19 24 -53 24q-8 0 -17 -2v367h301v-419z" />
    <glyph glyph-name="K" unicode="K" horiz-adv-x="756" 
d="M756 -87h-356l-97 137v-137h-302v666h302v-138l97 138h281l-204 -274z" />
    <glyph glyph-name="L" unicode="L" horiz-adv-x="672" 
d="M672 -87h-671v666h301v-390h220z" />
    <glyph glyph-name="M" unicode="M" horiz-adv-x="859" 
d="M901 -87h-327l-51 129l-73 -179l-74 179l-50 -129h-325l267 690l182 -224l183 224z" />
    <glyph glyph-name="N" unicode="N" horiz-adv-x="691" 
d="M631 579l-1 -665l-387 58v-59h-242v665l394 -58v59h236z" />
    <glyph glyph-name="O" unicode="O" horiz-adv-x="763" 
d="M696 249q0 -148 -95 -245t-243 -97q-80 0 -147 27q-77 30 -133 100q-70 89 -70 216q0 136 90.5 239.5t249.5 103.5q152 0 250 -96t98 -248zM533 405q0 30 -21 51.5t-51 21.5q-29 0 -50 -21.5t-21 -51.5t21 -51.5t50 -21.5q30 0 51 21.5t21 51.5z" />
    <glyph glyph-name="P" unicode="P" horiz-adv-x="723" 
d="M658 283q-1 -65 -44 -130q-46 -71 -110 -88v-152h-503v666h349q154 0 237 -91q73 -79 71 -205zM410 305q0 30 -21 51.5t-51 21.5t-51 -21.5t-21 -51.5t21 -51.5t51 -21.5t51 21.5t21 51.5z" />
    <glyph glyph-name="Q" unicode="Q" horiz-adv-x="765" 
d="M711 -109h-436l-1 24q-32 7 -61 19q-77 30 -133 100q-70 89 -70 216q0 136 90.5 239.5t249.5 103.5q152 0 250 -96t98 -248q0 -136 -90 -239zM535 405q0 30 -21 51.5t-51 21.5q-29 0 -50 -21.5t-21 -51.5t21 -51.5t50 -21.5q30 0 51 21.5t21 51.5z" />
    <glyph glyph-name="R" unicode="R" horiz-adv-x="709" 
d="M695 -87h-694v666h349q154 0 237 -91q71 -78 71 -205q0 -121 -94 -218zM410 305q0 30 -21 51.5t-51 21.5t-51 -21.5t-21 -51.5t21 -51.5t51 -21.5t51 21.5t21 51.5z" />
    <glyph glyph-name="S" unicode="S" horiz-adv-x="576" 
d="M516 119q0 -88 -79 -151t-189 -63q-62 0 -134.5 35t-111.5 84l136 138q-11 13 -51 54q-72 71 -72 155q0 96 77 158q74 59 187 59q65 0 128 -30.5t103 -82.5l-135 -135q25 -23 78 -77q63 -69 63 -144z" />
    <glyph glyph-name="T" unicode="T" horiz-adv-x="678" 
d="M616 328h-121l80 -414h-374l-80 414h-120v251h615v-251z" />
    <glyph glyph-name="U" unicode="U" horiz-adv-x="602" 
d="M541 120q0 -92 -79.5 -149.5t-191.5 -57.5q-103 0 -180 51q-89 58 -89 156v459h199v-65q0 -30 21 -51.5t51 -21.5q29 0 50 21.5t21 51.5v65h198v-459z" />
    <glyph glyph-name="V" unicode="V" horiz-adv-x="737" 
d="M737 579l-371 -691l-365 691h297l69 -131l70 131h300z" />
    <glyph glyph-name="W" unicode="W" horiz-adv-x="1000" 
d="M1000 579l-298 -666h-405l-297 666h361l56 -130l83 179l80 -179l57 130h363z" />
    <glyph glyph-name="X" unicode="X" horiz-adv-x="782" 
d="M737 -86h-300l-70 130l-69 -130h-297l161 313q13 25 -3 54l-158 298h297l69 -131l70 131h300l-164 -307q-13 -25 0 -50z" />
    <glyph glyph-name="Y" unicode="Y" horiz-adv-x="740" 
d="M736 579l-206 -383l-79 -283h-327l79 283l-203 383h297l69 -131l70 131h300z" />
    <glyph glyph-name="Z" unicode="Z" horiz-adv-x="648" 
d="M648 -87h-582q-61 0 -61 56q0 21 11 42l170 335h-185v233h488l-183 -390h192z" />
    <glyph glyph-name="bracketleft" unicode="[" horiz-adv-x="443" 
d="M357 -161h-291v815h261l20 -56h-91v-704h81z" />
    <glyph glyph-name="backslash" unicode="\" horiz-adv-x="443" 
d="M432 -137h-231l-200 765h231z" />
    <glyph glyph-name="bracketright" unicode="]" 
d="M312 -160h-272l-20 55h101v703h-71l-20 56h282v-814z" />
    <glyph glyph-name="asciicircum" unicode="^" horiz-adv-x="371" 
d="M398 590h-127q0 29 -20.5 49t-48.5 20q-29 0 -49 -20t-20 -49h-129l196 200z" />
    <glyph glyph-name="underscore" unicode="_" horiz-adv-x="696" 
d="M620 -91h-570v71h570v-71z" />
    <glyph glyph-name="grave" unicode="`" horiz-adv-x="282" 
d="M207 611l-154 140q-17 15 -17 26q0 23 54 24q37 1 64 -11q32 -13 35 -39z" />
    <glyph glyph-name="a" unicode="a" 
d="M405 78h-165l-39 72l-38 -72h-163l201 380z" />
    <glyph glyph-name="b" unicode="b" horiz-adv-x="394" 
d="M374 186q0 -58 -44 -97t-107 -39q-42 0 -72 10q-20 6 -65 29h-85v358h194q122 0 122 -71q0 -47 -35 -57q50 -20 71 -50.5t21 -82.5zM223 356q0 16 -11.5 28t-27.5 12t-28 -12t-12 -28t12 -28t28 -12t27.5 12t11.5 28zM307 187q0 21 -14.5 35.5t-34.5 14.5
q-21 0 -35 -14.5t-14 -35.5q0 -20 14 -35t35 -15q20 0 34.5 15t14.5 35z" />
    <glyph glyph-name="c" unicode="c" horiz-adv-x="359" 
d="M344 396l-114 -105q-12 14 -30 14q-16 0 -28 -12t-12 -29t12 -29t28 -12q19 0 31 14l104 -120q-66 -47 -136 -47q-85 0 -141.5 56t-56.5 138q0 84 57.5 136.5t145.5 53.5q49 1 88 -20q32 -17 52 -38z" />
    <glyph glyph-name="d" unicode="d" horiz-adv-x="380" 
d="M360 271q0 -70 -27 -124q-34 -68 -98 -68h-233v368h233q58 0 94 -61q31 -52 31 -115zM223 262q0 17 -11.5 28.5t-28.5 11.5q-16 0 -27.5 -11.5t-11.5 -28.5q0 -16 11.5 -28t27.5 -12q17 0 28.5 12t11.5 28z" />
    <glyph glyph-name="e" unicode="e" horiz-adv-x="405" 
d="M403 79h-402v368h309v-98h-72v-58h-71v-59h154z" />
    <glyph glyph-name="f" unicode="f" horiz-adv-x="324" 
d="M309 349h-72v-58h-71v-212h-166v368h309v-98z" />
    <glyph glyph-name="g" unicode="g" horiz-adv-x="499" 
d="M497 79h-300q-86 0 -139 53q-56 57 -56 137q0 81 56 132.5t143 53.5q69 1 112 -37l-94 -117q-11 7 -22 7q-16 0 -27.5 -11.5t-11.5 -28.5q0 -16 11.5 -27.5t27.5 -12.5q33 0 37 31h165z" />
    <glyph glyph-name="h" unicode="h" horiz-adv-x="355" 
d="M325 79h-119v36q0 17 -11.5 28.5t-28.5 11.5q-16 0 -27.5 -11.5t-11.5 -28.5v-36h-126v368h126v-36q0 -16 11.5 -28t27.5 -12q17 0 28.5 12t11.5 28v36h119v-368z" />
    <glyph glyph-name="i" unicode="i" horiz-adv-x="223" 
d="M185 473q0 -22 -25 -38t-60 -16t-60 16t-25 38t25 37.5t60 15.5t60 -15.5t25 -37.5zM181 79h-166v308h166v-308z" />
    <glyph glyph-name="j" unicode="j" horiz-adv-x="358" 
d="M328 211q0 -68 -49.5 -105t-115.5 -37q-67 -1 -113 29q-49 32 -49 94v47h131v-39q-1 -16 11 -28t28 -12t27.5 12t11.5 28q0 19 -12.5 31t-35.5 9v207h166v-236z" />
    <glyph glyph-name="k" unicode="k" horiz-adv-x="419" 
d="M416 79h-196l-53 76v-76h-166v368h166v-76l53 76h155l-112 -150z" />
    <glyph glyph-name="l" unicode="l" horiz-adv-x="371" 
d="M368 79h-365v368h164v-217h120z" />
    <glyph glyph-name="m" unicode="m" horiz-adv-x="502" 
d="M495 80h-180l-28 70l-40 -98l-41 98l-27 -70h-179l147 379l100 -123l100 123z" />
    <glyph glyph-name="n" unicode="n" horiz-adv-x="382" 
d="M347 447v-381l-213 43v-30h-133v378l217 -43v33h129z" />
    <glyph glyph-name="o" unicode="o" horiz-adv-x="406" 
d="M386 261q0 -83 -53.5 -137.5t-136.5 -54.5q-85 0 -140.5 53.5t-55.5 139.5q0 83 53.5 137.5t137.5 54.5q87 0 141 -53t54 -140zM240 264q0 16 -12 28.5t-28 12.5t-28 -12.5t-12 -28.5q0 -17 12 -29t28 -12t28 12t12 29z" />
    <glyph glyph-name="p" unicode="p" horiz-adv-x="382" 
d="M362 285q0 -36 -24 -73q-25 -40 -60 -49v-84h-277v368h192q85 0 130 -49q40 -44 39 -113zM226 295q0 17 -11.5 28.5t-28.5 11.5q-16 0 -27.5 -11.5t-11.5 -28.5t11.5 -28.5t27.5 -11.5q17 0 28.5 11.5t11.5 28.5z" />
    <glyph glyph-name="q" unicode="q" 
d="M387 68h-240l-1 13q-18 4 -33 10q-53 21 -83 68.5t-29 105.5q2 82 50 133q53 56 137 56q89 0 142 -55q50 -53 49 -135q0 -75 -49 -131zM290 350q0 17 -11.5 28.5t-28.5 11.5q-16 0 -27.5 -11.5t-11.5 -28.5q0 -16 11.5 -28t27.5 -12q17 0 28.5 12t11.5 28z" />
    <glyph glyph-name="r" unicode="r" horiz-adv-x="389" 
d="M383 79h-382v368h192q84 0 130 -51q39 -42 39 -112q0 -67 -51 -120zM226 296q0 16 -11.5 28t-28.5 12q-16 0 -27.5 -12t-11.5 -28q0 -17 11.5 -28.5t27.5 -11.5q17 0 28.5 11.5t11.5 28.5z" />
    <glyph glyph-name="s" unicode="s" horiz-adv-x="314" 
d="M286 191q0 -50 -44 -87q-40 -34 -102 -34q-80 0 -137 65l75 78q-6 8 -28 30q-40 39 -40 88q0 56 43 90q40 32 102 32q79 0 127 -62l-74 -77q14 -13 43 -43q35 -38 35 -80z" />
    <glyph glyph-name="t" unicode="t" horiz-adv-x="364" 
d="M339 308h-66l44 -229h-206l-44 229h-66v139h338v-139z" />
    <glyph glyph-name="u" unicode="u" horiz-adv-x="327" 
d="M297 181q0 -50 -44.5 -82t-104.5 -32q-61 1 -104.5 32t-43.5 82v266h109v-38q0 -17 11.5 -28.5t28.5 -11.5q16 0 27.5 11.5t11.5 28.5v38h109v-266z" />
    <glyph glyph-name="v" unicode="v" horiz-adv-x="418" 
d="M407 447l-204 -382l-201 382h163l38 -72l39 72h165z" />
    <glyph glyph-name="w" unicode="w" horiz-adv-x="560" 
d="M554 447l-164 -368h-223l-163 368h198l31 -72l46 98l44 -98l31 72h200z" />
    <glyph glyph-name="x" unicode="x" horiz-adv-x="428" 
d="M408 79h-165l-39 73l-38 -73h-163l89 174q6 13 -2 29l-87 165h163l38 -72l39 72h165l-90 -170q-8 -13 0 -27z" />
    <glyph glyph-name="y" unicode="y" horiz-adv-x="412" 
d="M407 447l-114 -210l-44 -158h-180l45 158l-112 210h163l38 -72l39 72h165z" />
    <glyph glyph-name="z" unicode="z" horiz-adv-x="366" 
d="M358 79h-320q-34 0 -34 31q0 11 6 23l94 186h-102v128h268l-100 -215h105z" />
    <glyph glyph-name="braceleft" unicode="{" horiz-adv-x="391" 
d="M243 197v-394q0 -17 -10 -17q-29 0 -71 26q-51 31 -68 50q-12 13 -12 37v258l30 40l-96 83l96 83l-30 40v227q0 21 15 37q10 11 55 39q58 36 81 33q10 -1 10 -18v-358l-96 -83z" />
    <glyph glyph-name="bar" unicode="|" horiz-adv-x="233" 
d="M176 -156l-109 100v766l109 -100v-766z" />
    <glyph glyph-name="braceright" unicode="}" horiz-adv-x="326" 
d="M304 280l-96 -83l30 -40v-258q0 -24 -12 -37q-17 -19 -68 -50q-42 -26 -71 -26q-10 0 -10 17v394l96 83l-96 83v358q0 17 10 18q23 3 81 -33q20 -12 55 -39q15 -16 15 -37v-227l-30 -40z" />
    <glyph glyph-name="asciitilde" unicode="~" horiz-adv-x="540" 
d="M518 445l-1 -151l-75 -25q-27 -9 -59 -9q-56 0 -99.5 24t-82.5 24q-41 0 -54 -32l-87 -48v151l67 25q27 10 60 10q53 0 96 -21q58 -29 93 -29q39 0 57 33z" />
    <glyph glyph-name="euro" unicode="&#x20ac;" horiz-adv-x="717" 
d="M688 489l-159 -146q-39 43 -97 43q-63 0 -101 -51h102q36 0 36 -32q0 -33 -35 -33h-129q-1 -14 0 -28h127q38 0 37 -34q-1 -31 -39 -31h-99q38 -50 101 -50q51 0 92 38l148 -172q-120 -86 -242 -86q-149 0 -251 102q-73 73 -94 168h-50q-31 0 -31 34q0 13 9 22t22 9h42
v28h-40q-34 0 -34 34q0 13 10.5 22t23.5 9h49q22 90 94 159q100 96 259 99q86 1 157 -36q56 -30 92 -68z" />
    <glyph glyph-name="quotesinglbase" unicode="&#x201a;" horiz-adv-x="279" 
d="M204 -21q-1 -45 -34 -92l-90 -126l32 191q-44 13 -44 59q0 24 16 42t47 18q32 0 53 -25.5t20 -66.5z" />
    <glyph glyph-name="florin" unicode="&#x192;" horiz-adv-x="561" 
d="M540 348h-92q3 17 -6 28.5t-25 11.5q-38 0 -50 -50l-10 -45h103l-43 -62h-73l-38 -180q-13 -66 -62 -104.5t-122 -37.5q-55 0 -87 26.5t-32 69.5q0 13 3 27l10 47h100l-8 -39q-4 -16 5 -28t26 -12q39 0 47 38q4 17 -10 31l90 421h148q59 0 85 -11q48 -20 48 -79
q0 -23 -7 -52z" />
    <glyph glyph-name="quotedblbase" unicode="&#x201e;" horiz-adv-x="404" 
d="M374 -21q-1 -45 -32 -89l-92 -129l32 191q-44 13 -44 59q0 24 16 42t47 18q32 0 53 -25.5t20 -66.5zM204 -21q-1 -45 -32 -89l-92 -129l32 191q-44 13 -44 59q0 24 16 42t47 18q32 0 53 -25.5t20 -66.5z" />
    <glyph glyph-name="ellipsis" unicode="&#x2026;" horiz-adv-x="801" 
d="M755 38q0 -36 -25 -61t-60 -25t-60 25t-25 61t25 61t60 25t60 -25t25 -61zM485 38q0 -36 -25 -61t-60 -25t-60 25t-25 61t25 61t60 25t60 -25t25 -61zM215 38q0 -36 -25 -61t-60 -25t-60 25t-25 61t25 61t60 25t60 -25t25 -61z" />
    <glyph glyph-name="dagger" unicode="&#x2020;" horiz-adv-x="607" 
d="M543 413h-121l-70 -499h-14l-170 499h-120v166h120l60 209h133l61 -209h121v-166z" />
    <glyph glyph-name="daggerdbl" unicode="&#x2021;" horiz-adv-x="563" 
d="M503 413h-121l-34 -159l35 -175h120v-166h-120l-60 -209h-93l-61 209h-121v166h121l32 175l-33 159h-120v166h120l60 209h93l61 -209h121v-166z" />
    <glyph glyph-name="circumflex" unicode="&#x2c6;" horiz-adv-x="336" 
d="M325 590h-91l-67 113l-64 -113h-92q2 88 49 137q42 43 106 43q65 -1 109 -45q49 -49 50 -135z" />
    <glyph glyph-name="perthousand" unicode="&#x2030;" horiz-adv-x="1073" 
d="M1032 48q0 -70 -36 -118q-40 -53 -107 -53q-34 0 -63 13q-42 20 -65 66q-21 41 -21 92q0 69 37 118q40 54 108 54t110 -53q37 -49 37 -119zM704 508l-567 -576q-15 -15 -32 -15q-19 0 -34 16t-15 35q0 14 10 24l573 573q14 14 31 14q15 0 29.5 -11t14.5 -32
q0 -17 -10 -28zM327 414q0 -69 -37 -118q-40 -53 -107 -53q-34 0 -62 13q-43 20 -66 66q-20 42 -20 92q0 70 36 119q41 53 108 53q69 0 110 -53q38 -48 38 -119zM691 48q0 -70 -36 -118q-40 -53 -107 -53q-34 0 -63 13q-42 20 -65 66q-21 41 -21 92q0 69 37 118
q40 54 108 54t110 -53q37 -49 37 -119zM977 126q0 15 -10.5 25.5t-25.5 10.5t-25.5 -10.5t-10.5 -25.5t10.5 -26t25.5 -11t25.5 11t10.5 26zM271 492q0 15 -10.5 25.5t-25.5 10.5q-14 0 -24.5 -10.5t-10.5 -25.5t10.5 -25.5t24.5 -10.5q15 0 25.5 10.5t10.5 25.5zM636 126
q0 15 -10.5 25.5t-25.5 10.5t-25.5 -10.5t-10.5 -25.5t10.5 -26t25.5 -11t25.5 11t10.5 26z" />
    <glyph glyph-name="Scaron" unicode="&#x160;" horiz-adv-x="576" 
d="M407 771q-1 -78 -46 -122q-39 -40 -98 -40q-57 -1 -95 38q-43 44 -44 124h83l57 -102l60 102h83zM516 119q0 -88 -79 -151t-189 -63q-62 0 -134.5 35t-111.5 84l136 138q-11 13 -51 54q-72 71 -72 155q0 96 77 158q74 59 187 59q65 0 128 -30.5t103 -82.5l-135 -135
q25 -23 78 -77q63 -69 63 -144z" />
    <glyph glyph-name="guilsinglleft" unicode="&#x2039;" horiz-adv-x="294" 
d="M228 -69l-210 208l210 206v-135q-30 0 -51.5 -21.5t-21.5 -51.5t21.5 -51.5t51.5 -21.5v-133z" />
    <glyph glyph-name="OE" unicode="&#x152;" horiz-adv-x="1273" 
d="M1264 -87h-731v41q-77 -47 -175 -47q-80 0 -147 27q-77 30 -133 100q-70 89 -70 216q0 136 90.5 239.5t249.5 103.5q108 0 185 -46v32h562v-179h-131v-106h-130v-105h280zM533 405q0 30 -21 51.5t-51 21.5q-29 0 -50 -21.5t-21 -51.5t21 -51.5t50 -21.5q30 0 51 21.5
t21 51.5z" />
    <glyph glyph-name="quoteleft" unicode="&#x2018;" horiz-adv-x="261" 
d="M166 452q4 -41 -16 -64q-16 -19 -43 -20q-26 -1 -43.5 14.5t-17.5 40.5q0 14 6 29l94 228z" />
    <glyph glyph-name="quoteright" unicode="&#x2019;" horiz-adv-x="286" 
d="M256 596l-94 -228l-20 228q-4 41 15 64q17 20 44 20q26 1 43.5 -14t17.5 -40q0 -14 -6 -30z" />
    <glyph glyph-name="quotedblleft" unicode="&#x201c;" horiz-adv-x="435" 
d="M316 452q4 -41 -14.5 -62.5t-44.5 -21.5q-27 0 -44.5 15t-17.5 39q0 15 7 30l94 228zM166 452q4 -41 -16 -64q-16 -19 -43 -20q-26 -1 -43.5 14.5t-17.5 40.5q0 14 6 29l94 228z" />
    <glyph glyph-name="quotedblright" unicode="&#x201d;" horiz-adv-x="380" 
d="M316 596l-94 -228l-20 228q-4 41 16 64q16 20 43 20q26 1 43.5 -14t17.5 -40q0 -14 -6 -30zM166 596l-94 -228l-20 228q-4 41 16 64q17 20 43 20q27 1 44.5 -14t17.5 -40q0 -14 -7 -30z" />
    <glyph glyph-name="bullet" unicode="&#x2022;" horiz-adv-x="487" 
d="M378 298q0 -54 -37.5 -92t-90.5 -38t-90 38t-37 92t37 92t90 38t90.5 -38t37.5 -92z" />
    <glyph glyph-name="endash" unicode="&#x2013;" horiz-adv-x="486" 
d="M408 116h-353v91h353v-91z" />
    <glyph glyph-name="emdash" unicode="&#x2014;" horiz-adv-x="738" 
d="M660 121h-615v86h615v-86z" />
    <glyph glyph-name="tilde" unicode="&#x2dc;" horiz-adv-x="486" 
d="M436 603l-61 -19q-27 -9 -49 -9q-34 0 -61.5 21t-54.5 21q-37 0 -40 -50h-69v113l54 19q22 8 45 8q34 0 64 -17q35 -21 64 -21q40 0 43 47h65v-113z" />
    <glyph glyph-name="trademark" unicode="&#x2122;" horiz-adv-x="667" 
d="M633 120h-143l-23 56l-32 -78l-32 78l-23 -56h-142v0l-148 1l-35 183h-53v110h311l-48 -110h-46l30 -156l107 275l80 -97l79 97z" />
    <glyph glyph-name="scaron" unicode="&#x161;" horiz-adv-x="330" 
d="M227 559q0 -44 -23.5 -67.5t-56.5 -23.5q-32 0 -53 22q-24 24 -25 69h46l32 -58l34 58h46zM286 191q0 -50 -44 -87q-40 -34 -102 -34q-80 0 -137 65l75 78q-6 8 -28 30q-40 39 -40 88q0 56 43 90q40 32 102 32q79 0 127 -62l-74 -77q14 -13 43 -43q35 -38 35 -80z" />
    <glyph glyph-name="guilsinglright" unicode="&#x203a;" horiz-adv-x="272" 
d="M228 139l-210 -208v133q30 0 51.5 21.5t21.5 51.5t-21.5 51.5t-51.5 21.5v135z" />
    <glyph glyph-name="oe" unicode="&#x153;" horiz-adv-x="715" 
d="M710 74h-409v23q-43 -26 -98 -26q-45 0 -82 15q-54 21 -84 69t-30 108q0 83 53.5 137.5t136.5 54.5q61 0 104 -26v18h315v-100h-74v-60h-72v-58h156zM301 350q0 16 -11.5 28t-28.5 12t-28.5 -12t-11.5 -28q0 -17 11.5 -29t28.5 -12t28.5 12t11.5 29z" />
    <glyph glyph-name="Ydieresis" unicode="&#x178;" horiz-adv-x="740" 
d="M738 579l-206 -383l-79 -283h-327l79 283l-203 383h297l69 -131l70 131h300zM526 695q0 -29 -20 -49t-48 -20t-48 20t-20 49t20 49t48 20t48 -20t20 -49zM342 695q0 -29 -20 -49t-48 -20t-48 20t-20 49t20 49t48 20t48 -20t20 -49z" />
    <glyph glyph-name="nonbreakingspace" unicode="&#xa0;" horiz-adv-x="195" 
 />
    <glyph glyph-name="exclamdown" unicode="&#xa1;" horiz-adv-x="463" 
d="M315 337q0 -22 -25 -38t-60 -16t-60 16t-25 38t25 37.5t60 15.5t60 -15.5t25 -37.5zM428 -112q20 -37 20 -71q0 -77 -90 -122q-52 -26 -127 -27q-90 -1 -160 48q-56 40 -56 98q0 35 20 73l195 367z" />
    <glyph glyph-name="cent" unicode="&#xa2;" horiz-adv-x="529" 
d="M475 409l-142 -130q-15 17 -38 17q-20 0 -35 -15t-15 -36t15 -36t35 -15q24 0 39 18l129 -150q-63 -45 -145 -58v-111h-66v115q-75 7 -134 65q-71 72 -71 173q0 98 72 167q62 60 133 63v124h66v-120q43 3 92 -23q40 -21 65 -48z" />
    <glyph glyph-name="sterling" unicode="&#xa3;" horiz-adv-x="727" 
d="M760 -87h-671v353h-89v142h89v170h301v-165h143v-147h-143v-77h220z" />
    <glyph glyph-name="currency" unicode="&#xa4;" horiz-adv-x="544" 
d="M475 221l-56 -58l-53 44q-41 -23 -86 -23t-86 22l-51 -41l-57 56l41 52q-22 42 -22 86q0 45 21 84l-42 52l55 60l54 -44q41 23 86 23q46 0 87 -23l52 43l56 -56l-42 -53q22 -40 22 -86q0 -45 -22 -86zM396 399q0 30 -21 51.5t-51 21.5q-29 0 -50 -21.5t-21 -51.5
t21 -51.5t50 -21.5q30 0 51 21.5t21 51.5z" />
    <glyph glyph-name="yen" unicode="&#xa5;" horiz-adv-x="727" 
d="M737 578l-185 -347h100v-67h-130l-7 -24h135v-70h-154l-44 -157h-327l46 160h-111v64h127l8 26h-135v67h127l-186 348h297l69 -130l70 130h300z" />
    <glyph glyph-name="brokenbar" unicode="&#xa6;" horiz-adv-x="283" 
d="M197 180l-110 250v249h110v-499zM197 -187h-110v501l110 -250v-251z" />
    <glyph glyph-name="section" unicode="&#xa7;" horiz-adv-x="326" 
d="M286 191q0 -50 -44 -87q-40 -34 -102 -34q-80 0 -137 65l75 78q-6 8 -28 30q-40 39 -40 88q0 57 43 91q14 11 25 19q-6 7 -28 29q-40 39 -40 88q0 56 43 90q40 32 102 32q79 0 127 -62l-74 -77q14 -13 43 -43q35 -38 35 -80q0 -50 -44 -87q-16 -13 -31 -20q12 -11 40 -40
q35 -38 35 -80z" />
    <glyph glyph-name="dieresis" unicode="&#xa8;" horiz-adv-x="441" 
d="M405 713q0 -29 -20 -49t-48 -20t-48 20t-20 49t20 49t48 20t48 -20t20 -49zM221 713q0 -29 -20 -49t-48 -20t-48 20t-20 49t20 49t48 20t48 -20t20 -49z" />
    <glyph glyph-name="copyright" unicode="&#xa9;" horiz-adv-x="555" 
d="M495 299q0 -106 -68.5 -176t-174.5 -70q-58 0 -106 19q-69 28 -108 91q-38 60 -38 137q0 107 69 177t176 70q109 0 179.5 -69.5t70.5 -178.5zM458 299q0 93 -60 152t-153 59q-90 0 -149 -59.5t-59 -150.5q0 -95 60.5 -152.5t153.5 -57.5q91 0 149 59.5t58 149.5zM368 406
l-91 -84q-10 11 -24 11q-33 0 -33 -33t33 -33q15 0 24 12l84 -97q-54 -39 -109 -39q-67 0 -113 46t-46 111t51 113q43 39 112 40q39 0 71 -16q25 -14 41 -31z" />
    <glyph glyph-name="ordfeminine" unicode="&#xaa;" horiz-adv-x="349" 
d="M317 343h-120l-28 52l-27 -52h-119l146 276z" />
    <glyph glyph-name="guillemotleft" unicode="&#xab;" horiz-adv-x="523" 
d="M452 -69l-210 208l210 206v-135q-30 0 -51.5 -21.5t-21.5 -51.5t21.5 -51.5t51.5 -21.5v-133zM228 -69l-210 208l210 206v-135q-30 0 -51.5 -21.5t-21.5 -51.5t21.5 -51.5t51.5 -21.5v-133z" />
    <glyph glyph-name="logicalnot" unicode="&#xac;" horiz-adv-x="638" 
d="M607 550l-100 -365l-66 -40v258h-379l-40 147h585z" />
    <glyph glyph-name="minus" unicode="&#xad;" horiz-adv-x="547" 
d="M474 186h-424v91h424v-91z" />
    <glyph glyph-name="minus" unicode="&#x2212;" horiz-adv-x="547" 
d="M474 186h-424v91h424v-91z" />
    <glyph glyph-name="registered" unicode="&#xae;" horiz-adv-x="555" 
d="M495 299q0 -106 -68.5 -176t-174.5 -70q-58 0 -106 19q-69 28 -108 91q-38 60 -38 137q0 107 69 177t176 70q109 0 179.5 -69.5t70.5 -178.5zM458 299q0 93 -60 152t-153 59q-90 0 -149 -59.5t-59 -150.5q0 -95 60.5 -152.5t153.5 -57.5q91 0 149 59.5t58 149.5zM395 166
h-281v269h142q63 0 96 -36q28 -32 28 -83q0 -49 -38 -89zM280 325q0 29 -29 29t-29 -29q0 -30 29 -30t29 30z" />
    <glyph glyph-name="macron" unicode="&#xaf;" horiz-adv-x="547" 
d="M474 629h-424l20 91h384z" />
    <glyph glyph-name="macron" unicode="&#x2c9;" horiz-adv-x="547" 
d="M474 629h-424l20 91h384z" />
    <glyph glyph-name="degree" unicode="&#xb0;" horiz-adv-x="343" 
d="M310 578q0 -43 -33 -71t-77 -28t-77 28t-33 71t33 71t77 28t77 -28t33 -71zM253 578q0 21 -16 34.5t-37 13.5t-37 -13.5t-16 -34.5t16 -34.5t37 -13.5t37 13.5t16 34.5z" />
    <glyph glyph-name="plusminus" unicode="&#xb1;" horiz-adv-x="474" 
d="M428 254h-133v-112h-141v112h-104v121h100v114h145v-114h99zM432 -2h-377v121h344z" />
    <glyph glyph-name="twosuperior" unicode="&#xb2;" horiz-adv-x="395" 
d="M341 240h-254q-29 0 -29 25q0 10 6 19l74 112q8 13 8 24q0 28 -27 28q-31 0 -31 -33h-42v91q0 33 32 33h200q26 0 26 -23q0 -9 -5 -17l-74 -135h71z" />
    <glyph glyph-name="threesuperior" unicode="&#xb3;" horiz-adv-x="545" 
d="M356 325q0 -37 -30 -70q-35 -40 -93 -41q-62 0 -112 25h-38l-45 124h169l-13 35h-104v37h90l-12 33h-117l27 70h246q2 -36 -10 -66t-33 -38q75 -29 75 -109z" />
    <glyph glyph-name="acute" unicode="&#xb4;" horiz-adv-x="296" 
d="M261 751l-155 -140l18 140q3 26 35 39q28 12 65 11q53 -1 53 -24q0 -11 -16 -26z" />
    <glyph glyph-name="mu1" unicode="&#xb5;" horiz-adv-x="413" 
d="M386 139q0 -65 -56 -105t-134 -40q-76 0 -132 40l43 -92q12 -24 12 -45q0 -27 -18 -44t-44 -17q-24 0 -40.5 17.5t-15.5 47.5l7 238v321h139v-46q0 -21 14.5 -35.5t35.5 -14.5t35.5 14.5t14.5 35.5v46h139v-321z" />
    <glyph glyph-name="mu1" unicode="&#x3bc;" horiz-adv-x="413" 
d="M386 139q0 -65 -56 -105t-134 -40q-76 0 -132 40l43 -92q12 -24 12 -45q0 -27 -18 -44t-44 -17q-24 0 -40.5 17.5t-15.5 47.5l7 238v321h139v-46q0 -21 14.5 -35.5t35.5 -14.5t35.5 14.5t14.5 35.5v46h139v-321z" />
    <glyph glyph-name="paragraph" unicode="&#xb6;" horiz-adv-x="564" 
d="M533 526l-68 -73v-539h-76v539l-77 71l1 -610h-200v306q-45 11 -77 61q-30 46 -31 91q-1 88 50 144q58 64 166 64l312 -1v-53z" />
    <glyph glyph-name="periodcentered" unicode="&#xb7;" horiz-adv-x="283" 
d="M215 328q0 -36 -25 -61t-60 -25t-60 25t-25 61t25 61t60 25t60 -25t25 -61z" />
    <glyph glyph-name="periodcentered" unicode="&#x2219;" horiz-adv-x="283" 
d="M215 328q0 -36 -25 -61t-60 -25t-60 25t-25 61t25 61t60 25t60 -25t25 -61z" />
    <glyph glyph-name="cedilla" unicode="&#xb8;" horiz-adv-x="325" 
d="M288 -180q0 -45 -37 -73q-45 -35 -136 -35q-32 0 -66 8l-30 68q43 -10 74 1q20 7 20 30q0 16 -15 28q-9 8 -32 4l13 49q38 13 83 13q61 0 93.5 -27t32.5 -66z" />
    <glyph glyph-name="onesuperior" unicode="&#xb9;" horiz-adv-x="257" 
d="M205 238h-134v175h-39l44 124h129v-299z" />
    <glyph glyph-name="ordmasculine" unicode="&#xba;" horiz-adv-x="366" 
d="M336 417q0 -63 -36 -107q-39 -47 -101 -47q-32 0 -59 12q-83 37 -83 143q0 65 38.5 109.5t99.5 44.5q64 0 104 -46q37 -44 37 -109zM270 487q0 33 -29 33t-29 -33q0 -32 29 -32t29 32z" />
    <glyph glyph-name="guillemotright" unicode="&#xbb;" horiz-adv-x="506" 
d="M452 139l-210 -208v133q30 0 51.5 21.5t21.5 51.5t-21.5 51.5t-51.5 21.5v135zM228 139l-210 -208v133q30 0 51.5 21.5t21.5 51.5t-21.5 51.5t-51.5 21.5v135z" />
    <glyph glyph-name="onequarter" unicode="&#xbc;" horiz-adv-x="818" 
d="M720 -81h-163v62h-169l147 304h185v-366zM704 508l-567 -576q-14 -15 -32 -15t-33.5 16t-15.5 35q0 14 10 24l573 573q15 14 31 14q15 0 30 -11t15 -32q0 -17 -11 -28zM218 213h-163v214h-48l53 152h158v-366zM567 71q0 16 -11.5 28t-27.5 12t-27.5 -12t-11.5 -28
q0 -17 11.5 -29t27.5 -12t27.5 12t11.5 29z" />
    <glyph glyph-name="onehalf" unicode="&#xbd;" horiz-adv-x="911" 
d="M853 -84h-312q-35 0 -35 32q0 11 8 22l90 137q10 16 10 30q0 15 -10.5 24.5t-23.5 9.5q-38 0 -37 -41h-51v111q0 41 38 41h245q31 0 31 -28q0 -11 -6 -21l-90 -165h87zM704 508l-567 -576q-15 -15 -32 -15q-19 0 -34 16t-15 35q0 14 10 24l573 573q14 14 31 14
q15 0 29.5 -11t14.5 -32q0 -17 -10 -28zM218 213h-163v214h-48l53 152h158v-366z" />
    <glyph glyph-name="threequarters" unicode="&#xbe;" horiz-adv-x="795" 
d="M720 -81h-163v62h-169l147 304h185v-366zM704 508l-567 -576q-15 -15 -32 -15q-19 0 -34 16t-15 35q0 14 10 24l573 573q14 14 31 14q15 0 29.5 -11t14.5 -32q0 -17 -10 -28zM336 359q0 -39 -31 -74q-37 -41 -97 -41q-64 0 -116 25h-39l-47 129h175l-13 36h-107v38h92
l-12 35h-121l28 72h254q2 -37 -10 -68.5t-34 -39.5q43 -17 60.5 -42.5t17.5 -69.5zM567 71q0 16 -11.5 28t-27.5 12t-28 -12t-12 -28q0 -17 12 -29t28 -12t27.5 12t11.5 29z" />
    <glyph glyph-name="questiondown" unicode="&#xbf;" horiz-adv-x="562" 
d="M437 467q0 -38 -38 -64.5t-91 -26.5t-91 26.5t-38 64.5t38 64.5t91 26.5t91 -26.5t38 -64.5zM506 69q0 -95 -76 -144q-71 -47 -174 -46q-119 1 -186 51t-70 129q-2 56 38 108l138 180h256l-175 -204q-8 2 -15 2q-28 0 -44 -19t-16 -44t18 -43.5t43 -18.5t43 18.5t18 43.5
v60h202v-73z" />
    <glyph glyph-name="Agrave" unicode="&#xc0;" horiz-adv-x="734" 
d="M737 -87h-300l-70 130l-69 -130h-297l365 690zM364 611l-154 140q-17 15 -17 26q0 23 54 24q37 1 64 -11q32 -13 35 -39z" />
    <glyph glyph-name="Aacute" unicode="&#xc1;" horiz-adv-x="734" 
d="M737 -87h-300l-70 130l-69 -130h-297l365 690zM522 751l-155 -140l18 140q3 26 35 39q28 12 65 11q53 -1 53 -24q0 -11 -16 -26z" />
    <glyph glyph-name="Acircumflex" unicode="&#xc2;" horiz-adv-x="734" 
d="M737 -87h-300l-70 130l-69 -130h-297l365 690zM515 619h-87l-64 108l-60 -108h-88q1 84 46 131q41 41 101 40q62 0 104 -42q47 -47 48 -129z" />
    <glyph glyph-name="Atilde" unicode="&#xc3;" horiz-adv-x="734" 
d="M737 -87h-300l-70 130l-69 -130h-297l365 690zM527 647l-61 -19q-27 -9 -49 -9q-34 0 -61.5 21t-54.5 21q-37 0 -40 -50h-69v113l54 19q22 8 45 8q34 0 64 -17q35 -21 64 -21q40 0 43 47h65v-113z" />
    <glyph glyph-name="Adieresis" unicode="&#xc4;" horiz-adv-x="734" 
d="M737 -87h-300l-70 130l-69 -130h-297l365 690zM522 693q0 -29 -20 -49t-48 -20t-48 20t-20 49t20 49t48 20t48 -20t20 -49zM338 693q0 -29 -20 -49t-48 -20t-48 20t-20 49t20 49t48 20t48 -20t20 -49z" />
    <glyph glyph-name="Aring" unicode="&#xc5;" horiz-adv-x="734" 
d="M737 -87h-300l-70 130l-69 -130h-297l365 690zM473 712q0 -43 -33 -71t-77 -28t-77 28t-33 71t33 71t77 28t77 -28t33 -71zM416 712q0 21 -16 34.5t-37 13.5t-37 -13.5t-16 -34.5t16 -34.5t37 -13.5t37 13.5t16 34.5z" />
    <glyph glyph-name="AE" unicode="&#xc6;" horiz-adv-x="1116" 
d="M1084 -87h-648l-70 130l-69 -130h-297l353 666h562v-179h-131v-106h-130v-105h280z" />
    <glyph glyph-name="Ccedilla" unicode="&#xc7;" horiz-adv-x="666" 
d="M621 489l-203 -186q-21 24 -53 24q-30 0 -51 -21.5t-21 -51.5t21 -51.5t51 -21.5q33 0 55 26l185 -214q-97 -69 -190 -82q39 -7 64 -28q29 -25 29 -63q0 -45 -37 -73q-45 -35 -129 -35q-39 0 -73 8l-30 68q43 -10 73 1q21 7 21 30q0 19 -13.5 27t-33.5 5l13 49q13 4 27 7
q-119 7 -214 102q-102 102 -102 246q0 141 103 239q100 96 259 99q86 1 157 -36q56 -30 92 -68z" />
    <glyph glyph-name="Egrave" unicode="&#xc8;" horiz-adv-x="728" 
d="M731 -87h-731v666h562v-179h-131v-106h-130v-105h280zM289 611l-154 140q-17 15 -17 26q0 23 54 24q37 1 64 -11q32 -13 35 -39z" />
    <glyph glyph-name="Eacute" unicode="&#xc9;" horiz-adv-x="728" 
d="M731 -87h-731v666h562v-179h-131v-106h-130v-105h280zM446 751l-155 -140l18 140q3 26 35 39q28 12 65 11q53 -1 53 -24q0 -11 -16 -26z" />
    <glyph glyph-name="Ecircumflex" unicode="&#xca;" horiz-adv-x="728" 
d="M731 -87h-731v666h562v-179h-131v-106h-130v-105h280zM434 619h-87l-64 108l-60 -108h-88q1 84 46 131q41 41 101 40q62 0 104 -42q47 -47 48 -129z" />
    <glyph glyph-name="Edieresis" unicode="&#xcb;" horiz-adv-x="728" 
d="M731 -87h-731v666h562v-179h-131v-106h-130v-105h280zM445 680q0 -29 -20 -49t-48 -20t-48 20t-20 49t20 49t48 20t48 -20t20 -49zM261 680q0 -29 -20 -49t-48 -20t-48 20t-20 49t20 49t48 20t48 -20t20 -49z" />
    <glyph glyph-name="Igrave" unicode="&#xcc;" horiz-adv-x="451" 
d="M340 -87h-301v666h301v-666zM211 611l-154 140q-17 15 -17 26q0 23 54 24q37 1 64 -11q32 -13 35 -39z" />
    <glyph glyph-name="Iacute" unicode="&#xcd;" horiz-adv-x="451" 
d="M340 -87h-301v666h301v-666zM323 751l-155 -140l18 140q3 26 35 39q28 12 65 11q53 -1 53 -24q0 -11 -16 -26z" />
    <glyph glyph-name="Icircumflex" unicode="&#xce;" horiz-adv-x="451" 
d="M340 -87h-301v666h301v-666zM339 619h-87l-64 108l-60 -108h-88q1 84 46 131q41 41 101 40q62 0 104 -42q47 -47 48 -129z" />
    <glyph glyph-name="Idieresis" unicode="&#xcf;" horiz-adv-x="451" 
d="M340 -87h-301v666h301v-666zM352 700q0 -29 -20 -49t-48 -20t-48 20t-20 49t20 49t48 20t48 -20t20 -49zM168 700q0 -29 -20 -49t-48 -20t-48 20t-20 49t20 49t48 20t48 -20t20 -49z" />
    <glyph glyph-name="Eth" unicode="&#xd0;" horiz-adv-x="750" 
d="M717 260q0 -135 -58 -239q-60 -108 -169 -108h-424v261h-66v141h66v264h424q106 0 171 -111q56 -95 56 -208zM499 244q0 44 -30 74.5t-73 30.5q-49 0 -75 -34h49l41 -141h-91q27 -35 76 -35q43 0 73 31t30 74z" />
    <glyph glyph-name="Ntilde" unicode="&#xd1;" horiz-adv-x="703" 
d="M631 579l-1 -665l-387 58v-59h-242v665l394 -58v59h236zM486 633l-61 -19q-27 -9 -49 -9q-34 0 -61.5 21t-54.5 21q-37 0 -40 -50h-69v113l54 19q22 8 45 8q34 0 64 -17q35 -21 64 -21q40 0 43 47h65v-113z" />
    <glyph glyph-name="Ograve" unicode="&#xd2;" horiz-adv-x="763" 
d="M696 249q0 -148 -95 -245t-243 -97q-80 0 -147 27q-77 30 -133 100q-70 89 -70 216q0 136 90.5 239.5t249.5 103.5q152 0 250 -96t98 -248zM533 405q0 30 -21 51.5t-51 21.5q-29 0 -50 -21.5t-21 -51.5t21 -51.5t50 -21.5q30 0 51 21.5t21 51.5zM347 611l-154 140
q-17 15 -17 26q0 23 54 24q37 1 64 -11q32 -13 35 -39z" />
    <glyph glyph-name="Oacute" unicode="&#xd3;" horiz-adv-x="763" 
d="M696 249q0 -148 -95 -245t-243 -97q-80 0 -147 27q-77 30 -133 100q-70 89 -70 216q0 136 90.5 239.5t249.5 103.5q152 0 250 -96t98 -248zM533 405q0 30 -21 51.5t-51 21.5q-29 0 -50 -21.5t-21 -51.5t21 -51.5t50 -21.5q30 0 51 21.5t21 51.5zM504 751l-155 -140
l18 140q3 26 35 39q28 12 65 11q53 -1 53 -24q0 -11 -16 -26z" />
    <glyph glyph-name="Ocircumflex" unicode="&#xd4;" horiz-adv-x="763" 
d="M696 249q0 -148 -95 -245t-243 -97q-80 0 -147 27q-77 30 -133 100q-70 89 -70 216q0 136 90.5 239.5t249.5 103.5q152 0 250 -96t98 -248zM533 405q0 30 -21 51.5t-51 21.5q-29 0 -50 -21.5t-21 -51.5t21 -51.5t50 -21.5q30 0 51 21.5t21 51.5zM495 619h-87l-64 108
l-60 -108h-88q1 84 46 131q41 41 101 40q62 0 104 -42q47 -47 48 -129z" />
    <glyph glyph-name="Otilde" unicode="&#xd5;" horiz-adv-x="763" 
d="M696 249q0 -148 -95 -245t-243 -97q-80 0 -147 27q-77 30 -133 100q-70 89 -70 216q0 136 90.5 239.5t249.5 103.5q152 0 250 -96t98 -248zM533 405q0 30 -21 51.5t-51 21.5q-29 0 -50 -21.5t-21 -51.5t21 -51.5t50 -21.5q30 0 51 21.5t21 51.5zM506 643l-61 -19
q-27 -9 -49 -9q-34 0 -61.5 21t-54.5 21q-37 0 -40 -50h-69v113l54 19q22 8 45 8q34 0 64 -17q35 -21 64 -21q40 0 43 47h65v-113z" />
    <glyph glyph-name="Odieresis" unicode="&#xd6;" horiz-adv-x="763" 
d="M696 249q0 -148 -95 -245t-243 -97q-80 0 -147 27q-77 30 -133 100q-70 89 -70 216q0 136 90.5 239.5t249.5 103.5q152 0 250 -96t98 -248zM533 405q0 30 -21 51.5t-51 21.5q-29 0 -50 -21.5t-21 -51.5t21 -51.5t50 -21.5q30 0 51 21.5t21 51.5zM505 700q0 -29 -20 -49
t-48 -20t-48 20t-20 49t20 49t48 20t48 -20t20 -49zM321 700q0 -29 -20 -49t-48 -20t-48 20t-20 49t20 49t48 20t48 -20t20 -49z" />
    <glyph glyph-name="multiply" unicode="&#xd7;" horiz-adv-x="622" 
d="M533 58l-89 -90l-151 128l-149 -127l-87 88l127 149l-128 149l90 90l150 -127l149 127l87 -88l-127 -149z" />
    <glyph glyph-name="Oslash" unicode="&#xd8;" horiz-adv-x="748" 
d="M697 550l-75 -80q75 -96 75 -221q0 -148 -95 -245t-243 -97q-81 0 -147 27q-33 12 -62 32l-69 -74q-14 -15 -32 -15t-33.5 16t-15.5 35q0 14 10 24l73 77l-4 5q-70 88 -70 216q0 136 90.5 239.5t249.5 103.5q126 0 211 -62l72 76q14 15 30 15t30.5 -11.5t14.5 -32.5
q0 -17 -10 -28zM597 301q0 59 -32 108l-260 -277q45 -28 98 -28q80 0 137 58t57 139zM502 470q-46 28 -99 28q-80 0 -136.5 -58t-56.5 -139q0 -58 30 -106z" />
    <glyph glyph-name="Ugrave" unicode="&#xd9;" horiz-adv-x="611" 
d="M541 120q0 -92 -79.5 -149.5t-191.5 -57.5q-103 0 -180 51q-89 58 -89 156v459h199v-65q0 -30 21 -51.5t51 -21.5q29 0 50 21.5t21 51.5v65h198v-459zM267 599l-154 140q-17 15 -17 26q0 23 54 24q37 1 64 -11q32 -13 35 -39z" />
    <glyph glyph-name="Uacute" unicode="&#xda;" horiz-adv-x="611" 
d="M541 120q0 -92 -79.5 -149.5t-191.5 -57.5q-103 0 -180 51q-89 58 -89 156v459h199v-65q0 -30 21 -51.5t51 -21.5q29 0 50 21.5t21 51.5v65h198v-459zM426 739l-155 -140l18 140q3 26 35 39q28 12 65 11q53 -1 53 -24q0 -11 -16 -26z" />
    <glyph glyph-name="Ucircumflex" unicode="&#xdb;" horiz-adv-x="611" 
d="M541 120q0 -92 -79.5 -149.5t-191.5 -57.5q-103 0 -180 51q-89 58 -89 156v459h199v-65q0 -30 21 -51.5t51 -21.5q29 0 50 21.5t21 51.5v65h198v-459zM420 619h-87l-64 108l-60 -108h-88q1 84 46 131q41 41 101 40q62 0 104 -42q47 -47 48 -129z" />
    <glyph glyph-name="Udieresis" unicode="&#xdc;" horiz-adv-x="611" 
d="M541 120q0 -92 -79.5 -149.5t-191.5 -57.5q-103 0 -180 51q-89 58 -89 156v459h199v-65q0 -30 21 -51.5t51 -21.5q29 0 50 21.5t21 51.5v65h198v-459zM431 680q0 -29 -20 -49t-48 -20t-48 20t-20 49t20 49t48 20t48 -20t20 -49zM247 680q0 -29 -20 -49t-48 -20t-48 20
t-20 49t20 49t48 20t48 -20t20 -49z" />
    <glyph glyph-name="Yacute" unicode="&#xdd;" horiz-adv-x="740" 
d="M738 579l-206 -383l-79 -283h-327l79 283l-203 383h297l69 -131l70 131h300zM523 740l-155 -140l18 140q3 26 35 39q28 12 65 11q53 -1 53 -24q0 -11 -16 -26z" />
    <glyph glyph-name="Thorn" unicode="&#xde;" horiz-adv-x="723" 
d="M658 283q-1 -65 -44 -130q-46 -71 -110 -88v-152h-503v786l348 1l1 -120q153 0 237 -92q73 -79 71 -205zM410 305q0 30 -21 51.5t-51 21.5t-51 -21.5t-21 -51.5t21 -51.5t51 -21.5t51 21.5t21 51.5z" />
    <glyph glyph-name="germandbls" unicode="&#xdf;" horiz-adv-x="664" 
d="M639 94q0 -78 -48 -141q-59 -77 -165 -77q-90 0 -147 56t-55 147h135q4 -23 24 -37.5t45 -13.5q64 3 62 75q-2 55 -71 82q-72 28 -72 97q0 25 13 88q2 10 2 18q0 63 -79 63q-84 -1 -84 -121l1 -401h-199v650h237q142 0 189 -12q98 -25 99 -115q0 -20 -12.5 -63t-12.5 -61
q0 -26 18 -38q61 -40 87 -78q33 -48 33 -118z" />
    <glyph glyph-name="agrave" unicode="&#xe0;" 
d="M405 78h-165l-39 72l-38 -72h-163l201 380zM200 472l-87 79q-9 8 -9 15q0 12 30 13q52 1 56 -28z" />
    <glyph glyph-name="aacute" unicode="&#xe1;" 
d="M405 78h-165l-39 72l-38 -72h-163l201 380zM289 550l-86 -78l10 78q3 29 56 28q30 0 30 -13q0 -6 -10 -15z" />
    <glyph glyph-name="acircumflex" unicode="&#xe2;" 
d="M405 78h-165l-39 72l-38 -72h-163l201 380zM289 447h-51l-37 63l-36 -63h-51q0 49 27 77q23 24 59 24q37 -1 61 -25q28 -28 28 -76z" />
    <glyph glyph-name="atilde" unicode="&#xe3;" 
d="M405 78h-165l-39 72l-38 -72h-163l201 380zM291 484l-34 -11q-37 -12 -62 7q-15 11 -30 11q-21 0 -23 -28h-38v63l30 11q32 12 61 -5q20 -12 36 -12q22 0 24 27h36v-63z" />
    <glyph glyph-name="adieresis" unicode="&#xe4;" 
d="M405 78h-165l-39 72l-38 -72h-163l201 380zM289 506q0 -16 -11 -27.5t-27 -11.5t-27 11.5t-11 27.5t11 27.5t27 11.5t27 -11.5t11 -27.5zM186 506q0 -16 -11 -27.5t-27 -11.5t-27 11.5t-11 27.5t11 27.5t27 11.5t27 -11.5t11 -27.5z" />
    <glyph glyph-name="aring" unicode="&#xe5;" 
d="M405 78h-165l-39 72l-38 -72h-163l201 380zM262 520q0 -24 -18.5 -40t-43.5 -16t-43.5 16t-18.5 40t18.5 39.5t43.5 15.5t43.5 -15.5t18.5 -39.5zM230 520q0 26 -30 26t-30 -26q0 -27 30 -27t30 27z" />
    <glyph glyph-name="ae" unicode="&#xe6;" horiz-adv-x="610" 
d="M608 75h-363l-39 72l-39 -72h-166l198 372h314v-100h-73v-59h-73v-59h157z" />
    <glyph glyph-name="ccedilla" unicode="&#xe7;" horiz-adv-x="361" 
d="M346 396l-113 -104q-12 13 -30 13q-17 0 -28.5 -12t-11.5 -28q0 -17 11.5 -29t28.5 -12q18 0 30 14l104 -120q-54 -38 -106 -46q52 -8 52 -51q0 -25 -21 -40q-25 -20 -72 -20q-22 0 -41 5l-17 38q24 -6 41 0q12 4 12 17q0 10 -7.5 15t-18.5 3l7 27q7 3 15 4
q-66 4 -120 57q-57 57 -57 138q0 79 57 133.5t146 55.5q48 1 88 -20q31 -17 51 -38z" />
    <glyph glyph-name="egrave" unicode="&#xe8;" horiz-adv-x="405" 
d="M403 79h-402v368h309v-98h-72v-58h-71v-59h154zM160 472l-87 79q-9 8 -9 15q0 12 30 13q52 1 56 -28z" />
    <glyph glyph-name="eacute" unicode="&#xe9;" horiz-adv-x="405" 
d="M403 79h-402v368h309v-98h-72v-58h-71v-59h154zM249 550l-86 -78l10 78q3 29 56 28q30 0 30 -13q0 -6 -10 -15z" />
    <glyph glyph-name="ecircumflex" unicode="&#xea;" horiz-adv-x="405" 
d="M403 79h-402v368h309v-98h-72v-58h-71v-59h154zM245 476h-51l-37 63l-36 -63h-51q0 49 27 77q23 24 59 24q37 -1 61 -25q28 -28 28 -76z" />
    <glyph glyph-name="edieresis" unicode="&#xeb;" horiz-adv-x="405" 
d="M403 79h-402v368h309v-98h-72v-58h-71v-59h154zM243 506q0 -16 -11 -27.5t-27 -11.5t-27 11.5t-11 27.5t11 27.5t27 11.5t27 -11.5t11 -27.5zM140 506q0 -16 -11 -27.5t-27 -11.5t-27 11.5t-11 27.5t11 27.5t27 11.5t27 -11.5t11 -27.5z" />
    <glyph glyph-name="igrave" unicode="&#xec;" horiz-adv-x="219" 
d="M181 79h-166v368h166v-368zM114 472l-87 79q-9 8 -9 15q0 12 30 13q52 1 56 -28z" />
    <glyph glyph-name="iacute" unicode="&#xed;" horiz-adv-x="227" 
d="M181 79h-166v368h166v-368zM179 550l-86 -78l10 78q3 29 56 28q30 0 30 -13q0 -6 -10 -15z" />
    <glyph glyph-name="icircumflex" unicode="&#xee;" horiz-adv-x="221" 
d="M181 79h-166v368h166v-368zM183 482h-49l-35 61l-34 -61h-49q1 48 26 73q22 24 56 23q35 0 58 -23q26 -27 27 -73z" />
    <glyph glyph-name="idieresis" unicode="&#xef;" horiz-adv-x="226" 
d="M181 79h-166v368h166v-368zM188 516q0 -16 -11 -27.5t-27 -11.5t-27 11.5t-11 27.5t11 27.5t27 11.5t27 -11.5t11 -27.5zM85 516q0 -16 -11 -27.5t-27 -11.5t-27 11.5t-11 27.5t11 27.5t27 11.5t27 -11.5t11 -27.5z" />
    <glyph glyph-name="eth" unicode="&#xf0;" horiz-adv-x="721" 
d="M701 578v-70l-87 -18l63 -326q3 -18 3 -36q0 -95 -86 -159q-94 -70 -254 -71q-172 -1 -264 77q-76 64 -76 158q0 79 49 138q68 81 215 92l-10 50l-111 -23l-1 69l100 21l-19 98h374l4 -21zM267 108q0 30 -21 51.5t-50 21.5q-30 0 -51 -21.5t-21 -51.5t21 -51.5t51 -21.5
q29 0 50 21.5t21 51.5z" />
    <glyph glyph-name="ntilde" unicode="&#xf1;" horiz-adv-x="382" 
d="M347 447v-381l-213 43v-30h-133v378l217 -43v33h129zM270 479l-34 -11q-37 -12 -62 7q-15 11 -30 11q-21 0 -23 -28h-38v63l30 11q32 12 61 -5q20 -12 36 -12q22 0 24 27h36v-63z" />
    <glyph glyph-name="ograve" unicode="&#xf2;" horiz-adv-x="406" 
d="M386 261q0 -83 -53.5 -137.5t-136.5 -54.5q-85 0 -140.5 53.5t-55.5 139.5q0 83 53.5 137.5t137.5 54.5q87 0 141 -53t54 -140zM240 264q0 16 -12 28.5t-28 12.5t-28 -12.5t-12 -28.5q0 -17 12 -29t28 -12t28 12t12 29zM191 472l-87 79q-9 8 -9 15q0 12 30 13
q52 1 56 -28z" />
    <glyph glyph-name="oacute" unicode="&#xf3;" horiz-adv-x="406" 
d="M386 261q0 -83 -53.5 -137.5t-136.5 -54.5q-85 0 -140.5 53.5t-55.5 139.5q0 83 53.5 137.5t137.5 54.5q87 0 141 -53t54 -140zM240 264q0 16 -12 28.5t-28 12.5t-28 -12.5t-12 -28.5q0 -17 12 -29t28 -12t28 12t12 29zM278 550l-86 -78l10 78q3 29 56 28q30 0 30 -13
q0 -6 -10 -15z" />
    <glyph glyph-name="ocircumflex" unicode="&#xf4;" horiz-adv-x="406" 
d="M386 261q0 -83 -53.5 -137.5t-136.5 -54.5q-85 0 -140.5 53.5t-55.5 139.5q0 83 53.5 137.5t137.5 54.5q87 0 141 -53t54 -140zM240 264q0 16 -12 28.5t-28 12.5t-28 -12.5t-12 -28.5q0 -17 12 -29t28 -12t28 12t12 29zM279 477h-51l-37 63l-36 -63h-51q0 49 27 77
q23 24 59 24q37 -1 61 -25q28 -28 28 -76z" />
    <glyph glyph-name="otilde" unicode="&#xf5;" horiz-adv-x="406" 
d="M386 261q0 -83 -53.5 -137.5t-136.5 -54.5q-85 0 -140.5 53.5t-55.5 139.5q0 83 53.5 137.5t137.5 54.5q87 0 141 -53t54 -140zM240 264q0 16 -12 28.5t-28 12.5t-28 -12.5t-12 -28.5q0 -17 12 -29t28 -12t28 12t12 29zM284 484l-34 -11q-37 -12 -62 7q-15 11 -30 11
q-21 0 -23 -28h-38v63l30 11q32 12 61 -5q20 -12 36 -12q22 0 24 27h36v-63z" />
    <glyph glyph-name="odieresis" unicode="&#xf6;" horiz-adv-x="406" 
d="M386 261q0 -83 -53.5 -137.5t-136.5 -54.5q-85 0 -140.5 53.5t-55.5 139.5q0 83 53.5 137.5t137.5 54.5q87 0 141 -53t54 -140zM240 264q0 16 -12 28.5t-28 12.5t-28 -12.5t-12 -28.5q0 -17 12 -29t28 -12t28 12t12 29zM278 506q0 -16 -11 -27.5t-27 -11.5t-27 11.5
t-11 27.5t11 27.5t27 11.5t27 -11.5t11 -27.5zM175 506q0 -16 -11 -27.5t-27 -11.5t-27 11.5t-11 27.5t11 27.5t27 11.5t27 -11.5t11 -27.5z" />
    <glyph glyph-name="divide" unicode="&#xf7;" horiz-adv-x="609" 
d="M350 422q0 -36 -25 -61.5t-60 -25.5t-60 25.5t-25 61.5q0 35 25 60.5t60 25.5t60 -25.5t25 -60.5zM536 155h-511v151h470zM350 40q0 -36 -25 -61.5t-60 -25.5t-60 25.5t-25 61.5q0 35 25 60.5t60 25.5t60 -25.5t25 -60.5z" />
    <glyph glyph-name="oslash" unicode="&#xf8;" horiz-adv-x="415" 
d="M392 431l-42 -45q42 -54 42 -124q0 -83 -53.5 -137t-135.5 -54q-69 0 -117 33l-39 -42q-8 -8 -18 -8q-14 0 -23 15q-10 16 1 27l41 43l-2 3q-39 49 -39 121q0 83 53.5 137.5t136.5 54.5q71 0 118 -35l41 43q15 16 34 1q7 -5 8 -16q0 -10 -6 -17zM336 291q0 34 -18 61
l-145 -155q25 -16 55 -16q44 0 76 32.5t32 77.5zM283 386q-26 16 -55 16q-45 0 -77 -32.5t-32 -78.5q0 -32 17 -59z" />
    <glyph glyph-name="ugrave" unicode="&#xf9;" horiz-adv-x="327" 
d="M297 181q0 -50 -44.5 -82t-104.5 -32q-61 1 -104.5 32t-43.5 82v266h109v-38q0 -17 11.5 -28.5t28.5 -11.5q16 0 27.5 11.5t11.5 28.5v38h109v-266zM148 472l-87 79q-9 8 -9 15q0 12 30 13q52 1 56 -28z" />
    <glyph glyph-name="uacute" unicode="&#xfa;" horiz-adv-x="327" 
d="M297 181q0 -50 -44.5 -82t-104.5 -32q-61 1 -104.5 32t-43.5 82v266h109v-38q0 -17 11.5 -28.5t28.5 -11.5q16 0 27.5 11.5t11.5 28.5v38h109v-266zM237 550l-86 -78l10 78q3 29 56 28q30 0 30 -13q0 -6 -10 -15z" />
    <glyph glyph-name="ucircumflex" unicode="&#xfb;" horiz-adv-x="327" 
d="M297 181q0 -50 -44.5 -82t-104.5 -32q-61 1 -104.5 32t-43.5 82v266h109v-38q0 -17 11.5 -28.5t28.5 -11.5q16 0 27.5 11.5t11.5 28.5v38h109v-266zM236 477h-51l-37 63l-36 -63h-51q0 49 27 77q23 24 59 24q37 -1 61 -25q28 -28 28 -76z" />
    <glyph glyph-name="udieresis" unicode="&#xfc;" horiz-adv-x="327" 
d="M297 181q0 -50 -44.5 -82t-104.5 -32q-61 1 -104.5 32t-43.5 82v266h109v-38q0 -17 11.5 -28.5t28.5 -11.5q16 0 27.5 11.5t11.5 28.5v38h109v-266zM237 506q0 -16 -11 -27.5t-27 -11.5t-27 11.5t-11 27.5t11 27.5t27 11.5t27 -11.5t11 -27.5zM134 506q0 -16 -11 -27.5
t-27 -11.5t-27 11.5t-11 27.5t11 27.5t27 11.5t27 -11.5t11 -27.5z" />
    <glyph glyph-name="yacute" unicode="&#xfd;" horiz-adv-x="412" 
d="M407 447l-114 -210l-44 -158h-180l45 158l-112 210h163l38 -72l39 72h165zM289 550l-86 -78l10 78q3 29 56 28q30 0 30 -13q0 -6 -10 -15z" />
    <glyph glyph-name="thorn" unicode="&#xfe;" horiz-adv-x="385" 
d="M367 291q0 -74 -55 -114q-47 -35 -115 -35v-67h-196v440h195v-67q170 0 171 -157zM230 295q0 17 -12 29t-28 12q-17 0 -28.5 -12t-11.5 -29t11.5 -29t28.5 -12q16 0 28 12t12 29z" />
    <glyph glyph-name="ydieresis" unicode="&#xff;" horiz-adv-x="412" 
d="M407 447l-114 -210l-44 -158h-180l45 158l-112 210h163l38 -72l39 72h165zM292 513q0 -15 -11 -26.5t-27 -11.5q-15 0 -26 11.5t-11 26.5q0 16 11 27.5t26 11.5q16 0 27 -11.5t11 -27.5zM190 513q0 -15 -10.5 -26.5t-26.5 -11.5q-15 0 -26 11.5t-11 26.5q0 16 11 27.5
t26 11.5q16 0 26.5 -11.5t10.5 -27.5z" />
    <glyph glyph-name="dotlessi" unicode="&#x131;" horiz-adv-x="232" 
d="M181 79h-166v368h166v-368z" />
    <glyph glyph-name="quotereversed" unicode="&#x201b;" horiz-adv-x="286" 
d="M262 596l-20 -228l-94 228q-7 16 -7 30q0 25 17.5 40t44.5 14q26 0 43 -20q20 -23 16 -64z" />
    <glyph glyph-name="glyph221" horiz-adv-x="195" 
 />
    <glyph glyph-name="glyph222" horiz-adv-x="195" 
 />
    </font>
</defs>
</svg>
